<?xml version="1.0" encoding="utf-8"?>
<!-- Generator: Adobe Illustrator 16.0.3, SVG Export Plug-In . SVG Version: 6.00 Build 0)  -->
<!DOCTYPE svg PUBLIC "-//W3C//DTD SVG 1.1//EN" "http://www.w3.org/Graphics/SVG/1.1/DTD/svg11.dtd">
<svg version="1.1" id="Capa_1" xmlns="http://www.w3.org/2000/svg" xmlns:xlink="http://www.w3.org/1999/xlink" x="0px" y="0px"
	 width="566.93px" height="566.93px" viewBox="0 0 566.93 566.93" enable-background="new 0 0 566.93 566.93" xml:space="preserve">
<g>
	<g>
		<path fill="none" stroke="#653333" stroke-linecap="round" stroke-linejoin="round" stroke-miterlimit="10" d="M138.415,331.244
			c33.253,79.955,28.406,137.8,29.41,153.604c1.113,17.508,0,41.384,0,41.384c-36.316-5.966-39.743,5.965-39.517,18.774
			c0.221,12.805,36.412,4.698,57.433,7.789c21.021,3.091,14.796-15.847,11.479-37.573c-3.316-21.726,4.962-106.432,5.797-110.372
			c0.84-3.945-16.389-53.324,0-41.264c16.394,12.07,73.001,4.122,73.001,4.122c84.61-29.582,88.33-5.711,88.33-5.711
			c15.659,84.102,131.666,112.494,131.666,112.494c0.782,12.737,2.549,42.843,2.549,42.843
			c-45.233-14.067-40.366,16.648-40.366,16.648s57.341-0.831,65.749-1.935c8.413-1.104,0-65.102,0-65.102
			c-15.089-3.561-33.849-36.411-33.849-36.411c13.836-36.014,3.939-110.853-13.063-137.565
			c-17.004-26.71-10.856-28.322-10.856-28.322c18.731-14.834,37.012-47.642,35.817-93.011c-1.2-45.37-31.057-65.262-56.938-71.235
			c-25.887-5.97,17.057,9.395,29.064,65.195c12.007,55.801-32.352,78.487-32.352,78.487c-59.822-36.594-141.256-1.209-210.792-4.891
			c-69.526-3.676-68.792-91.14-68.792-91.14c50.411-32.342,31.656-115.877,31.656-115.877
			c-37.78,10.169-63.748,57.382-63.748,57.382c-18.319-16.819-44.46-2.942-44.46-2.942c-6.225-52.391-50.162-73.339-50.162-73.339
			c-31.296,68.072,13.356,94.312,13.356,94.312s0.84,62.025-2.563,68.417c-3.398,6.393,2.203,9.19,2.203,9.19
			s5.323,42.833,35.702,27.975c30.374-14.856,44.138-38.643,44.138-38.643"/>
		<path fill="none" stroke="#653333" stroke-linecap="round" stroke-linejoin="round" stroke-miterlimit="10" d="M76.965,217.586
			c-1.349,73.005,29.218,125.493,29.218,125.493c6.258,9.041,14.014,24.658,19.053,32.586"/>
		<path fill="none" stroke="#653333" stroke-linecap="round" stroke-linejoin="round" stroke-miterlimit="10" d="M124.497,373.295
			c0,0,11.014,34.247,11.883,53.079s5.683,81.73-3.499,88.008c-9.181,6.277-31.478-7.649-27.096,35.73h22.907"/>
		<path fill="none" stroke="#653333" stroke-linecap="round" stroke-linejoin="round" stroke-miterlimit="10" d="M44.239,186.118"/>
		<g>
			<g>
				<path fill="#653333" d="M111.8,142.248c-2.981,3.307-1.897,7.713,2.093,9.539c4.515,2.066,4.855-4.565,4.899-7.152
					c0.065-3.885-3.498-5.905-7.041-4.584c-2.65,0.988-2.817,4.235-2.075,6.527c0.82,2.532,3.053,4.514,5.797,4.067
					c3.07-0.5,4.425-6.377,3.252-8.747c-1.308-2.641-6.863-4.251-8.104-0.623c-1.083,3.17,2.184,7.143,5.509,5.944
					c1.146-0.413,1.87-1.93,1.709-3.085c-0.254-1.831-1.703-2.594-3.464-2.564c-3.544,0.06-1.872,4.984,0.712,5.466
					c1.057,0.197,1.831-0.83,1.899-1.786c0.15-2.083-1.416-3.729-3.391-4.125c-4.108-0.823-4.349,4.286-2.711,6.599
					c1.683,2.378,5.817,2.713,6.833-0.426c1.022-3.159-0.28-7.042-3.888-7.525c-1.564-0.209-2.975,0.846-3.729,2.106
					c-0.971,1.622-0.121,3.365,0.794,4.762c1.441,2.201,5.683,5.42,7.465,1.764c1.263-2.591-0.099-8.086-3.208-8.92
					c-3.641-0.977-5.256,2.214-4.654,5.32c0.479,2.465,3.961,6.799,6.618,4.084c2.633-2.69,1.811-7.148-1.374-8.947
					c-3.155-1.782-6.387,1.083-5.771,4.463c0.632,3.461,4.29,5.89,7.607,4.259c3.637-1.788,2.571-7.182,0.006-9.317
					c-2.392-1.992-6.57-0.69-6.958,2.446c-0.35,2.832,2.737,6.895,5.616,7.15c3.272,0.29,3.072-3.769,2.507-5.936
					c-0.761-2.915-4.094-5.666-7.215-4.266c-3.909,1.752-2.442,6.557-0.284,9.116c2.547,3.02,6.807,3.617,8.584-0.399
					c1.433-3.239,0.128-7.744-3.419-8.83c-1.467-0.449-3.42,0.039-4.362,1.288c-1.362,1.807-1.024,3.594-0.042,5.487
					c1.679,3.238,5.74,2.647,7.279-0.277c1.548-2.938-0.444-8.107-3.563-9.268c-4.135-1.539-5.938,3.169-5.348,6.44
					c0.664,3.683,3.747,8.229,7.896,8.02c3.646-0.184,4.611-4.818,4.168-7.656c-0.619-3.961-4.646-6.489-8.456-5.769
					c-4.293,0.812-5.159,5.488-3.244,8.752c1.375,2.343,6.039,6.041,8.649,3.381c2.085-2.124-0.449-6.993-1.658-8.938
					c-3.156-5.079-9.336-0.565-7.735,4.386c1.33,4.112,7.2,8.762,10.147,3.551c2.396-4.235-0.081-11.178-4.892-12.208
					c-5.539-1.186-8.23,7.353-4.157,10.398c0.517,0.387,1.015-0.482,0.505-0.863c-1.535-1.148-1.61-3.234-1.265-4.944
					c0.442-2.19,1.977-3.53,4.204-3.677c3.415-0.226,5.032,3.843,5.293,6.548c0.238,2.474-0.518,6.788-3.909,6.064
					c-2.578-0.55-4.645-3.659-5.218-6.044c-0.553-2.295,1.498-4.762,3.823-4.379c1.475,0.243,2.316,1.548,2.955,2.74
					c0.777,1.448,2.921,6.112,0.559,7.104c-2.883,1.212-6.283-2.871-7.158-5.076c-1.584-3.992,2.924-6.618,6.327-5.683
					c3.057,0.84,4.52,4.009,4.354,6.944c-0.221,3.915-4.054,5.667-7.023,2.945c-1.992-1.826-3.286-4.792-3.371-7.463
					c-0.066-2.063,1.558-4.235,3.813-3.788c1.791,0.354,2.929,2.644,3.492,4.167c1.019,2.754-0.862,7.209-4.322,5.438
					c-1.829-0.937-2.472-3.698-1.575-5.388c1.409-2.655,4.874-1.173,6.035,0.697c1.556,2.505,0.825,7.827-2.804,7.857
					c-3.405,0.029-6.113-4.643-5.671-7.607c0.565-3.79,5.692-2.368,7.062-0.005c0.769,1.327,1.973,5.98-0.571,6.172
					c-2.381,0.18-4.379-3.126-4.904-5.035c-0.448-1.628,0.406-2.852,1.962-3.33c2.314-0.71,4.09,0.793,4.898,2.833
					c1.422,3.593-1.769,7.033-5.314,5.168c-3.617-1.902-2.722-8.837,1.96-6.809c2.738,1.186,3.802,7.557-0.087,7.842
					c-3.108,0.228-4.498-5.079-3.422-7.204c0.914-1.806,3.358-1.161,4.444-0.029c1.034,1.079,1.452,2.763,1.599,4.201
					c0.178,1.75-0.526,3.871-2.699,3.318c-1.534-0.39-2.792-2.004-3.608-3.249c-2.527-3.858,2.83-6.906,5.111-2.895
					c1.638,2.879-0.356,7.196-3.918,5.25c-1.365-0.746-2.068-2.64-1.863-4.103c0.227-1.617,2.272-2.107,3.623-1.522
					c1.686,0.73,1.673,4.718-0.306,3.027c-1.565-1.336,1.621-4.594,2.699-1.521c0.534,1.523-1.288,2.755-2.641,2.513
					c-2.236-0.399-3.453-3.869-2.087-5.532c1.459-1.776,4.592-0.265,5.611,1.156c0.735,1.025,0.372,2.862,0.126,3.964
					c-0.648,2.911-3.209,4.919-5.722,2.622c-1.292-1.182-1.874-3.083-1.83-4.787c0.08-3.095,3.476-3.729,5.867-2.715
					c2.523,1.072,1.71,6.019,1.236,8.079c-0.762,3.311-4.491,1.265-5.697-0.478c-1.298-1.875-0.56-4.242,0.835-5.79
					C112.938,142.477,112.232,141.768,111.8,142.248L111.8,142.248z"/>
			</g>
		</g>
		<g>
			<g>
				<path fill="#653333" d="M54.847,142.838c-2.981,3.304-1.904,7.71,2.083,9.541c4.52,2.075,4.865-4.567,4.906-7.154
					c0.062-3.882-3.498-5.906-7.041-4.584c-2.65,0.988-2.816,4.236-2.074,6.528c0.82,2.534,3.054,4.515,5.799,4.068
					c3.071-0.499,4.419-6.38,3.251-8.75c-1.306-2.648-6.859-4.24-8.103-0.619c-1.089,3.171,2.188,7.138,5.51,5.94
					c1.146-0.413,1.869-1.93,1.708-3.085c-0.256-1.83-1.705-2.595-3.466-2.564c-3.541,0.062-1.868,4.986,0.712,5.468
					c1.057,0.197,1.829-0.831,1.897-1.786c0.15-2.083-1.417-3.728-3.391-4.125c-4.106-0.826-4.34,4.29-2.707,6.598
					c1.683,2.377,5.817,2.717,6.831-0.424c1.02-3.159-0.282-7.044-3.889-7.528c-1.563-0.209-2.973,0.847-3.726,2.106
					c-0.97,1.623-0.121,3.366,0.794,4.763c1.439,2.198,5.686,5.421,7.464,1.763c1.261-2.594-0.103-8.085-3.215-8.917
					c-3.642-0.974-5.253,2.211-4.647,5.319c0.48,2.463,3.959,6.8,6.616,4.083c2.632-2.692,1.814-7.148-1.373-8.947
					c-3.155-1.781-6.383,1.085-5.77,4.463c0.629,3.464,4.288,5.891,7.606,4.26c3.64-1.788,2.573-7.185,0.005-9.32
					c-2.395-1.991-6.573-0.693-6.958,2.448c-0.348,2.834,2.739,6.893,5.62,7.149c3.272,0.291,3.071-3.77,2.505-5.936
					c-0.761-2.914-4.094-5.665-7.214-4.266c-3.911,1.753-2.446,6.557-0.286,9.117c2.546,3.016,6.812,3.618,8.585-0.401
					c1.429-3.238,0.127-7.743-3.418-8.83c-1.466-0.45-3.42,0.041-4.361,1.289c-1.363,1.808-1.023,3.594-0.044,5.489
					c1.675,3.242,5.738,2.642,7.276-0.279c1.547-2.938-0.443-8.104-3.562-9.266c-4.132-1.54-5.935,3.168-5.347,6.437
					c0.663,3.685,3.747,8.229,7.896,8.02c3.647-0.184,4.612-4.817,4.167-7.656c-0.621-3.958-4.646-6.487-8.455-5.768
					c-4.292,0.811-5.157,5.488-3.243,8.751c1.374,2.342,6.04,6.042,8.649,3.381c2.083-2.124-0.451-6.991-1.658-8.936
					c-3.153-5.081-9.336-0.564-7.734,4.386c1.329,4.108,7.199,8.765,10.143,3.552c2.394-4.24-0.073-11.178-4.892-12.208
					c-5.533-1.184-8.234,7.357-4.153,10.396c0.518,0.386,1.016-0.483,0.505-0.863c-1.539-1.146-1.615-3.232-1.268-4.942
					c0.444-2.187,1.977-3.529,4.202-3.676c3.417-0.226,5.036,3.84,5.296,6.547c0.238,2.472-0.521,6.789-3.909,6.064
					c-2.577-0.551-4.643-3.66-5.217-6.043c-0.553-2.296,1.498-4.763,3.824-4.379c1.475,0.244,2.314,1.548,2.953,2.74
					c0.776,1.447,2.921,6.11,0.561,7.103c-2.883,1.212-6.284-2.872-7.158-5.076c-1.583-3.991,2.922-6.617,6.324-5.682
					c3.056,0.84,4.52,4.009,4.355,6.943c-0.22,3.917-4.057,5.667-7.026,2.945c-1.994-1.828-3.283-4.785-3.367-7.463
					c-0.065-2.062,1.558-4.232,3.812-3.785c1.789,0.355,2.927,2.643,3.49,4.166c1.018,2.752-0.863,7.211-4.322,5.438
					c-1.827-0.937-2.465-3.702-1.57-5.388c1.409-2.656,4.871-1.176,6.032,0.695c1.555,2.506,0.829,7.826-2.802,7.858
					c-3.406,0.03-6.116-4.642-5.672-7.606c0.567-3.79,5.69-2.369,7.062-0.006c0.77,1.326,1.977,5.981-0.568,6.172
					c-2.382,0.179-4.381-3.124-4.908-5.033c-0.448-1.626,0.401-2.853,1.957-3.332c2.315-0.713,4.098,0.794,4.906,2.835
					c1.424,3.595-1.771,7.034-5.316,5.168c-3.615-1.902-2.718-8.837,1.961-6.811c2.739,1.186,3.8,7.556-0.088,7.843
					c-3.104,0.229-4.496-5.08-3.424-7.203c0.912-1.807,3.359-1.159,4.444-0.029c1.036,1.078,1.454,2.762,1.601,4.2
					c0.179,1.75-0.523,3.871-2.696,3.318c-1.533-0.389-2.792-2.003-3.608-3.249c-2.526-3.857,2.825-6.909,5.107-2.896
					c1.636,2.878-0.349,7.2-3.914,5.25c-1.365-0.746-2.068-2.64-1.863-4.103c0.227-1.616,2.265-2.107,3.617-1.521
					c1.684,0.73,1.677,4.719-0.301,3.028c-1.562-1.335,1.614-4.598,2.698-1.523c0.537,1.522-1.287,2.754-2.639,2.514
					c-2.24-0.397-3.453-3.865-2.087-5.528c1.458-1.776,4.59-0.27,5.61,1.151c0.734,1.023,0.369,2.865,0.124,3.965
					c-0.647,2.912-3.208,4.922-5.722,2.623c-1.293-1.183-1.875-3.083-1.831-4.788c0.079-3.095,3.473-3.731,5.864-2.715
					c2.523,1.072,1.715,6.018,1.241,8.078c-0.763,3.313-4.494,1.269-5.701-0.477c-1.297-1.876-0.558-4.243,0.839-5.791
					C55.985,143.067,55.28,142.358,54.847,142.838L54.847,142.838z"/>
			</g>
		</g>
		<g>
			<g>
				<path fill="#653333" d="M46.447,174.541c6.724,0.737,13.345-0.522,20.049-0.858c4.393-0.22,11.477,2.048,8.066,7.683
					c-2.159,3.566-7.441,4.664-10.887,6.514c-4.051,2.175-8.213,6.138-9.344,10.702c-0.155,0.626,0.809,0.892,0.964,0.266
					c1.545-6.232,7.777-9.698,13.201-12.106c3.706-1.645,8.028-3.99,7.973-8.613c-0.046-3.856-4.909-5.076-7.901-5.387
					c-3.187-0.332-6.529,0.286-9.694,0.595c-4.145,0.404-8.275,0.661-12.426,0.206C45.806,173.47,45.813,174.471,46.447,174.541
					L46.447,174.541z"/>
			</g>
		</g>
		<g>
			<g>
				<path fill="#653333" d="M45.219,176.574c-0.666,1.005-0.834,4.254,0.702,4.713c2.114,0.632,3.633-0.888,3.005-3.002
					c-0.077-0.26-0.348-0.424-0.615-0.349c-4.335,1.21,1.746,10.421,4.419,7.894c1.689-1.597,0.357-6.549-1.415-7.58
					c-3.207-1.866-2.913,3.101-2.569,4.768c0.519,2.511,1.402,6.592,4.029,7.808c1.778,0.823,2.692-1.277,2.995-2.64
					c0.492-2.22,0.138-12.277-4.456-9.875c-1.932,1.011-2.676,2.999-2.213,5.114c0.254,1.163,0.655,2.436,1.461,3.35
					c1.054,1.194,3.196,1.571,3.819,3.039c0.251,0.592,1.112,0.082,0.863-0.505c-0.414-0.976-1.129-1.392-2.075-1.836
					c-1.963-0.92-2.886-2.665-3.166-4.778c-0.313-2.358,2.298-5.132,3.881-2.52c1.317,2.172,2.054,7.614,0.096,9.638
					c-1.328,1.372-2.991-2.886-3.225-3.526c-0.482-1.319-0.867-2.672-1.151-4.047c-0.148-0.715-0.204-1.436-0.181-2.164
					c0.055-1.785,1.819-0.559,2.267,0.309c0.834,1.618,1.244,6.586-1.521,3.956c-0.818-0.778-3.787-4.829-1.593-5.441
					c-0.205-0.116-0.41-0.232-0.615-0.349c-1.118,2.058-1.823,2.298-2.114,0.723c-0.241-0.761-0.163-1.493,0.235-2.194
					C46.439,176.54,45.573,176.04,45.219,176.574L45.219,176.574z"/>
			</g>
		</g>
		<g>
			<g>
				<path fill="#653333" d="M55.166,197.165c-3.023-3.48-6.229-6.924-9.759-9.894c-1.848-1.554-6.861-5.731-2.501-7.293
					c2.235-0.8,4.833-0.69,7.174-0.796c1.722-0.078,3.375-0.373,5.071-0.654c1.615-0.269,15.871-2.703,15.464,0.143
					c-0.372,2.598-5.481,3.379-7.502,3.795c-3.702,0.761-7.141-0.282-10.539,1.886c-0.46,0.293-0.169,1.11,0.385,0.914
					c2.639-0.933,4.225-3.333,6.767-4.377c-0.205-0.205-0.41-0.41-0.615-0.615c-1.041,2.691-3.115,4.832-4.332,7.444
					c-0.229,0.493,0.367,1.037,0.785,0.606c1.57-1.619,3.019-3.355,4.78-4.775c0.502-0.405-0.21-1.108-0.707-0.707
					c-1.761,1.42-3.209,3.156-4.78,4.775c0.262,0.202,0.523,0.404,0.785,0.606c1.256-2.696,3.357-4.902,4.432-7.683
					c0.13-0.335-0.274-0.755-0.615-0.615c-2.545,1.044-4.154,3.453-6.767,4.377c0.128,0.304,0.257,0.609,0.385,0.914
					c2.762-1.762,5.768-1.546,8.899-1.52c1.317,0.011,2.885-0.572,4.138-0.923c2.297-0.644,5.605-1.887,5.524-4.753
					c-0.102-3.629-13.167-1.014-15.079-0.723c-2.46,0.375-4.842,0.817-7.335,0.924c-2.568,0.11-5.653,0.019-7.923,1.415
					c-1.91,1.174-1.205,3.68,0.016,5.106c1.866,2.182,4.235,3.838,6.261,5.862c2.362,2.36,4.689,4.747,6.879,7.269
					C54.882,198.36,55.586,197.649,55.166,197.165L55.166,197.165z"/>
			</g>
		</g>
		<g>
			<g>
				<path fill="#653333" d="M42.867,175.53c-4.732,0.248-4.427,4.518-2.822,7.918c0.254,0.538,1.026,0.142,0.914-0.385
					c-0.295-1.392-1.446-3.327-0.291-4.652c1.355-1.554,3.986-1.788,5.885-1.806c2.513-0.024,5.113,0.264,7.641,0.338
					c2.553,0.075,8.169,0.407,7.558,4.263c-0.357,2.25-2.97,3.746-3.837,5.835c-0.143,0.343,0.28,0.74,0.615,0.615
					c1.408-0.526,2.243-1.501,3.31-2.531c1.161-1.121,2.602-1.786,3.357-3.271c0.698-1.371,0.92-4.155-0.573-5.063
					c-0.553-0.336-1.055,0.529-0.505,0.863c1.685,1.025-0.07,4.35-0.949,5.135c-1.361,1.216-3.233,3.277-4.907,3.902
					c0.205,0.205,0.41,0.41,0.615,0.615c1.189-2.866,5-4.672,3.58-8.228c-1.08-2.708-5.248-2.955-7.664-3.109
					c-1.8-0.115-3.63,0.089-5.42-0.132c-2.244-0.278-4.408-0.344-6.598,0.277c-1.191,0.337-3.249,1.333-3.558,2.692
					c-0.356,1.567,0.454,3.007,0.775,4.521c0.304-0.128,0.609-0.257,0.914-0.385c-1.196-2.533-1.964-6.208,1.958-6.413
					C43.508,176.496,43.511,175.496,42.867,175.53L42.867,175.53z"/>
			</g>
		</g>
		<g>
			<g>
				<path fill="#653333" d="M40.773,182.398c-0.154,2.847,1.548,5.396,3.077,7.659c1.854,2.746,3.316,6.013,5.829,8.215
					c0.423,0.371,1.064-0.093,0.785-0.606c-2.42-4.438-4.868-8.857-7.564-13.135c-0.345-0.547-1.156-0.068-0.863,0.505
					c1.816,3.56,4.165,6.819,5.985,10.363c0.948,1.847,2.355,4.672,4.671,4.989c0.63,0.086,0.902-0.877,0.266-0.964
					c-2.263-0.31-3.568-3.52-4.486-5.34c-1.652-3.276-3.896-6.269-5.572-9.553c-0.288,0.168-0.576,0.336-0.863,0.505
					c2.696,4.278,5.144,8.697,7.564,13.135c0.262-0.202,0.523-0.404,0.785-0.606c-2.176-1.908-3.256-4.577-4.898-6.903
					c-1.684-2.386-3.88-5.194-3.714-8.264C41.808,181.754,40.808,181.757,40.773,182.398L40.773,182.398z"/>
			</g>
		</g>
		<g>
			<g>
				<path fill="#653333" d="M162.431,150.561c-0.09-9.462-2.041-18.806-2.197-28.292c-0.09-5.467,0.144-10.93,0.812-16.358
					c0.73-5.939,2.271-11.804,3.648-17.62c2.477-10.466,4.684-20.665,10.061-30.112c2.425-4.261,5.751-7.923,9.031-11.532
					c1.709-1.88,3.37-3.791,5.04-5.708c1.635-1.876,3.455-4.092,5.609-5.358c0.555-0.326,0.052-1.191-0.505-0.863
					c-3.903,2.294-6.708,6.681-9.686,9.999c-3.151,3.513-6.362,6.903-9.021,10.821c-6.245,9.204-8.504,19.995-11.047,30.615
					c-2.648,11.055-4.869,21.811-4.956,33.227c-0.041,5.388,0.214,10.752,0.819,16.104c0.566,5.01,1.345,10.025,1.393,15.076
					C161.437,151.205,162.437,151.206,162.431,150.561L162.431,150.561z"/>
			</g>
		</g>
		<path fill="none" stroke="#653333" stroke-linecap="round" stroke-linejoin="round" stroke-miterlimit="10" d="M323.914,357.284
			c0,0,14.254,6.402,23.17,20.551c8.917,14.147,51.438,102.069,137.129,100.141l5.149,28.262c0,0-42.579-7.366-37.002,21.03h9.771"
			/>
	</g>
	<g>
		<g>
			<path fill="#653333" d="M168.614,463.897c1.055,2.719,7.396,1.943,9.537,1.903c5.921-0.11,11.827-0.825,17.739-0.917
				c0.644-0.01,0.645-1.01,0-1c-4.85,0.075-9.72,0.569-14.571,0.804c-2.146,0.104-4.295,0.163-6.444,0.11
				c-1.083-0.026-4.785,0.151-5.297-1.166C169.347,463.037,168.38,463.296,168.614,463.897L168.614,463.897z"/>
		</g>
	</g>
	<g>
		<g>
			<path fill="#653333" d="M137.591,463.494c1.642,1.396,3.648,1.813,5.754,1.99c3.311,0.28,6.603,0.849,9.896,1.292
				c7.181,0.967,14.24,1.354,21.465,0.603c0.635-0.066,0.641-1.066,0-1c-6.236,0.647-12.445,0.562-18.663-0.233
				c-3.097-0.396-6.188-0.83-9.279-1.269c-2.812-0.399-6.187-0.15-8.466-2.09C137.81,462.372,137.099,463.076,137.591,463.494
				L137.591,463.494z"/>
		</g>
	</g>
	<g>
		<g>
			<path fill="#653333" d="M473.643,160.635c0.679-2.269,1.073-9.108,4.839-7.472c3.173,1.379,4.538,5.888,6.784,8.319
				c0.138,0.149,0.436,0.209,0.605,0.078c2.229-1.715,3.288-4.39,5.616-6.061c2.401-1.723,5.028-2.898,6.943-5.226
				c0.406-0.494-0.297-1.206-0.707-0.707c-2.871,3.488-7.399,4.73-10.087,8.461c-0.225,0.313-1.878,2.516-1.915,2.477
				c-0.652-0.707-1.159-1.586-1.688-2.385c-1.034-1.564-2.072-3.118-3.352-4.494c-1.463-1.573-3.833-2.548-5.49-0.753
				c-1.775,1.923-1.801,5.116-2.514,7.497C472.493,160.988,473.458,161.251,473.643,160.635L473.643,160.635z"/>
		</g>
	</g>
	<g>
		<g>
			<path fill="#653333" d="M484.018,481.554c3.393,3.688,10.61,1.469,14.816,0.748c0.635-0.109,0.365-1.072-0.266-0.965
				c-3.782,0.648-10.797,2.823-13.844-0.49C484.287,480.371,483.582,481.08,484.018,481.554L484.018,481.554z"/>
		</g>
	</g>
	<g>
		<g>
			<path fill="#653333" d="M486.242,482.319c12.63,0.814,25.629,1.479,38.139-0.637c0.635-0.107,0.365-1.071-0.266-0.965
				c-12.402,2.099-25.351,1.409-37.873,0.602C485.598,481.277,485.602,482.278,486.242,482.319L486.242,482.319z"/>
		</g>
	</g>
	<g>
		<g>
			<path fill="#653333" d="M103.711,82.591c-0.917,2.159-2.375,3.922-3.823,5.746c-1.299,1.637-2.258,3.457-3.161,5.337
				c-1.948,4.054-3.405,8.528-4.19,12.952c-0.797,4.491-0.892,9.211-1.188,13.757c-0.31,4.754-0.73,9.511,0.198,14.224
				c0.857,4.347,2.706,8.493,4.546,12.497c2.291,4.984,4.207,10.04,6.131,15.173c1.745,4.654,3.49,9.278,5.075,13.993
				c1.695,5.043,2.845,9.896,3.761,15.131c0.111,0.634,1.074,0.365,0.964-0.266c-0.803-4.587-1.677-8.903-3.157-13.329
				c-1.578-4.718-3.145-9.428-5.001-14.043c-1.654-4.111-2.969-8.354-4.724-12.426c-1.955-4.539-4.228-8.892-5.735-13.618
				c-1.448-4.54-1.566-9.081-1.297-13.795c0.274-4.806,0.612-9.638,1.054-14.431c0.487-5.281,2.236-10.508,4.425-15.314
				c1.839-4.04,5.265-7.034,6.984-11.083C104.824,82.509,103.963,81.999,103.711,82.591L103.711,82.591z"/>
		</g>
	</g>
	<g>
		<g>
			<path fill="#653333" d="M84.666,86.248c-0.923,3.9-1.876,7.744-2.696,11.679c-0.859,4.125-1.151,8.383-1.36,12.585
				c-0.44,8.852,0.042,17.699-0.825,26.538c-0.857,8.743-3.404,16.866-8.938,23.789c-1.206,1.508-2.262,3.138-3.511,4.607
				c-1.39,1.635-3.007,2.563-4.789,3.681c-4.029,2.526-7.698,5.618-11.457,8.518c-0.503,0.388-0.006,1.257,0.505,0.863
				c3.525-2.72,6.984-5.527,10.682-8.014c1.399-0.941,2.901-1.627,4.2-2.712c1.453-1.213,2.541-2.811,3.618-4.342
				c2.454-3.489,4.947-6.441,6.733-10.373c1.618-3.56,2.79-7.338,3.331-11.212c1.279-9.153,1.193-18.265,1.33-27.482
				c0.076-5.126,0.471-10.243,1.243-15.312c0.651-4.274,1.909-8.364,2.899-12.548C85.778,85.886,84.814,85.62,84.666,86.248
				L84.666,86.248z"/>
		</g>
	</g>
	<g>
		<g>
			<path fill="#653333" d="M166.801,189.811c0.866,14.854-7.184,28.624-15.065,40.61c-8.103,12.322-14.406,25.514-18.474,39.698
				c-4.184,14.588-8.597,29.238-12.011,44.029c-1.651,7.152-2.957,14.48-3.868,21.764c-1.014,8.104-1.059,16.257-1.06,24.411
				c0,0.645,1,0.645,1,0c0-7.826,0.042-15.65,0.938-23.435c0.937-8.134,2.498-16.299,4.372-24.267
				c1.679-7.136,3.732-14.18,5.758-21.224c2.185-7.598,4.152-15.258,6.367-22.848c4.299-14.734,11.58-27.623,19.711-40.512
				c7.193-11.402,14.144-24.324,13.333-38.227C167.763,189.17,166.763,189.167,166.801,189.811L166.801,189.811z"/>
		</g>
	</g>
	<path fill="#653333" d="M197.229,509.621c-1.55-13.404-0.509-27.077,0.614-40.462c0.115-1.387-1.209-2.396-2.458-2.457
		c-0.902-0.049-1.881-0.159-2.894-0.293c-0.753-0.864-2.088-1.008-3.101-0.456c-5.582-0.878-11.849-1.896-16.293,0.283
		c-1.363-0.269-2.88,0.509-2.889,2.256c-0.634,0.738-1.2,1.583-1.646,2.635c-2.313,5.456-0.158,13.452-0.158,19.191v31.09
		c-14.21-0.178-29.462,2.27-38.763,13.615c-1.622,1.978,0.058,4.324,2.044,4.084c-1.138,2.674-1.162,5.563,0.869,8.476
		c2.74,3.936,9.022,4.156,13.27,4.482c4.838,0.369,11.034-1.257,15.723-1.862c6.896-0.893,13.49,0.288,20.315,1.104
		c11.288,1.353,19.777-0.499,19.912-13.208C201.87,528.631,198.304,518.961,197.229,509.621z M149.107,537.523
		c-0.379,0.105-0.681,0.327-0.955,0.591c-0.513-0.571-1.219-0.772-1.915-0.715c0.014-0.034,0.024-0.067,0.038-0.097
		c0.773-0.7,0.874-1.535,0.639-2.274c0.768,0,1.531-0.01,2.289-0.02C149.059,535.786,149.03,536.631,149.107,537.523z
		 M193.951,527.954c-0.307-3.849-0.629-7.702-0.97-11.552l-0.115-2.788c0.744,4.794,1.757,9.541,2.606,14.312
		C194.968,527.771,194.44,527.791,193.951,527.954z"/>
	<path fill="#653333" d="M83.195,79.686c0.652-0.859,0.763-2.008-0.332-2.908c-0.331-0.271-0.676-0.542-1.012-0.813
		c-0.077-1.934-0.538-3.813-1.224-5.639c0.831-0.761,1.31-2.081,0.826-3.22c-1.81-4.248-3.95-8.224-6.301-12.084
		c0.125-0.545,0.067-1.128-0.279-1.675c-5.831-9.27-12.751-17.544-20.128-25.623c-0.619-0.677-1.42-0.797-2.169-0.614
		c-0.475-0.595-0.945-1.183-1.416-1.781c-0.912-1.044-2.021-0.962-2.855-0.375c-0.024-0.021-0.048-0.045-0.072-0.067
		c-1.934-1.898-3.936-3.748-6.047-5.541c-0.36-0.305-0.739-0.454-1.123-0.538c-1.498-1.224-3.053-2.397-4.761-3.434
		c-2.534-1.538-4.66,1.805-2.975,3.859c0.115,0.142,0.25,0.261,0.369,0.403c-0.048,0.075-0.115,0.123-0.153,0.207
		c-1.814,3.885-3.148,8.034-3.95,12.281c-0.523,0.276-0.941,0.749-1.089,1.468c-1.306,6.35-1.915,12.785-1.857,19.202
		c-0.019,0.202-0.034,0.408-0.053,0.612c-0.115,1.25-0.159,2.515-0.211,3.772c-0.134,2.124-0.316,4.238-0.355,6.38
		c-0.015,0.698,0.24,1.212,0.6,1.603c-0.432,12.296,4.233,23.099,12.084,32.44c0.375,0.446,0.821,0.657,1.272,0.732
		c1.387,1.78,3.086,3.031,5.524,3.801c-0.182,0.871-0.307,1.764-0.336,2.702c-0.048,1.716,1.363,2.467,2.688,2.325
		c0.139,0.204,0.235,0.42,0.422,0.609c0.864,0.874,1.91,0.876,2.74,0.432c1.262,0.533,2.836,0.199,3.163-1.517
		c0.773-4.046,5.865-8.202,8.601-11.096c5.692-6.03,13.106-8.564,20.79-11.118C86.021,83.659,85.801,79.851,83.195,79.686z"/>
	<path fill="#653333" d="M496.277,143.777h-0.004c0.014-0.233,0.081-0.408,0.091-0.653c0.053-1.67-1.483-2.527-2.846-2.368
		c-0.629-1.075-1.378-2.162-2.188-3.245c0.269-0.552,0.316-1.173,0.096-1.769c-0.01-0.021-0.02-0.041-0.024-0.062
		c-0.053-0.127-0.076-0.257-0.158-0.379c-1.382-2.068-2.898-4.024-4.435-5.963c1.9-0.12,3.278-2.419,1.656-4.106
		c-6.22-6.464-13.366-11.749-20.339-17.347c-1.238-0.993-2.621-0.734-3.437,0.079c-3.163-2.188-6.488-4.137-10.213-5.498
		c-0.84-0.307-1.642-0.024-2.222,0.519c-2.06-1.272-4.094-2.582-6.167-3.861c-2.361-1.457-4.401,1.447-3.244,3.412
		c-1.421,0.581-2.188,2.601-0.927,4.036c2.86,3.254,6.177,6.347,9.286,9.596c2.765,4.934,6.066,9.521,9.642,14.054
		c1.546,2.716,3.139,5.399,4.617,8.159c0.446,0.831,1.238,1.149,2.045,1.138c0.028,0.074,0.043,0.144,0.071,0.221
		c-0.522,0.54-0.811,1.308-0.57,2.241c0.806,3.098,1.823,5.994,2.989,8.972c0.864,2.208,3.911,2.277,4.655,0.25
		c2.271,1.956,4.387,3.314,7.232,4.458c0.115,0.048,0.221,0.045,0.331,0.072c0.734,1.13,2.15,1.555,3.354,0.876
		c1.536-0.864,2.842-2.033,4.022-3.316c0.063-0.017,0.115-0.002,0.182-0.024c0.226-0.074,0.37-0.175,0.581-0.254
		c0.005,0.002,0.005,0.005,0.005,0.007c0.01-0.005,0.015-0.012,0.024-0.017c3.671-1.375,5.168-3.475,5.197-5.975
		c0.351-0.919,0.576-1.963,0.672-3.139C496.264,143.854,496.269,143.815,496.277,143.777z"/>
	<path fill="#653333" d="M496.148,485.615c-0.13-1.934-1.968-2.956-3.695-2.121c-2.611,1.263-3.523,3-3.748,5.011
		c-0.663,0.499-1.052,1.344-0.744,2.477c0.484,1.785,0.863,3.59,1.344,5.375c0.134,0.489,0.412,0.835,0.744,1.113
		c0.187,0.729,0.384,1.459,0.527,2.198c-0.24,2.524-0.432,5.049-0.47,7.563c-4.637-0.173-9.258-0.451-13.899-0.538
		c-0.652-0.01-1.132,0.207-1.512,0.509c-1.074,0.153-2.145,0.375-3.205,0.634c-0.38-0.278-0.826-0.471-1.335-0.471h-2.688
		c-0.888,0-1.497,0.403-1.886,0.955c-1.396,0.476-2.62,1.104-3.758,1.81c-1.195-0.988-3.441-0.883-4.123,1.056
		c-0.278,0.797-0.484,1.536-0.686,2.284c-3.576,1.651-4.022,6.023-3.437,10.473c0.326,2.505,4.242,3.628,4.828,0.652
		c0.413-2.111,1.003-3.906,1.785-5.471c0.936-0.706,1.444-1.604,2.001-2.679c0.063-0.119,0.044-0.249,0.087-0.374
		c0.148-0.153,0.321-0.288,0.479-0.441c0.216,0,0.428,0,0.653-0.077c4.856-1.68,9.766-3.801,14.906-3.71
		c1.31,0.159,2.62,0.322,3.94,0.438c0.552,0.048,0.988-0.125,1.357-0.384c2.218,0.105,4.439,0.172,6.661,0.254
		c0.02,0.188,0.015,0.379,0.039,0.566c0.288,2.515,3.057,3.239,4.578,1.238c0.331-0.437,0.389-0.94,0.494-1.464
		c0.067-0.331,0.048-0.634,0-0.922c0.441-0.451,0.716-1.075,0.759-1.747c0.23-3.656,0.005-7.15-0.619-10.587
		C495.961,494.682,496.45,490.117,496.148,485.615z"/>
	<path fill="#653333" d="M498.077,375.368c-1.247-5.745-2.683-11.441-4.209-17.114c0.639-0.537,1.057-1.349,0.85-2.386
		c-1.838-8.998-3.604-48.623-16.845-51.485c0.562-0.211,1.094-0.446,1.68-0.627c3.019-0.933,1.728-5.677-1.306-4.736
		c-36.565,11.319-29.645,70.019,2.179,78.988c1.042,0.619,2.068,1.247,3.201,1.728c1.008,0.422,1.857,0,2.404-0.72
		c3.244,0.287,6.676,0.139,10.328-0.624C497.723,378.104,498.347,376.611,498.077,375.368z"/>
	<path fill="#653333" d="M416.059,232.992c-3.829-4.084-10.347-4.223-15.746-4.631c-13.073-0.983-26.084-1.487-39.195-1.231
		c-16.596,0.329-32.98,4.279-49.456,5.913c-0.475,0.048-0.873,0.257-1.229,0.523h-2.438c-1.556,0-2.371,1.245-2.361,2.486
		c-0.029-0.017-0.048-0.036-0.072-0.053c-0.609-0.403-1.329-0.348-1.986-0.105c-0.067-0.05-0.154-0.089-0.23-0.134
		c-0.27-0.504-0.754-0.905-1.512-1.056c-0.438-0.089-0.874-0.175-1.311-0.261c-0.701-0.14-1.329,0.019-1.843,0.338
		c-1.612-2.479-5.62-0.084-4.118,2.628c13.793,24.978,35.961,43.361,65.265,44.822c27.227,1.355,59.496-17.76,60.341-47.407
		C420.229,232.605,417.445,231.797,416.059,232.992z"/>
</g>
</svg>
