<?xml version="1.0" encoding="utf-8"?>
<!-- Generator: Adobe Illustrator 16.0.3, SVG Export Plug-In . SVG Version: 6.00 Build 0)  -->
<!DOCTYPE svg PUBLIC "-//W3C//DTD SVG 1.1//EN" "http://www.w3.org/Graphics/SVG/1.1/DTD/svg11.dtd">
<svg version="1.1" id="Capa_1" xmlns="http://www.w3.org/2000/svg" xmlns:xlink="http://www.w3.org/1999/xlink" x="0px" y="0px"
	 width="566.93px" height="566.93px" viewBox="0 0 566.93 566.93" enable-background="new 0 0 566.93 566.93" xml:space="preserve">
<g>
	<path fill="#653333" d="M245.604,58.917c-0.135-0.121-0.281-0.227-0.427-0.333c-0.099-0.126-0.195-0.259-0.3-0.365
		c-1.814-1.845-4.854-1.878-6.883-0.271c-1.965,1.555-2.463,4.22-0.669,6.039c0.889,0.904,2.091,1.425,3.331,1.526
		c0.432,0.241,0.937,0.409,1.522,0.464c1.938,0.184,3.845-0.911,4.598-2.468C247.54,61.93,246.942,60.109,245.604,58.917z"/>
	<path fill="#653333" d="M310.023,60.714c-0.084-0.632-0.381-1.218-0.811-1.724c-0.482-1.405-1.498-2.63-3.099-2.947
		c-1.432-0.282-3.092,0.335-3.869,1.375c-0.465-0.118-1.014-0.024-1.321,0.39c-1.811,2.435-0.654,6.198,2.632,7.117
		C306.57,65.768,310.409,63.692,310.023,60.714z"/>
	<path fill="#653333" d="M236.318,47.297c-3.327,0.175-5.725,3.171-5.667,5.94c0.012,0.595,0.999,0.585,1.039,0
		c0.18-2.53,2.25-4.07,4.802-4.809C237.159,48.235,237.089,47.256,236.318,47.297z"/>
	<path fill="#653333" d="M307.744,43.371c-1.307-0.345-1.884,1.506-0.563,1.799c3.223,0.717,5.655,3.35,5.831,6.277
		c0.041,0.721,1.225,0.721,1.271,0C314.528,47.682,311.813,44.444,307.744,43.371z"/>
	<path fill="#653333" d="M404.185,372.08c0.213-0.095,0.414-0.223,0.583-0.421c30.053-35.381,20.421-85.373-20.779-110.319
		c-1.178-0.712-2.73,0.694-1.957,1.726c10.081,13.476,18.078,28.251,21.182,44.27c3.212,16.581,2.48,42.467-13.818,54.085
		c-4.165-1.706-8.815-2.785-13.958-3.073c-18.121-1.012-34.687,9.664-39.442,24.557c0.41-8.124,0.59-16.262,0.443-24.415
		c-1.032-57.865-26.795-113.046-25.718-170.956c5.238-1.6,9.872-3.964,13.257-7.499c6.319-6.599,8.57-16.054,9.488-25.453
		c0.303-0.008,0.621-0.109,0.908-0.373c13.401-12.249,25.136-26.4,35.947-40.467c9.353-12.166,16.023-24,7.489-38.017
		c-9.467-15.548-22.042-30.44-34.245-44.393c-5.523-6.311-16.657-14.317-24.445-5.948c-18.331-26.712-65.609-15.501-86.557,3.306
		c-0.013-0.008-0.029-0.01-0.041-0.018c-7.865-12.187-25.933-3.035-34.446,3.576c-13.461,10.449-33.23,24.787-32.519,42.221
		c0.363,8.92,4.647,17.976,8.094,26.248c3.95,9.483,8.52,18.774,13.677,27.794c5.094,8.911,10.747,17.606,17.005,25.924
		c3.518,4.674,7.252,9.543,13.628,10.336c0.08,1.501,0.158,3,0.251,4.501c0.333,5.304,0.554,11.485,4.717,15.732
		c2.013,2.053,4.61,3.22,7.426,3.945c-0.002,32.614,3.1,64.293-2.886,96.769c-5.13,27.817-13.666,55.168-16.352,83.32
		c-0.333,3.494-0.534,6.968-0.613,10.421c-10.063-13.139-27.659-26.431-46.098-19.778c-22.282,8.042-23.762,32.095-18.659,49.786
		c3.321,11.507,8.458,22.247,14.758,32.472c-0.246,0.407,0.102,0.842,0.561,0.89c18.521,29.651,46.758,54.997,68.922,82.186
		c-7.695,0.418-16.595,2.856-20.776,8.473c-3.61,4.851-3.985,12.097,2.084,15.442c0.577,0.319,1.186-0.401,0.718-0.821
		c-5.393-4.83-3.255-12.682,2.604-16.429c5.799-3.71,12.675-3.418,19.308-4.75c1.284-0.258,0.948-1.934-0.302-1.971
		c-0.042,0-0.086,0-0.129,0c-0.026-0.191-0.096-0.389-0.259-0.591c-22.665-27.976-50.729-53.058-69.546-83.324
		c11.746-9.721,17.662-23.677,20.208-37.49c2.354-12.773,4.809-28.688-0.296-41.325c1.851,0.568,3.682,1.293,5.468,2.216
		c8.791,4.544,14.778,11.692,21.414,18.269c-0.026,22.709,5.1,44.605,12.506,66.639c9.415,28.006,20.787,55.72,22.417,85.167
		c0.008,0.155,0.064,0.276,0.115,0.404c-7.024,0.679-11.977,8.553-10.071,14.396c-2.644,2.283-7.919,2.523-10.024-0.499
		c-1.08-1.55-0.785-3.522,0.213-5.042c1.126-1.72,2.793-2.376,4.881-2.854c1.3-0.299,0.891-1.827-0.298-1.939
		c-6.02-0.573-9.822,6.809-6.962,10.951c2.727,3.951,9.621,4.347,12.929,0.972c0.671,1.11,1.62,2.108,2.959,2.887
		c3.782,2.201,7.971,1.612,10.964-0.329c0.039,0.078,0.092,0.152,0.185,0.214c2.896,1.917,6.862,1.96,9.729,0.21
		c0.069,0.119,0.183,0.227,0.357,0.29c3.218,1.166,6.939,0.328,9.054-1.999c0.669,1.104,2.635,0.706,3.707-0.037
		c1.915-1.323,3.105-3.686,3.635-5.985c4.77-0.088,9.546-0.21,14.315,0.054c-0.126,2.766,1.358,5.518,4.945,6.813
		c0.063,0.022,0.117-0.002,0.178-0.005c1.907,3.196,6.735,4.499,10.58,3.919c0.481-0.072,0.701-0.377,0.729-0.715
		c2.192,1.143,5.063,1.271,7.234,0.019c0.072-0.043,0.126-0.097,0.177-0.152c2.51,1.458,5.819,1.88,8.834,0.234
		c2.555-1.396,4.008-3.277,4.619-5.304c4.451,1.928,10.184,1.919,13.92-0.823c-0.06,0.377,0.166,0.768,0.713,0.723
		c4.927-0.412,10.936-2.814,12.514-7.265c-0.005,0.455,0.604,0.839,1.185,0.616c6.504-2.514,5.873-10.778,2.22-15.051
		c-4.23-4.946-11.512-5.646-18.068-4.471c20.348-18.337,39.659-38.979,54.506-61.009c13.463-19.984,23.238-43.097,19.865-66.682
		C413.933,387.915,410.236,379.033,404.185,372.08z M180.796,405.739c-2.726,12.845-8.436,24.104-17.997,33.891
		c-1.456-2.392-2.87-4.808-4.201-7.268c-9.982-18.457-21.066-46.084-3.311-63.573c6.784-6.679,15.99-9.127,25.03-7.396
		C186.416,373.986,183.557,392.733,180.796,405.739z M407.103,315.079c-1.451-17.009-8.608-32.975-18.462-47.476
		c34.586,25.218,40.894,70.109,13.66,102.454c-3.271-3.286-7.136-6.043-11.59-8.061
		C406.249,353.055,408.347,329.654,407.103,315.079z M333.367,358.488c0.051,2.913,0.049,5.823,0.018,8.73
		c-23.994-23.633-40.8-51.985-48.955-82.913c-8.347-31.661-5.619-62.01,1.913-93.458c7.024-0.27,14.534-0.84,21.304-2.481
		C306.827,245.986,332.341,300.901,333.367,358.488z M320.299,26.904c12.986-10.977,28.986,15.687,34.852,23.123
		c7.824,9.914,19.493,21.667,23.089,33.492c4.14,13.611-8.641,26.685-17.026,37.001c-8.607,10.587-18.137,20.402-27.449,30.475
		c0.332-4.987,0.385-9.852,0.564-14.149c0.604-14.53-0.037-29.074-1.422-43.56c0.666-0.239,1.107-0.851,0.556-1.5
		c-0.248-0.291-0.521-0.569-0.788-0.85c-0.457-4.512-0.975-9.021-1.559-13.518c-1.167-9.013-2.553-18.005-4.062-26.977
		c-1.254-7.472-2.323-15.266-6.123-22.139c-0.25-0.453-0.531-0.868-0.798-1.303C320.189,26.967,320.244,26.95,320.299,26.904z
		 M318.278,29.668c3.388,6.209,4.423,13.284,5.565,20.019c1.566,9.223,3.003,18.466,4.202,27.731
		c0.459,3.538,0.876,7.081,1.257,10.627c-6.177-4.355-14.882-6.246-22.106-2.885c-0.05,0.022-0.074,0.051-0.114,0.077
		c-1.824-6.211-7.971-9.452-15.153-11.107c1.338-9.477,0.667-19.301,0.687-28.831c0.019-10.69,0.937-21.757-0.313-32.39
		c-0.012-0.099-0.051-0.176-0.084-0.259C303.067,14.134,312.583,19.228,318.278,29.668z M301.582,96.416
		c-3.867,5.347-10.942,9.194-18.004,11.842c0.828-3.213,2.205-6.171,4.823-8.688c1.412-1.358,3.072-2.509,4.925-3.369
		c0.356-0.167,9.53-3.041,8.302-0.47C301.526,95.94,301.521,96.183,301.582,96.416z M293.423,93.485
		c-6.674,2.585-12.324,8.854-11.853,15.493c-2.722,0.938-5.394,1.7-7.833,2.304c-0.002-0.005-0.002-0.012-0.005-0.018
		c-0.275-0.954-1.868-0.794-2.004,0.12c-2.29-0.58-4.692-1.162-7.155-1.81c0.439-0.209,0.745-0.616,0.548-1.12
		c-2.102-5.394-6.619-11.213-12.765-13.537c-3.103-1.171-8.8-1.204-11.257,1.23C231.314,79.6,256.778,75.71,269.26,75.311
		c9.709-0.31,36.444-0.567,35.27,13.452c-0.127,1.528-0.5,2.967-1.069,4.328c-0.11-0.093-0.21-0.19-0.341-0.276
		C300.575,91.129,295.936,92.513,293.423,93.485z M262.943,109.133c-7.742-2.13-15.56-5.033-20.154-10.569
		c0.965-0.671,1.896-1.366,3.151-1.654c3.146-0.721,6.29,0.686,8.653,2.393C258.266,101.951,260.737,105.486,262.943,109.133z
		 M290.296,12.425c-0.096,0.135-0.173,0.288-0.195,0.485c-1.25,10.638-0.332,21.694-0.313,32.39
		c0.017,9.421-0.633,19.136,0.647,28.512c-7.345-1.452-15.509-1.396-21.175-1.22c-3.794,0.118-8.332,0.406-12.812,1.151
		c0.863-9.029,0.634-18.174,0.715-27.228c0.082-9.005,0.994-18.39-0.159-27.336c-0.083-0.649-0.61-0.972-1.138-0.97
		C266.863,13.86,279.187,11.35,290.296,12.425z M233.066,31.48c5.633-4.851,13.379-9.448,21.987-12.942
		c-0.166,0.158-0.296,0.364-0.336,0.64c-1.272,8.937-0.489,18.33-0.531,27.336c-0.041,9.088-0.398,18.265,0.354,27.334
		c0.007,0.087,0.04,0.156,0.066,0.23c-9.322,1.836-17.913,5.862-18.419,14.75c-4.827-0.312-9.599,3.022-12.238,6.307
		c-1.335,1.659-2.344,3.595-3.102,5.642c0.314-6.819,0.698-13.637,1.228-20.447c1.286-16.596,3.35-32.986,10.239-48.542
		C232.569,31.765,232.829,31.686,233.066,31.48z M217.141,140.626c0.109,7.112,0.317,14.226,0.665,21.333
		c-8.273-1.62-13.631-12.58-17.396-18.117c-3.706-5.452-7.187-11.024-10.432-16.698c-7.569-13.239-13.994-27.096-18.747-41.327
		c-2.961-8.865-3.847-16.897,1.498-25.275c3.942-6.177,10.104-11.467,15.708-16.487c9.543-8.547,28.414-27.025,41.692-14.425
		c-7.596,15.583-9.654,32.416-10.997,49.195C217.487,99.39,216.826,120.014,217.141,140.626z M224.084,181.781
		c-3.233-4.452-3.364-11.118-3.324-17.054c1.014-0.486,1.021-1.925,0.017-2.389c0.007-1.272,0.005-2.491-0.044-3.618
		c-0.347-8.038-0.545-16.083-0.593-24.127c-0.044-7.258,0.066-14.518,0.266-21.774c1.358-4.759,1.41-9.721,4.124-14.164
		c2.751-4.504,6.547-6.276,11.681-7.619c1.251,14.533,21.916,20.533,35.561,22.651c0.14,2.804,0.459,5.601,0.594,8.405
		c0.11,2.256-0.035,4.55,0.13,6.807c-11.662-0.566-21.104-5.59-31.05-10.721c-0.938-0.484-1.951,0.648-1.165,1.33
		c8.348,7.239,20.538,11.516,32.564,11.928c0.001,0.01,0.001,0.021,0.003,0.029c0.093,0.41,0.453,0.628,0.855,0.681
		c-0.118,5.79,0.924,12.611,5.341,17.09c3.475,3.521,9.549,5.747,14.724,4.019c12.39-4.141,6.758-19.418-1.322-25.043
		c6.67-2.709,12.365-7.173,16.066-13.643c0.824-1.439-1.497-2.664-2.463-1.271c-6.684,9.63-17.713,15.395-30.551,15.634
		c0.657-4.709,0.019-10.283-1.078-14.991c13.148-3.237,35.929-12.3,32.952-27.537c-0.012-0.059-0.029-0.111-0.044-0.17
		c0.123,0.045,0.257,0.07,0.402,0.047c8.247-1.262,16.11-0.291,21.905,5.019c1.072,10.703,1.757,21.433,1.839,32.176
		c0.109,14.68,0.499,31.115-4.389,45.281c-2.994,8.672-9.638,13.26-17.739,15.803c-0.442-0.023-0.888,0.099-1.211,0.366
		c-8.534,2.428-18.518,2.767-27.533,3.268c-8.936,0.496-17.9,0.57-26.845,0.233C245.079,188.098,229.39,189.088,224.084,181.781z
		 M282.581,131.542c0.949,4.564,2.724,9.891,6.59,13.231c0.401,0.346,1.174,0.002,0.983-0.504
		c-1.735-4.521-4.166-8.553-5.124-13.322c-0.042-0.208-0.139-0.36-0.258-0.484c1.649-0.332,3.279-0.718,4.854-1.225
		c0.028,0.019,0.037,0.043,0.065,0.062c4.112,2.697,7.239,6.14,8.208,10.692c1.104,5.193-1.217,11.946-8.446,11.652
		c-11.837-0.484-12.711-12.434-14.122-20.184c2.483-0.027,4.947-0.224,7.357-0.597C282.586,131.061,282.527,131.281,282.581,131.542
		z M227.71,453.763c-9.58-27.841-16.31-55.449-13.517-84.725c2.842-29.78,12.307-58.647,17.216-88.152
		c1.797-10.799,2.966-21.821,3.537-32.906c15.175,15.477,7.42,36.52,3.352,54.414c-4.155,18.266-2.974,36.712-0.325,55.082
		c5.121,35.503,13.154,71.749-7.333,104.737C229.661,459.396,228.68,456.58,227.71,453.763z M326.137,549.104
		c-0.033,0.07-0.051,0.145-0.059,0.221c-0.198,0.949-0.64,1.925-1.419,2.92c-2.034,2.596-6.101,3.978-9.002,1.589
		c-2.22-1.824-2.623-4.715-0.82-6.85c0.813-0.96-0.962-2.138-1.871-1.272c-3.281,3.121-2.225,6.998,0.596,9.407
		c-2.2,0.535-4.63,0.268-6.184-1.373c-1.824-1.93-1.145-4.586,0.537-6.351c0.794-0.838-0.393-1.854-1.343-1.186
		c-2.778,1.958-3.152,5.901-1.103,8.395c0.157,0.189,0.349,0.35,0.528,0.521c-2.767-0.106-5.859-0.593-7.476-2.798
		c-1.602-2.185-0.338-5.73,2.826-6.031c1.352-0.129,1.413-1.851,0-1.897c-4.003-0.139-6.464,3.652-5.85,6.868
		c-3.953-4.05-2.375-9.944,3.995-10.956c0.848,0.191,1.908-0.205,1.952-1.21c1.638-36.685,2.716-73.612,0.171-110.281
		c-1.178-16.968-2.795-33.863-5.789-50.667c-1.644-9.229-3.597-18.43-6.02-27.524c-2.145-8.029-4.008-16.96-8.532-24.233
		c-0.029-0.048-0.077-0.072-0.126-0.093c-0.029-0.509-0.065-1.016-0.077-1.528c-0.001-0.041-0.072-0.041-0.073,0
		c-0.012,0.507-0.048,1.007-0.077,1.508c-0.123,0.03-0.224,0.117-0.21,0.247c0.798,7.869,4.027,15.688,6.01,23.396
		c2.229,8.662,4.182,17.374,5.781,26.145c3.355,18.377,5.544,36.978,6.499,55.568c1.833,35.667,0.463,71.259-0.53,106.922
		c-3.614,0.447-6.13,2.92-7.02,5.747c-4.892-0.258-9.674-0.186-14.46,0.656c0.074-0.562,0.12-1.111,0.11-1.624
		c-0.118-5.751-5.67-10.571-12.11-9.986c-6.442-34.072-12.194-67.653-12.626-102.309c-0.433-34.706,3.298-69.342,10.917-103.385
		c0.382-1.711-2.59-2.441-2.975-0.725c-7.663,34.279-11.45,69.163-11.008,104.109c0.432,34.087,3.853,69.583,13.996,102.613
		c-1.321,0.488-0.651,2.361,0.87,2.092c4.073-0.723,8.191,1.198,9.742,4.644c0.833,1.851,0.893,3.753,0.427,5.692
		c-0.109,0.457-3.318,6.327-3.905,5.103c-0.039-0.08-0.086-0.14-0.141-0.188c0.061-0.109,0.144-0.202,0.198-0.315
		c1.671-3.444-0.368-7.523-4.075-9.123c-1.247-0.537-2.346,1.107-1.093,1.649c2.8,1.209,4.487,4.1,3.27,6.77
		c-1.155,2.535-4.595,3.731-7.505,3.159c0.38-0.332,0.736-0.698,1.047-1.11c2.603-3.472,1.132-8.378-2.732-10.568
		c-1.11-0.63-2.093,0.899-1.028,1.548c2.89,1.755,4.141,5.459,2.083,8.156c-1.984,2.601-6.514,3.214-9.525,1.721
		c3.455-2.744,4.784-7.416,0.796-11.202c-0.76-0.724-2.021,0.197-1.511,1.027c1.715,2.781,2.125,6.175-0.58,8.653
		c-2.913,2.671-8.104,1.948-10.529-0.86c-2.637-3.056-1.337-7.353,1.186-10.102c2.115-2.304,4.802-3.144,7.657-4.468
		c0.242-0.111,0.316-0.379,0.257-0.611c0.176-0.208,0.301-0.462,0.283-0.804c-1.348-24.33-9.228-47.526-17.272-70.647
		c0.124-0.051,0.242-0.123,0.335-0.244c24.46-31.902,13.389-73.709,8.638-109.072c-1.428-10.631-2.449-21.344-1.992-32.059
		c0.478-11.165,3.373-21.771,5.925-32.652c3.593-15.321,4.698-32.139-8.217-44.39c-0.255-0.241-0.543-0.332-0.827-0.34
		c0.787-18.665-0.126-37.479-2.691-55.72c2.637,0.486,5.385,0.683,7.976,0.91c11.132,0.97,22.356,1.244,33.533,0.888
		c3.287-0.105,6.982-0.163,10.841-0.289c-12.104,29.402-10.924,63.993-3.033,94.066c8.164,31.115,25.18,60.513,49.751,84.039
		c0.619,0.595,1.425,0.438,1.913-0.013c-0.886,56.657-16.214,112.368-16.915,169.046c-0.004,0.418,0.277,0.667,0.623,0.756
		c0.062,0.071,0.144,0.138,0.268,0.188C321.926,540.839,326.891,544.642,326.137,549.104z M336.416,525.053
		c-0.304,0.297-0.411,0.624-0.393,0.935c-0.212,0.072-0.432,0.139-0.642,0.215c-1.775,0.634-0.99,3.208,0.801,2.559
		c6.04-2.188,14.328-3.37,19.563,1.057c4.454,3.77,4.157,9.652,0.029,13.373c-0.075,0.065-0.124,0.136-0.164,0.206
		c0.162-0.519,0.28-1.057,0.313-1.631c0.25-4.256-4.345-9.494-9.516-7.443c-1.091,0.435-0.541,2.041,0.609,1.979
		c4.372-0.236,7.526,3.564,5.59,7.213c-1.716,3.239-5.828,4.795-9.443,5.973c0.649-0.609,1.225-1.307,1.684-2.129
		c2.331-4.154-1.251-11.05-7.252-9.576c-0.977,0.239-1.119,1.711,0,1.872c5.104,0.734,7.325,5.345,3.114,8.666
		c-3.46,2.73-7.956,1.898-11.997,0.862c0.268-5.013-4.104-10.317-10.371-11.313c2.456-48.9,13.647-97.305,17.116-146.117
		c0.292-0.008,0.563-0.145,0.617-0.457c3.711-21.442,26.615-36.687,50.86-27.979c14.242,5.116,21.53,16.594,24.396,29.276
		c-0.122-0.004-0.248,0.002-0.381,0.041c-41.896,12.49-49.895,61.218-36.045,93.348C362.688,499.835,349.059,512.77,336.416,525.053
		z M411.628,419.688c-4.406,23.929-18.439,45.28-35.427,64.808c-4.934-18.238-8.134-36.479-0.897-54.781
		c6.406-16.193,19.139-27.794,36.438-35.14C413.338,403.03,413.063,411.894,411.628,419.688z"/>
	<path fill="#653333" d="M223.097,550.868c-3.515-0.294-7.542-1.923-7.975-5.415c-0.474-3.825,3.018-5.563,6.382-6.912
		c0.679-0.271,0.509-1.303-0.21-1.425c-5.22-0.879-9.501,4.468-8.85,8.679c0.661,4.276,6.011,7.999,10.834,6.257
		C223.991,551.795,223.893,550.935,223.097,550.868z"/>
</g>
</svg>
