<?xml version="1.0" encoding="utf-8"?>
<!-- Generator: Adobe Illustrator 16.0.3, SVG Export Plug-In . SVG Version: 6.00 Build 0)  -->
<!DOCTYPE svg PUBLIC "-//W3C//DTD SVG 1.1//EN" "http://www.w3.org/Graphics/SVG/1.1/DTD/svg11.dtd">
<svg version="1.1" id="Capa_1" xmlns="http://www.w3.org/2000/svg" xmlns:xlink="http://www.w3.org/1999/xlink" x="0px" y="0px"
	 width="566.93px" height="566.93px" viewBox="0 0 566.93 566.93" enable-background="new 0 0 566.93 566.93" xml:space="preserve">
<g>
	<path fill="#653333" d="M261.302,158.463c-4.869-2.311-10.318-3.975-15.206-5.23c-4.3-1.106-9.355-1.833-12.49,2.08
		c-5.194,6.48,0.866,20.99,7.617,25.553c0.069,0.078,0.133,0.145,0.202,0.222c0.057,0.213,0.189,0.398,0.424,0.509
		c-1.223,1.855-1.984,3.95-2.387,6.15c-3.72-1.866-7-4.782-9.703-8.463c-0.396-0.54-1.505-0.24-1.196,0.504
		c1.188,2.851,3.058,5.255,5.338,7.196c3.788,4.029,9.011,6.112,14.738,6.263c0.527,0.014,0.824-0.313,0.918-0.703
		c1.879-0.013,3.748-0.237,5.545-0.703c1.585-0.411,0.916-2.831-0.676-2.45c-4.213,1.006-8.172,0.801-11.792-0.35
		c0.243-0.873,0.377-1.791,0.559-2.664c0.244-1.169,0.486-2.338,0.687-3.516c0.112-0.223,0.227-0.446,0.343-0.669
		c1.969,0.362,4.028,0.444,6.102,0.247c7.116-0.396,14.177-3.502,18.206-9.583C273.69,165.071,268.244,160.458,261.302,158.463z
		 M256.585,178.1c-4.121,1.588-8.287,1.765-12.582,1.903c-0.258-0.136-0.552-0.179-0.828-0.049
		c-1.023-2.774-3.085-5.044-4.529-7.686c-1.929-3.526-5.918-11.366-2.543-15.283c4.18-4.355,14.322,1.19,19.501,2.619
		c2.028,0.559,4.413,1.135,6.572,1.91c0.574,0.24,1.15,0.472,1.729,0.698c1.306,0.591,2.431,1.294,3.233,2.152
		C270.786,169.481,261,176.398,256.585,178.1z"/>
	<path fill="#653333" d="M240.568,163.963c-1.718-0.909-3.248,1.705-1.524,2.607c2.308,1.206,3.364,4.423,2.258,6.813
		c-0.407,0.88,0.734,2.005,1.462,1.128C245.578,171.123,244.494,166.04,240.568,163.963z"/>
	<path fill="#653333" d="M259.223,170.684c-0.134-0.506-0.607-0.829-1.114-0.849c-3.409-0.137-6.503,2.726-7.203,5.904
		c-0.212,0.969,1.252,1.731,1.701,0.718c1.138-2.57,3.187-3.757,5.808-4.352c0.369-0.083,0.731-0.433,0.808-0.808
		C259.268,171.08,259.281,170.901,259.223,170.684z"/>
	<path fill="#653333" d="M250.742,29.431c0.02-0.027,0.042-0.054,0.063-0.082c0.176-0.241-0.164-0.548-0.401-0.4
		c-0.006,0.003-0.013,0.008-0.019,0.013c-0.25-0.274-0.617,0.057-0.545,0.373c-16.351,10.569-30.278,35.641-33.428,54.403
		c-0.16,0.949,1.073,1.279,1.431,0.394c4.252-10.547,7.658-20.952,13.764-30.681c5.375-8.565,12.603-15.322,18.578-23.289
		c6.004,12.834,8.795,24.002,8.334,38.094c-0.999-2.293-2.275-4.225-4.1-6.126c-0.432-0.45-1.162-0.091-1.186,0.491
		c-4.204,7.996-6.228,9.805-6.074,5.428c-0.06-1.452-0.119-2.905-0.18-4.356c-0.025-0.634-0.974-1.006-1.287-0.35
		c-1.629,3.428-3.624,6.22-6.619,8.627c-3.506,2.816-4.895,3.019-5.999-1.843c-0.157-0.689-1.063-0.564-1.275,0
		c-2.722,7.223-7.407,12.012-13.988,15.844c-0.308,0.179-0.099,0.74,0.25,0.595c3.947-1.636,7.193-3.894,9.972-7.177
		c2.759-3.259,3.5-10.092,5.028-3.269c0.104,0.462,0.612,0.563,0.984,0.399c3.565-1.576,6.669-3.602,9.221-6.587
		c4-4.68,2.415-4.196,2.686,2.476c0.017,0.422,0.431,0.82,0.875,0.666c2.371-0.818,4.315-1.78,5.85-3.875
		c2.617-3.569,2.082-7.455,5.133,0.943c0.168,0.461,0.648,0.547,0.995,0.396c0.427,0.291,1.14,0.211,1.249-0.403
		C262.464,56.525,259.183,40.523,250.742,29.431z"/>
	<path fill="#653333" d="M353.217,72.046c-13.338,3.57-26.207,9.487-36.79,18.461c-0.491,0.417,0.146,1.229,0.687,0.889
		c0.031-0.02,0.064-0.041,0.097-0.061c0.948,3.33,1.897,6.663,2.847,9.993c0.154,0.542,0.813,0.686,1.213,0.32
		c0.941-0.858,2.945-3.479,4.134-2.85c0.166,0.087,0.343,3.513,0.426,4.021c0.652,3.978,2.067,7.454,3.985,10.98
		c0.313,0.574,1.086,0.365,1.287-0.168c0.332-1.853,1.127-3.406,2.386-4.661c0.984-1.434,1.22-0.838,0.704,1.784
		c0.336,1.57,0.24,3.528,0.438,5.093c0.529,4.209,1.549,8.271,2.917,12.28c0.255,0.746,1.427,0.439,1.192-0.329
		c-2.209-7.256-3.324-14.464-3.156-22.065c0.012-0.567-0.797-0.968-1.188-0.493c-0.53,0.641-3.771,5.915-3.856,5.917
		c-3.21,0.058-3.693-12.811-3.671-14.931c0.007-0.647-0.778-0.916-1.229-0.508c-1.661,1.511-2.798,3.669-4.923,2.604
		c-0.999-0.5-1.92-6.681-2.209-7.795c5.782-3.622,11.553-7.185,17.775-10.035c1.275-0.584,12.584-6.389,14.491-5.439
		c2.894,1.442,1.636,5.088,1.522,8.001c-0.635,16.193-3.025,32.383-13.553,45.335c-0.83,1.02,0.627,2.484,1.454,1.455
		c13.03-16.23,13.657-36.821,14.419-56.733C354.643,72.385,353.888,71.866,353.217,72.046z"/>
	<path fill="#653333" d="M240.773,111.152c-6.563-3.79-15.931,0.529-17.463,7.889c-0.322,1.543,1.905,2.18,2.371,0.655
		c1.698-5.552,8.335-9.51,13.843-6.404c5.53,3.119,5.416,10.184,2.998,15.216c-0.13,0.271,0.164,0.685,0.463,0.463
		C248.905,124.557,246.678,114.561,240.773,111.152z"/>
	<path fill="#653333" d="M301.521,131.495c-7.29-2.855-16.66,2.697-16.898,10.684c-0.021,0.732,1.071,0.866,1.266,0.171
		c1.77-6.328,8.847-11.803,15.482-8.393c5.715,2.938,7.072,10.775,3.561,15.832c-0.891,1.282,1.207,2.493,2.09,1.222
		C311.463,144.617,309.029,134.435,301.521,131.495z"/>
	<path fill="#653333" d="M328.094,222.074c0.05-1.147-1.703-1.617-1.877-0.415c-0.309,2.14-0.725,4.253-1.201,6.349
		c-2.695,6.819-4.805,13.861-8.363,20.379c-0.919,1.683-1.924,3.319-2.98,4.92c-0.883,1.263-2.256,3.203-3.761,5.083
		c-0.69,0.823-1.394,1.637-2.142,2.413c-0.437,0.451-1.103,1.174-1.877,1.858c-1.023,0.825-1.959,1.301-2.676,1.144
		c-0.798-0.175-3.964-6.23-4.754-7.242c-0.148-0.19-0.369-0.261-0.592-0.245c-0.346-0.352-0.906-0.308-1.267-0.018
		c-0.638-0.13-1.37,0.108-1.647,0.896c-3.051,8.681-6.872,16.931-12.053,24.551c-1.335,2.011-2.769,3.95-4.282,5.833
		c-0.61-0.368-1.113-1.042-1.537-1.884c-0.013-0.374,0.016-0.766,0.117-1.192c-0.373-0.434-0.972-1.732-1.567-2.983
		c-0.309-1.15-0.568-2.201-0.828-2.874c-0.219-0.571-0.996-0.674-1.283-0.135c-0.704-0.239-1.504,0.019-1.787,0.888
		c-3.571,10.96-7.752,20.215-16.359,28.119c-0.587,0.539,0.158,1.374,0.812,1.053c0.196-0.097,0.373-0.211,0.563-0.311
		c0.132,0.146,0.361,0.207,0.554,0.031c0.271-0.245,0.506-0.516,0.771-0.765c8.387-5.15,12.264-14.951,15.325-24.131
		c0.012-0.017,0.024-0.036,0.037-0.053c1.048,2.874,0.672,5.415,2.863,7.823c0.337,0.37,0.896,0.484,1.367,0.361
		c2.531-0.657,4.732-3.465,6.521-6.277c3.367-3.55,6.301-7.463,8.677-11.832c1.378-2.533,2.567-5.189,3.552-7.901
		c0.291-0.802,0.751-3.131,1.286-4.538c0.896,2.319,1.841,4.618,2.81,6.918c0.279,0.664,1.098,1.265,1.827,0.742
		c14.13-10.088,23.47-28.592,26.609-45.467C329.055,222.609,328.574,222.119,328.094,222.074z"/>
	<path fill="#653333" d="M451.764,351.578c-0.508-1.135-0.994-2.279-1.545-3.394c-3.766-7.624-8.561-14.772-14.199-21.139
		c-0.598-0.673-2.498-2.312-4.334-3.92c-1.178-1.29-2.375-2.555-3.588-3.798c0.877-0.338,2.879-2.107,3.32-2.581
		c0.365-0.394,0.43-1.083,0-1.468c-5.416-4.844-10.832-9.688-16.246-14.534c-4.094-3.66-14.685-9.442-9.438-15.004
		c0.383-0.405,0.396-1.042,0-1.45c-5.423-5.565-11.064-10.882-17.084-15.8c-1.785-1.457-3.595-2.886-5.427-4.282
		c-3.845-2.926-8.05-4.108-1.931-7.013c0.664-0.315,0.66-1.433,0-1.749c-24.816-11.886-41.076-33.823-47.662-60.151
		c0.631-2.237,1.178-4.496,1.576-6.785c0.26-1.489,0.461-2.985,0.627-4.488c0.228-2.083-0.656-11.114,1.649-4.202
		c0.307,0.917,1.752,1.049,1.995,0c1.371-5.912,2.384-11.836,3.082-17.789c0.693-0.51,1.108-1.414,0.593-2.388
		c-0.086-0.162-0.178-0.328-0.265-0.491c0.687-6.945,0.914-13.935,0.688-21c7.274-9.143,12.645-19.377,15.28-30.823
		c3.298-14.325-0.848-28.99,2.688-43.124c0.256-1.026-0.632-1.752-1.593-1.592c-11.377,1.911-23.613,2.325-34.016,6.206
		c-0.16,0.056-0.32,0.112-0.479,0.17c-0.383,0.148-0.759,0.309-1.137,0.466c-2.858,1.148-5.508,2.57-7.804,4.388
		c-2.563,1.912-4.886,4.274-6.935,7.147c-13.541-0.023-24.816-4.125-35.981-11.685c-0.12-0.082-0.245-0.12-0.367-0.148
		c1.735-19.509-6.126-38.754-19.346-52.945c-0.544-0.585-1.441-0.366-1.846,0.237c-0.743,1.108-1.563,2.143-2.413,3.153
		c-7.283,6.334-14.252,13.435-20.324,21.201c-0.083,0.106-0.165,0.213-0.248,0.32c-7.154,9.209-13.018,19.342-16.579,30.257
		c-1.596,4.426-2.937,8.954-4.011,13.573c-0.073,0.314,0.012,0.652,0.162,0.954c-4.805,2.728-8.79,6.659-12.204,10.999
		c-0.222,0.152-0.465,0.349-0.788,0.642c-0.208,0.189-0.359,0.536-0.36,0.851c-0.413,0.555-0.824,1.11-1.22,1.672
		c-0.544,0.775,0.177,1.997,1.108,1.93c0.17-0.013,0.316-0.023,0.466-0.033c-4.89,8.152-8.949,16.905-12.996,25.583
		c-1.304,2.402-2.603,4.806-3.878,7.216c-0.202,0.382-0.191,0.766-0.047,1.084c-0.076,0.157-0.15,0.317-0.227,0.475
		c-0.284,0.585,0.043,1.518,0.827,1.44c1.437-0.142,2.586-0.395,3.745-0.847c0.163,0.738-0.581,2.125-0.865,3.895
		c-0.653,4.066-1.702,8.048-2.258,12.145c-0.035,0.261-0.055,0.522-0.089,0.784c-1.297,6.877-1.947,13.876-2.141,20.949
		c-0.016,0.602,0.652,1.178,1.253,0.955c3.944-1.463,7.919,18.117,8.846,21.088c0.23,0.739,0.473,1.473,0.705,2.21
		c-0.412,0.386-0.796,0.793-1.19,1.192c-6.512,4.362-10.696,10.469-13.559,17.881c-0.307,0.792,0.47,1.616,1.232,1.62
		c4.82,0.015,1.23-0.781,2.806,1.614c0.054,0.08,0.093,0.191,0.139,0.291c-9.414,18.605-13.97,38.834-13.692,59.676
		c0.015,1.067,1.328,1.514,2.013,0.81c0.326,5.284,0.852,10.528,1.58,15.731c4.208,39.534,20.03,77.064,24.754,116.675
		c1.346,11.279,1.918,22.612,0.788,33.941c-0.783,7.831-2.044,17.886-5.509,26.252c-1.623,3.011-3.546,5.774-5.915,8.119
		c-4.926,4.878-17.308,9.734-17.952,17.253c-1.461,2.907-1.224,5.956,2.359,8.948c-0.191,5.303,4.111,10.614,9.524,10.284
		c0.708,0.142,1.436,0.2,2.176,0.167c5.15,4.586,13.755,0.454,18.04-4.072c0.079,0.104,0.143,0.218,0.229,0.317
		c0.222,0.258,0.555,0.127,0.698-0.114c0.003,0,0.004,0.002,0.007,0.004c19.112,3.546,28.841-27.03,30.539-41.313
		c1.634-13.758,0.197-27.96,0.956-41.81c0.128-2.317,0.301-4.626,0.495-6.933c1.077-1.575,2.699-2.751,4.489-3.349
		c2.057-0.521,4.29-0.31,6.48,0.752c0.853,0.413,1.503-0.717,0.738-1.262c-3.4-2.419-8.526-1.633-11.465,1.209
		c0.052-0.505,0.104-1.009,0.157-1.514c0.012-0.015,0.033-0.015,0.044-0.032c0.044-0.071,0.095-0.133,0.14-0.205
		c0.009,0.025,0.015,0.051,0.024,0.079c0.123,0.331,0.637,0.298,0.64-0.087c0.003-0.394,0.048-0.751,0.099-1.102
		c2.008-2.844,4.402-5.049,7.282-6.511c1.673-0.56,3.423-1.059,5.036-1.683c0.59-0.116,1.179-0.23,1.801-0.3
		c0.571-0.063,0.859-0.533,0.851-0.976c0.013-0.008,0.027-0.015,0.04-0.021c1.129,1.15,2.287,2.265,3.507,3.285
		c0.371,0.312,0.788,0.332,1.136,0.199c0.648,0.459,1.583-0.134,1.623-0.905l0.504-9.897c1.288,1.172,4.31,4.263,4.562,4.487
		c2.729,2.446,5.606,4.726,8.589,6.854c2.909,2.078,5.936,3.92,9.029,5.637c-3.705,4.35-6.717,9.077-11.198,12.794
		c-4.033,3.348-8.585,5.811-13.433,7.609c-4.039,0.613-6.126-0.547-6.821-2.423c-0.737-3.586,1.109-7.484,4.853-8.885
		c1.023-0.382,0.637-1.904-0.457-1.657c-0.062,0.015-0.119,0.04-0.181,0.055c-0.08-0.042-0.156-0.093-0.264-0.102
		c-6.849-0.509-10.348,10.729-6.084,14.928c-1.946,0.604-4.107,0.611-5.965-0.102c-1.438-0.778-2.698-1.858-3.312-2.956
		c-0.518-0.926-0.786-1.85-0.857-2.751c-0.104-3.729,3.309-7.053,6.894-7.981c0.305-0.078,0.41-0.319,0.372-0.55
		c0.01-0.002,0.02-0.006,0.029-0.008c0.773-0.195,0.58-1.326-0.184-1.355c-4.516-0.174-8.192,3.666-8.926,7.947
		c-0.467,1.96-0.348,4.021,0.581,5.758c1.293,2.414,3.738,3.965,6.343,4.455c2.188,0.613,4.555,0.492,6.589-0.635
		c0.193-0.105,0.338-0.342,0.37-0.575c0.261,0.087,0.565,0.123,0.855,0.178c0.215,0.341,0.609,0.571,1.123,0.47
		c0.798-0.156,1.611-0.347,2.432-0.563c1.004-0.207,2.043-0.526,3.097-0.943c9.117-3.087,18.711-9.386,23.313-17.775
		c0.984-1.236,1.91-2.528,2.803-3.852c0.311,0.16,0.617,0.325,0.929,0.483c2.253,1.243,4.545,2.437,6.913,3.531
		c0.271,0.127,0.528,0.123,0.764,0.06c0.355,0.152,0.709,0.311,1.066,0.461c0.074,7.415-0.111,14.857-0.627,22.361
		c-1.134,16.483-3.592,32.783-5.911,49.11c-1.036,4.387-1.888,9.267-1.876,13.764c-0.21,1.616-0.422,3.229-0.621,4.845
		c-9.907,1.998-17.551,15.407-9.941,23.639c0.111,0.12,0.235,0.202,0.366,0.258c0.136,0.238,0.25,0.486,0.403,0.719
		c-0.038,1.533,0.209,3.027,0.776,4.256c0.164,0.355,0.358,0.695,0.567,1.025c0.316,0.755,0.724,1.47,1.252,2.11
		c2.594,3.138,8.721,4.599,11.779,1.499c0.104-0.062,0.211-0.11,0.313-0.178c0.054,0.047,0.09,0.096,0.145,0.142
		c5.228,4.35,13.368-1.093,17.988-4.964c0.459,0.291,1.118,0.171,1.504-0.265c0.305,0.06,0.598,0.091,0.889,0.114
		c0.197,0.074,0.405,0.076,0.604,0.019c10.108,0.038,11.998-20.568,13.178-27.002c3.694-20.163,4.563-40.75,9.094-60.786
		c1.157-5.112,2.516-10.183,3.971-15.231c2.291,3.368,5.1,4.798,8.832,6.508c0.071,0.055,0.141,0.114,0.212,0.169
		c0.241,0.192,0.503,0.248,0.745,0.214c0.727,0.192,1.582-0.18,1.547-1.06c-0.016-0.357-0.027-0.657-0.037-0.928
		c2.409-3.076,6.578,0.895,10.383,2.421c5.799,2.328,11.768,4.049,17.852,5.39l1.876,0.674c0.292,0.104,0.567,0.032,0.81-0.104
		c0.336,0.068,0.668,0.15,1.004,0.214c0.785,0.15,1.488-0.63,1.061-1.381c-1.635-2.869,0.918-3.214,3.947-2.931
		c0.697,0.1,1.406,0.182,2.109,0.271c1.698,0.265,3.283,0.59,4.113,0.649c1.434,0.105,2.867,0.152,4.296,0.167
		c3.913,0.265,7.798,0.377,11.525,0.341c0.104,1.556,0.374,3.142,0.886,4.757c-2.17,5.669,0.014,13.424,6.201,16.019
		c0.007,0.004,0.012,0,0.02,0.002c0.121,0.1,0.245,0.194,0.367,0.29c0.069,0.203,0.134,0.41,0.222,0.606
		c0.804,1.806,2.056,3.168,3.522,4.19c3.479,3.06,9.371,4.007,13.102,1.31c0.115,0.004,0.236-0.009,0.363-0.062
		c0.191-0.08,0.361-0.176,0.549-0.258c0.424,0.142,0.83-0.081,0.957-0.446c8.549-4.159,13.109-11.832,16.018-20.446
		c0.057-0.162,0.109-0.327,0.162-0.49c0.855-2.597,1.574-5.267,2.205-7.95c2.371-10.092,6.549-19.761,10.111-29.546
		c2.6-4.863,4.002-10.268,4.768-15.754c0.311-1.406,0.598-2.816,0.824-4.237C463.113,382.697,459.268,366.368,451.764,351.578z
		 M184.622,170.39c-0.153-0.778-1.13-1.075-1.76-0.717c-2.853,1.619-1.707-1.071-1.599-4.085c0.092-2.575,0.301-5.133,0.558-7.691
		c1.095-7.489,2.708-15.778,3.54-19.475c0.329-1.258,0.659-2.517,1.021-3.774c0.272-0.943-0.614-1.664-1.492-1.493
		c-0.941,0.184-1.882,0.368-2.823,0.551c0.85-1.602,1.697-3.204,2.547-4.807c0.145-0.022,0.285-0.066,0.407-0.165
		c19.64-15.771,41.328-34.865,67.795-33.143c1.96,0.95,3.801,2.056,5.514,3.493c1.86,2.572,3.256,5.379,3.496,7.317
		c0.645,5.214-0.558,11.263-1.743,16.271c-2.442,10.316-7.453,19.739-13.815,28.15c-0.166,0.218,0.193,0.487,0.378,0.292
		c9.245-9.833,14.981-21.958,16.839-35.346c1.106-7.969,2.691-20.425-6.407-24.403c-9.987-4.367-24.738,2.35-33.534,6.732
		c-0.747,0.374-1.473,0.784-2.209,1.174c-0.158,0.076-0.32,0.15-0.478,0.226c-11.863,5.706-23.897,13.379-32.977,23.234
		c2.052-3.87,4.107-7.738,6.151-11.611c1.675-3.171,4.677-6.883,5.323-10.653c0-0.001,0.001-0.002,0.001-0.003
		c0.148-0.871,0.212-1.742,0.059-2.613c3.407-3.898,7.063-7.531,10.804-11.114c0.328,0.023,0.674-0.058,0.952-0.263
		c0.454-0.111,0.859-0.389,0.978-0.878c0.091-0.372,0.182-0.746,0.271-1.118c0.097-0.399-0.096-0.791-0.392-1.04
		c0.171-1.092,0.325-2.196,0.542-3.256c1.243-3.089,1.935-6.854,3.045-9.762c1.831-4.795,4.025-9.439,6.512-13.927
		c6.036-9.941,13.897-18.768,21.914-27.726c0.166-0.157,0.325-0.318,0.493-0.474c0.808-0.755,1.926-2.163,3.139-3.6
		c0.533-0.6,1.064-1.2,1.595-1.803c1.242-1.326,2.495-2.432,3.565-2.698c10.983,15.582,16.474,30.88,18.77,50.006
		c-0.002,0.275,0.009,0.547,0.007,0.822c-0.007,0.51,0.373,0.726,0.748,0.688c-0.244,0.184-0.35,0.526-0.059,0.827
		c8.997,9.258,21.709,12.929,34.309,11.161c1.018,0.021,2.033,0.05,3.049,0.018c0.339,0.362,1.053,0.428,1.365-0.084
		c5.416-8.892,14.824-12.55,24.945-14.461c1.271-0.168,2.525-0.339,3.736-0.542c0.279-0.048,0.706-0.142,1.222-0.265
		c5.54-0.772,11.124-1.209,16.259-1.83c0.295,0.34,0.528,0.691,0.681,1.057c-1.917,9.996-0.632,19.947-1.198,30.133
		c-0.801,14.365-6.688,27.203-16.28,37.831c-0.89,0.984-0.009,2.292,0.991,2.321c0.032,0.13,0.076,0.254,0.143,0.369
		c0.184,5.906,0.019,11.755-0.447,17.572c-3.654-6.592-7.926-13.461-12.857-19.735c-7.748-11.019-17.697-20.455-29.645-22.537
		c-23.615-4.117-32.021,27.22-33.789,45.012c-0.036,0.363,0.537,0.427,0.625,0.084c2.867-10.995,7.216-28.201,15.943-37.256
		c23.444-13.036,43.003,12.664,54.583,32.856c1.4,2.81,2.697,5.599,3.878,8.294c0.116,0.267,0.316,0.417,0.542,0.503
		c-0.557,4.415-1.288,8.816-2.222,13.213c-0.586-0.984-1.298-1.88-2.268-2.852c-0.638-0.638-1.804-0.17-1.793,0.743
		c0.005,0.523-0.015,1.042-0.021,1.564c-1.078,8.209-2.623,16.143-5.328,23.987c-1.425,4.13-3.107,8.149-5.033,12.073
		c-0.361,0.752-0.766,1.481-1.148,2.221c-1.237,1.875-2.57,3.701-4,5.47c-1.32,0.324-3.02-0.079-5.102-1.217
		c-0.05-0.539-0.638-0.62-0.9-0.285c-0.459-0.235-1.039-0.179-1.366,0.398c-4.273,7.514-9.783,13.953-16.663,19.046
		c-1.498,0.978-3.039,1.922-4.67,2.796c-4.716,2.531-9.697,4.734-14.713,6.59c-0.293,0.109-0.623,0.248-0.967,0.393
		c-3.144,0.762-5.858,0.597-4.327-3.43c0.222-0.583-0.173-1.022-0.669-1.168c-0.352-0.163-0.807-0.129-1.104,0.172
		c-0.122,0.05-0.243,0.101-0.365,0.157c-0.314-0.19-0.708-0.239-1.124,0.023c-1.021,0.644-2.065,1.221-3.122,1.76
		c-7.69,2.877-15.568,4.005-23.671,3.575c-6.568-1.207-12.863-4.22-18.203-9.077c-0.163-0.148-0.376-0.23-0.601-0.278
		c-0.038-0.029-0.072-0.06-0.11-0.088c-0.708-0.53-1.574,0.204-1.622,0.93c-0.002,0.045-0.011,0.075-0.014,0.12
		c-2.473,0.776-10.47-11.797-11.435-13.291c-3.051-4.728-5.789-9.608-8.378-14.604c-0.176-0.34-0.478-0.47-0.795-0.512
		c-0.543-0.569-1.546-0.542-1.809,0.37c-0.25,0.866-0.501,1.731-0.753,2.596c-1.479-4.507-2.939-9.019-4.381-13.537
		c-0.237-0.903-0.485-1.803-0.718-2.707c0.169-0.185,0.336-0.371,0.506-0.555c0.439-0.478-0.212-1.094-0.7-0.7
		c-0.037,0.031-0.07,0.063-0.107,0.094C188.417,188.212,186.391,179.339,184.622,170.39z M242.503,409.869
		c-2.835,0.37-5.593,1.457-7.958,3.119c-1.996,0.942-3.718,2.065-4.634,3.546c0.143-1.29,0.317-2.578,0.47-3.867
		c1.045-5.825,2.419-11.594,4.049-17.314c2.783,5.025,5.948,9.744,9.647,13.787C243.602,409.39,243.07,409.63,242.503,409.869z
		 M458.078,396.104c-0.115,1.043-0.25,2.087-0.416,3.138c-1.346,8.555-4.711,16.418-7.918,24.355
		c-3.24,4.887-5.063,8.229-5.992,14.234c-0.555,3.577-1.063,7.343-1.762,11.072c-1.572,6.495-3.404,12.817-6.852,18.142
		c-2.492,3.372-5.813,6.152-10.385,7.945c-1.344-2.438-2.369-4.835-1.701-7.973c0.861-4.037,3.904-6.578,7.326-8.496
		c0.377-0.209,0.236-0.911-0.234-0.86c-8.521,0.943-13.412,13.852-7.01,19.55c-4.105,1.213-8.613,0.995-11.381-2.907
		c-3.178-4.482-1.098-10.843,3.611-13.242c0.264-0.134,0.381-0.339,0.406-0.555c0.117-0.033,0.23-0.076,0.35-0.104
		c0.713-0.169,0.549-1.265-0.172-1.267c-5.514-0.002-9.139,5.796-8.906,11.008c-2.15-2.584-3.895-5.551-3.914-9.01
		c-0.029-5.089,3.525-8.446,8.297-9.187c1.041-0.161,0.693-1.664-0.234-1.733c-0.609-0.047-1.203-0.013-1.779,0.073
		c-0.072-0.025-0.133-0.073-0.225-0.063c-3.006,0.334-5.228,1.729-6.723,3.673c0.38-6.116,1.773-11.462,6.902-15.527
		c5.115-4.058,11.365-4.91,17.705-4.551c0.037,0.003,0.063-0.013,0.1-0.013c0.051,0.018,0.102,0.025,0.152,0.043
		c0.574,0.192,1.014-0.036,1.26-0.417c0.797,0.86,2.262-0.643,1.07-1.378c-0.605-0.375-1.088-1.005-1.631-1.462
		c-0.447-0.374-0.877-0.767-1.311-1.158c-0.014-0.427-0.244-0.846-0.697-0.911c-10.027-1.466-19.08-2.673-27.902-8.217
		c-10.08-6.334-17.791-16.052-20.838-27.639c-6.068-23.082,7.024-52.88,33.217-54.44c0.727-0.044,0.711-1.049,0-1.121
		c-26.252-2.588-40.285,29.02-37.025,51.007c3.089,20.833,22.379,40.438,43.893,42.457c-9.08,1.537-16.453,8.941-17.255,18.164
		c-1.141,0.136-2.274,0.245-3.404,0.336c-7.388-0.966-15.27-1.448-22.649-1.222c-0.756-0.144-1.512-0.279-2.271-0.444
		c-0.656-0.896-2.369-0.296-2.01,0.973c1.49,5.273-5.285,1.317-6.699,0.806c-2.436-0.882-4.871-1.762-7.307-2.643
		c-5.359-1.939-10.717-3.88-16.077-5.814c-0.917-0.332-1.619,0.646-1.458,1.458l0.209,1.753c-1.73,0.379-5.783-2.577-8.141-4.404
		c9.109-31.083,22.215-61.282,22.842-94.067c0.005-0.205-0.29-0.194-0.311,0c-3.555,33.369-16.863,63.972-26.077,95.92
		c-4.254,14.748-6.83,29.62-8.673,44.831c-1.087,8.967-2.089,17.934-3.467,26.865c-0.998,6.474-2.206,26.118-10.945,29.06
		c-0.658-0.965-1.193-1.933-1.512-2.992c0.187-3.47,1.443-6.783,3.685-9.605c0.612-0.77-0.354-1.813-1.104-1.104
		c-0.544,0.516-1.03,1.067-1.486,1.639c-2.215,1.351-3.483,3.363-3.767,6.19c-0.117,1.178-0.016,2.461,0.314,3.673
		c-0.003,0.45-0.005,0.9,0.029,1.354c-0.156-0.016-0.317-0.002-0.486,0.073c-4.064,1.829-8.397,7.627-13.228,6.208
		c-5.013-1.472-3.628-6.106-1.542-9.914c0.881-1.201,1.885-2.326,2.776-3.43c0.201-0.249,0.03-0.664-0.239-0.699
		c0.08-0.571-0.737-1.045-1.222-0.578c-2.475,2.392-5.282,6.189-5.581,9.859c-0.342,1.677-0.156,3.355,0.868,4.883
		c-0.343,0.194-0.696,0.351-1.058,0.492c-2.777,0.436-5.701-0.015-7.773-1.808c-0.159-0.192-0.334-0.355-0.477-0.573
		c-2.877-4.357,0.177-9.115,2.475-12.84c0.085-0.136,0.092-0.273,0.061-0.4c0.032-0.031,0.064-0.063,0.096-0.095
		c0.44-0.432-0.027-1.045-0.558-0.958c-2.876,0.478-4.768,2.854-5.636,5.646c-0.548-0.907-0.98-1.844-1.265-2.806
		c-0.459-3.168-0.096-6.369,1.671-9.422c0.524-0.905,1.13-1.675,1.775-2.379c1.973-1.852,4.299-2.968,6.633-4.262
		c1.099-0.419,2.242-0.78,3.418-1.117c0.551-0.156,0.439-0.989-0.137-0.995c-0.17-0.003-0.334,0.013-0.5,0.021
		c0.003-0.289-0.16-0.541-0.483-0.601c0.81-3.309,0.702-6.867,1.083-10.254c0.16-1.426,0.357-2.847,0.549-4.27
		c8.006-40.625,12.834-84.734,2.541-124.605c-0.393-1.52-2.6-0.864-2.322,0.641c2.851,15.456,4.396,30.819,4.68,46.305
		c-2.008-0.833-3.981-1.729-5.92-2.688c-0.89-0.472-1.758-0.971-2.63-1.465c-0.097-0.364-0.524-0.603-0.903-0.501
		c-9.071-5.252-17.225-11.735-24.512-19.499c-0.482-0.512-1.191-0.365-1.59,0.08c-0.344,0.07-0.648,0.294-0.719,0.671
		c-0.581,3.114-0.727,5.909-0.224,8.768c-0.035,0.078-0.096,0.188-0.124,0.259c-0.201-0.15-0.532-0.277-1.073-0.332
		c-1.119-0.112-3.343-3.026-5.53-6.297c-7.908-12.092-11.965-25.63-19.351-38.674c-0.303-0.537-1.038-0.387-1.266,0.063
		c-0.438-0.336-1.111-0.387-1.389,0.22c-0.234,0.51-0.976,2.366-1.611,4.219c-10.021-18.632-15.41-38.022-20.203-58.65
		c-0.096-0.419-0.521-0.516-0.863-0.402c-0.399-0.26-0.944-0.294-1.423,0.138c-1.913,1.722-3.781,3.489-5.657,5.248
		c-1.473-13.195-1.478-26.227-2.044-39.505c-0.025-0.59-0.952-0.78-1.076-0.146c-2.787,14.109-1.779,29.235,0.373,43.369
		c0.105,0.688,0.718,1.07,1.364,1.132c0.222,0.575,1.064,0.742,1.485,0.294c1.146-1.227,4.192-6.447,6.422-5.25
		c0.512,0.272,1.697,8.896,1.855,9.629c1.385,6.387,3.044,12.722,5.067,18.938c3.739,11.494,8.347,22.653,13.855,33.409
		c0.452,0.88,1.852,0.455,1.836-0.497c-0.123-0.687-0.142-1.361-0.112-2.025c0.567,0,1.137-0.309,1.331-0.92
		c0.413-1.294,0.83-2.588,1.246-3.882c0.125,0.421,0.25,0.901,0.382,1.512c0.568,0.698,0.982,2.312,1.348,3.134
		c1.042,2.343,2.158,4.649,3.312,6.938c1.237,3.171,2.599,6.33,4.088,9.419c-2.221,10.066-3.621,20.399-4.508,30.772
		c-1.188,10.043-1.565,20.194-1.512,30.618c0.114,22.374-1.37,46.252-20.721,60.87c-1.888-0.062-3.749,0.414-5.649,0.011
		c-1.387-0.294-2.327-0.907-2.946-1.675c-0.118-2.063,0.168-4.083,1.21-6.19c0.192-0.39,0.401-0.74,0.618-1.079
		c1.354-1.232,2.942-2.363,4.086-3.771c0.931-0.561,1.925-1.076,2.978-1.624c0.639-0.332,0.314-1.296-0.354-1.309
		c-0.438-0.009-0.863,0.04-1.285,0.104c-0.08-0.267-0.38-0.454-0.654-0.281c-0.456,0.292-0.956,0.606-1.474,0.941
		c-0.927,0.425-1.789,1.013-2.574,1.733c-3.666,2.624-7.296,6.125-6.449,10.462c0.336,1.728,1.304,3.013,2.596,3.916
		c-0.175,0.107-0.351,0.211-0.531,0.325c-0.121-0.078-0.263-0.112-0.431,0.004c-1.125,0.778-2.606,1.918-4.232,2.967
		c-3.296,1.893-6.845,3.06-10.22,0.436c-1.881-1.461-2.235-3.564-1.768-5.599c0.718-2.271,2.631-4.319,4.546-6.103
		c1.38-0.799,2.916-1.274,4.641-1.824c1.01-0.321,0.775-1.711-0.242-1.793c-7.002-0.575-14.451,8.728-10.525,15.24
		c0.05,0.082,0.11,0.144,0.161,0.222c-3.8-1.338-7.074-4.354-6.854-8.764c0.253-5.092,5.286-8.521,10.061-8.083
		c1.328,0.122,1.316-1.945,0-2.07c-0.185-0.019-0.37-0.017-0.555-0.023c0.29-0.271,0.157-0.813-0.311-0.837
		c-4.601-0.247-9.266,2.84-11.339,7.02c-2.049-3.983-0.556-7.322,2.34-10.263c0.14-0.089,0.254-0.201,0.398-0.283
		c2.135-1.73,4.486-2.836,6.798-4.286c2.475-1.552,4.618-3.083,6.568-5.335c0.131-0.149,0.239-0.321,0.366-0.476
		c0.705-0.592,1.315-1.18,1.794-1.77c3.968-4.876,6.081-11.03,7.669-17.019c4.781-18.021,4.598-37.05,2.118-55.4
		c-4.948-36.607-19.028-71.241-24.776-107.589c-1.076-8.377-1.683-16.835-1.572-25.419c0.015-1.18-1.608-1.59-2.198-0.594
		c-0.115,0.192-0.229,0.387-0.345,0.58c0.349-17.744,4.375-34.719,11.771-50.841c-0.111,3.857-0.808,8.746-0.731,10.686
		c0.222,5.641,0.801,11.225,1.604,16.784c0.194,3.019,0.42,6.038,0.708,9.053c0.055,0.583,0.501,0.848,0.95,0.792
		c0.035,0.184,0.063,0.368,0.1,0.55c0.208,1.051,1.625,1.057,2.138,0.279c0.181-0.275,4.366-7.875,5.583-7.574
		c0.074,0.019,2.545,9.692,2.71,10.176c1.926,5.669,4.618,10.948,7.694,16.074c0.504,0.839,1.72,0.625,2.014-0.265
		c0.792-2.402,1.591-4.802,2.39-7.204c0.069,0.025,0.131,0.038,0.204,0.068c1.477,0.617,4.432,9.432,5.395,11.139
		c3.593,6.361,7.861,12.312,12.853,17.646c0.267,0.285,0.581,0.294,0.831,0.158c0.111,0.067,0.21,0.161,0.323,0.222
		c0.313,0.17,0.729,0.205,1.041,0l0.827-0.545c0.418-0.277,0.443-1.104-0.157-1.197c-4.18-0.648-9.475-12.103-11.59-15.435
		c-2.546-4.017-4.99-8.085-7.618-12.043c-0.459-1.053-0.918-2.106-1.346-3.19c-0.017-0.032-0.022-0.07-0.042-0.102
		c-0.026-0.065-0.056-0.129-0.082-0.194c-0.284-0.725-1.101-0.804-1.56-0.203c-0.379,0.493-2.362,3.903-2.743,4.227
		c-0.412,1.858-0.698,2.609-0.859,2.279c-0.005-0.008-0.011-0.015-0.015-0.021c-0.052-0.133-0.091-0.389-0.114-0.772
		c-0.605-1.56-1.21-3.121-1.815-4.681c-1.823-4.702-3.647-9.402-5.471-14.106c-0.466-2.018-0.891-4.049-1.241-6.105
		c-0.144-0.846-1.081-0.966-1.704-0.6c-0.344-0.123-0.743-0.035-1.021,0.327c-1.215,1.586-3.521,5.53-5.286,6.562
		c-0.449-2.455-1.461-11.189-1.829-14.934c-0.218-9.021,0.112-18.021,0.838-27.014c0.056-0.692-0.738-0.963-1.259-0.723
		c-0.107,0.049-0.18,0.066-0.276,0.105c-0.364-0.126-0.783-0.142-1.131,0.021c-0.123,0.057-0.189,0.05-0.271,0.061
		c-0.788-1.026,3.186-6.326,4.031-7.662c1.135-1.795,2.407-3.47,3.744-5.091c0.962-0.905,1.944-1.786,2.94-2.649
		c0.46,1.453,0.921,2.903,1.388,4.353c1.328,4.831,2.692,9.651,4.163,14.445c0.22,0.715,1.004,0.913,1.565,0.626
		c0.523,0.062,1.069-0.177,1.258-0.805c0.496-1.642,0.771-2.585,1.005-2.992c4.667,10.99,11.132,20.818,19.524,29.457
		c0.466,0.48,1.389,0.403,1.706-0.22c1.028-2.012,1.998-2.686,2.989-2.537c0.271,0.077,0.551,0.188,0.836,0.316
		c1.441,0.822,2.964,3.043,4.793,5.219c0.726,0.864,1.848-0.028,1.709-0.946c0.026,0.012,0.053,0.021,0.08,0.033
		c-0.107,0.381,0.038,0.813,0.547,0.929c1.288,0.294,2.576,0.535,3.867,0.748c2.354,0.743,4.771,1.29,7.217,1.584
		c8.647,1.043,17.009-0.872,24.41-5.246c-0.547,1.104-1.029,2.235-1.495,3.456c-0.291,0.761,0.444,1.489,1.154,1.516
		c9.924,0.371,21.405-5.882,29.578-11.003c6.68-4.186,12.306-9.55,16.001-16.363c0.111,1.245,0.225,2.489,0.337,3.734
		c0.085,0.93,1.146,1.468,1.874,0.776c1.177-1.12,2.301-2.279,3.4-3.457c4.125-3.354,7.402-8.082,9.998-13.468
		c1.178-2.059,2.256-4.188,3.225-6.391c0.939-2.136,1.75-4.324,2.479-6.541c2.55,12.133,8.005,23.493,15.58,33.342
		c4.461,5.8,9.641,11.033,15.395,15.553c2.581,2.029,5.283,3.9,8.085,5.612c3.925,2.401,8.501,2.753,2.295,5.695
		c-0.744,0.353-0.567,1.356,0,1.752c6.304,4.391,12.397,9.049,18.173,14.117c4.215,3.698,13.164,8.826,7.9,14.396
		c-0.365,0.388-0.423,1.074,0,1.453c4.961,4.444,9.922,8.887,14.885,13.331c2.254,2.019,4.51,4.038,6.764,6.058
		c0.801,0.717,9.291,8.208,3.365,7.521c-0.883-0.102-1.391,1.216-0.734,1.774c0.178,0.151,0.344,0.318,0.521,0.471
		c-0.02,0.313,0.082,0.641,0.367,0.931c11.859,12.014,22.328,26.248,28.191,41.968C457.111,372.997,458.73,384.501,458.078,396.104z
		"/>
	<path fill="#653333" d="M386.503,308.044c-0.025,0.076-0.063,0.186-0.108,0.328c-0.447-0.624-1.576-0.673-1.874,0.287
		c-1.073,3.479-2.134,6.936-3.337,10.356c-0.627-0.432-0.176-1.641-0.938-2.495c-0.324-0.364-0.618-0.74-0.908-1.118
		c-1.698-3.749-3.879-7.24-6.562-10.528c-0.526-0.645-1.79-0.311-1.929,0.51c-0.913,5.377-2.494,10.441-4.752,15.311
		c-1.037-3.601-5.31-12.574-5.681-13.181c-0.339-0.557-1.171-0.436-1.36,0.177c-3.32,10.716-7.234,21.252-12.527,31.166
		c-2.164,4.053-4.537,7.992-7.152,11.767c-0.875,1.262-1.584,2.281-2.151,3.087c3.947-10.014,6.235-20.744,7.644-31.362
		c1.482-11.168,4.27-26.512-1.674-36.69c-0.308-0.526-1.088-0.203-1.008,0.368c-0.45-0.25-1.056-0.205-1.434,0.372
		c-0.683,1.038-1.309,2.109-1.943,3.176c1.148-6.597,1.713-13.035-0.006-19.463c-0.33-2.941-0.886-5.861-1.686-8.779
		c-0.012-0.044-0.043-0.063-0.068-0.089c-0.044-0.211-0.077-0.431-0.123-0.643c-0.251-1.135-2.187-0.911-2.063,0.279
		c1.137,10.972,1.07,21.203,0.256,32.132c-0.214,0.721-0.428,1.442-0.67,2.165c-0.144,0.43,0.29,0.858,0.709,0.816
		c-0.246,1.26,1.514,2.021,2.194,0.852c1.112-1.911,2.233-3.82,3.323-5.744c0.016-0.007,0.037-0.023,0.051-0.029
		c0.666-0.277,0.934-0.561,1.043-0.762c0,0.272,0.092,0.778,0.528,1.708c2.362,5.045,0.556,16.169,0.208,21.766
		c-0.351,5.658-1.026,11.253-1.988,16.79c-2.213,9.536-5.062,18.902-7.514,27.74c-0.039,0.142-0.043,0.279-0.023,0.406
		c-0.07,0.194-0.131,0.389-0.201,0.581c-0.25,0.682,0.769,1.281,1.234,0.719c0.113-0.135,0.219-0.274,0.33-0.41
		c0.229-0.061,0.436-0.215,0.566-0.492c0.074-0.156,0.137-0.319,0.209-0.478c6.748-8.369,12.293-17.488,16.75-27.299
		c2.15-4.729,4.049-9.576,5.767-14.479c0.511-1.456,1.075-4.9,2.237-5.708c0.756,4.966,3.052,9.809,3.859,14.843
		c0.164,1.019,1.664,1.087,2.125,0.278c0.031-0.055,0.055-0.113,0.086-0.169c0.185-0.027,0.355-0.111,0.465-0.345
		c0.42-0.906,0.775-1.828,1.127-2.748c2.299-4.644,3.962-9.494,5.022-14.585c3.33,4.524,5.751,9.468,7.229,14.961
		c0.313,1.163,1.802,0.985,2.188,0c0.456-1.167,0.902-2.341,1.334-3.521c1.94-3.653,3.567-7.368,4.951-11.339
		C388.646,307.42,386.883,306.938,386.503,308.044z M344.065,306.759c0.042-3.354-0.009-6.709-0.17-10.069
		C344.17,300.022,344.213,303.382,344.065,306.759z"/>
	<path fill="#653333" d="M213.318,152.375c0.131-0.325-0.335-0.535-0.555-0.325c-5.487,5.302-5.078,14.7-1.888,21.015
		c0.228,0.454,1.026,0.133,0.832-0.35C208.724,165.29,210.486,159.382,213.318,152.375z"/>
	<path fill="#653333" d="M294.975,179.07c-1.236,7.088-4.26,12.449-9.521,17.364c-0.424,0.395,0.121,1.088,0.615,0.797
		c6.183-3.637,10.331-10.771,10.771-17.909C296.906,178.269,295.16,178.009,294.975,179.07z"/>
</g>
</svg>
