<?xml version="1.0" encoding="utf-8"?>
<!-- Generator: Adobe Illustrator 16.0.3, SVG Export Plug-In . SVG Version: 6.00 Build 0)  -->
<!DOCTYPE svg PUBLIC "-//W3C//DTD SVG 1.1//EN" "http://www.w3.org/Graphics/SVG/1.1/DTD/svg11.dtd">
<svg version="1.1" id="Capa_1" xmlns="http://www.w3.org/2000/svg" xmlns:xlink="http://www.w3.org/1999/xlink" x="0px" y="0px"
	 width="566.93px" height="566.93px" viewBox="0 0 566.93 566.93" enable-background="new 0 0 566.93 566.93" xml:space="preserve">
<g>
	<path fill="#653333" d="M167.984,157.399c-1.62-3.084-4.887-5.481-8.477-5.258c-5.705,0.358-8.712,9.708-2.526,11.767
		c4.782,1.59,7.864-3.277,6.682-6.913c3.168,2.721,3.044,8.74,3.118,12.487c0.019,0.979,1.565,1.271,1.771,0.24
		C169.363,165.654,170.01,161.258,167.984,157.399z"/>
	<path fill="#653333" d="M187.949,154.762c-2.007-4.934-7.118-2.026-9.599,0.99c-2.823,3.432-3.6,8.555-1.169,12.401
		c0.55,0.866,2.052,0.327,1.717-0.725c-0.891-2.778-0.445-5.816,1-8.211c0.179,1.588,0.857,3.042,2.161,3.832
		c0.242,0.438,0.731,0.744,1.247,0.552c0.027-0.011,0.051-0.028,0.08-0.038c0.025,0.004,0.042,0.015,0.067,0.019
		C187.665,164.38,189.074,157.523,187.949,154.762z"/>
	<path fill="#653333" d="M127.746,121.024c-3.604,1.78-4.866,6.201-3.809,9.626c-0.027,1.841,0.626,3.703,2.187,5.213
		c4.972,4.809,13.774,1.974,14.674-4.915C141.724,123.834,134.531,117.677,127.746,121.024z"/>
	<path fill="#653333" d="M259.377,120.906c-3.482-2.869-8.775-2.279-11.859,0.744c-3.067,2.726-3.996,7.964-2.005,11.533
		c2.766,4.959,10.022,5.839,14.313,2.397C264.433,131.887,263.75,124.508,259.377,120.906z M256.793,133.275
		c-0.04,0.023-0.084,0.034-0.125,0.055c2.656-2.11,2.833-6.319,0.828-9.125c0.236,0.229,0.47,0.457,0.666,0.735
		C260.016,127.59,259.807,131.59,256.793,133.275z"/>
	<path fill="#653333" d="M268.006,105.519c-2.261-2.623-6.543-5.947-10.206-5.201c-1.316,0.268-1.262,1.968-0.343,2.621
		c1.325,0.938,2.985,1.133,4.423,1.904c1.43,0.767,2.713,1.801,3.825,2.979c2.311,2.446,3.796,5.749,4.308,9.062
		c0.181,1.175,1.957,0.828,1.999-0.27C272.176,112.409,270.759,108.712,268.006,105.519z"/>
	<path fill="#653333" d="M128.641,98.013c-8.095,2.098-15.744,11.573-14.179,20.094c0.208,1.133,1.677,0.842,2.018,0
		c0.088-0.217,0.175-0.44,0.261-0.66c0.54,0.278,1.313,0.179,1.45-0.535c1.236-6.504,5.396-11.996,11.748-14.204
		c0.796-0.276,1.024-1.051,0.851-1.686C131.712,99.726,130.45,97.545,128.641,98.013z"/>
	<path fill="#653333" d="M490.671,386.599c-0.379-0.948-0.83-1.85-1.272-2.755c-6.842-15.942-26.983-26.82-43.174-20.25
		c-2.259,0.685-4.479,1.63-6.645,2.853c-2.835-5.545-5.784-11.023-8.847-16.403c-28.155-49.465-56.487-99.321-87.133-147.281
		c-0.113-0.177-0.253-0.291-0.4-0.373c3.089-28.347-1.479-58.971-11.796-84.773c1.36-1.247,2.709-2.504,4.032-3.804
		c0.097-0.095,0.135-0.2,0.197-0.299c0.102-0.093,0.186-0.175,0.287-0.27c2.771,2.863,5.75,5.525,8.914,7.958
		c3.737,3.071,7.719,5.707,11.927,7.72c1.185,0.566,2.389,1.047,3.599,1.485c4.933,2.058,10.267,3.172,15.233,1.696
		c7.188-1.374,12.736-6.45,13.616-16.498c2.448-27.94-25.303-50.01-53.677-55.693c-12.622-3.933-26.298-4.908-36.286,3.434
		c-1.525,0.762-3.013,1.584-4.415,2.536c-0.32,0.217-0.519,0.484-0.666,0.769c-42.125-33.451-105.387-38.081-149.807-3.41
		c-4.87,3.8-9.401,8.032-13.677,12.51c-5.504-7.585-13.174-13.064-21.787-16.142c-9.473-4.809-20.387-6.063-30.885-1.239
		c-0.796,0.366-1.55,0.807-2.317,1.226c-20.382,8.021-33.805,38.203-34.287,58.554c-0.4,16.911,9.667,33.634,27.355,21.166
		c13.254-9.342,24.532-26.641,29.699-44.196c1.508-0.152,3.022-0.002,4.516,0.28c2.604,1.085,5.043,2.534,7.202,4.451
		c0.398,0.354,0.838,0.466,1.26,0.438c-10.84,17.648-17.273,38.616-17.136,62.141c0,0.17,0.053,0.303,0.088,0.449
		c-4.135,2.18-7.748,5.222-10.581,9.338c-11.493,16.696-4.533,38.77,10.355,50.783c3.303,2.665,6.8,4.76,10.402,6.401
		c0.017,0.069,0.044,0.137,0.061,0.208c-0.255,0.314-0.415,0.71-0.303,1.169c4.333,17.692,17.307,34.684,33.592,46.72
		c-4.733,30.087-4.955,66.567,1.437,101.842c2.604,17.503,6.962,34.62,13.932,50.844c2.595,6.044,5.616,11.927,8.948,17.627
		c-0.855,13.576-2.14,27.354-1.472,40.938c-3.004,0.741-5.865,1.862-8.388,3.585c-3.756,1.913-7.017,4.715-9.351,8.717
		c-5.169,8.868-1.989,21.364,8.655,23.828c0.181,0.043,0.329-0.037,0.451-0.147c0.364,0.135,0.727,0.278,1.114,0.38
		c2.412,4.381,6.896,7.255,11.729,7.983c2.905,0.779,5.917,0.708,8.616-0.564c1.226,1.129,2.642,2.145,4.354,2.919
		c8.449,3.83,15.253,1.551,20.703-3.521c10.12-5.418,16.481-17.674,15.742-29.424c0.139-0.43,0.257-0.821,0.385-1.229
		c6.415,3.374,13.227,6.252,20.553,8.417c0.51,3.413,1.925,6.665,4.402,9.454c1.824,8.013,9.288,14.847,17.511,14.64
		c0.603,0.122,1.196,0.274,1.81,0.342c0.122,0.113,0.238,0.235,0.362,0.346c-0.067,0.547,0.069,1.129,0.67,1.559
		c17.938,12.875,32.376,6.589,43.347-6.509c1.719-1.42,3.375-2.933,4.942-4.529c4.781,0.48,10.296,0.59,15.368-0.211
		c1.412,0.009,2.823,0.021,4.226,0.076c0.852,0.025,1.382-0.464,1.622-1.087c0.662,1.264,1.429,2.478,2.284,3.648
		c0.374,0.518,0.749,1.036,1.175,1.537c4.289,5.153,10.394,9.084,17.361,10.479c1.984,0.623,3.994,1.171,6.055,1.575
		c0.063,0.047,0.113,0.097,0.177,0.144c0.261,0.177,0.519,0.151,0.721,0.025c5.726,1.053,11.661,1.331,17.505,1.222
		c24.068,1.77,51.891-5.806,68.06-18.504c1.534-1.205,2.954-2.485,4.331-3.791c13.25-9.816,19.03-23.458,20.197-39.779
		c0.936-13.085,0.156-25.975-1.854-38.639c0.468-0.078,0.918-0.253,1.28-0.677c0.228-0.27,0.459-0.539,0.687-0.809
		c0.245-0.286,0.367-0.621,0.447-0.956c3.29,0.01,6.365-1.23,9.104-3.202c0.974-0.554,1.922-1.152,2.811-1.808
		c4.386-3.237,7.798-7.876,10.103-12.782C495.111,410.623,495.048,397.635,490.671,386.599z M340.479,65.084
		c3.534,1.424,6.955,3.029,10.157,4.658c4.149,2.11,8.379,4.552,12.433,7.299c8.013,6.256,14.593,14.061,18.469,22.741
		c7.129,15.94-3.602,30.989-22.716,24.979c-7.723-2.429-13.84-9.406-19.03-15.325c-10.145-11.564-15.996-24.303-22.097-38.201
		c-0.459-1.042-1.651-0.79-2.237-0.061c-0.732,0.312-1.302,1.03-1.082,2.031c3.083,14.05,9.9,27.173,19.472,37.822
		c-0.266,0.065-0.53,0.181-0.771,0.425c-1.012,1.022-1.98,2.077-2.962,3.118c-1.441-3.4-2.94-6.751-4.58-9.951
		c-7.132-13.909-16.859-25.805-28.285-35.505C309.973,60.851,325.768,60.412,340.479,65.084z M235.164,47.472
		c14.457,2.279,29.025,7.396,43.149,15.881c9.605,5.77,17.973,12.904,25.248,20.959c-0.004,0.918,0.013,1.824,0.076,2.743
		c-0.417,0.308-0.721,0.781-0.75,1.451c-1.715,36.798-50.962,78.258-81.714,41.31c-10.861-13.049-14.164-27.913-11.809-42.043
		C213.326,72.07,222.95,57.191,235.164,47.472z M105.996,93.45c-2.1-0.878-4.322-1.445-6.644-1.769
		c0.657-2.654,1.205-5.304,1.555-7.923c1.023-4.409,1.767-8.799,2.117-13.087c0.116-1.445-1.738-1.93-2.642-1.131
		c-0.813-0.375-1.9-0.071-1.934,1.129c-0.088,3.063-0.404,6.018-0.828,8.929c-1.471,5.614-3.095,11.112-5.073,16.479
		c-0.019,0.046-0.044,0.084-0.048,0.133c-2.589,7.002-5.738,13.81-9.913,20.414c-2.707,4.278-6.33,10.227-10.547,14.929
		c-2.231,2.41-4.624,4.424-7.198,5.485c-7.699-0.207-13.075-2.043-16.23-5.437c-1.043-2.279-1.698-4.796-1.938-7.189
		c-0.601-6.016,1.247-11.756,2.958-17.444c3.711-12.346,8.647-26.655,17.797-36.503c4.651-4.192,10.029-7.294,16.148-8.565
		c8.921-1.854,18.067-0.939,26.236,2.349c6.513,3.933,12.274,9.606,17.047,15.557c-0.956,1.091-1.805,2.269-2.724,3.389
		c-3.983,4.428-7.638,9.169-10.933,14.198C111.085,95.359,108.606,94.086,105.996,93.45z M100.882,142.293
		c14.122-60.977,70.342-102.272,129.588-95.47c-17.052,10.96-25.985,29.748-26.038,48.643c-1.978,18.042,3.246,36.229,18.446,47.634
		c16.538,12.405,40.489,9.138,56.795-1.871c17.185-11.598,27.565-30.791,28.682-51.299c20.369,25.583,30.274,59.318,29.878,92.234
		c-0.522,43.158-20.686,91.915-62.659,104.726c-5.637,1.313-11.569,1.944-17.8,1.731c0.063-0.104,0.139-0.194,0.202-0.297
		c2.216-3.685,3.65-7.815,3.945-11.988c0-0.017,0.002-0.034,0.002-0.05c0.247-3.602-0.346-7.232-2.138-10.631
		c-2.104-3.994-5.323-6.926-8.691-9.72c-0.548-0.577-1.106-1.133-1.66-1.698c3.897-0.83,7.227-3.815,8.578-7.598
		c0.202-0.265,0.434-0.476,0.625-0.758c11.501-0.008,22.952-1.98,33.034-6.663c6.851-3.019,13.208-7.061,18.668-12.314
		c20.724-19.94,18.372-51.128-6.357-66.316c-12.058-7.404-25.931-9.953-39.846-9.102c-15.281,0.643-31.157,4.409-46.157,7.002
		c-5.454,0.375-10.945,0.285-16.519-0.646c-0.883-0.147-1.55,0.291-1.94,0.893c0.015-0.213,0.059-0.404,0.065-0.622
		c0.002-0.061-0.006-0.118-0.006-0.177c1.041-6.861-2.955-11.997-8.533-15.217c-4.815-3.162-10.952-4.811-16.523-5.024
		c-11.575-0.444-28.812,2.555-31.652,16.127c-0.331,1.575-0.329,3.101-0.128,4.59c-10.003-0.51-20.54-0.813-30.552,0.088
		c-2.052,0.146-4.076,0.356-6.043,0.691c-0.343,0.053-0.704,0.065-1.045,0.12c-2.155,0.35-4.228,0.868-6.21,1.55
		C99.074,154.583,99.75,148.377,100.882,142.293z M157.053,256.488c-6.728-2.76-12.9-6.258-18.535-10.962
		c-4.301-3.594-7.764-7.863-11.539-11.897c23.708-1.182,45.934-19.063,48.013-44.316c4.213,10.214,9.087,19.356,15.23,27.208
		c-4.676,1.139-8.017,4.914-9.698,9.428c-0.596-0.046-1.194-0.107-1.778-0.109C162.176,222.902,154.534,241.875,157.053,256.488z
		 M226.698,235.254c-3.524-1.1-6.709-2.397-9.654-3.842c-8.215-4.702-15.417-10.769-21.455-17.856
		c-4.693-6.04-8.653-12.799-12.759-19.934c-2.127-4.54-3.905-9.269-5.298-14.139c6.12-4.906,15.27-7.619,19.588-13.933
		c0.263,0.091,0.545,0.156,0.882,0.141c24.064-1.053,47.627-10.176,71.696-9.327c13.1,0.461,28.68,4.055,38.012,14.065
		c14.066,15.093,10.119,37.849-2.823,52.175C285.888,243.634,251.693,243.053,226.698,235.254z M253.473,245.711
		c-1.247,2.852-3.834,4.824-6.992,5.536c-2.456-2.441-4.824-4.79-6.73-6.998C244.238,245.028,248.845,245.485,253.473,245.711z
		 M190.199,165.932c-1.63,1.03-3.392,1.881-4.833,2.606c-5.127,2.583-10.235,4.71-14.754,8.177
		c-5.055-2.831-11.507-6.471-15.986-10.787c-1.906-2.239-3.358-4.855-3.859-8.306c-0.851-5.85,2.243-9.584,6.842-11.904
		c7.021-2.865,16.646-3.244,21.473-2.597C192.069,144.857,199.577,157.26,190.199,165.932z M179.708,228.889
		c-0.042,0.168-0.099,0.337-0.131,0.507c-0.625,2.814-0.531,5.827,0.472,8.691c2.325,8.19,9.525,15.232,17.483,17.772
		c1.279,0.409,1.951-1.196,1.211-2.079c-4.358-5.205-9.934-9.153-12.374-15.792c-2.397-6.53-0.735-12.689,4.272-16.869
		c0.836-0.358,1.704-0.666,2.627-0.861c8.657,9.751,19.763,17.138,34.976,21.404c2.029,0.569,4.131,1.047,6.242,1.506
		c0.053,0.167,0.099,0.331,0.217,0.499c0.537,0.769,1.138,1.538,1.784,2.305c3.12,5.991,9.347,9.976,14.377,14.608
		c3.358,3.693,6.164,7.587,7.322,11.834c0.105,0.636,0.206,1.272,0.236,1.953c0.061,1.511-0.059,2.941-0.27,4.329
		c-0.198,0.162-0.379,0.36-0.493,0.64c-10.903,26.563-44.476,27.475-65.817,15.159c-8.475-4.892-16.586-12.33-21.975-20.435
		C161.731,261.817,151.41,232.394,179.708,228.889z M95.226,215.898c-15.841-16.692-12.789-47.438,12.978-51.247
		c12.104-1.791,25.069-0.265,37.259,0.687c5.245,8.072,16.578,14.33,23.98,18.076c-4.537,13.698-10.436,31.938-24.25,38.864
		C129.176,230.308,107.682,229.023,95.226,215.898z M109.371,231.277c3.734,1.234,7.543,2.016,11.364,2.307
		c0.015,0.061,0.029,0.124,0.067,0.185c8.388,13.305,22.447,25.128,37.771,29.455c0.149,0.042,0.292,0.046,0.43,0.032
		c4.189,11.027,11.971,21.183,21.518,28.903c-2.888-0.82-5.717-1.688-8.517-2.589C144.079,277.414,123.455,258.999,109.371,231.277z
		 M194.707,528.943c-1.07,0.695-2.231,1.248-3.417,1.728c-6.058,1.265-13.475,0.278-16.904-5.308
		c-0.266-0.43-0.421-0.915-0.615-1.378c-2.77-7.967,4.144-14.683,11.957-16.06c1.98-0.35,1.358-3.224-0.451-3.337
		c-14.193-0.889-20.509,14.792-14.27,24.785c-5.637-0.105-11.074-1.795-13.728-7.575c-3.267-7.111,1.155-13.363,7.055-16.734
		c1.382-0.598,2.818-1.062,4.253-1.36c0.426-0.089,0.641-0.459,0.718-0.855c0.746-0.561,0.381-1.77-0.625-1.904
		c-5.917-0.783-11.107,2.696-14.078,7.592c-2.19,3.215-3.32,7.116-3.029,10.878c-5.871-5.671-7.086-14.172-0.027-21.444
		c2.618-2.696,5.679-4.36,8.936-5.4c6.768-1.416,14.107-0.438,21.077,0.581c0.049,0.004,0.076-0.033,0.123-0.029
		c0.611,0.164,1.238,0.312,1.836,0.493c2.216,0.665,3.137-2.747,0.952-3.455c-6.488-2.085-13.947-3.075-20.816-2.034
		c2.658-10.461,3.082-21.474,2.405-32.198c-0.01-0.183-0.069-0.333-0.128-0.48c0.027-0.497,0.057-0.989,0.084-1.486
		c0.929,1.437,1.845,2.886,2.823,4.29c10.977,16.853,24.924,31.041,42.243,41.01C206.903,509.72,204.761,522.409,194.707,528.943z
		 M434.453,522.937c-20.117,12.537-53.277,18.583-77.679,13.549c-0.055-0.182-0.08-0.362-0.193-0.544
		c-2.638-4.344-3.042-9.167-1.913-13.793c0.817-1.731,1.942-3.357,3.472-4.761c1.054-0.965,0.211-2.267-0.885-2.435
		c-0.253-0.923-1.495-1.505-2.359-0.675c-5.713,5.478-6.652,13.73-3.876,20.791c-0.901-0.261-1.807-0.514-2.666-0.817
		c-0.249-0.088-0.447,0.055-0.535,0.253c-1.02-0.426-2.039-0.894-3.046-1.398c-0.51-0.262-1.024-0.515-1.517-0.797
		c-0.186-0.104-0.363-0.223-0.544-0.324c-1.837-1.095-3.56-2.342-5.102-3.833c-0.367-3.51,0.177-7.146,1.693-10.268
		c0.257-0.531,0.539-1.02,0.834-1.479c0.182-0.262,0.375-0.514,0.568-0.775c2.09-2.764,4.871-4.306,7.672-6.665
		c0.59-0.501,0.102-1.517-0.623-1.504c-0.729,0.013-1.429,0.151-2.115,0.358c-0.059,0.008-0.097-0.034-0.16-0.017
		c-6.665,1.748-11.029,6.816-12.866,13.034c-1.065-2.591-1.495-5.144-1.395-7.6c0.897-8.562,7.528-15.513,15.242-19.021
		c0.342-0.147,0.688-0.316,1.032-0.451c0.477-0.198,0.957-0.346,1.438-0.514c15.558-5.347,31.247,1.896,39.302,16.313
		c0.522,0.936,1.698,0.796,2.271,0.143c1.234,1.383,3.816-0.312,2.869-2.262c-2.634-5.409-6.703-9.795-11.564-13.052
		c-3.131-2.671-6.8-4.63-10.743-5.911c-0.67-0.598-1.365-1.158-2.006-1.795c-36.252-50.684-31.804-126.736,29.204-154.342
		c1.276,1.467,3.657-0.063,2.764-1.948c-4.71-9.984-26.697,8.695-31.146,12.837c-12.899,12.012-21.86,28.233-25.863,45.356
		c-0.017,0.078-0.025,0.156-0.046,0.232c-0.055,0.229-0.127,0.459-0.182,0.688c-6.913,28.851-1.739,58.604,11.948,84.284
		c0.679,1.365,1.416,2.684,2.178,3.985c0.072,0.127,0.147,0.253,0.224,0.384c0.455,0.763,0.897,1.529,1.382,2.263
		c1.349,2.216,2.78,4.377,4.251,6.518c-9.762-1.066-20.205,1.588-28.092,7.941c-9.272,7.461-10.672,17.416-7.335,26.091
		c-0.438,0.055-0.876,0.13-1.314,0.193c-5.148,0.147-10.347-0.013-15.495,0.312c4.213-4.908,7.688-10.233,10.035-15.31
		c6.698-14.479,9.222-30.493,11.648-46.132c2.616-16.873,4.639-33.852,5.68-50.901c2.056-33.712,0.8-69.024-8.99-101.646
		c-0.633-2.372-1.247-4.752-1.955-7.091c-0.384-1.264-2.583-1.104-2.414,0.327c4.934,41.474,10.494,80.907,6.416,122.817
		c-2.148,22.07-8.14,76.823-28.893,101.612c-4.681,4.062-10.019,7.322-16.009,9.101c-5.448,1.618-11.561,2.207-17.059,0.472
		c-3.145-0.994-7.455-3.455-9.081-6.421c-3.962-7.229,0.205-12.807,5.896-14.838c2.886-0.539,5.974-0.08,8.447,1.602
		c1.121,0.758,2.157,0.075,2.536-0.902c1.037,0.147,1.765-1.289,0.712-1.972c-2.565-1.672-5.022-2.477-7.32-2.704
		c-0.221-0.034-0.44-0.06-0.666-0.085c-0.168-0.008-0.334-0.017-0.501-0.017c-6.446-0.522-13.275,2.865-15.472,9.281
		c-1.268,3.703-0.282,8.456,2.016,12.239c-1.118-0.313-2.227-0.708-3.296-1.188c-4.807-2.982-8.487-7.701-8.527-13.532
		c-0.011-1.242,0.137-2.41,0.409-3.497c-0.171,0.06-0.35,0.098-0.527,0.144c1.582-3.834,3.771-7.432,7.044-9.26
		c0.099,0.177,0.208,0.358,0.303,0.539c1.428-0.813,3-1.411,4.628-1.837c0.192-0.013,0.358-0.059,0.498-0.139
		c1.569-0.367,3.187-0.531,4.794-0.527c0.607,0.105,1.22,0.178,1.812,0.351c2.216,0.648,3.008-2.6,0.935-3.392
		c-9.37-3.606-20.772,1.938-24.273,11.168c-1.955-8.889-0.377-16.873,10.703-21.62c10.153-4.353,19.733-0.713,29.438,2.266
		c2.199,1.121,4.335,2.322,6.375,3.535c1.377,0.817,3.063-1.205,1.761-2.283c-0.105-0.093-0.24-0.16-0.346-0.244
		c0.194-0.493,0.102-1.088-0.484-1.429c-2.465-1.437-5.182-2.729-8.03-3.847c0-0.042,0.021-0.067,0.017-0.109
		c-0.025-0.573-0.055-1.146-0.084-1.719c0.122-0.236,0.194-0.522,0.189-0.855c-0.489-26.889-1.698-54.155-4.2-81.293
		c-0.165-3.463-0.337-6.926-0.506-10.387c-1.209-24.956-1.693-50.845-10.537-74.502c-0.369-0.986-1.775-0.609-1.58,0.436
		c0.619,3.277,1.192,6.563,1.733,9.854c-0.796-3.843-1.538-7.706-2.416-11.522c-0.198-0.861-1.683-0.697-1.571,0.21
		c4.737,38.425,9.527,76.524,12.546,114.904c0.632,17.767,1.142,35.507,1.98,53.122c-10.282-3.657-22.023-3.708-30.656,3.033
		c-0.284,0.219-0.543,0.472-0.817,0.707c-4.095,3.113-6.481,6.876-7.444,10.92c-0.554,1.576-0.956,3.194-1.175,4.824
		c-3.149-0.897-6.202-1.988-9.208-3.164c-34.759-17.673-59.16-47.76-72.096-85.236c-15.521-44.969-9.248-89.688-12.961-135.615
		c8.241,5.629,17.214,9.96,26.291,12.498c4.588,1.979,9.18,3.741,13.69,5.226c0.866,0.285,1.532-0.008,1.949-0.53
		c0.883,0.61,1.839,1.162,3.01,1.611c1.656,0.636,4.247,1.504,6.403,1.382c3.781,1.986,7.683,3.625,11.653,4.765
		c16.022,4.601,36.385,2.383,48.632-9.662c0.059,0.004,0.099,0.033,0.158,0.033c17.413,0.122,32.493-5.013,45.077-13.677
		c17.307-10.57,30.89-27.725,38.047-46.993c2.853-7.68,4.883-15.843,6.244-24.258c33.459,69.625,80.552,131.124,109.992,202.647
		c0.969,3.397,1.904,6.806,2.806,10.217c0.712,2.689,1.104,5.578,1.748,8.358c-0.063,0.299-0.071,0.636,0.025,1.018
		C464.842,464.014,466.101,503.215,434.453,522.937z M316.364,508.296c3.816-8.244,6.795-16.755,8.936-24.106
		C323.257,492.662,320.438,500.835,316.364,508.296z M486.724,415.725c-1.555,4.662-4.036,8.974-7.596,12.274
		c-5.026,4.664-9.745,4.136-14.206,6.41c-0.948-3.68-1.973-7.341-3.109-10.966c-4.773-18.63-12.032-36.691-20.69-53.996
		c22.35-8.417,45.353,5.995,47.409,30.374C488.611,405.045,488.059,410.585,486.724,415.725z"/>
</g>
</svg>
