<?xml version="1.0" encoding="utf-8"?>
<!-- Generator: Adobe Illustrator 16.0.3, SVG Export Plug-In . SVG Version: 6.00 Build 0)  -->
<!DOCTYPE svg PUBLIC "-//W3C//DTD SVG 1.1//EN" "http://www.w3.org/Graphics/SVG/1.1/DTD/svg11.dtd">
<svg version="1.1" id="Capa_1" xmlns="http://www.w3.org/2000/svg" xmlns:xlink="http://www.w3.org/1999/xlink" x="0px" y="0px"
	 width="566.93px" height="566.93px" viewBox="0 0 566.93 566.93" enable-background="new 0 0 566.93 566.93" xml:space="preserve">
<g>
	<path fill="#653333" d="M496.97,366.629c-3.688-40.216-49.81-66.064-82.959-39.646c1.289-42.959-5.532-90.171-28.356-127.15
		c8.734-9.255,16.746-19.204,23.896-29.478c0.91-1.31-0.321-2.997-1.743-3.033c-1.722-0.045-3.442-0.09-5.168-0.134
		c2.426-2.059,4.847-4.118,7.276-6.171c0.769-0.649,0.707-2.041,0-2.698c-2.841-2.636-5.371-4.21-8.413-5.125
		c1.509-0.841,3.017-1.684,4.529-2.522c1.054-0.588,1.271-2.164,0.386-3c-6.514-6.166-13.028-12.331-19.568-18.468
		c-0.173-0.162-0.357-0.245-0.537-0.333c21.16-18.816-7.146-54.209,0.541-76.515c0.502-1.447-0.787-2.597-2.079-2.73
		C358.033,46.849,330.215,62.38,322,88.718c-0.505,1.628,2.058,2.775,2.805,1.182c10.684-22.782,31.76-37.695,57.121-36.154
		c-6.337,24.643,20.074,52.787-0.072,73.857c-1.252,1.31,0.069,3.634,1.636,3.306c0.05,0.379,0.194,0.758,0.559,1.099
		c3.815,3.58,7.634,7.159,11.463,10.724c5.298,4.934,6.634,5.737-0.566,9.752c-1.754,0.977-0.827,3.416,0.96,3.553
		c16.288,1.245,3.522,8.871,0.292,11.583c-1.047,0.877-0.585,2.299,0.379,2.945c-27.422,7.55-51.952-22.416-80.017-14.649
		c-0.012,0.004-0.019,0.011-0.029,0.015c-2.934-12.228-24.178-11.58-33.125-11.017c-7.669,0.481-21.034,1.209-23.369,9.253
		c-0.422-0.442-1.047-0.706-1.87-0.523c-29.251,6.504-52.559,41.561-84.052,20.462c0.462-0.832,1.563-1.559,3.631-2.137
		c1.252-0.35,1.747-2.021,0.779-2.945c-2.061-1.967-3.793-3.176-5.922-3.986c3.901-2.705,6.803-5.935,9.402-10.373
		c0.523-0.897,0.086-2.376-1.047-2.571c-2.725-0.177-5.244-0.946-7.583-2.236c10.986-3.927,20.77-10.613,26.462-21.135
		c0.465-0.861-0.686-1.843-1.393-1.078c-0.033,0.034-0.062,0.065-0.094,0.1c-0.025-0.036-0.036-0.072-0.065-0.108
		c-10.831-12.482-14.27-24.391-11.588-40.949c1.003-6.204,2.79-12.264,4.446-18.313c1.079-3.928,2.252-16.152,6.626-17.914
		c3.317-1.333,14.989,4.448,17.432,5.614c5.533,2.642,10.741,6.02,15.418,9.983c8.489,7.189,14.354,16.236,19.875,25.733
		c-0.874,0.742,0.285,2.077,1.245,1.561c8.03-4.32,15.836-8.698,24.087-12.457c-0.945,1.814-1.624,3.747-2.187,6.154
		c-0.263,1.133,0.809,2.582,2.079,2.079c5.706-2.252,11.411-4.504,17.118-6.756c-0.968,1.576-1.801,3.241-2.596,5.181
		c-0.541,1.317,0.992,2.433,2.158,2.158c9.507-2.241,18.031-1.447,27.213,1.299c2.043,0.61,2.746-2.37,0.863-3.12
		c-4.678-1.86-9.33-2.988-14.372-3.227c-5.714-0.271-14.7,3.609-6.926-4.937c1.054-1.161,0.04-3.588-1.688-2.898
		c-3.779,1.507-7.559,3.014-11.333,4.521c-2.963,1.182-12.646,6.612-4.476-3.147c0.935-1.119,0.083-3.492-1.624-2.788
		c-9.727,4.01-19.114,8.564-27.538,14.846c-8.055-24.416-32.677-40.853-57.323-44.617c-1.184-0.182-2.364,0.283-2.714,1.541
		c-6.197,22.185-24.372,67.234,3.804,82.735c-7.911,8.254-15.649,14.366-27.267,17.757c-1.498,0.438-1.627,2.342-0.415,3.169
		c-1.061-0.724,8.027,5.648,7.467,3.939c1.473,4.497-5.839,7.809-8.795,9.409c-1.245,0.677-1.097,2.961,0.419,3.216
		c6.576,1.496,7.052,2.597,1.429,3.302c-0.993,0.276-1.761,1.662-1.058,2.595c12.874,16.983,27.147,34.095,43.537,47.873
		c-16.393,29.596-23.625,66.055-25.52,100.966c-9.463-9.816-25.451-11.936-38.163-6.67c-19.106,7.911-29.873,28.479-31.764,48.225
		c-4.493,46.868,30.789,80.884,69.107,101.188c-4.775,1.177-9.022,3.963-12.051,7.915c-4.84,6.323-7.077,23.748,3.927,24.657
		c1.642,7.983,9.893,12.902,17.616,10.824c5.172,5.132,13.917,3.926,18.157-1.498c0.123,0.285,0.216,0.57,0.354,0.852
		c4.097,8.171,16.295,12.841,23.64,6.706c1.04,1.386,2.285,2.563,3.649,3.37c5.746,3.407,13.188,1.74,16.753-3.565
		c6.189,3.667,15.609,2.649,19.074-6.013c0.631-1.577,0.945-3.173,1.068-4.757c14.303,3.851,32.309,5.63,46.345,0.845
		c1.244-0.426,1.082-2.346-0.318-2.354c-7.341-0.018-14.588,1.386-21.965,1.364c-8.109-0.021-16.05-0.996-24.065-2.129
		c-0.325-4.814-2.743-9.373-6.514-12.759c-3.75-3.374-8.211-5.247-12.939-6.275c0.029-0.261,0.018-0.542-0.068-0.845
		c-4.667-16.552-7.886-33.153-7.886-50.423c0-15.097,3.223-29.303,5.872-43.901c9.265,26.051,24.268,49.261,44.464,68.569
		c0.941,0.898,2.429,0.693,3.115-0.404c14.027-22.38,24.743-46.309,32.186-71.481c13.563,30.659,14.216,62.159,13.051,95.449
		c-0.022,0.593,0.176,1.032,0.454,1.39c-12.483,6.01-26.281,16.443-23.452,30.14c1.404,6.774,8.554,10.308,15.072,9.269
		c4.854-0.776,8.665-3.865,11.3-7.817c0.585,4.417,2.559,8.405,7.503,9.21c4.104,0.664,7.922-2.024,9.89-5.479
		c0.822-1.447,1.281-3.024,1.522-4.655c4.587,5.172,14.141,4.811,18.591-1.56c0.956-1.371,1.642-2.812,2.118-4.287
		c7.681,8.72,21.528,12.466,29.869,1.952c1.313-1.66,2.104-3.544,2.461-5.485c7.525-0.542,14.343-7.359,12.697-15.437
		c-0.509-2.494-1.852-4.742-3.667-6.562c3.223-4.349,1.228-11.033-3.699-13.833c-2.393-1.357-5.104-1.849-7.922-1.779
		C460.207,443.973,501.358,414.489,496.97,366.629z M268.435,152.065c3.555-2.402,11.051-2.155,14.97-2.407
		c6.49-0.422,32.839-1.949,27.097,13.429c-2.852,7.644-14.809,13.195-21.07,17.134c-0.285,0.181-0.477,0.422-0.62,0.684
		c-7.828-3.67-15.346-7.619-20.384-15C265.41,161.483,261.927,156.454,268.435,152.065z M301.805,212.817
		c-3.621-3.64-7.233-6.661-9.41-11.474c-1.584-3.508-1.638-6.864-1.873-10.379c4.281,6.272,11.586,11.201,19.168,12.845
		c0.029,0.137,0.033,0.269,0.098,0.406c2.855,6.204,6.468,14.595,2.477,21.178c-5.031,8.292-15.09,4.264-20.828-0.643
		c-7.089-6.061-11.899-14.209-16.328-22.295c5.096-3.441,9.459-8.247,11.849-13.233c-2.476,9.267,5.093,22.687,14.083,24.906
		C301.793,214.314,302.367,213.383,301.805,212.817z M191.763,197.074c-3.696-4.172-7.258-8.459-10.748-12.801
		c-1.822-2.269-4.594-4.591-6.103-6.671c24.267,23.403,61.38-11.443,84.319-20.099c0.173-0.067,0.296-0.171,0.437-0.264
		c0.036,0.796,0.141,1.635,0.357,2.543c2.71,11.383,14.656,20.931,25.928,23.401c-3.346,5.603-6.103,10.693-11.921,14.554
		c-6.11,4.053-12.062,3.814-18.674,5.764c-1.646,0.485-1.494,2.646,0,3.192c5.414,1.983,11.917,0.424,17.753-2.988
		c4.197,12.852,16,30.75,30.905,30.587c16.638-0.181,14.454-18.988,10.005-29.878c3.576,0.153,7.076-0.505,10.209-2.186
		c1.466-0.783,0.846-3.32-0.865-3.205c-7.367,0.496-13.56,1.283-20.442-2.285c-5.761-2.985-9.532-7.496-12.64-12.855
		c0.207,0.007,0.42-0.009,0.654-0.09c9.261-3.167,26.577-14.137,25.916-25.802c29.209-0.888,56.797,26.882,85.641,15.162
		c-6.03,8.028-12.549,15.856-19.532,23.233c-0.527,0.023-1.015,0.469-1.003,1.066c-26.281,27.402-59.219,48.208-98.702,48.512
		c-25.404,0.193-48.43-9.836-67.833-25.716C206.871,213.248,199.085,205.34,191.763,197.074z M123.136,390.385
		c-5.284-20.266-2.739-43.905,11.823-59.897c14.281-15.678,35.864-17.306,50.863-3.32c-0.329,8.302-0.368,16.494-0.159,24.456
		c0.729,27.778,4.836,56.551,13.054,83.803c-1.682-2.122-3.363-4.251-5.006-6.406c-0.548-0.715-1.584-0.848-2.107,0
		c-1.321,2.141-2.866,9.388-4.292,10.813c-3.172,3.165-10.607-2.541-13.494-4.685c-0.866-0.64-2.176,0.426-1.83,1.407
		c0.704,1.999,1.718,4.089,2.18,6.153c0.844,3.775,2.158,4.014-2.324,4.27c-2.978,0.17-6.493-0.805-9.773-2.068
		C143.848,431.146,129.148,413.454,123.136,390.385z M253.507,481.33c-3.862-0.444-7.807-0.47-11.611-0.394
		c-1.101,0.021-1.036,1.534,0,1.664c10.838,1.36,27.202,2.948,30.988,15.635c1.375,4.608,0.015,10.855-4.504,13.277
		c-7.197,3.858-13.126-4.01-12.877-10.372c0.076-1.956-2.765-2.224-3.324-0.448c-1.603,5.097,0.054,9.301,3.158,12.033
		c-3.598,2.771-8.817,4.021-12.776,1.559c-5.074-3.15-4.519-8.441-3.995-13.512c0.126-1.231-1.653-1.896-2.443-1.015
		c-2.956,3.313-2.678,8.146-0.718,12.131c-6.489,2.71-14.729,0.858-18.316-5.688c-5.042-9.207,2.476-19.406,10.892-22.91
		c1.895-0.787,1.184-3.865-0.874-3.173c-9.358,3.165-17.302,13.624-15.18,23.644c-3.317,4.555-11.517,5.771-15.104,0.888
		c-3.822-5.197,0.198-11.596,5.128-13.932c1.895-0.895,0.43-3.367-1.31-3.107c-8.088,1.198-11.365,12.134-7.481,18.652
		c-5.537-0.39-11.048-3.88-12.177-9.601c-1.249-6.309,3.476-11.693,9.286-13.26c2.342-0.635,1.332-4.01-0.993-3.587
		c-6.81,1.227-12.126,7.543-12.394,14.389c-7.196-5.066-4.219-16.121,1.779-21.527c3.183-2.873,7.482-4.422,11.751-4.407
		c0.639,0.004,1.252,0.068,1.852,0.162c2.133,1.029,4.27,2.032,6.402,2.978c0.884,0.394,1.714,0.21,2.364-0.22
		c0.44,0.104,0.884,0.202,1.339,0.271c0.963,0.138,1.797-0.729,1.288-1.678c-1.555-2.898-4.851-4.418-8.33-5.093
		c-10.069-4.771-19.987-10.301-29.147-16.75c3.562,1.072,7.279,1.664,11.311,1.79c0.729,0.021,1.379-0.779,1.133-1.494
		c-1.018-2.97-2.035-5.94-3.057-8.911c3.782,2.343,7.647,3.826,12.303,4.692c0.902,0.17,1.509-0.368,1.624-1.234
		c0.318-2.39,1.133-10.171,3.703-9.816c1.74,0.241,4.316,4.638,5.172,5.72c0.429,0.545,1.007,0.462,1.415,0.112
		c4.678,14.826,10.567,29.18,17.851,42.62c1.372,2.537,4.869,0.307,3.779-2.209c-3.501-8.085-6.767-16.173-9.777-24.293
		c0.992,0.3,1.985,0.596,2.981,0.913c-0.058,0.242-0.123,0.487-0.181,0.729c-0.267,1.13,1.311,1.523,1.714,0.47
		c1.321-3.439,2.544-6.922,3.718-10.416c3.208,3.682,6.435,7.341,9.668,11.001c0.845,0.96,2.194,0.313,2.588-0.683
		c1.512-3.829,3.263-7.518,5.165-11.152c3.071,3.047,6.146,6.089,9.232,9.124c0.224,0.221,0.469,0.332,0.715,0.397
		C248.678,464.41,250.808,473.224,253.507,481.33z M246.513,450.354c-2.837-2.801-5.673-5.598-8.521-8.388
		c-0.715-0.7-2.021-0.596-2.516,0.324c-1.992,3.707-3.721,7.511-5.313,11.391c-3.27-3.652-6.533-7.309-9.835-10.929
		c-0.754-0.826-2.125-0.364-2.418,0.64c-1.054,3.605-2.01,7.243-2.905,10.888c-1.473-0.722-2.913-1.476-4.381-2.176
		c-11.979-33.027-19.54-66.62-20.236-102.708c-0.119-6.352-0.033-12.707,0.224-19.052c0.361-0.383,0.542-0.957,0.267-1.498
		c-0.054-0.112-0.126-0.209-0.184-0.317c0.697-15.072,2.436-30.093,5.298-44.912c4.049-20.976,11.347-40.53,17.504-60.871
		c0.848,0.689,1.671,1.417,2.53,2.088c-0.224,0.146-0.419,0.352-0.527,0.67c-5.594,16.674-7.608,33.734-6.789,51.285
		c0.065,1.368,1.83,2.31,2.855,1.184c1.003-1.104,2.01-2.205,3.014-3.31c-0.65,22.571,0.458,44.998,3.375,67.422
		c0.227,1.732,2.154,2.313,3.223,0.873c2.891-3.895,5.775-7.788,8.655-11.683c1.584,19.854,6.651,38.646,15.378,56.706
		c0.545,1.13,2.396,1.101,2.949,0c1.631-3.241,3.262-6.481,4.897-9.723c0.408,1.354,0.841,2.692,1.277,4.031
		C245.264,402.406,243.542,427.143,246.513,450.354z M322.993,408.462c-3.093,7.685-6.562,15.22-10.341,22.586
		c-1.616,3.158-7.693,17.869-11.383,18.37c-3.916,0.534-10.293-9.214-12.96-12.404c-5.432-6.507-10.344-13.462-14.721-20.713
		c-8.153-13.494-14.177-27.978-18.461-43.128c-0.379-1.343-2.443-1.758-3.122-0.408c-1.278,2.545-2.761,8.831-5.952,9.128
		c-1.498,0.137-6.691-17.458-7.435-20.021c-3.356-11.566-5.074-23.329-5.677-35.354c-0.09-1.815-2.223-2.234-3.23-0.873
		c-2.952,3.98-5.897,7.962-8.842,11.949c-2.725-22.38-3.688-44.781-2.855-67.342c0.054-1.408-1.862-2.216-2.826-1.169
		c-1.076,1.169-2.147,2.339-3.223,3.512c-0.245-15.736,1.891-30.966,5.988-46.26c19.229,14.586,41.36,24.226,67.54,23.696
		c36.105-0.734,67.061-18.094,92.253-42.142c0.032,0.079,0.025,0.155,0.064,0.234c8.146,15.992,9.723,32.971,4.768,49.966
		c-2.66-2.18-5.319-4.363-7.976-6.547c-1.56-1.285-4.075-0.119-3.516,2.046c5.223,20.315,4.432,40.375-2.26,60.033
		c-2.891-3.439-5.781-6.882-8.672-10.321c-1.13-1.343-3.754-0.293-3.584,1.483c2.418,25.086-1.249,49.462-11.072,72.567
		c-2.451-3.959-4.078-8.069-5.031-12.92c-0.387-1.956-3.465-1.892-3.895,0C333.156,379.445,328.742,394.167,322.993,408.462z
		 M336.754,379.665c0.64-2.28,1.3-4.558,1.889-6.86c1.31,3.399,3.067,6.539,5.482,9.776c0.808,1.083,2.811,1.541,3.512,0
		c10.332-22.759,14.93-46.737,13.588-71.492c2.288,2.729,4.572,5.461,6.857,8.189c1.118,1.335,3.021,0.407,3.529-0.932
		c7.42-19.528,9.022-39.617,4.919-59.81c1.881,1.538,3.765,3.079,5.642,4.624c1.245,1.021,2.97,0.657,3.508-0.928
		c6.485-19.08,5.021-38.352-4.187-56.26c-0.228-0.446-0.549-0.695-0.896-0.861c1.076-1.066,2.094-2.194,3.147-3.286
		c18.774,43.391,28.169,86.948,25.191,134.672c-2.486,39.805-12.145,78.556-24.838,116.234c-1.158,0.451-2.046,1.411-2.938,2.256
		c-0.7,0.66-1.328,1.354-1.949,2.054c-1.599-3.563-4.031-6.226-7.644-7.983c-0.83-0.404-2.101-0.13-2.296,0.935
		c-0.423,2.267-1.137,4.313-2.136,6.287c-1.459-3.197-2.44-6.493-2.967-10.044c-0.163-1.104-1.646-1.256-2.336-0.617
		c-4.01,3.721-7.045,8.445-7.846,13.924C354.421,431.835,352.354,402.685,336.754,379.665z M381.641,510.975
		c-4.316,1.185-9.019-1.035-10.546-5.153c-0.19-1.884-0.559-3.746-0.992-5.482c-0.469-1.888-3.746-1.552-3.489,0.473
		c0.476,3.771,1.529,7.872,0.263,11.597c-1.021,3.006-4.157,6.196-7.604,4.983c-3.594-1.259-4.508-6.143-4.702-10.145
		c0.354-0.913,0.664-1.834,0.909-2.761c0.494-1.849-2.338-3.198-3.193-1.347c-2.628,5.677-6.299,12.376-13.47,12.632
		c-12.715,0.458-8.593-13.653-3.844-19.615c6.475-8.139,16.468-12.415,25.249-17.54c1.188-0.693,0.408-2.722-0.96-2.274
		c-1.779,0.585-3.761,1.317-5.843,2.184c0.23-6.096,0.462-12.364,0.566-18.706c0.036,1.065,1.465,1.434,1.884,0.3
		c1.477-4.002,3.335-7.481,6.078-10.561c0.761,3.747,1.999,7.298,3.771,10.737c0.563,1.09,2.024,0.885,2.634,0
		c1.617-2.342,2.726-4.793,3.451-7.471c2.165,1.447,3.735,3.313,4.785,5.919c0.581,1.443,2.537,1.271,3.028,0.228
		c0.967-0.649,1.928-1.277,2.848-2.028c0.083-0.068,0.181-0.141,0.267-0.209c-2.642,7.694-5.392,15.353-8.243,22.957
		c-0.686,1.837,0.953,2.981,2.498,2.829c5.479,5.219,11.842,9.507,11.498,18.194C388.321,504.915,386.022,509.77,381.641,510.975z
		 M427.693,468.773c3.359,1.798,4.868,5.963,3.414,9.275c-4.248-3.024-10.016-3.984-14.545-1.122
		c-1.678,1.058-0.628,4.075,1.411,3.35c5.605-2,12.809-0.404,14.769,6.034c1.794,5.887-2.978,11.365-8.478,12.736
		c-0.119-7.958-6.98-15.671-15.826-12.224c-2.118,0.822-1.343,4.067,0.96,3.479c4.706-1.201,9.986,1.708,11.062,6.674
		c0.17,0.79,0.185,1.566,0.131,2.328c-0.062-0.004-0.123,0-0.181-0.008c-1.22-0.162-1.462,1.848-0.289,2.126
		c0.004,0.004,0.011,0.004,0.019,0.004c-1.195,3.512-4.476,6.384-7.911,7.51c-7.594,2.483-14.56-1.869-19.818-7.045
		c0.885-8.763-5.092-18.1-12.815-22.412c5.817-15.599,11.257-31.406,16.035-47.398c1.313-1.169,2.854-1.801,4.576-1.999
		c0.145,6.2,0.289,12.4,0.434,18.601c0.024,1.032,1.306,2.025,2.266,1.3c2.996-2.252,6.017-3.577,9.604-4.158
		c-0.455,3.569-0.91,7.14-1.368,10.709c-0.123,0.978,1.079,1.754,1.935,1.476c2.483-0.812,4.97-1.62,7.453-2.425
		c0.043,1.252,0.111,2.49,0.245,3.728c-7.182,3.678-14.375,7.085-21.297,10.341c-2.754,1.295-0.354,5.373,2.389,4.085
		c0.138-0.064,0.278-0.134,0.415-0.198c5.168-0.566,9.665-3.743,14.649-5.125C420.359,467.457,424.434,467.027,427.693,468.773z
		 M423.658,457.82c-0.015-1.433-0.098-2.862-0.151-4.316c-0.036-0.945-0.953-1.79-1.932-1.473l-7.092,2.307l1.325-10.318
		c0.097-0.776-0.787-1.6-1.534-1.534c-4.031,0.357-7.424,1.439-10.697,3.45l-0.48-17.432c-0.021-0.766-0.653-1.502-1.461-1.462
		c-1.841,0.079-3.443,0.479-4.869,1.177c9.146-31.396,15.624-63.517,17.086-96.287c0.018-0.419,0.024-0.845,0.039-1.26
		c16.216-11.131,37.549-13.888,55.075-3.667c20.737,12.098,27.118,38.625,21.781,60.767
		C482.563,421.719,453.505,442.229,423.658,457.82z"/>
	<path fill="#653333" d="M367.738,65.215c-0.364-0.848-1.526-0.931-2.233-0.584c-12.661,6.208-23.384,14.442-31.634,25.953
		c-0.487,0.684,0.596,1.501,1.162,0.895c0.111-0.123,0.234-0.24,0.346-0.361c0.084,0.104,0.185,0.189,0.336,0.218
		c4.984,0.938,10.055,0.874,15.119,0.835c-1.181,1.797-2.364,3.595-3.541,5.396c-0.631,0.965,0.191,2.382,1.336,2.332
		c5.117-0.235,9.961,0.311,14.833,1.575c-1.848,2.559-3.952,4.733-6.503,6.72c-0.846,0.659-0.459,2.025,0.324,2.512
		c3.363,2.086,6.67,3.577,10.304,4.63c-0.819,1.178-1.14,2.707-0.735,4.383c0.797,3.31,3.832,4.751,6.914,5.401
		c0.021,0.926,1,1.769,2.011,1.182c0.443-0.26,0.841-0.54,1.252-0.811c0.278-0.065,0.495-0.214,0.649-0.422
		C397.759,110.831,374.062,80.011,367.738,65.215z M371.99,113.096c-3.995-0.803-7.619-2.144-11.119-4.048
		c2.569-2.265,4.655-4.722,6.539-7.734c0.553-0.886,0.004-2.035-0.945-2.322c-5.07-1.53-9.846-2.212-14.975-2.216
		c1.158-1.79,2.317-3.581,3.477-5.371c0.627-0.976-0.199-2.292-1.311-2.285c-5.713,0.036-11.467-0.178-17.107,0.785
		c5.381-5.648,11.105-10.972,17.594-15.346c1.466-0.989,7.785-5.715,9.633-5.558c3.248,0.271,2.988,3.268,4.447,5.375
		c9.716,14.045,19.211,33.244,7.326,48.079c-2.263-0.777-3.461-2.846-3.559-6.242C373.538,115.913,373.524,113.404,371.99,113.096z"
		/>
	<path fill="#653333" d="M198.581,55.328c-1.671-0.307-2.859,1.236-2.129,2.769c8.355,17.578-9.174,31.973-6.017,49.367
		c1.325,7.271,6.121,13.711,13.469,14.428c-0.383,1.559,2.101,2.752,3.248,1.157c1.588-2.478,3.793-3.945,6.616-4.4
		c1.238-0.309,1.736-2.028,0.769-2.911c-2.064-1.884-3.71-3.928-5.06-6.262c6.035-0.708,12.065-1.453,18.1-2.153
		c1.18-0.137,2.014-1.254,1.379-2.402c-0.617-1.106-1.231-2.212-1.844-3.318c3.887,0.042,7.813,0.056,11.607-0.724
		c0.307-0.063,0.451-0.305,0.516-0.568c1.155,0.301,2.663-0.652,2.403-2.232C238.035,76.227,220.094,59.275,198.581,55.328z
		 M224.425,98.434c-1.224-0.013-1.92,1.335-1.361,2.366l1.967,3.6c-6.078,0.648-12.163,1.261-18.24,1.931
		c-1.368,0.15-2.075,1.339-1.494,2.606c1.281,2.815,2.819,5.146,4.807,7.305c-1.887,0.852-3.417,2.088-4.811,3.703
		c-19.464-6.57-8.684-27.449-4.725-40.785c2.018-6.796,2.469-12.984,0.48-19.366c19.24,5.163,32.331,19.677,37.015,39.269
		c0.018,0.07,0.058,0.112,0.079,0.175C233.661,98.345,228.98,98.482,224.425,98.434z"/>
	<path fill="#653333" d="M243.041,138.017c-1.379-3.891-5.89-5.486-9.672-4.409c-0.61,0.173-1.177,0.442-1.718,0.75
		c-0.18,0.036-0.364,0.087-0.548,0.191c-7.756,4.488-1.159,17.964,7.24,13.973C242.084,146.743,244.459,142.024,243.041,138.017z"/>
	<path fill="#653333" d="M346.878,135.037c-0.967-2.876-3.695-5.816-6.954-5.728c-1.217,0.034-2.387,0.471-3.386,1.16
		c-0.357-0.098-0.762-0.085-1.194,0.125c-6.078,2.925-5.775,12.422,0.675,14.698C342.482,147.571,349.131,141.708,346.878,135.037z"
		/>
	<path fill="#653333" d="M350.307,116.174c-1.689-1.709-5.309-3.705-7.485-1.826c-0.577,0.498-0.39,1.51,0.242,1.864
		c0.802,0.449,1.588,0.355,2.462,0.558c1.021,0.236,1.963,0.751,2.734,1.449c1.455,1.312,2.545,3.427,2.368,5.421
		c-0.087,0.971,1.422,1.128,1.671,0.226C353.09,121.003,352.429,118.323,350.307,116.174z"/>
	<path fill="#653333" d="M228.702,117.583c-4.306,1.064-7.705,4.533-8.358,8.969c-0.191,1.308,1.66,1.909,2.039,0.563
		c0.949-3.385,3.609-6.082,7.045-6.917C231.12,119.787,230.402,117.165,228.702,117.583z"/>
</g>
</svg>
