<?xml version="1.0" encoding="utf-8"?>
<!-- Generator: Adobe Illustrator 16.0.3, SVG Export Plug-In . SVG Version: 6.00 Build 0)  -->
<!DOCTYPE svg PUBLIC "-//W3C//DTD SVG 1.1//EN" "http://www.w3.org/Graphics/SVG/1.1/DTD/svg11.dtd">
<svg version="1.1" id="Capa_1" xmlns="http://www.w3.org/2000/svg" xmlns:xlink="http://www.w3.org/1999/xlink" x="0px" y="0px"
	 width="566.93px" height="566.93px" viewBox="0 0 566.93 566.93" enable-background="new 0 0 566.93 566.93" xml:space="preserve">
<g>
	<path fill="#653333" d="M248.038,134.278c1.23,9.65,13.953,18.706,22.775,20.354c0.104,0.019,0.203,0.011,0.3,0.002
		c0.245,0.575,0.873,0.955,1.623,0.539c8.05-4.475,22.573-15.084,21.444-25.898c-1.075-10.299-19.295-10.419-26.709-10.078
		C259.104,119.583,246.656,123.431,248.038,134.278z M270.442,122.23c3.964,0.042,9.272-0.141,12.817,1.7
		c4.586,2.382,8.847,7.234,5.571,12.61c-4.058,6.659-10.95,11.764-17.044,16.364c-0.057-0.053-0.105-0.109-0.182-0.154
		c-5.884-3.414-11.692-6.103-16.255-11.368C243.67,127.903,260.343,122.125,270.442,122.23z"/>
	<path fill="#653333" d="M274.624,143.585c0.942-1.163,1.687-2.483,2.536-3.719c0.467,0.459,1.071,0.825,1.826,1.023
		c4.244,1.114,7.05-5.094,3.521-7.611c-1.333-0.953-2.588-0.57-3.661,0.244c-1.735,0.353-2.682,1.707-2.819,3.175
		c-1.33,1.799-2.559,3.835-3.032,5.939C272.8,143.503,273.967,144.396,274.624,143.585z"/>
	<path fill="#653333" d="M257.872,132.41c0.134-0.577,0.672-0.873,1.212-0.923c6.984-0.66,8.355,7.541,7.625,12.698
		c-0.129,0.916-1.417,0.579-1.499-0.204c-0.237-2.297-0.447-5.722-1.816-7.912c-0.063,1.182-0.458,2.341-1.204,3.419
		c-0.49,0.707-1.354,0.829-2.009,0.258C258.021,137.866,257.233,135.177,257.872,132.41z"/>
	<path fill="#653333" d="M135.968,538.751c8.55,21.835,39.617,19.671,50.268,1.103c9.531,14.467,33.436,15.45,45.765,4.276
		c1.827-1.654,3.335-3.507,4.596-5.491c0.009,0,0.016,0.007,0.024,0.007c9.889,0.992,20.079,0.175,30.035,0.498
		c9.845,0.319,19.66,1.229,29.5,1.54c0.847,0.826,1.78,1.612,2.813,2.351c10.838,7.755,35.25,10.774,44.957-1.141
		c12.77,15.713,41.506,21.193,50.592-1.566c3.775-9.454-0.381-19.296-8.256-25.187c-8.454-6.319-19.791-7.249-30.018-5.648
		c0.596-0.79,1.166-1.596,1.697-2.416c1.436-2.054,2.822-4.148,4.098-6.306c0.325-0.011,0.658-0.126,0.956-0.431
		c29.573-30.46,55.501-69.857,52.003-114.198c-0.889-11.29-4.148-24.762-13.326-31.993c27.434-9.294,49.232-31.313,60.277-57.844
		c0.453-1.087-0.945-1.711-1.76-1.354c-1.834,0.801-3.668,1.603-5.506,2.401c11.139-15.87,17.92-33.836,20.129-53.214
		c0.1-0.894-1.02-1.345-1.697-0.973c-2.811,1.546-5.584,3.253-8.473,4.659c-4.15,2.024-3.178,2.436-3.369-1.436
		c-0.242-4.97,0.875-10.325,1.08-15.321c0.418-10.23,0.193-20.496-1.018-30.667c-2.252-18.92-8.084-36.985-19.008-52.701
		c-0.605-0.871-2.244-0.657-2.168,0.588c0.389,2.692,0.119,5.319-0.793,7.883c-9.764-21.232-24.873-39.056-44.217-52.263
		c-0.617-0.422-1.586-0.004-1.744,0.709c-7.01,31.382-13.601,65.143-2.111,96.013c-1.904-1.619-4.036-2.943-6.564-4.039
		c-0.889-0.385-1.908,0.242-1.665,1.282c4.669,19.918,9.501,39.797,14.479,59.64c-2.889-3.116-6.289-5.5-10.468-7.266
		c-0.808-0.342-2.13,0.243-1.708,1.313c12.85,32.637,2.873,70.032-22.949,93.097c0.391-12.577-0.417-25.281-1.483-37.902
		c0.909,1.478,1.818,2.954,2.728,4.432c0.624,1.017,2.057,0.532,2.145-0.581c1.762-22.637-0.636-45.038-7.124-66.719
		c0.42,0.426,0.837,0.853,1.255,1.279c0.648,0.665,2.082,0.21,1.969-0.813c-2.438-21.816-10.74-41.882-24.373-59.004
		c3.852-4.893,6.979-10.307,9.341-16.253c1.374,2.392,2.413,4.869,3.175,7.606c0.359,1.295,2.025,1.117,2.455,0
		c7.611-19.814,8.434-40.728,2.779-61.016l4.796,3.405c0.871,0.62,1.976-0.405,1.729-1.33
		c-3.979-14.915-11.036-29.033-21.507-40.445c14.408-6.847,13.502-39.182,36.248-27.268c1.625,0.852,2.947-1.097,1.867-2.421
		c-9.873-12.113-20.223-31.312-37.393-33.334c-15.245-1.797-28.605,7.898-36.912,19.876c-7.134-2.333-14.335-2.857-21.825-1.55
		c1.854-2.344,3.706-4.688,5.562-7.03c0.512-0.645,0.279-1.947-0.764-1.845c-7.917,0.774-15.282,2.747-22.421,5.979
		c1.054-2.082,1.785-4.181,2.305-6.719c0.192-0.939-0.711-1.619-1.567-1.204c-6.645,3.223-12.262,7.77-16.145,13.685
		c-1.836-0.026-3.637,0.338-5.322,0.996c-0.001-0.069-0.007-0.141-0.037-0.219c-5.542-14.506-20.298-25.932-36.254-24.831
		c-18.811,1.297-31.066,17.624-39.614,32.647c-0.599,1.051,0.407,2.594,1.654,2.152c7.775-2.753,17.168-5.833,23.294,1.383
		c3.829,4.511,1.98,8.698,3.056,14.124c1.237,6.236,5.093,10.938,10.416,14.186c1.643,1.002,3.13-1.566,1.503-2.573
		c-8.746-5.405-8.2-12.014-9.242-20.745c-0.433-3.631-1.63-6.612-4.5-8.959c-6.362-5.202-14.431-3.783-21.677-1.471
		c7.523-12.599,17.45-25.022,32.741-27.557c16.614-2.753,29.549,8.847,37.341,22.185c0.043,0.076,0.101,0.132,0.162,0.181
		c-1.806,0.891-3.439,2.142-4.756,3.698c-0.776,0.918,0.522,2.251,1.336,1.334c2.436-2.743,5.452-4.387,8.955-5.01
		c-1.29,2.211-2.347,4.6-3.138,7.169c-0.146,0.473,0.567,0.771,0.797,0.335c1.257-2.387,2.636-4.625,4.128-6.734
		c8.117,26.191,6.086,50.354,0.624,76.772c-0.024,0.118-0.004,0.229,0.032,0.332c-4.985,1.255-9.673,3.483-13.941,6.918
		c-11.811,9.503-21.719,32.124-9.026,44.977c4.073,4.126,9.404,5.945,15.015,6.079c-0.021,0.039-0.054,0.059-0.073,0.101
		c-5.243,11.833-12.12,43.977,10.794,42.431c9.871-0.666,17.303-7.93,22.675-17.053c0.057,0.01,0.098,0.038,0.158,0.042
		c8.91,0.548,17.101-1.196,24.91-5.204l-0.58,5.007c-0.094,0.82,0.865,1.384,1.567,1.193c8.626-2.328,15.589-6.873,21.076-13.633
		l1.153,9.698c0.131,1.118,1.237,1.584,2.129,0.882c1.189-0.936,2.332-1.904,3.439-2.902c1.481,5.416,2.864,10.854,4.027,16.351
		c0.754,3.551,1.481,7.116,2.029,10.707c0.561,3.706,3.262,13.226-3.426,2.174c-0.643-1.06-2.537-0.351-2.063,0.87
		c9.921,25.525,13.419,52.729,10.251,79.853c-1.473-4.306-2.943-8.612-4.416-12.918c-0.389-1.136-2.238-1.008-2.178,0.294
		c0.738,15.82-2.057,30.997-8.266,45.437c-0.719-3.69-1.438-7.384-2.156-11.077c-0.215-1.113-2.082-1.141-2.277,0
		c-2.385,14.069-12.094,24.035-21.263,34.261c-8.544,9.532-16.267,19.723-22.87,30.698c-1.439,2.391-6.965,15.701-9.617,15.997
		c-2.127,0.236-11.501-13.009-12.726-14.543c-3.929-4.916-7.525-10.062-10.51-15.494l0.005-0.108c0.017-0.296-0.166-0.503-0.4-0.602
		c-3.964-7.381-6.768-15.297-7.673-23.902c-0.137-1.297-2.134-1.805-2.446-0.33c-1.278,6.048-2.554,12.097-3.832,18.146
		c-20.963-18.705-30.749-47.259-25.259-74.946c0.292-1.473-1.538-2.229-2.381-1.004c-1.406,2.048-2.813,4.095-4.22,6.143
		c-0.242-17.214,1.314-34.238,4.85-51.138c0.244-1.166-1.013-2.405-2.148-1.651c-2.338,1.55-4.676,3.1-7.013,4.65
		c4.776-22.909,11.978-45.131,21.528-66.502c5.334,5.48,12.008,9.555,19.764,11.916c1.564,0.476,2.227-1.969,0.673-2.44
		c-7.627-2.317-14.214-6.418-19.387-11.967c0.389-1.255-0.837-2.332-1.833-2.098c-2.666-3.265-4.891-6.957-6.586-11.04
		c-0.482-1.162-1.949-1.205-2.417,0c-1.061,2.734-2.122,5.469-3.182,8.203c-4.973-9.486-7.202-19.523-6.705-30.353
		c0.054-1.167-1.353-1.51-2.119-0.878c-1.376,1.133-2.752,2.266-4.129,3.399c-1.907-13.463,0.025-26.66,5.743-39.089
		c0.65-1.414-1.349-2.651-2.123-1.242c-3.064,2.625-3.824,2.262-2.279-1.088c0.359-1.353,0.771-2.689,1.235-4.009
		c1.163-3.443,2.584-6.779,4.239-10.013c3.154-6.164,7.118-11.93,11.505-17.277c0.268-0.328-0.15-0.767-0.47-0.471
		c-10.691,9.87-17.105,22.399-20.114,36.575c-0.163,0.767,0.346,1.544,1.175,1.543c1.008,0,1.872-0.114,2.645-0.333
		c-4.641,12.222-5.863,24.952-3.644,38.067c0.171,1.01,1.432,1.074,2.072,0.546c1.25-1.027,2.499-2.055,3.748-3.081
		c-0.065,10.176,2.249,19.732,6.937,28.746c-0.556-0.23-1.198-0.129-1.518,0.597c-11.332,25.694-19.167,52.662-23.787,80.348
		c-0.18,1.075,0.851,2.079,1.911,1.468c1.811-1.044,3.621-2.087,5.432-3.13c-6.607,24.214-9.876,48.931-9.952,74.059
		c-0.003,0.776,0.996,1.516,1.699,0.975c3.485-2.667,3.758-4.309,3.42,1.1c-0.199,3.177-0.286,6.362-0.312,9.544
		c-0.059,6.896,0.255,13.793,0.92,20.658c0.22,2.273,0.496,4.534,0.797,6.793c-6.048-14.323-20.759-24.845-36.694-22.827
		c-17.254,2.183-25.654,16.6-26.337,32.887c-0.896,21.346,7.935,41.869,18.741,59.798c12.303,20.413,26.415,39.682,38.797,60.068
		c0.24,0.396,0.558,0.586,0.883,0.64c1.71,3.282,3.434,6.549,5.286,9.753c-11.723-3.936-26.165-7.316-36.846,0.911
		C134.858,518.151,132.39,529.611,135.968,538.751z M245.154,173.976c0.136-0.453-0.017-0.851-0.285-1.153
		c10.227-0.485,20.979-6.214,26.522-13.584c0.168,0.29,0.358,0.555,0.534,0.837c-0.494,0.179-0.912,0.592-0.972,1.248
		c-1.283,13.924-9.856,25.302-17.889,36.218c-0.504,0.685,0.622,1.531,1.17,0.902c9.206-10.563,17.71-21.699,19.408-35.94
		c3.001,3.776,6.829,6.544,11.046,8.225c-4.93,12.583-8.953,26.597-19.425,35.841c-5.109,4.51-10.348,6.933-16.769,4.291
		c-5.822-2.396-8.066-6.88-8.488-13.2C239.454,189.417,242.857,181.694,245.154,173.976z M269.907,117.401
		c19.31,2.048,48.743,2.632,48.743,28.975c0,11.988-10.654,22.833-22.564,23.528c-10.382,0.606-19.944-5.835-24.755-14.772
		c-0.562-1.045-1.983-0.125-1.547,0.904c0.041,0.097,0.088,0.185,0.129,0.281c-0.197,0.111-0.383,0.265-0.537,0.488
		c-5.905,8.643-16.16,12.918-26.497,12.459c-14.565-0.647-19.93-13.466-16.504-26.383c2.312-8.715,8.25-16.349,15.81-21.169
		C250.797,116.22,260.115,116.36,269.907,117.401z M335.831,183.45c-0.853-0.328-1.813,0.753-1.384,1.707
		c-1.236,1.473-2.527,2.907-3.906,4.278c-0.498-0.589-1.643-0.181-1.391,0.708c0.047,0.17,0.094,0.341,0.139,0.511
		c-0.846,0.798-1.704,1.588-2.602,2.349c-0.416-3.479-0.828-6.957-1.246-10.436c-0.146-1.23-1.576-1.688-2.316-0.629
		c-3.31,4.719-7.342,8.698-12.411,11.519c-5.837,3.251-7.503,4.285-6.724-2.468c0.11-0.969-1.12-1.49-1.861-1.067
		c-7.778,4.45-15.726,6.368-24.59,6.028c4.352-8.15,7.18-17.391,8.719-24.649c10.66,3.507,23.271,0.357,30.746-10.366
		c11.207-16.082,1.235-36.786-16.396-42.19c-0.802-0.247-1.639-0.451-2.463-0.672c-1.678-13.163-3.5-26.155-3.623-39.473
		c-0.127-13.978,2.193-27.451,3.396-41.298c0.092-1.064-1.541-1.211-1.808-0.245c-3.677,13.191-4.083,27.923-3.927,41.542
		c0.15,13.022,1.271,26.414,4.531,39.083c-10.647-2.656-22.691-3.447-33.35-3.986c-3.881-0.196-7.64,0.082-11.25,0.851
		c10.03-24.091,8.204-53.43,0.561-77.846c-0.184-0.589-0.627-0.87-1.104-0.936c3.474-4.42,7.624-8.116,12.74-10.958
		c-0.722,2.411-1.753,4.622-3.181,6.811c-0.614,0.941,0.563,1.906,1.45,1.45c7.12-3.663,14.236-5.866,22.041-6.875
		c-1.938,2.434-3.874,4.867-5.814,7.298c-0.668,0.838-0.066,2.104,1.072,1.841c9.576-2.211,18.473-1.386,27.502,2.583
		c1.402,0.616,2.619-1.456,1.209-2.071c-0.906-0.396-1.818-0.745-2.725-1.082c9.887-10.798,23.02-21.207,38.681-16.643
		c11.679,3.405,20.653,17.044,28.312,27.313c-5.818-1.36-11.955-0.217-16.68,4.06c-7.966,7.209-7.58,20.021-17.498,25.455
		c-0.471,0.258-0.653,0.712-0.653,1.174c-0.265,0.246-0.388,0.618-0.126,0.963c8.979,11.771,16.029,24.014,20.587,38.02
		c-1.55-1.088-3.099-2.175-4.647-3.262c-0.828-0.582-1.98,0.386-1.692,1.301c6.151,19.557,5.738,40.081-0.829,59.355
		c-0.922-2.38-2.054-4.563-3.598-6.853c-0.625-0.927-1.944-0.749-2.317,0.302C343.118,172.422,339.896,178.239,335.831,183.45z
		 M360.377,301.504c-0.552-0.896-2.229-0.608-2.123,0.575c1.324,14.668,2.566,29.658,1.996,44.445
		c-0.264,0.218-0.517,0.447-0.781,0.663c-0.834,0.678-0.2,1.931,0.645,2.171c-0.724,13.117-2.959,26.048-7.979,38.425
		c-0.745-2.458-1.491-4.917-2.243-7.373c-0.32-1.041-1.919-1.124-2.195,0c-6.311,25.624-12.188,51.942-16.377,78.413
		c-1.688,1.926-3.309,3.965-5.111,5.768c-2.879,2.88-1.668,2.766-3.299,0.846c-2.396-2.828-3.057-10.832-4.09-14.484
		c-0.242-0.857-1.297-0.882-1.77-0.231c-2.631,3.626-5.258,7.256-7.887,10.884c-0.924-2.783-1.848-5.569-2.771-8.354
		c-0.191-0.57-0.857-0.914-1.408-0.572c-3.289,2.038-5.592,4.515-7.258,7.761c-0.624-1.531-1.379-2.9-2.449-4.44
		c-0.321-0.463-0.875-0.425-1.21-0.152c1.274-28.975,2.438-57.988,2.11-86.899c-0.005-0.323-0.152-0.534-0.353-0.662
		c1.726-2.112,3.486-4.205,5.31-6.254c8.488-9.539,17.658-18.84,21.467-31.064c0.615,3.152,1.229,6.304,1.845,9.456
		c0.188,0.966,1.731,1.179,2.153,0.283c6.42-13.67,9.756-28.073,9.996-42.998c1.23,3.603,2.461,7.206,3.691,10.81
		c0.318,0.925,1.973,1.179,2.144,0c3.923-27.098,1.362-54.219-7.577-79.971c0.896,0.677,1.9,1.282,3.085,1.857
		c0.676,0.329,1.829-0.048,1.711-0.982c-1.634-12.717-4.231-25.175-8.185-37.359c1.613-1.544,3.129-3.161,4.555-4.838
		c12.443,15.686,20.351,34.067,23.158,53.868c-0.733-0.749-1.468-1.497-2.201-2.247c-0.784-0.799-2.286,0.012-1.922,1.12
		c7.104,21.723,10.015,44.223,8.694,66.981C362.623,305.134,361.5,303.318,360.377,301.504z M460.217,223.765
		c-1.244,3.583-4.268,11.442-6.58,11.293c-0.426-0.027-0.539-5.927-0.584-6.322c-0.762-6.732-3.033-12.877-6.295-18.762
		c-0.338-0.608-1.502-0.563-1.607,0.21c-3.285,24.396-11.025,47.801-22.729,69.392c2.447-19.478,1.805-38.979-1.986-58.321
		c-0.18-0.911-1.654-1.129-2.047-0.267c-2.363,5.161-4.729,10.32-7.096,15.48c-1.625-5.807-3.811-11.254-6.734-16.618
		c-0.404-0.744-1.605-0.767-2.002,0c-2.707,5.211-5.432,10.412-8.094,15.646c-2.93-11.939-5.82-23.888-8.641-35.854
		c3.178,1.712,5.738,3.917,7.982,7.05c0.871,1.217,2.594,0.19,1.99-1.162c-12.42-27.784-8.652-58.264-2.838-87.187
		c0.287-1.427,1.033-9.677,2.119-10.208c2.328-1.139,5.545,2.562,7.475,4.114c4.984,4.006,9.648,8.418,13.941,13.152
		c9.193,10.135,16.426,21.702,21.898,34.217c0.332,0.768,1.68,0.762,2.016,0c1.172-2.653,1.828-4.97,2.047-7.531
		C456.178,173.572,460.391,198.625,460.217,223.765z M400.484,352.665c-0.195,0.081-0.324,0.211-0.422,0.356
		c-1.773-1.174-3.721-2.152-5.912-2.842c-12.616-3.963-26.813,3.307-33.494,14.246c0.853-5.379,1.347-10.805,1.618-16.26
		c27.679-22.167,38.081-61.394,26.298-94.623c4.232,2.257,7.635,5.325,10.395,9.514c0.721,1.094,2.453,0.407,2.125-0.896
		c-1.959-7.747-3.869-15.508-5.783-23.268c2.803-5.273,5.514-10.595,8.242-15.908c2.805,5.463,4.924,11.09,6.375,17.096
		c0.219,0.899,1.668,1.173,2.078,0.271c2.289-5.019,4.576-10.039,6.869-15.056c3.488,19.807,3.713,39.748,0.578,59.664
		c-0.188,1.188,1.367,2.029,2.043,0.861c8.494-14.707,15.215-30.268,19.752-46.646c1.229-4.427,2.289-8.897,3.188-13.403
		c0.338-1.678,0.99-11.569,2.035-12.203c2.215-1.346,5.131,22.359,5.078,23.829c-0.027,0.75,0.938,1.099,1.447,0.599
		c3.199-3.144,5.578-6.545,7.164-10.473c-0.193,8.173-0.822,16.336-1.715,24.372c-0.1,0.889,1.01,1.339,1.686,0.969
		c2.324-1.276,5.791-4.191,8.475-4.654c2.6-2.576,3.686-2.109,3.256,1.399l-0.49,2.869c-0.678,5.216-2.361,10.513-4.055,15.474
		c-3.92,11.482-9.764,21.965-17.105,31.591c-0.807,1.056,0.686,1.998,1.602,1.604c2.207-0.95,4.414-1.899,6.619-2.849
		C446.777,323.586,426.221,342.03,400.484,352.665z M344.984,540.453c0.659-1.013,1.234-2.106,1.691-3.308
		c2.737-7.168-0.77-15.131-6.472-19.767c-3.821-3.109-8.315-4.564-12.999-4.995c6.147-42.859,11.661-85.215,21.732-127.376
		c0.66,2.115,1.314,4.234,1.975,6.35c0.256,0.819,1.617,1.191,2.021,0.263c3.26-7.528,5.482-15.229,6.986-23.034
		c0.154-0.049,0.31-0.144,0.436-0.316c9.873-13.528,30.236-23.902,43.164-7.772c10.205,12.734,9.795,32.638,7.617,47.933
		c-4.992,35.105-26.096,64.396-49.965,89.465c-0.303-0.056-0.617,0.009-0.835,0.278c-2.824,3.498-5.267,7.408-6.537,11.753
		c-0.187,0.035-0.378,0.067-0.562,0.105c-1.369,0.285-1.06,2.541,0.328,2.438c8.982-0.662,18.072-1.684,26.518,2.392
		c9.727,4.691,16.244,15.596,10.893,26.019c-0.717,1.393-1.498,2.629-2.326,3.752c-0.014-2.063-0.987-4.521-1.695-5.842
		c-1.551-2.894-4.352-5.438-7.688-5.896c-0.731-0.101-1.274,0.849-0.534,1.271c2.555,1.467,4.791,3.135,6.16,5.831
		c0.719,1.407,1.131,2.902,1.234,4.48c0.063,1.026-0.096,1.789,0.393,2.651c-3.008,3.011-6.532,4.665-10.297,5.301
		c0.529-4.345-1.262-8.599-4.871-11.272c-0.564-0.417-1.188,0.476-0.729,0.94c2.832,2.855,4.033,6.711,3.332,10.599
		C363.922,553.314,352.633,547.358,344.984,540.453z M296.084,536.398c-7.166-8.796-4.328-23.119-3.963-33.686
		c0.524-15.219,1.221-30.472,1.895-45.733c1.275,1.927,2.172,4.006,2.674,6.241c0.281,0.961,1.512,0.842,1.834,0
		c0.598-1.533,3.754-9.022,6.861-6.916c0.803,0.547,2.209,6.672,2.527,7.635c0.273,0.826,1.271,0.9,1.758,0.229
		c2.611-3.596,5.223-7.19,7.83-10.789c1.574,5.503,3.15,11.003,4.727,16.503c0.175,0.613,1.106,0.987,1.558,0.413
		c2.432-3.101,4.836-6.214,7.2-9.359c-2.643,17.1-4.568,34.259-5.413,51.331c-5.06-0.213-10.269,0.679-15.032,1.944
		c-1.165,0.308-0.664,2.014,0.494,1.785c11.855-2.34,29.074-2.553,33.189,12.06c1.217,4.319,0.408,7.777-1.582,10.486
		c-0.375-1.839-1.341-3.684-2.281-4.981c-1.992-2.75-4.732-4.436-8.063-4.975c-0.863-0.14-1.234,1.062-0.367,1.331
		c2.729,0.849,5.125,2.696,6.698,5.069c0.743,1.115,1.312,2.342,1.635,3.644c0.175,0.7,0.231,1.41,0.341,2.105
		c-2.683,2.333-6.362,3.889-10.139,4.825c0.351-4.412-1.176-8.832-4.826-11.587c-0.505-0.382-1.252,0.373-0.88,0.878
		c2.474,3.345,3.856,7.094,3.177,11.24c-2.214,0.384-4.398,0.579-6.369,0.563C312.281,546.577,302.147,543.843,296.084,536.398z
		 M237.848,536.486c3.18-6.103,4.278-13.255,4.515-20.191c0.495-14.438-1.063-29.003-1.272-43.452
		c-0.445-30.925,1.545-61.643,3.26-92.479c6.448,10.675,15.049,20.252,23.602,29.43c0.504,0.541,1.592,0.458,1.924-0.249
		c6.669-14.133,14.859-27.349,24.564-39.517c-2.573,32.669-2.778,65.644-3.922,98.387c-0.594,16.992-1.738,34.083-1.752,51.084
		c-0.006,7.299,1.346,13.979,5.66,19.28c-9.179-1.367-18.514-1.875-27.771-2.276C257.188,536.091,247.297,535.336,237.848,536.486z
		 M185.903,530c0.184-17.518,23.038-15.012,33.979-11.93c1.792,0.505,2.547-2.271,0.766-2.779c-4.747-1.354-9.881-2.56-14.925-2.736
		c0.021-0.063,0.046-0.124,0.049-0.198c0.973-17.919,0.403-35.917-1.436-53.796c1.392-2.209,2.785-4.416,4.177-6.625
		c1.375,3.659,2.75,7.316,4.125,10.976c0.345,0.918,1.44,1.06,2.014,0.263c2.957-4.106,5.914-8.212,8.871-12.318
		c1.771,5.263,3.53,10.531,5.349,15.778c0.277,0.801,1.482,1.11,1.924,0.251c2.446-4.755,4.931-9.489,7.126-14.365
		c0.302-0.672-0.601-1.235-1.003-0.589c-2.401,3.854-4.599,7.828-6.79,11.805c-1.704-5.193-3.449-10.37-5.183-15.554
		c-0.315-0.942-1.457-1.035-2.014-0.263c-2.975,4.133-5.95,8.264-8.925,12.395c-1.394-3.708-2.79-7.419-4.184-11.13
		c-0.33-0.878-1.479-1.109-2.014-0.263c-1.283,2.033-2.566,4.067-3.849,6.102c-2.23-19.851-6.018-39.541-11.05-58.801
		c-0.213-0.817-1.25-1.048-1.838-0.484c-1.521,1.454-2.648,2.808-3.669,4.413c-6.756-23.695-9.153-48.097-7.125-72.684
		c0.066-0.797-1.032-1.481-1.696-0.974c-3.273,2.503-2.792,3.666-3.849,0.386c-0.847-2.631,0.198-6.943,0.349-9.716
		c0.383-6.96,1.042-13.893,1.961-20.803c1.847-13.885,4.793-27.551,8.645-41.013c0.314-1.097-0.933-2.018-1.9-1.461l-5.704,3.278
		c4.693-26.475,12.512-52.06,23.133-76.776c0.039-0.091,0.037-0.177,0.057-0.267c0.157,0.282,0.294,0.569,0.456,0.85
		c0.578,1.001,1.914,0.659,2.286-0.298c1.035-2.664,2.07-5.326,3.104-7.989c1.722,3.518,3.819,6.733,6.244,9.624
		c-10.384,23.023-18.021,46.99-22.881,71.787c-0.228,1.164,1.006,2.42,2.155,1.657c2.365-1.571,4.73-3.143,7.096-4.713
		c-3.351,17.384-4.748,34.941-4.004,52.667c0.058,1.388,1.788,1.812,2.542,0.689c1.091-1.626,2.183-3.251,3.274-4.874
		c-3.329,27.389,7.284,55.024,28.588,72.971c0.666,0.562,1.878,0.442,2.087-0.55c0.975-4.625,1.95-9.25,2.924-13.872
		c1.551,7.101,4.304,13.681,7.803,19.889c-5.826,41.213-5.697,83.509-3.776,124.995c0.931,20.127-1.658,45.291-27.464,45.825
		c-2.99,0.063-6.392-0.44-9.722-1.457c0.152-0.368,0.269-0.759,0.405-1.104c0.46-1.17,1.046-2.297,1.796-3.312
		c1.778-2.404,4.243-3.832,7.054-4.71c0.503-0.157,0.434-0.994-0.128-0.952c-2.893,0.218-5.591,1.628-7.659,3.64
		c-1.25,1.217-3.219,3.67-3.396,5.785c-4.139-1.54-8.007-3.922-10.655-7.11c0.119-0.054,0.227-0.139,0.309-0.256
		c0.718-1.028,0.88-2.316,1.559-3.398c0.827-1.315,2.015-2.438,3.257-3.356c2.193-1.623,4.711-2.797,7.204-3.875
		c0.621-0.27,0.17-1.302-0.457-1.084c-3.126,1.08-6.253,2.323-8.88,4.382c-1.708,1.338-4.023,3.774-4.055,6.179
		C186.788,535.811,185.871,533.092,185.903,530z M149.159,511.924c10.124-4.272,20.901-0.62,30.869,2.292
		c0.896,0.261,1.506-0.301,1.67-0.99c0.368-0.19,0.623-0.645,0.402-1.145c-2.025-4.594-4.345-9.022-6.645-13.49
		c-0.031-0.059-0.078-0.09-0.113-0.14c-14.123-32.28-42.179-56.423-52.605-90.856c-5.203-17.181-8.291-44.526,11.063-54.187
		c18.211-9.09,35.168,3.697,44.382,18.819c0.223,0.366,0.706,0.359,0.996,0.144c1.479,10.453,3.786,20.75,6.822,30.885
		c0.26,0.866,1.571,1.143,2.016,0.265c0.207-1.605,1.01-2.6,2.413-2.99c1.169-1.051,1.698-0.719,1.586,0.996
		c1.335,1.446,1.437,5.819,1.917,7.896c1.098,4.751,2.109,9.521,3.034,14.308c1.935,10.011,3.488,20.093,4.652,30.222
		c0.16,1.396,0.294,2.793,0.438,4.189c-0.12,0.321-0.074,0.619,0.09,0.862c1.778,17.727,2.27,35.54,2.212,53.354
		c0,0.065,0.02,0.115,0.034,0.171c-5.171,0.014-10.2,1.208-14.56,4.598c-6.402,4.979-8.655,13.066-4.953,20.411
		c0.185,0.366,0.388,0.714,0.588,1.066c-0.048,0.032-0.098,0.059-0.141,0.108c-6.22,7.071-13.802,13.238-23.763,13.391
		c-4.408,0.067-8.971-1.117-12.938-3.317c1.227-1.776,2.244-3.673,3.971-5.171c2.541-2.202,5.584-3.59,8.878-4.202
		c0.653-0.124,0.498-1.199-0.156-1.154c-3.563,0.245-6.881,1.403-9.749,3.559c-1.83,1.374-3.961,3.396-5.03,5.675
		c-3.754-2.586-6.763-6.162-8.224-10.542C134.993,526.999,139.46,516.014,149.159,511.924z"/>
	<path fill="#653333" d="M318.273,99.407c4.766,2.046,6.799,8.686,3.428,12.777c-0.809,0.976-2.145-0.268-1.656-1.277
		c1.483-3.069,0.682-7.398-2.666-8.936c-4.15-1.907-8.33,2.392-7.932,6.438c0.176,1.752-2.559,1.736-2.736,0
		C306.107,102.471,312.523,96.937,318.273,99.407z"/>
	<path fill="#653333" d="M239.562,97.597c4.598,0.253,7.771,4.619,6.85,8.99c-0.147,0.698-1.172,0.502-1.201-0.164
		c-0.135-3.098-2.695-6.478-6.003-6.46c-3.396,0.018-5.599,3.324-5.393,6.445c0.107,1.606-2.336,1.57-2.482,0
		C230.903,101.811,234.844,97.339,239.562,97.597z"/>
	<path fill="#653333" d="M144.072,536.336c2.116-4.149,6.299-7.852,10.52-9.719c0.753-0.332,1.362,0.648,0.655,1.12
		c-4.002,2.667-7.685,6.062-9.996,10.329c0.391-0.721,1.607-0.408,1.568,0.424c-0.052,1.111-1.088,1.875-2.198,1.453
		C143.031,539.339,143.482,537.491,144.072,536.336z"/>
</g>
</svg>
