<?xml version="1.0" encoding="utf-8"?>
<!-- Generator: Adobe Illustrator 16.0.3, SVG Export Plug-In . SVG Version: 6.00 Build 0)  -->
<!DOCTYPE svg PUBLIC "-//W3C//DTD SVG 1.1//EN" "http://www.w3.org/Graphics/SVG/1.1/DTD/svg11.dtd">
<svg version="1.1" id="Capa_1" xmlns="http://www.w3.org/2000/svg" xmlns:xlink="http://www.w3.org/1999/xlink" x="0px" y="0px"
	 width="566.93px" height="566.93px" viewBox="0 0 566.93 566.93" enable-background="new 0 0 566.93 566.93" xml:space="preserve">
<g>
	<path fill="none" stroke="#653333" stroke-linecap="round" stroke-linejoin="round" stroke-miterlimit="10" d="M113.307,142.701
		c0,0-4.02,113.417-3.511,131.787c1.224,43.841,13.36,69.476,12.905,107.769c-0.45,38.298,2.048,147.563,2.048,147.563
		s-21.202,11.506-18.199,26.198l48.021-3.493c0,0-0.432-53.278-1.864-74.218c-1.436-20.94,0.991-91.567,1.427-108.753
		c0.437-17.187,0.437-38.991,0.437-38.991"/>
	<path fill="none" stroke="#653333" stroke-linecap="round" stroke-linejoin="round" stroke-miterlimit="10" d="M124.75,267.393
		c0,0,3.97,34.91,40.278,75.935c36.308,41.025,19.658,184.304,20.54,188.675c0.877,4.371-15.404,4.506-17.897,25.433h44.091
		c0,0,2.759-72.225,1.751-81.97s-5.231-40.696-3.493-53.039c1.742-12.343-3.579-65.837,8.674-83.023
		c12.253-17.177,43.598-49.778,58.39-59.391c14.787-9.613,37.275-45.306,101.015,53.791
		c63.735,99.093,105.025,96.298,105.025,96.298s5.946,96.319,3.241,100.492s-16.614,4.434-16.614,19.95l43.573-2.358
		c0,0,8.611-96.788,0-127.47c-3.709-13.202-9.3-15.255-38.928-38.64c-29.633-23.385-20.554-67.16-20.328-95.803
		c0.221-28.642-16.304-73.817-71.238-100.866c-54.935-27.051-185.144,30.98-209.045-38.196
		c-23.898-69.179-7.463-105.586-7.463-105.586s45.45,29.745,42.673,19c-2.782-10.745-32.059-45.986-51.145-43.663
		c-19.09,2.32-49.866,16.909-60.755,8.683C86.2,17.419,83.535,11.851,74.096,18.387c-9.439,6.536-59.071,46.724-28.147,42.239
		c30.924-4.488,38.126-19.189,36.137,0C80.096,79.813,35.139,154.647,67.667,168c10.659,4.375,24.218-1.624,52.415-31.729
		c28.192-30.103,23.227-26.74,23.227-26.74"/>
	<g>
		<g>
			<path fill="#653333" d="M125.847,68.593c-1.578,0.71-0.092,3.837,1.016,4.352c2.596,1.208,2.039-2.537,1.8-3.896
				c-0.264-1.499-1.498-3.583-2.84-1.588c-0.596,0.886-0.482,2.321-0.335,3.315c0.177,1.201,0.786,2.129,1.965,2.51
				c0.615,0.199,0.877-0.767,0.266-0.964c-1.478-0.478-1.465-2.544-1.223-3.808c0.109-0.571,0.424-1.222,0.805-0.516
				c0.215,0.398,0.31,0.878,0.398,1.317c0.116,0.579,0.598,2.929-0.183,2.805c-0.643-0.102-0.83-0.699-1.029-1.226
				c-0.1-0.263-0.499-1.272-0.134-1.437C126.939,69.192,126.43,68.331,125.847,68.593L125.847,68.593z"/>
		</g>
	</g>
	<g>
		<g>
			<path fill="#653333" d="M86.929,70.933c-0.584,0.968-0.523,3.655,1.093,3.688c1.724,0.036,2.118-2.567,2.189-3.807
				c0.043-0.757-0.093-1.688-0.432-2.37c-0.277-0.556-1.125-0.656-1.548-0.217c-1.437,1.489-0.678,3.924-0.272,5.654
				c0.147,0.628,1.111,0.362,0.964-0.266c-0.255-1.09-0.655-2.207-0.487-3.34c0.055-0.371,0.149-0.782,0.319-1.117
				c0.172-0.34,0.398,0.842,0.402,0.944c0.035,1.064,0.016,2.046-0.518,2.996c-0.377,0.67-0.862,0.377-1.026-0.267
				c-0.113-0.442-0.057-1.002,0.179-1.394C88.126,70.884,87.262,70.382,86.929,70.933L86.929,70.933z"/>
		</g>
	</g>
	<g>
		<g>
			<path fill="#653333" d="M72.16,152.331c-2.262-1.868-4.188-4.189-5.811-6.625c-0.824-1.235-1.502-2.574-2.264-3.848
				c-0.371-0.62-2.178-2.448-0.747-3.026c2.573-1.041,5.604-1.122,8.323-1.461c1.296-0.162,3.997-1.181,4.656,0.716
				c0.485,1.396-0.06,3.365-0.342,4.71c-0.536,2.563-1.734,4.956-2.833,7.313c-0.494,1.06-1.666-1.81-1.75-1.962
				c-0.588-1.063-1.301-2.039-2.045-2.995c-0.57-0.732-1.299-1.272-1.96-1.914c-1.267-1.229,3.708-2.496,4.077-2.594
				c0.747-0.311,1.465-0.212,2.152,0.295c-0.39,0.703-1.021,1.324-1.525,1.95c-0.729,0.903-1.42,1.826-2.065,2.791
				c-0.36,0.538,0.507,1.038,0.863,0.505c0.128-0.192,5.754-6.397,3.292-6.748c-1.842-0.262-3.598,0.42-5.338,0.956
				c-1.112,0.343-2.596,0.648-2.932,1.918c-0.24,0.906,0.988,1.862,1.534,2.34c1.926,1.687,3.301,4.075,4.266,6.426
				c1.192,2.904,3.703-3.514,3.899-3.947c1.217-2.672,2.968-7.665,1.131-10.421c-0.623-0.935-2.08-0.814-3.011-0.659
				c-2.694,0.448-5.42,0.649-8.104,1.16c-2.69,0.512-5.145,1.171-3.122,4.02c2.946,4.147,4.925,8.484,8.95,11.807
				C71.946,153.445,72.658,152.742,72.16,152.331L72.16,152.331z"/>
		</g>
	</g>
	<g>
		<g>
			<path fill="#653333" d="M71.167,151.333c0.79,6.182,3.231,12.051,4.204,18.222c0.1,0.636,1.063,0.365,0.964-0.266
				c-0.958-6.079-3.391-11.869-4.168-17.956C72.086,150.703,71.085,150.695,71.167,151.333L71.167,151.333z"/>
		</g>
	</g>
	<path fill="none" stroke="#653333" stroke-linecap="round" stroke-linejoin="round" stroke-miterlimit="10" d="M297.212,267.147
		c0,0,15.898,8.919,24.132,19.937c8.229,11.02,43.492,99.17,77.126,122.189c33.639,23.02,44.681,23.623,44.681,23.623l-1.318,83.563
		c0,0-24.389,5.941-21.877,24.676c0,0,40.301-2.098,45.072-2.493c4.767-0.388,1.517-112.953,1.517-112.953"/>
	<path fill="none" stroke="#653333" stroke-linecap="round" stroke-linejoin="round" stroke-miterlimit="10" d="M415.558,207.125
		c0,0,56.113,15.093,72.025,121.161c15.908,106.065,0.595,56.969-2.943,47.931c-3.538-9.039-15.327-81.934-23.574-93.307
		c-8.246-11.373-8.246-11.373-8.246-11.373"/>
</g>
</svg>
