<?xml version="1.0" encoding="utf-8"?>
<!-- Generator: Adobe Illustrator 16.0.3, SVG Export Plug-In . SVG Version: 6.00 Build 0)  -->
<!DOCTYPE svg PUBLIC "-//W3C//DTD SVG 1.1//EN" "http://www.w3.org/Graphics/SVG/1.1/DTD/svg11.dtd">
<svg version="1.1" xmlns="http://www.w3.org/2000/svg" xmlns:xlink="http://www.w3.org/1999/xlink" x="0px" y="0px" width="500px"
	 height="500px" viewBox="0 0 500 500" enable-background="new 0 0 500 500" xml:space="preserve">
<g id="Background_Simple">
	<g>
		<path fill="#663333" d="M383.163,127.237c-3.351-6.493-6.862-12.887-10.857-18.98C326.194,37.939,202.699-0.341,141.506,72.341
			c-14.584,17.323-19.667,38.256-29.484,58.123c-22.328,45.185-64.042,72.199-90.198,114.04
			c-20.275,32.434-17.572,74.002-6.262,109.063c12.291,38.1,33.921,64.709,68.519,84.936c38.787,22.676,80.272,16.38,122.197,8.489
			c18.855-3.548,38.294-7.169,57.574-5.814c24.137,1.696,47.968,8.527,71.915,11.848c24.905,3.454,50.745,4.27,74.736-3.256
			c76.829-24.1,95.031-137.037,63.437-201.731c-11.184-22.9-30.138-40.567-47.738-58.493
			C407.204,170.195,395.559,151.258,383.163,127.237z"/>
		<path opacity="0.7" fill="#FFFFFF" d="M383.163,127.237c-3.351-6.493-6.862-12.887-10.857-18.98
			C326.194,37.939,202.699-0.341,141.506,72.341c-14.584,17.323-19.667,38.256-29.484,58.123
			c-22.328,45.185-64.042,72.199-90.198,114.04c-20.275,32.434-17.572,74.002-6.262,109.063
			c12.291,38.1,33.921,64.709,68.519,84.936c38.787,22.676,80.272,16.38,122.197,8.489c18.855-3.548,38.294-7.169,57.574-5.814
			c24.137,1.696,47.968,8.527,71.915,11.848c24.905,3.454,50.745,4.27,74.736-3.256c76.829-24.1,95.031-137.037,63.437-201.731
			c-11.184-22.9-30.138-40.567-47.738-58.493C407.204,170.195,395.559,151.258,383.163,127.237z"/>
	</g>
</g>
<g id="Floor_1_">
	
		<line fill="none" stroke="#666666" stroke-linecap="round" stroke-linejoin="round" stroke-miterlimit="10" x1="11.568" y1="448.163" x2="485.756" y2="448.163"/>
</g>
<g id="Plant">
	<g>
		<path fill="#666666" d="M241.619,160.051c0,0-10.555,14.345-20.231,26.897c-9.675,12.552-18.471,20.621-28.146,23.311
			c-7.785,2.165-26.949,3.747-34.145,4.284l-13.354,75.593h-8.796l19.352-75.507c0.019-1.57,0.466-20.984,11.434-32.163
			c11.435-11.655,48.377-8.966,53.655-11.655C226.666,168.12,241.619,160.051,241.619,160.051z M143.194,168.5
			c-6.643,18.3-20.739,110.241-22.08,122.533l-9.675-1.793v-110.36c0,0-2.639-17.931-11.435-24.207
			c-8.796-6.276-13.194-6.276-13.194-6.276s-14.953,0.897-29.906,8.069c-8.994,4.314-16.065,9.928-21.432,15.861
			c13.396,0.865,33.704,2.027,41.662,10.14c10.967,11.179,11.416,30.594,11.434,32.163l19.352,75.507h-8.796l-13.354-75.593
			c-7.195-0.537-26.359-2.12-34.144-4.284c-9.235-2.567-17.67-10.045-26.832-21.634c-4.242,8.84-7.473,18.048-7.473,18.048
			s0.285-10.059,3.881-22.689c-8.982-11.74-17.954-23.932-17.954-23.932s14.953,8.069,20.23,10.759
			c0.489,0.249,1.253,0.452,2.241,0.625c2.697-6.072,6.253-12.185,10.953-17.659c18.471-21.518,38.702-24.208,51.896-19.725
			c13.194,4.482,20.231,12.552,21.11,15.242c0.879,2.689,5.278,20.621,5.278,20.621s-4.398-32.277-7.037-50.208
			c-2.639-17.932,0.88-39.449,6.157-58.277c5.277-18.828,21.11-54.691,21.11-54.691s14.953,42.139,18.471,76.208
			c2.031,19.665,0.249,36.035-2.972,48.094c8.78-14.683,23.391-27.328,39.035-35.542c29.026-15.242,47.498-8.965,47.498-8.965
			s-17.592,2.689-27.268,11.655c-9.675,8.966-27.267,34.966-34.304,52.001s-31.665,21.518-31.665,21.518
			C143.676,170.637,143.42,169.568,143.194,168.5z M142.606,164.965c-0.718-5.594-0.358-11.147,0.901-16.57
			c-0.429,0.652-0.857,1.252-1.283,1.794c-7.037,8.966-22.87,30.483-22.87,35.863c0,2.848,0.493,17.507,0.958,30.674l1.681-0.19
			c0,0,7.917-27.794,13.194-38.553C137.72,172.822,140.447,168.294,142.606,164.965z"/>
		<g>
			<g>
				<polygon fill="#FFFFFF" stroke="#666666" stroke-linecap="round" stroke-linejoin="round" stroke-miterlimit="10" points="
					172.131,371.955 116.717,369.315 61.303,371.955 38.434,454.636 48.109,454.636 75.376,411.536 116.717,411.536 
					158.058,411.536 185.325,454.636 195,454.636 				"/>
				<path fill="#FFFFFF" stroke="#666666" stroke-linecap="round" stroke-linejoin="round" stroke-miterlimit="10" d="
					M165.553,399.222H67.001c-3.147,0-5.698-2.551-5.698-5.698V287.515h109.949v106.009
					C171.251,396.671,168.7,399.222,165.553,399.222z"/>
				
					<rect x="111.879" y="371.955" fill="#FFFFFF" stroke="#666666" stroke-linecap="round" stroke-linejoin="round" stroke-miterlimit="10" width="8.796" height="82.681"/>
			</g>
		</g>
	</g>
</g>
<g id="Window">
</g>
<g id="Dog">
	<g>
		<path fill="#663333" stroke="#666666" stroke-linecap="round" stroke-linejoin="round" stroke-miterlimit="10" d="
			M264.036,383.208c0,0,10.879,12.005,12.005,36.766s-19.133,39.017-24.76,40.517c-5.627,1.501-12.38,1.876-12.38,1.876v-76.532
			L264.036,383.208z"/>
		<path fill="#663333" stroke="#666666" stroke-linecap="round" stroke-linejoin="round" stroke-miterlimit="10" d="
			M131.605,383.208c0,0-10.879,12.005-12.005,36.766s19.133,39.017,24.76,40.517c5.627,1.501,12.38,1.876,12.38,1.876v-76.532
			L131.605,383.208z"/>
		<path fill="#663333" stroke="#666666" stroke-linecap="round" stroke-linejoin="round" stroke-miterlimit="10" d="M296.39,215.697
			c8.816-9.469,14.693-32.979,8.816-41.794c-5.877-8.816-37.55,3.592-48.978,15.673s-16,19.591-16,19.591
			c-12.911-1.883-35.776-1.55-43.44-1.375c-7.743-0.176-30.83-0.508-43.74,1.375c0,0-4.571-7.51-16-19.591
			s-43.101-24.489-48.978-15.673s0,32.325,8.816,41.794s26.122,30.366,28.407,32.652s-1.632,29.06-0.979,63.018
			c0.653,33.958,1.306,62.039,5.551,77.712c4.245,15.673,11.428,36.244,11.428,42.121s-1.632,11.428-4.897,16.979
			c-3.266,5.551-10.775,7.836-11.755,14.366s1.959,10.122,10.775,12.408c8.816,2.285,13.061,2.285,19.265-1.633
			c6.204-3.918,10.775-10.775,10.775-10.775l33.305,0.653l33.305-0.653c0,0,4.571,6.857,10.775,10.775
			c6.204,3.918,10.448,3.918,19.265,1.633c8.816-2.286,11.754-5.878,10.775-12.408s-8.489-8.815-11.754-14.366
			c-3.266-5.552-4.898-11.103-4.898-16.979s7.184-26.448,11.428-42.121s0.653-43.754,1.306-77.712
			c0.653-33.958-3.265-60.732-0.98-63.018C270.269,246.063,287.574,225.167,296.39,215.697z"/>
		<path fill="#FFFFFF" d="M235.524,378.78c-13.435,3.186-12.709-0.579-13.798-15.351c-1.09-14.771,14.161-22.012,26.143-28.963
			c11.983-6.951,19.971-27.515,17.066-30.99s-31.227-1.158-33.406-6.371c-2.179-5.214-3.061-21.6-3.061-21.6l-30.708-8.667
			l-31.983,8.667c0,0,0.394,16.386-1.785,21.6c-2.179,5.213-30.501,2.896-33.406,6.371c-2.905,3.476,5.083,24.039,17.066,30.99
			s27.233,14.192,26.144,28.963c-1.089,14.771-0.363,18.536-13.798,15.351c-13.435-3.186-24.328-10.427-24.328,0.579
			s2.542,26.356,10.53,31.859s14.888,2.606,19.245,12.743c4.357,10.138,3.803,28.107-1.185,37.007
			c-0.221,0.394-0.359,0.8-0.462,1.209c0.56-0.746,0.87-1.209,0.87-1.209l33.305,0.653l33.291-0.653c0,0,0,0,0,0
			c-4.988-8.899-5.542-26.869-1.185-37.007c4.357-10.137,11.256-7.24,19.245-12.743s10.53-20.854,10.53-31.859
			S248.958,375.595,235.524,378.78z"/>
		<path opacity="0.33" d="M243.767,209.933c0,0,3.104,11.087,7.761,18.848c4.657,7.761,9.092,13.749,15.966,11.087
			s28.162-25.501,32.153-35.701c3.992-10.2,6.431-26.166,0.666-30.157C294.546,170.019,261.063,179.11,243.767,209.933z"/>
		<path opacity="0.33" d="M148.817,209.933c0,0-3.104,11.087-7.761,18.848c-4.657,7.761-9.092,13.749-15.966,11.087
			s-28.162-25.501-32.153-35.701c-3.992-10.2-6.431-26.166-0.666-30.157C98.038,170.019,131.521,179.11,148.817,209.933z"/>
		<g>
			<path fill="#FFFFFF" stroke="#666666" stroke-linecap="round" stroke-linejoin="round" stroke-miterlimit="10" d="
				M165.456,462.618c-0.311-1.972,2.758-4.077,1.809-6.326c-7.13-16.896-20.429-16.453-27.792-14.657
				c-0.778,2.194-1.798,4.37-3.077,6.545c-3.266,5.551-10.775,7.836-11.755,14.366s1.959,10.122,10.775,12.408
				c8.816,2.285,13.061,2.285,19.265-1.633c6.204-3.918,10.775-10.775,10.775-10.775V462.618z"/>
			<path fill="none" stroke="#666666" stroke-linecap="round" stroke-linejoin="round" stroke-miterlimit="10" d="M129.49,472.979
				c0,0-2.241-6.012,0.362-9.916s10.412-6.508,10.412-6.508"/>
			<path fill="none" stroke="#666666" stroke-linecap="round" stroke-linejoin="round" stroke-miterlimit="10" d="M135.416,474.954
				c0,0,1.646-6.328,3.349-8.41s10.979-7.193,10.979-7.193"/>
		</g>
		<g>
			<path fill="#FFFFFF" stroke="#666666" stroke-linecap="round" stroke-linejoin="round" stroke-miterlimit="10" d="
				M232.065,462.618c0.311-1.972-2.659-4.077-1.71-6.326c7.13-16.896,20.428-16.453,27.792-14.657
				c0.778,2.194,1.797,4.37,3.077,6.545c3.265,5.551,10.775,7.836,11.755,14.366s-1.959,10.122-10.775,12.408
				c-8.816,2.285-13.061,2.285-19.265-1.633c-6.204-3.918-10.775-10.775-10.775-10.775L232.065,462.618z"/>
			<path fill="none" stroke="#666666" stroke-linecap="round" stroke-linejoin="round" stroke-miterlimit="10" d="M257.257,476.008
				c0,0,0.568-5.867-0.189-7.761c-0.757-1.893-7.382-7.761-7.382-7.761"/>
			<path fill="none" stroke="#666666" stroke-linecap="round" stroke-linejoin="round" stroke-miterlimit="10" d="M267.1,472.979
				c0,0,0-3.785-0.947-8.328c-0.946-4.543-6.246-8.519-6.246-8.519"/>
		</g>
		<g>
			<g>
				<path fill="#663333" stroke="#666666" stroke-linecap="round" stroke-linejoin="round" stroke-miterlimit="10" d="
					M199.107,310.062h-1.738c-4.464,0-8.083-3.619-8.083-8.083v-23.59h17.905v23.59
					C207.191,306.442,203.572,310.062,199.107,310.062z"/>
				
					<line fill="none" stroke="#666666" stroke-linecap="round" stroke-linejoin="round" stroke-miterlimit="10" x1="197.912" y1="283.287" x2="197.912" y2="297.428"/>
			</g>
			<path fill="#FFFFFF" stroke="#666666" stroke-linecap="round" stroke-linejoin="round" stroke-miterlimit="10" d="
				M206.401,252.268c-2.612-6.857,0.979-19.591-0.979-25.795c-1.959-6.204-5.877-4.897-5.877-4.897l-1.632,0.326l-1.633-0.326
				c0,0-3.918-1.306-5.877,4.897c-1.959,6.204,1.633,18.938-0.979,25.795c-2.612,6.856-22.856,18.938-22.856,24.815
				s10.775,15.02,15.347,16.979c4.571,1.96,16-10.774,16-10.774s11.428,12.734,16,10.774c4.571-1.959,15.346-11.102,15.346-16.979
				S209.014,259.124,206.401,252.268z"/>
			<path fill="#666666" d="M210.32,269.246c0,0-4.562-5.069-11.996-5.192c-8.177-0.137-14.452,3.233-13.799,6.172
				c0.653,2.939,9.143,9.143,12.408,10.122C200.198,281.328,209.667,273.817,210.32,269.246z"/>
			<g>
				<ellipse fill="#666666" cx="214.178" cy="247.103" rx="3.555" ry="5.036"/>
				<circle fill="#FFFFFF" cx="214.91" cy="245.133" r="0.934"/>
			</g>
			<g>
				<ellipse fill="#666666" cx="179.416" cy="247.103" rx="3.555" ry="5.036"/>
				<circle fill="#FFFFFF" cx="180.349" cy="245.133" r="0.934"/>
			</g>
		</g>
	</g>
</g>
<g id="Cat">
	<g>
		<g>
			<path fill="#666666" d="M284.679,421.889c0,0,3.26,23.62,0.754,31.393s-9.091,9.549-7.614,15.146s10.33,4.538,16.262,2.743
				c5.933-1.794,11.376-9.484,10.653-18.655c-0.724-9.17-4.883-23.992-8.084-26.369S286.367,419.976,284.679,421.889z"/>
			<path fill="#FFFFFF" stroke="#666666" stroke-linecap="round" stroke-linejoin="round" stroke-miterlimit="10" d="
				M297.721,469.27c-0.098-0.316-0.185-0.615-0.291-0.947c-2.379-7.395-9.291-10.224-13.723-11.294
				c-2.934,4.808-7.092,6.834-5.887,11.398c1.477,5.597,10.33,4.538,16.262,2.743C295.336,470.791,296.564,470.134,297.721,469.27z"
				/>
		</g>
		<path fill="#663333" stroke="#666666" stroke-linecap="round" stroke-linejoin="round" stroke-miterlimit="10" d="
			M311.371,292.687l-25.817-0.523c0,0-16.824-16.728-18.878-12.344c-4.26,9.093,2.267,26.297,2.267,26.297
			s-7.686,17.006-7.865,44.836c-0.179,27.83,11.219,56.986,18.515,68.204c7.295,11.219,16.603,22.093,16.603,22.093
			s2.143,9.271,0.346,16.23c-1.797,6.958-5.883,9.848-4.583,13.488c1.3,3.642,11.688,4.533,16.208,0.454
			c4.52-4.078,8.196-13.787,8.196-13.787l2.195,0.262c0,0-2.392,6.741,3.339,9.505c5.729,2.764,19.798,0.955,25.212,0.707
			c5.413-0.249,63.069,0.365,82.479,0.909s41.521-2.441,48.082-15.073c6.563-12.633,4.266-30.72-2.015-35.301
			c-6.279-4.582-13.451,1.225-13.258,8.64c0.192,7.414-0.2,21.421-6.293,24.454c-6.092,3.034-37.674,0.947-48.006-1.945
			s-14.233-6.606-14.233-6.606s5.879-38.284,2.954-55.388s-15.66-34.281-27.737-39.226c-12.076-4.944-27.36-9.778-35.49-19.818
			c-8.129-10.04-6.375-22.606-6.375-22.606c1.874-2.552,5.701-9.538,4.636-22.499c-0.37-4.501-1.061-5.036-1.861-5.059
			C329.189,278.567,319.635,283.376,311.371,292.687z"/>
		
			<line fill="none" stroke="#666666" stroke-linecap="round" stroke-linejoin="round" stroke-miterlimit="10" x1="337.251" y1="458.328" x2="373.088" y2="457.552"/>
		<path opacity="0.33" d="M282.502,293.88c0,0-7.402-7.416-10.531-10.107c-3.128-2.69-4.084-4.319-4.735-2.535
			s-0.658,9.193,0.58,15.035c1.238,5.842,2.538,9.482,5.545,9.367c3.007-0.116,7.493-2.994,8.995-6.557
			S282.502,293.88,282.502,293.88z"/>
		<path opacity="0.33" d="M314.517,294.777c0,0,7.806-6.99,11.08-9.502s4.32-4.084,4.87-2.267s0.142,9.216-1.421,14.979
			c-1.563,5.764-3.065,9.326-6.062,9.041c-2.995-0.283-7.313-3.408-8.613-7.05C313.071,296.339,314.517,294.777,314.517,294.777z"/>
		<path fill="#FFFFFF" d="M331.023,330.39c-0.778-7.212-5.633,2.783-12.771,0.949c-7.139-1.834-14.183-22.676-15.425-24.998
			c-1.242-2.322-5.711-6.862-9.449-1.738c-3.738,5.123-12.613,23.398-19.18,24.521c-4.402,0.753-7.651-2.865-9.317-5.334
			c-1.332,6.983-2.405,15.713-2.471,25.901c-0.179,27.83,11.219,56.986,18.515,68.204c7.295,11.219,16.603,22.093,16.603,22.093
			s-0.035-5.638,0.457-15.104c0.71-13.705,8.053-30.819,17.607-45.257C325.146,365.19,331.802,337.601,331.023,330.39z"/>
		<path fill="#FFFFFF" stroke="#666666" stroke-linecap="round" stroke-linejoin="round" stroke-miterlimit="10" d="M312.05,466.448
			c-4.118-5.379-12.132-6.839-16.037-7.231c-1.952,5.726-5.241,8.432-4.056,11.751c1.3,3.642,11.688,4.533,16.208,0.454
			C309.57,470.154,310.894,468.343,312.05,466.448z"/>
		<path fill="none" stroke="#666666" stroke-linecap="round" stroke-linejoin="round" stroke-miterlimit="10" d="M330.121,412.329
			c0.592,8.089,1.113,22.099-1.556,29.416c-3.894,10.675-12.204,15.89-12.204,15.89"/>
		<path fill="none" stroke="#666666" stroke-linecap="round" stroke-linejoin="round" stroke-miterlimit="10" d="M329.563,406.153
			c0,0,0.147,1.269,0.331,3.355"/>
		<path fill="#FFFFFF" stroke="#666666" stroke-linecap="round" stroke-linejoin="round" stroke-miterlimit="10" d="
			M318.557,457.896c0,0-2.392,6.741,3.339,9.505c3.277,1.581,9.282,1.664,14.837,1.4c0.638-0.838,1.115-1.718,1.278-2.609
			c0.772-4.227-0.76-7.864-0.76-7.864L318.557,457.896z"/>
		<path fill="none" stroke="#666666" stroke-linecap="round" stroke-linejoin="round" stroke-miterlimit="10" d="M376.375,403.697
			c-3.934-3.504-10.171-7.44-18.39-7.51c-14.856-0.125-24.33,15.635-26.888,23.722"/>
		<path fill="none" stroke="#666666" stroke-linecap="round" stroke-linejoin="round" stroke-miterlimit="10" d="M381.226,409.076
			c0,0-0.753-1.146-2.207-2.755"/>
		<g>
			<g>
				<path fill="#663333" stroke="#666666" stroke-linecap="round" stroke-linejoin="round" stroke-miterlimit="10" d="
					M300.242,321.389c0,0-1.458-1.716-3.911-1.825c-2.697-0.12-4.799,0.934-4.611,1.91c0.188,0.976,2.933,3.102,4.001,3.455
					C296.79,325.282,299.984,322.891,300.242,321.389z"/>
				<path fill="none" stroke="#666666" stroke-linecap="round" stroke-linejoin="round" stroke-miterlimit="10" d="M288.515,326.245
					c0,0,5.044,7.02,7.206-1.316c0,0,0.769,8.909,7.352,1.889"/>
			</g>
			<g>
				
					<ellipse transform="matrix(0.9803 -0.1975 0.1975 0.9803 -56.3701 67.0151)" fill="#666666" cx="307.745" cy="316.077" rx="3.063" ry="1.998"/>
				
					<ellipse transform="matrix(0.9803 -0.1975 0.1975 0.9803 -56.209 67.1699)" fill="#FFFFFF" cx="308.633" cy="315.373" rx="0.843" ry="0.55"/>
			</g>
			<g>
				
					<ellipse transform="matrix(0.9372 0.3488 -0.3488 0.9372 127.8288 -79.1451)" fill="#666666" cx="283.697" cy="315.402" rx="3.063" ry="1.998"/>
				
					<ellipse transform="matrix(0.9372 0.3487 -0.3487 0.9372 127.7869 -79.4801)" fill="#FFFFFF" cx="284.666" cy="315.215" rx="0.843" ry="0.55"/>
			</g>
			<g>
				
					<line fill="none" stroke="#666666" stroke-linecap="round" stroke-linejoin="round" stroke-miterlimit="10" x1="284.739" y1="323.148" x2="276.091" y2="322.275"/>
				
					<line fill="none" stroke="#666666" stroke-linecap="round" stroke-linejoin="round" stroke-miterlimit="10" x1="284.7" y1="324.566" x2="278.021" y2="326.587"/>
				
					<line fill="none" stroke="#666666" stroke-linecap="round" stroke-linejoin="round" stroke-miterlimit="10" x1="285.11" y1="326.785" x2="281.591" y2="328.579"/>
			</g>
			<g>
				
					<line fill="none" stroke="#666666" stroke-linecap="round" stroke-linejoin="round" stroke-miterlimit="10" x1="306.64" y1="323.762" x2="315.323" y2="323.374"/>
				
					<line fill="none" stroke="#666666" stroke-linecap="round" stroke-linejoin="round" stroke-miterlimit="10" x1="306.6" y1="325.18" x2="313.156" y2="327.571"/>
				
					<line fill="none" stroke="#666666" stroke-linecap="round" stroke-linejoin="round" stroke-miterlimit="10" x1="306.065" y1="327.372" x2="309.479" y2="329.36"/>
			</g>
		</g>
	</g>
</g>
</svg>
