<?xml version="1.0" encoding="utf-8"?>
<!-- Generator: Adobe Illustrator 16.0.3, SVG Export Plug-In . SVG Version: 6.00 Build 0)  -->
<!DOCTYPE svg PUBLIC "-//W3C//DTD SVG 1.1//EN" "http://www.w3.org/Graphics/SVG/1.1/DTD/svg11.dtd">
<svg version="1.1" id="Capa_1" xmlns="http://www.w3.org/2000/svg" xmlns:xlink="http://www.w3.org/1999/xlink" x="0px" y="0px"
	 width="566.93px" height="566.93px" viewBox="0 0 566.93 566.93" enable-background="new 0 0 566.93 566.93" xml:space="preserve">
<circle fill="#653333" cx="506.273" cy="186.499" r="10.649"/>
<g>
	<circle fill="#653333" cx="445.354" cy="354.101" r="12.973"/>
	<path fill="#653333" d="M261.174,511.18c-0.754-7.127,4.414-13.512,11.537-14.263c7.126-0.754,13.512,4.413,14.266,11.536
		c0.753,7.127-4.413,13.512-11.538,14.266C268.313,523.471,261.927,518.306,261.174,511.18z"/>
	<circle fill="#653333" cx="343.958" cy="251.611" r="12.974"/>
	<circle fill="#653333" cx="485.67" cy="86.81" r="12.974"/>
	<circle fill="#653333" cx="80.073" cy="244.999" r="12.974"/>
	<g>
		<g>
			<path d="M43.472,46.311l1.937-0.904c1.416-0.626,2.624-1.053,3.771-1.337c2.521-0.643,5.043-0.988,7.542-0.959
				c3.146,0.093,6.18,0.709,8.922,1.863c0.786-4.445,2.267-8.024,2.818-9.232c2.151-4.542,5.781-8.689,9.921-11.375
				c8.966-5.965,21.253-6.339,30.551-0.932c4.674,2.616,8.742,6.82,11.187,11.556c2.557,4.894,3.618,10.305,3.066,15.632
				c-0.813,9.199-5.589,19.856-13.29,24.068c2.534,7.633,4.909,13.809,7.472,19.328c3.365,7.335,7.382,14.473,11.955,21.176
				c5.212,7.416,10.26,13.484,15.432,18.563c4.65,4.765,9.978,9.436,15.904,13.901c8.162-3.161,17.287-2.865,24.687,0.833
				c9.827,4.631,16.498,14.881,16.589,25.427c0.401,10.23-5.022,20.29-13.81,25.621c-5.749,3.581-16.909,5.376-24.534,3.379
				c-0.543,7.082-4.388,13.5-11.543,19.167c-7.548,6.021-19.622,6.583-29.297,1.452c-0.555-0.307-1.111-0.613-1.654-0.941
				c-3.997-2.413-7.475-5.877-9.741-9.733c-2.783-4.616-4.26-9.922-4.276-15.296c-0.099-8.326,3.642-16.677,10.036-22.653
				c-1.497-7.483-3.309-14.149-5.597-20.419c-2.33-6.89-5.582-14.068-9.933-21.881c-4.01-7.046-8.665-13.767-13.854-20.043
				c-2.975-3.663-7.875-7.42-12.625-11.089c-2.101-1.624-4.127-3.173-5.986-4.71c-6.62,4.092-15.392,4.928-22.872,2.101
				c-10.218-3.592-17.738-13.762-18.323-24.666c-0.828-10.752,4.819-21.625,14.096-27.076
				C42.529,46.838,42.899,46.617,43.472,46.311z M47.978,94.103c6.618,2.486,14.39,1.491,19.823-2.548
				c0.954-0.698,2.272-0.673,3.173,0.139c2.141,1.855,4.605,3.76,7.245,5.767c4.976,3.834,10.111,7.794,13.449,11.885
				c5.332,6.481,10.158,13.454,14.331,20.775c4.519,8.122,7.91,15.562,10.321,22.708c2.481,6.833,4.466,14.195,6.054,22.562
				c0.167,0.9-0.147,1.809-0.844,2.424c-5.966,5.021-9.467,12.39-9.357,19.716c-0.003,4.473,1.214,8.883,3.535,12.743
				c2.126,3.595,5.516,6.769,9.408,8.763c7.957,4.242,17.75,3.875,23.789-0.924c7.107-5.636,10.236-11.748,9.603-18.65
				c-0.105-0.952,0.353-1.86,1.147-2.389c0.802-0.494,1.828-0.525,2.644-0.062c5.342,3.077,17.754,1.564,23.167-1.804
				c7.151-4.335,11.729-12.8,11.396-21.18c-0.072-7.929-4.659-15.646-11.629-19.855c-0.673-0.406-1.394-0.783-2.106-1.124
				c-6.534-3.264-14.678-3.322-21.826-0.171c-0.814,0.368-1.785,0.256-2.526-0.281c-6.586-4.896-12.527-10.023-17.607-15.255
				c-5.371-5.287-10.596-11.554-16.012-19.27c-4.748-6.956-8.938-14.346-12.384-21.939c-2.818-6.029-5.405-12.835-8.174-21.354
				c-0.355-0.54-0.497-1.188-0.399-1.84c0.163-0.909,0.805-1.676,1.671-1.983c6.708-2.321,11.517-12.396,12.267-20.804
				c0.452-4.379-0.423-8.818-2.526-12.845c-2.003-3.846-5.333-7.31-9.191-9.461c-7.702-4.474-17.842-4.167-25.269,0.772
				c-3.397,2.188-6.342,5.594-8.079,9.256c-0.583,1.307-2.525,5.944-2.804,11.167c-0.037,0.896-0.556,1.708-1.363,2.111
				c-0.805,0.403-1.785,0.404-2.541-0.112c-2.771-1.791-6.152-2.768-9.741-2.86c-2.013,0-4.073,0.267-6.176,0.806
				c-0.906,0.224-1.855,0.569-3.009,1.058l-1.56,0.717c-0.466,0.281-0.797,0.437-1.195,0.702c-0.032,0.008-0.032,0.008-0.046,0.03
				c-7.557,4.415-12.329,13.595-11.653,22.388C33.466,82.702,39.74,91.204,47.978,94.103z"/>
		</g>
	</g>
	<g>
		<g>
			<path d="M190.833,303.242c0.399,6.325-0.466,12.768-2.512,18.657c-2.147,6.107-5.525,11.782-9.753,16.426
				c-4.41,4.826-9.785,8.753-15.544,11.419c-5.925,2.71-12.299,4.177-18.938,4.343c-0.352,0-0.7,0.016-1.067,0.016
				c-6.19,0-12.398-1.198-17.973-3.461c-5.84-2.349-11.399-6.023-16.059-10.651c-4.445-4.41-8.072-9.92-10.537-15.943
				c-2.346-5.877-3.494-12.115-3.394-18.573c0.166-12.432,5.342-24.566,14.195-33.268c4.26-4.279,9.37-7.689,14.927-10.07
				c5.577-2.361,11.584-3.694,17.676-3.828c0.332,0,0.648,0,0.965,0c0.099,0,0.182,0,0.266,0c11.066,0,22.236,4.062,30.672,11.185
				c0.067,0.032,0.134,0.051,0.2,0.051h0.283l0.2,0.198c0.417,0.416,0.799,0.898,1.248,1.499
				C184.56,279.396,190.102,291.111,190.833,303.242z M185.758,303.326c0.083-4.51-0.55-9.054-1.831-13.313
				c0,1.696-0.134,3.378-0.366,5.026c-0.333,2.23-0.916,4.41-1.714,6.455c-1.048,2.583-2.263,4.577-3.813,6.293
				c-0.898,0.98-1.662,1.665-2.611,2.444c-0.933,0.751-1.882,1.416-2.863,1.998c-0.499,0.3-1.016,0.584-1.547,0.85
				c-1.598,0.764-3.33,1.364-5.059,1.764c-1.483,0.316-2.998,0.499-4.596,0.55c-1.58,0.032-3.244-0.083-5.008-0.348
				c-1.167-0.186-2.381-0.419-3.628-0.735c-3.978-0.997-7.472-2.496-10.867-3.928l-2.097-0.93c-1.233-0.565-2.448-1.1-3.611-1.598
				c-0.233-0.103-0.484-0.202-0.716-0.301c-1.032-0.432-2.047-0.851-3.03-1.198c-6.375-2.397-12.233-2.848-15.661-1.183
				c-1.865,0.866-3.261,2.365-4.293,4.561c-0.999,2.215-1.531,5.109-1.483,8.155c0.101,6.19,2.23,12.716,5.859,17.922
				c0.366,0.553,0.766,1.051,1.181,1.565c0.916,0.665,1.865,1.282,2.83,1.866c0.35,0.198,0.716,0.381,1.066,0.582
				c0.633,0.349,1.265,0.716,1.914,1.029c0.449,0.236,0.914,0.418,1.38,0.633c0.566,0.269,1.116,0.533,1.681,0.751
				c0.532,0.217,1.066,0.399,1.598,0.598c0.532,0.185,1.048,0.383,1.581,0.549c0.565,0.186,1.149,0.316,1.714,0.483
				c0.516,0.134,1.016,0.284,1.531,0.399c0.582,0.134,1.183,0.249,1.78,0.352c0.518,0.099,1.034,0.214,1.532,0.281
				c0.599,0.099,1.181,0.149,1.78,0.201c0.532,0.066,1.066,0.131,1.616,0.166c0.55,0.032,1.115,0.048,1.681,0.067
				c0.764,0.031,1.515,0.048,2.279,0.031c10.869-0.233,21.437-4.727,29.025-12.348C180.931,325.245,185.592,314.428,185.758,303.326
				z M174.542,292.876c0.931-3.014,1.43-6.293,1.398-9.521c-0.018-3.579-0.634-6.791-1.849-9.552
				c-0.182-0.416-0.432-0.882-0.716-1.384c-3.694-3.643-7.938-6.622-12.432-8.702c-0.648-0.316-1.297-0.585-1.946-0.85
				c-0.648-0.265-1.299-0.515-1.965-0.732c-0.198-0.083-0.399-0.134-0.598-0.198c-0.466-0.15-0.949-0.316-1.432-0.451
				c-0.217-0.067-0.451-0.115-0.665-0.182c-0.467-0.119-0.933-0.25-1.4-0.368c-0.233-0.048-0.465-0.099-0.698-0.15
				c-0.465-0.099-0.932-0.198-1.414-0.281c-0.233-0.051-0.466-0.083-0.7-0.118c-0.467-0.083-0.949-0.166-1.432-0.214
				c-0.233-0.051-0.465-0.067-0.698-0.083c-0.483-0.067-0.965-0.118-1.448-0.167c-0.251-0.019-0.5-0.035-0.733-0.051
				c-0.465-0.035-0.932-0.067-1.396-0.067c-0.285-0.016-0.55-0.016-0.833-0.032c-0.567-0.016-1.133-0.016-1.681,0
				c-1.764,0.032-3.528,0.214-5.274,0.463c-4.062,0.601-8.023,1.748-11.667,3.429c-5.142,2.365-9.952,5.909-13.93,10.252
				c-3.762,4.145-6.772,9.255-8.67,14.729c-1.847,5.344-2.579,10.984-2.195,16.743c0.064,1.048,0.166,2.096,0.333,3.16
				c0.231-1.18,0.532-2.311,0.914-3.41c0.866-2.547,2.097-4.793,3.629-6.673c1.596-2.016,3.645-3.761,5.907-5.042
				c0.85-0.467,1.732-0.898,2.664-1.25c2.763-1.08,5.875-1.63,9.269-1.63c0.601,0,1.198,0.016,1.78,0.048
				c3.797,0.253,7.641,1.084,12.083,2.662c3.079,1.15,5.775,2.416,8.372,3.631l1.932,0.897c3.742,1.8,6.522,2.963,9.002,3.777
				c2.896,0.949,5.525,1.316,7.855,1.048c1.167-0.114,2.28-0.415,3.445-0.93c0.565-0.249,1.131-0.55,1.697-0.882
				c0.534-0.352,1.149-0.799,1.499-1.067c0.765-0.665,1.58-1.681,2.23-2.813C173.426,295.822,173.992,294.489,174.542,292.876z"/>
		</g>
	</g>
	<g>
		<g>
			<path d="M445.354,54.58v137.463c0,8.574-6.977,15.574-15.576,15.574H237.702c-8.6,0-15.576-7-15.576-15.574V54.58
				c0-8.574,6.976-15.551,15.576-15.551h192.077C438.378,39.029,445.354,46.005,445.354,54.58z M438.227,191.916V50.038
				c0-0.077-0.026-0.177-0.026-0.254c-0.151-2.841-2.46-5.099-5.327-5.099h-93.78H234.605c-2.941,0-5.351,2.41-5.351,5.353v141.878
				c0,2.942,2.41,5.351,5.351,5.351h198.268C435.814,197.267,438.227,194.858,438.227,191.916z"/>
			<path d="M379.807,71.245c0,1.066-0.128,2.132-0.354,3.145c-2.513,4.567-7.357,7.662-12.888,7.662h-65.649
				c-5.556,0-10.4-3.095-12.912-7.636c-0.201-1.015-0.329-2.029-0.329-3.094c0-7.965,6.391-14.358,14.256-14.358h63.595
				C373.415,56.963,379.807,63.356,379.807,71.245z M372.019,71.322c0-3.678-2.918-6.57-6.494-6.57H301.93
				c-3.576,0-6.468,2.892-6.468,6.494c0,3.653,2.892,6.57,6.468,6.57h63.595C369.101,77.815,372.019,74.898,372.019,71.322z"/>
			<polygon points="367.046,143.844 367.046,145.469 344.801,145.469 344.444,145.469 344.444,167.183 344.444,168.071 
				323.034,168.071 323.034,167.183 323.034,145.469 322.68,145.469 300.433,145.469 300.433,143.844 300.433,124.06 
				323.034,124.06 323.034,101.458 344.444,101.458 344.444,124.06 367.046,124.06 			"/>
		</g>
	</g>
	<g>
		<g>
			<path d="M439.495,309.781c0,0.99-0.255,2.004-0.813,3.02c-2.258,4.238-9.005,7.712-12.835,9.412
				c-1.775,0.786-3.576,1.47-5.199,2.003c-0.56,0.153-1.068,0.304-1.547,0.457c-0.509,0.125-1.017,0.228-1.499,0.304
				c-0.052,0-0.304,0.052-0.329,0.052c-0.457,0.051-0.812,0.102-1.141,0.128l-0.483,0.025c-0.329,0-0.658,0-0.988,0h-0.382
				c-0.861-0.052-1.699-0.153-2.611-0.307c0,0-0.279-0.052-0.306-0.052c-0.305-0.073-0.634-0.15-0.938-0.201
				c0,0-0.254-0.077-0.279-0.077c-0.355-0.076-0.686-0.176-1.041-0.252l-3.398-0.965l0.354-2.512l-0.685,2.435l-0.685-0.128
				c-0.279-0.048-0.457-0.073-0.634-0.099c-0.763-0.077-1.318-0.025-1.775,0.201c-0.229,0.128-0.735,0.56-1.675,2.233l-2.258,4.286
				c-0.279,0.559-0.48,0.888-0.66,1.243l-0.252,0.431c-0.28,0.509-0.585,1.017-0.889,1.496c-0.406,0.585-0.686,1.042-0.99,1.447
				l-0.278,0.381c-0.329,0.432-0.583,0.761-0.863,1.09l-0.405,0.482c-0.329,0.354-0.685,0.709-1.039,1.067l-0.305,0.304
				c-0.457,0.431-0.964,0.837-1.497,1.218l-1.521-2.004l-1.497-2.055c0.382-0.281,0.736-0.585,1.065-0.889l0.227-0.228
				c0.256-0.255,0.534-0.508,0.763-0.789l0.331-0.38c0.201-0.253,0.43-0.505,0.633-0.786l0.254-0.355
				c0.279-0.354,0.506-0.734,0.736-1.089c0.38-0.56,0.633-0.991,0.861-1.423l2.283-4.311l0.128-0.228l0.709-1.319
				c0.964-1.7,2.132-3.477,3.882-4.362c1.318-0.661,2.815-0.889,4.591-0.713c0.281,0.052,0.559,0.077,0.837,0.128l2.132,0.482
				l2.815,0.786c0.329,0.103,0.633,0.176,0.938,0.253l1.015,0.204c0.838,0.15,1.497,0.253,2.157,0.278l0.201,2.537l0.052-2.537
				c0.229,0,0.457,0,0.686,0l0.355-0.025c0.202-0.025,0.432-0.025,0.659-0.077l0.734,2.461l-0.432-2.486
				c0.331-0.051,0.662-0.128,1.017-0.227c0.406-0.103,0.863-0.23,1.32-0.381c1.47-0.457,3.093-1.093,4.691-1.802
				c5.25-2.308,9.334-5.123,10.428-7.178c0.303-0.56,0.201-0.684,0.149-0.786c-0.227-0.281-0.482-0.585-0.761-0.863l-0.277-0.256
				c-0.256-0.277-0.534-0.53-0.838-0.785l1.318-2.18l-1.573,1.978c-0.406-0.329-0.838-0.636-1.291-0.965l-0.23-0.15
				c-0.558-0.38-0.914-0.61-1.32-0.862l-0.48-0.329c-0.481-0.308-0.964-0.585-1.446-0.889l-1.572-0.939
				c-1.371-0.812-2.74-1.624-3.981-2.436c-2.538-1.675-4.085-3.045-4.947-4.49c-0.56-0.939-0.991-1.751-1.422-2.613
				c-1.37-2.765-3.068-6.188-13.595-17.833c-0.306-0.329-0.509-0.735-0.61-1.167c-0.077-0.406-0.152-0.812-0.201-1.243
				c-0.026-0.278-0.077-0.582-0.103-0.888l-0.025-0.633c-0.025-0.304-0.025-0.636-0.025-0.965v-0.607
				c0-0.307,0.025-0.636,0.025-0.965l0.025-0.607c0.025-0.333,0.051-0.688,0.076-1.017l0.381-3.272l0.051-0.278l0.329-2.336
				c0.103-0.735,0.203-1.47,0.304-2.154l0.229-0.431l2.386-0.051l2.51,0.252v0.077l-0.049,0.406c-0.103,0.837-0.23,1.726-0.356,2.64
				l-0.331,2.282l-2.562-0.077l2.512,0.355l-0.431,4.442c-0.026,0.278-0.026,0.531-0.026,0.812v0.505c0,0.255,0,0.508,0.026,0.735
				l0.025,0.482c0.023,0.23,0.023,0.432,0.05,0.662c0.025,0.051,0.025,0.128,0.025,0.176c10.577,11.719,12.354,15.298,13.901,18.442
				c0.38,0.735,0.734,1.444,1.218,2.23c0.431,0.738,1.573,1.7,3.399,2.896c1.167,0.761,2.461,1.547,3.805,2.333l1.572,0.937
				c0.509,0.307,1.015,0.61,1.523,0.939l0.38,0.227c0.583,0.384,1.015,0.662,1.421,0.939l0.455,0.308
				c0.534,0.377,1.042,0.786,1.548,1.166c0.026,0.025,0.203,0.176,0.229,0.201c0.483,0.406,0.863,0.735,1.218,1.09l0.406,0.384
				c0.457,0.479,0.862,0.962,1.218,1.444C439.164,307.627,439.495,308.666,439.495,309.781z"/>
			<path d="M407.609,255.648v0.38c0,0.457-0.025,0.687-0.025,0.914l-0.28,2.688l-2.51-0.252l-2.183-0.278l-0.203,0.329l-0.229,0.431
				l-0.455,0.786c-0.459,0.837-0.965,1.7-1.472,2.614l-0.61,1.039c-0.406,0.684-0.812,1.396-1.242,2.106l-0.685,1.064
				c-3.146,4.947-6.14,8.42-9.132,10.654c-4.186,3.071-6.24,4.845-8.117,6.52l-2.843,2.563c-1.851,1.649-4.641,4.059-9.664,7.964
				c-0.684,0.534-1.32,1.09-1.953,1.624l-0.559,0.508c-0.456,0.406-0.887,0.812-1.318,1.192l-0.532,0.533
				c-0.482,0.457-0.939,0.914-1.371,1.343l-1.952,1.98c-0.633,0.633-1.142,1.142-1.649,1.649l-0.354,0.329
				c-1.294,1.243-2.461,2.23-3.602,3.119l-0.306,0.201c-0.634,0.457-1.166,0.837-1.724,1.17c-3.578,2.205-7.408,3.371-12.077,3.652
				c-4.032,0.228-8.42,0.607-13.038,1.167c-2.23,0.252-4.465,0.556-6.695,0.862c-4.237,0.607-8.728,1.316-13.318,2.154
				c-22.704,4.059-42.768,9.564-44.671,10.099c-1.09,0.453-8.318,3.524-16.589,7.608l-1.751,0.889
				c-1.775,0.889-3.55,1.8-5.327,2.765c-1.521,0.812-3.042,1.648-4.541,2.486c-0.556,0.329-1.141,0.658-1.724,1.013
				c-5.682,3.35-9.791,6.318-12.202,8.83c-0.532,0.556-0.963,1.038-1.395,1.495l-0.254,0.304c-0.43,0.482-0.709,0.812-0.963,1.115
				l-0.354,0.435c-0.254,0.304-0.483,0.582-0.686,0.86l-0.305,0.405c-0.202,0.281-0.406,0.56-0.582,0.838l-2.334-1.09l-2.74-0.406
				c0.179-0.329,0.38-0.658,0.61-0.99c0.024,0,0.176-0.228,0.176-0.228c0.305-0.457,0.534-0.786,0.786-1.115l0.28-0.405
				c0.305-0.381,0.558-0.713,0.813-1.042l0.43-0.534c0.305-0.329,0.609-0.684,0.912-1.038l0.457-0.509
				c0.457-0.505,0.94-1.038,1.474-1.572c2.764-2.892,7.229-6.139,13.316-9.715c0.583-0.354,1.167-0.709,1.775-1.038
				c1.522-0.889,3.095-1.752,4.642-2.589c1.828-0.965,3.653-1.901,5.455-2.815l1.775-0.889c9.106-4.516,16.945-7.788,17.021-7.813
				c0.101-0.048,0.203-0.073,0.305-0.099c0.201-0.052,21.284-5.964,45.305-10.249c4.642-0.837,9.183-1.572,13.495-2.183
				c2.258-0.304,4.541-0.607,6.799-0.889c4.742-0.556,9.232-0.962,13.342-1.191c3.807-0.228,6.874-1.142,9.716-2.893
				c0.431-0.278,0.888-0.556,1.294-0.862c0-0.026,0.329-0.253,0.329-0.253c1.017-0.735,2.004-1.623,3.172-2.739l0.305-0.307
				c0.507-0.453,0.989-0.936,1.471-1.444l2.08-2.105c0.482-0.457,0.939-0.937,1.422-1.394l0.454-0.432
				c0.585-0.56,1.067-0.99,1.549-1.422l0.608-0.56c0.711-0.607,1.421-1.214,2.183-1.824c4.896-3.832,7.609-6.165,9.436-7.763
				l2.817-2.538c1.978-1.777,4.107-3.627,8.472-6.848c2.512-1.825,5.073-4.871,7.863-9.258l0.634-1.016
				c0.432-0.684,0.812-1.342,1.218-2.004l0.558-0.987c0.532-0.914,1.015-1.777,1.472-2.588l1.115-2.004
				c2.005-3.452,3.323-5.58,5.506-5.657c1.039-0.077,2.056,0.457,2.688,1.394c0.025,0.025,0.051,0.077,0.076,0.103
				c0.229,0.329,0.406,0.735,0.534,1.166c0.049,0.103,0.101,0.355,0.126,0.457c0.075,0.252,0.126,0.508,0.151,0.786
				c0.025,0.051,0.052,0.329,0.052,0.406C407.584,255.191,407.609,255.396,407.609,255.648z"/>
			<path d="M389.649,336.9l1.521,2.004l-0.329,0.227c-0.483,0.354-0.914,0.636-1.37,0.889c-0.202,0.102-0.407,0.204-0.608,0.329
				c-0.432,0.204-0.889,0.405-1.346,0.61c-0.304,0.124-0.482,0.176-0.633,0.227c-0.661,0.256-1.371,0.457-2.105,0.61
				c0,0-0.025,0-0.052,0c-0.812,0.15-1.495,1.32-2.08,2.688c-0.583,1.371-1.04,2.994-1.369,4.136l-0.532,1.901
				c-1.192,4.34-2.537,9.258-5.201,13.776c-2.309,3.931-5.708,7.76-10.375,11.719c-1.04,0.886-2.055,1.7-3.046,2.461
				c-1.57,1.218-3.017,2.256-4.183,3.094l-0.812,0.585c-0.406,0.303-1.472,1.063-1.752,1.367c-0.025,0-0.202,0.281-0.202,0.281
				c-0.075,0.1-0.127,0.228-0.203,0.354l-0.128,0.228c-0.075,0.179-0.15,0.354-0.228,0.533l-2.46-0.684l2.333,0.962
				c-0.101,0.256-0.228,0.56-0.329,0.837c-0.203,0.534-0.329,0.939-0.457,1.346l-2.538-0.406l-2.409-0.734l0.103-0.406
				c0.151-0.457,0.303-0.914,0.482-1.346c0.201-0.559,0.329-0.913,0.457-1.217c0-0.026,0.126-0.278,0.126-0.304
				c0.151-0.333,0.254-0.585,0.38-0.812l0.178-0.358c0.128-0.252,0.252-0.479,0.38-0.684c0.026-0.052,0.203-0.278,0.229-0.329
				c0.203-0.304,0.457-0.61,0.686-0.863c0.481-0.482,1.243-1.038,2.358-1.876l0.838-0.585c1.141-0.837,2.537-1.824,4.059-2.991
				c0.914-0.712,1.877-1.498,2.866-2.336c4.161-3.524,7.28-7.027,9.258-10.398c2.335-3.957,3.605-8.523,4.721-12.557l0.53-1.952
				c1.143-3.96,2.665-9.389,7.231-10.377c0.024,0,0.05,0,0.075-0.025c0.532-0.103,1.015-0.252,1.472-0.405l0.278-0.103
				c0.482-0.201,0.786-0.329,1.092-0.482l0.431-0.228c0.304-0.179,0.584-0.38,0.887-0.559L389.649,336.9z"/>
			<path d="M367.682,439.915c0.786,1.269,0.863,2.688,0.229,3.904c-1.42,2.666-5.606,3.35-12.836,3.679
				c-4.566,0.204-11.415-2.055-13.063-4.995c-0.077-0.128-0.153-0.281-0.23-0.435c-3.55,0.179-7.784,0.153-10.805-1.876
				c-3.02-2.004-3.627-6.088-4.109-9.386c-0.127-0.761-0.278-1.773-0.432-2.358c-1.218-0.508-2.282-1.547-3.069-3.071
				c-1.216-2.406-1.344-5.324-0.306-7.404c1.067-2.132,2.26-4.516,3.122-15.371c0.582-7.36-0.584-13.167-2.005-17.935
				c-14.383,1.063-34.22-0.966-49.337-3.046c-6.216,18.012-15.829,25.975-22.274,31.328c-3.499,2.892-6.037,4.973-6.771,7.407
				c-0.837,2.79-1.243,5.631,1.269,7.609c1.726,1.346,6.24,1.927,9.843,2.409c3.88,0.534,7.229,0.966,9.232,2.285
				c2.563,1.649,2.512,3.828,2.359,4.691c-0.432,2.717-3.448,4.669-5.428,5.151c-8.498,2.18-15.143,1.8-20.876-1.195
				c-2.157-1.141-4.896-3.55-8.093-6.365c-1.318-1.167-2.715-2.385-4.108-3.576l-1.447-1.167c-2.461-2.029-4.819-3.956-6.188-6.088
				c-0.481,1.496-1.117,2.918-1.955,4.312c-2.484,4.161-6.644,7.635-12.022,10.047c-3.933,1.748-8.068,2.79-12.126,3.701
				c2.005,1.191,4.035,3.097,3.4,6.95c-0.813,4.819-4.693,4.797-7.079,4.797c-0.532,0-1.117,0-1.699,0.022
				c-0.305,0.025-0.636,0.025-0.965,0.025c-4.059,0-10.704-1.217-11.973-6.036c-0.786-3.017-0.989-9.207-1.166-14.18
				c-0.051-1.141-0.077-2.208-0.126-3.119c-0.051-1.499-0.331-3.908-0.636-6.472c-0.761-6.72-1.267-11.719-0.786-14.534
				c0.812-4.589,4.566-5.302,8.548-6.062c1.624-0.329,3.477-0.685,5.53-1.295c2.841-0.837,5.658-3.017,8.6-6.621
				c0.305-4.819,0.711-8.571,1.269-12.1c0.203-1.294,0.455-2.585,0.711-3.854c1.799-8.523,5.097-16.033,9.536-21.741
				c0.077-0.227,0.153-0.431,0.23-0.632c0.406-1.042,0.861-2.029,1.444-3.021l2.74,0.406l2.13,1.396
				c-0.684,1.013-1.167,1.952-1.521,2.866c-0.128,0.354-0.203,0.582-0.278,0.809c-0.077,0.332-0.256,0.688-0.457,0.939
				c-4.11,5.151-7.179,12.077-8.854,20.015c-0.254,1.218-0.481,2.41-0.66,3.628c-0.583,3.554-0.989,7.382-1.294,12.405
				c-0.025,0.508-0.201,1.014-0.532,1.419c-3.779,4.819-7.585,7.737-11.618,8.954c-2.308,0.688-4.362,1.094-6.011,1.396
				c-3.933,0.761-4.338,1.039-4.516,1.953c-0.406,2.333,0.304,8.549,0.837,13.09c0.303,2.764,0.583,5.148,0.658,6.822
				c0.051,0.914,0.077,2.004,0.128,3.171c0.151,4.464,0.354,10.604,1.015,13.063c0.331,1.295,4.236,2.436,7.737,2.26
				c0.711-0.051,1.369-0.051,1.978-0.051c0.711,0,1.649,0.025,1.979-0.103c0-0.025,0.051-0.176,0.103-0.457
				c0.15-1.013,0.201-1.192-2.259-2.436c-1.777-0.91-4.21-2.131-5.682-4.845c-2.867-5.327-0.508-15.598-0.229-16.768
				c0.051-0.227,0.126-0.432,0.254-0.633c0.126-0.23,3.196-5.733,7.813-8.549c0.988-0.585,2.231-1.166,3.831-1.776
				c0.81-0.304,1.724-0.15,2.433,0.354c0.688,0.534,1.067,1.371,0.991,2.233c-0.051,0.71-0.127,1.371-0.177,2.029l-0.152,1.419
				c-0.102,0.738-0.179,1.499-0.279,2.234l-0.229,1.521c-0.103,0.712-0.203,1.447-0.33,2.156c-0.102,0.509-0.179,1.017-0.279,1.521
				c-0.126,0.735-0.305,1.447-0.456,2.183l-0.051,0.278c-0.102,0.405-0.179,0.786-0.279,1.191c-0.177,0.787-0.406,1.573-0.609,2.333
				l-0.355,1.27c-0.278,0.888-0.559,1.751-0.863,2.613c2.943-0.734,5.859-1.572,8.574-2.789c3.068-1.371,7.28-3.883,9.715-8.019
				c2.46-4.084,2.866-9.156,2.943-13.595c0.026-1.017,0.026-2.055,0-3.071c0-1.038,0.607-1.978,1.547-2.384
				c4.618-1.927,9.183-4.209,12.532-6.264c0.66-0.406,1.446-0.482,2.155-0.23c0.735,0.256,1.294,0.813,1.547,1.521
				c3.298,8.983-2.79,13.017-6.823,15.704c-1.42,0.939-2.765,1.824-3.526,2.713c-0.178,0.23-0.178,0.307-0.178,0.332
				c0.128,1.292,3.375,3.957,5.53,5.73l1.472,1.218c1.444,1.191,2.867,2.461,4.21,3.655c2.841,2.483,5.479,4.819,7.103,5.657
				c4.618,2.435,9.943,2.662,17.25,0.812c0.432-0.128,1.013-0.482,1.395-0.812c-1.218-0.61-4.389-1.042-6.952-1.371
				c-4.666-0.636-9.487-1.269-12.302-3.451c-5.607-4.389-3.653-10.933-2.993-13.064c1.167-3.905,4.362-6.542,8.37-9.891
				c6.622-5.455,15.653-12.911,21.36-30.974c0.38-1.166,1.546-1.904,2.79-1.751c12.885,1.854,36.833,4.694,52.283,3.145
				c1.191-0.125,2.281,0.61,2.662,1.726c1.093,3.4,3.678,11.313,2.815,21.84c-0.863,10.961-2.104,14.183-3.628,17.225
				c-0.531,1.067,0.255,3.196,0.813,3.554c2.588,0.403,3.045,3.397,3.451,6.289c0.304,2.029,0.786,5.148,1.927,5.912
				c2.08,1.394,6.266,1.116,9.335,0.911c0.989-0.076,1.978,0.482,2.435,1.396c0.355,0.735,0.66,1.368,0.889,1.751
				c0.684,0.786,5.123,2.561,8.271,2.385c3.576-0.153,6.112-0.406,7.584-0.761c-1.851-1.042-5.404-1.854-7.128-2.234
				c-1.318-0.303-2.284-0.533-2.993-0.812c-2.918-1.166-6.468-3.652-8.22-12.761c-0.862-4.486,0-13.188,0.583-17.96l0.558-4.285
				c0.205-1.396,0.432-2.79,0.66-4.161l0.077-0.354l1.166-6.037c0.152-0.661,0.28-1.269,0.406-1.876c0,0,0.075-0.307,0.101-0.307
				l1.243-4.64l2.409,0.734l2.436,0.735l-1.167,4.337l-2.535-0.278l2.459,0.585l-1.521,7.609l-2.562-0.077l2.485,0.432
				c-0.228,1.346-0.432,2.688-0.633,4.033l-0.56,4.16c-0.912,7.532-1.141,13.649-0.633,16.388c1.444,7.559,4.033,8.574,5.148,9.028
				c0.306,0.128,1.32,0.357,2.233,0.56C361.237,435.601,365.828,436.869,367.682,439.915z M227.124,413.253
				c3.323-2.18,5.478-3.804,5.503-6.67c-2.585,1.419-5.554,2.866-8.549,4.187c0,0.505-0.025,1.038-0.025,1.547
				c-0.025,1.038-0.049,2.128-0.126,3.247C224.916,414.726,226.033,413.991,227.124,413.253z M196.176,420.887
				c0.026-0.277,0.075-0.581,0.101-0.859c-2.283,1.748-4.185,4.465-4.945,5.759c-0.837,3.704-1.574,10.146-0.153,12.809
				c0.051,0.103,0.128,0.204,0.177,0.304c0.913-1.979,1.7-4.059,2.386-6.366l0.329-1.166c0.203-0.71,0.406-1.448,0.585-2.157
				l0.304-1.368c0.152-0.687,0.278-1.345,0.431-2.032c0.077-0.479,0.15-0.962,0.252-1.444c0.103-0.684,0.23-1.368,0.331-2.029
				L196.176,420.887z"/>
		</g>
	</g>
	<g>
		<path d="M311.363,280.285c-0.799,0.799-1.721,1.46-2.745,1.933c-2.617,1.214-5.34,1.131-7.977,1.052
			c-1.921-0.058-3.735-0.112-5.35,0.348c-1.768,0.505-3.375,1.639-5.244,3.186l-0.733,0.61c-1.615,1.352-3.287,2.755-5.307,3.749
			c-2.91,1.435-5.992,1.63-8.456,0.53c-2.053-0.921-3.474-2.604-4.592-4.129c-2.838-3.87-4.918-8.178-6.184-12.802
			c-0.601-2.195-1.157-5.065-0.108-7.791h0.001c0.96-2.486,3.006-4.183,4.881-5.516c4.794-3.407,10.182-5.941,16.015-7.529
			c4.312-1.176,7.797-1.474,10.97-0.933c3.222,0.543,6.507,2.058,9.762,4.493c4.441,3.323,7.271,7.289,8.181,11.473
			C315.396,273.184,314.096,277.552,311.363,280.285z M268.391,268.409c-0.631,1.636-0.208,3.691,0.233,5.298
			c1.138,4.155,3.004,8.021,5.553,11.499c0.81,1.105,1.801,2.308,3.005,2.844c1.352,0.604,3.246,0.432,5.063-0.466
			c1.591-0.783,3.01-1.969,4.511-3.229l0.751-0.626c1.951-1.614,4.114-3.212,6.69-3.947c2.208-0.629,4.423-0.563,6.567-0.499
			c2.271,0.067,4.416,0.131,6.177-0.684c3.156-1.467,4.33-5.622,3.64-8.795c-0.888-4.081-4.119-7.216-6.672-9.127
			c-2.745-2.052-5.449-3.317-8.041-3.755c-2.58-0.438-5.521-0.169-9.252,0.85c-5.379,1.467-10.344,3.796-14.756,6.931
			C270.471,265.693,268.969,266.907,268.391,268.409L268.391,268.409z"/>
		<path d="M271.589,261.973c-1.382,1.38-3.079,2.317-4.439,3.064c-1.252,0.69-2.97,1.633-4.99,1.512
			c-1.946-0.122-3.83-1.218-5.31-3.084c-0.899-1.138-1.521-2.368-2.122-3.557l-0.617-1.195c-0.719-1.368-1.537-2.918-1.56-4.755l0,0
			c-0.029-2.151,1.1-4.305,3.09-5.909c3.308-2.668,8.018-3.253,12-1.489c2.45,1.083,4.41,2.924,5.519,5.19
			c1.242,2.537,1.304,5.458,0.166,7.816C272.879,260.497,272.271,261.289,271.589,261.973z M256.539,253.904
			c0.011,0.882,0.542,1.885,1.103,2.95l0.646,1.256c0.535,1.061,1.042,2.058,1.692,2.882c0.743,0.94,1.65,1.528,2.425,1.576
			c0.802,0.048,1.713-0.412,2.822-1.026c2.024-1.112,3.766-2.16,4.509-3.71c0.601-1.243,0.54-2.901-0.157-4.327
			c-0.687-1.403-1.981-2.604-3.55-3.298c-2.59-1.147-5.759-0.767-7.884,0.946C257.659,251.545,256.523,252.603,256.539,253.904
			L256.539,253.904z"/>
		<path d="M286.437,253.325c-0.546,0.546-1.155,1.036-1.819,1.448c-2.814,1.745-6.13,1.876-8.447,0.339
			c-2.547-1.691-3.118-4.685-3.579-7.088c-0.085-0.451-0.171-0.895-0.269-1.329l-0.168-0.707c-0.369-1.518-0.829-3.403-0.125-5.327
			c0.981-2.685,3.699-4.046,5.916-4.428c4.72-0.812,9.631,1.97,11.18,6.333C290.412,246.183,289.236,250.529,286.437,253.325z
			 M276.277,241.277c-0.231,0.233-0.402,0.486-0.501,0.754c-0.288,0.786-0.024,1.866,0.255,3.01l0.182,0.776
			c0.109,0.476,0.202,0.965,0.294,1.458c0.371,1.927,0.719,3.749,1.869,4.512c0.975,0.649,2.716,0.476,4.139-0.406l0,0
			c2.494-1.543,3.771-4.899,2.853-7.481c-0.903-2.547-3.931-4.221-6.748-3.736C277.66,240.328,276.813,240.744,276.277,241.277z"/>
		<path d="M305.353,252.242c-0.776,0.777-1.697,1.4-2.717,1.799l0,0c-2.069,0.815-4.202,0.674-5.83,0.457
			c-3.124-0.406-5.24-1.585-6.288-3.502c-1.035-1.892-0.927-4.189,0.336-7.031c0.922-2.08,2.104-4.039,3.515-5.829
			c0.818-1.04,1.866-2.163,3.42-2.614c1.78-0.516,3.806,0.019,5.707,1.503c2.771,2.165,4.463,5.367,4.521,8.566
			C308.063,248.126,307.043,250.555,305.353,252.242z M298.119,239.891c-0.221,0.22-0.432,0.476-0.619,0.712
			c-1.204,1.528-2.214,3.206-3.002,4.979c-0.711,1.607-0.874,2.784-0.482,3.5c0.503,0.917,2.077,1.304,3.308,1.463
			c1.714,0.227,2.899,0.16,3.849-0.214h0.002c1.692-0.668,2.894-2.627,2.855-4.666c-0.035-2.007-1.153-4.065-2.991-5.497
			c-0.837-0.655-1.64-0.962-2.14-0.815C298.645,239.427,298.374,239.635,298.119,239.891z"/>
	</g>
	<g>
		<path d="M494.043,305.412c-0.896,0-1.782-0.146-2.622-0.457c-2.146-0.786-3.627-2.358-5.06-3.879
			c-1.045-1.109-2.032-2.157-3.192-2.803c-1.271-0.71-2.809-0.972-4.723-1.154l-0.755-0.066c-1.663-0.147-3.384-0.301-5.074-0.876
			c-2.436-0.824-4.271-2.444-5.033-4.438c-0.638-1.668-0.489-3.407-0.261-4.89c0.578-3.758,1.826-7.337,3.709-10.639
			c0.893-1.566,2.188-3.486,4.305-4.426l0,0c1.933-0.856,4.029-0.662,5.825-0.354c4.599,0.776,9.038,2.377,13.195,4.755
			c3.074,1.754,5.193,3.544,6.67,5.624c1.498,2.109,2.492,4.797,2.952,7.989c0.627,4.35-0.009,8.159-1.844,11.013
			C500.282,303.693,497.105,305.412,494.043,305.412z M476.618,274.676c-1.272,0.563-2.187,1.953-2.84,3.1
			c-1.691,2.966-2.812,6.181-3.331,9.555c-0.166,1.074-0.284,2.301,0.088,3.279c0.42,1.096,1.58,2.058,3.098,2.575
			c1.333,0.451,2.792,0.582,4.337,0.716l0.773,0.07c1.999,0.188,4.104,0.505,5.96,1.537c1.592,0.886,2.796,2.164,3.96,3.4
			c1.234,1.311,2.401,2.55,3.846,3.077c2.59,0.949,5.575-0.722,6.967-2.886c1.791-2.783,1.736-6.35,1.376-8.855
			c-0.387-2.688-1.195-4.911-2.4-6.608c-1.201-1.694-3.001-3.189-5.663-4.71c-3.835-2.192-7.924-3.666-12.153-4.381
			C479.304,274.318,477.783,274.158,476.618,274.676L476.618,274.676z"/>
		<path d="M482.016,272.861c-1.549,0-3.023-0.428-4.204-0.77c-1.09-0.316-2.58-0.748-3.645-1.95
			c-1.022-1.157-1.464-2.828-1.246-4.701c0.134-1.144,0.473-2.18,0.802-3.183l0.326-1.016c0.362-1.17,0.773-2.496,1.789-3.541l0,0
			c1.19-1.221,3.03-1.796,5.045-1.579c3.349,0.358,6.316,2.671,7.56,5.89c0.766,1.981,0.831,4.113,0.182,6.001
			c-0.725,2.119-2.326,3.791-4.285,4.474C483.565,272.755,482.781,272.861,482.016,272.861z M478.104,259.905
			c-0.488,0.502-0.755,1.361-1.036,2.272l-0.342,1.064c-0.294,0.895-0.57,1.738-0.666,2.563c-0.11,0.943,0.068,1.783,0.475,2.243
			c0.422,0.477,1.191,0.729,2.157,1.007c1.757,0.511,3.32,0.898,4.604,0.447c1.035-0.361,1.931-1.323,2.338-2.512
			c0.401-1.173,0.35-2.569-0.143-3.838c-0.809-2.097-2.796-3.656-4.946-3.89C480.054,259.212,478.823,259.167,478.104,259.905
			L478.104,259.905z"/>
		<path d="M495.182,276.334c-0.613,0-1.227-0.067-1.831-0.208c-2.553-0.601-4.486-2.384-4.923-4.544
			c-0.478-2.375,0.877-4.372,1.967-5.976c0.203-0.3,0.406-0.601,0.595-0.895l0.301-0.492c0.644-1.055,1.444-2.372,2.917-3.055
			c2.055-0.953,4.34-0.195,5.794,0.834c3.1,2.192,4.295,6.503,2.717,9.814C501.41,274.561,498.317,276.334,495.182,276.334z
			 M496.24,263.891c-0.26,0-0.499,0.048-0.702,0.14c-0.604,0.281-1.063,1.036-1.547,1.832l-0.33,0.54
			c-0.208,0.323-0.429,0.652-0.652,0.978c-0.874,1.288-1.698,2.506-1.482,3.576c0.184,0.911,1.256,1.79,2.547,2.093l0,0
			c2.263,0.534,4.857-0.633,5.79-2.595c0.921-1.934,0.163-4.567-1.687-5.874C497.547,264.133,496.839,263.891,496.24,263.891z"/>
		<path d="M506.39,286.327c-0.873,0-1.735-0.166-2.531-0.514l0,0c-1.615-0.703-2.732-1.976-3.524-3.008
			c-1.521-1.981-2.047-3.828-1.56-5.49c0.479-1.639,1.829-2.866,4.127-3.751c1.683-0.649,3.445-1.083,5.236-1.297
			c1.042-0.122,2.259-0.167,3.383,0.454c1.286,0.709,2.122,2.141,2.354,4.04c0.341,2.768-0.508,5.509-2.267,7.334
			C510.215,285.541,508.281,286.327,506.39,286.327z M509.256,275.354c-0.246,0-0.508,0.025-0.744,0.051
			c-1.531,0.182-3.036,0.556-4.475,1.109c-1.297,0.501-2.048,1.07-2.23,1.69c-0.233,0.799,0.435,1.895,1.032,2.675
			c0.836,1.086,1.537,1.713,2.278,2.036h0.002c1.321,0.575,3.092,0.15,4.214-1.013c1.105-1.147,1.63-2.924,1.404-4.755
			c-0.103-0.841-0.38-1.458-0.743-1.659C509.813,275.389,509.544,275.354,509.256,275.354z"/>
	</g>
	<g>
		<path d="M67.842,186.498c-0.895,0-1.782-0.147-2.622-0.455c-2.146-0.786-3.625-2.358-5.058-3.88
			c-1.045-1.109-2.032-2.157-3.194-2.804c-1.273-0.708-2.808-0.972-4.723-1.152l-0.754-0.069c-1.664-0.148-3.384-0.3-5.073-0.874
			c-2.437-0.825-4.273-2.445-5.037-4.44c-0.636-1.667-0.487-3.405-0.259-4.888c0.579-3.76,1.827-7.339,3.71-10.638
			c0.892-1.568,2.189-3.488,4.303-4.426l0.002-0.001c1.932-0.855,4.03-0.66,5.826-0.356c4.595,0.78,9.036,2.379,13.193,4.757
			c3.076,1.756,5.195,3.544,6.671,5.623c1.499,2.111,2.493,4.8,2.951,7.989c0.628,4.353-0.011,8.16-1.846,11.014
			C74.082,184.777,70.904,186.498,67.842,186.498z M50.416,155.76c-1.271,0.565-2.185,1.956-2.838,3.103
			c-1.69,2.962-2.813,6.179-3.33,9.553c-0.166,1.074-0.286,2.303,0.086,3.279c0.42,1.096,1.579,2.06,3.1,2.576
			c1.33,0.452,2.79,0.582,4.337,0.717l0.771,0.07c1.999,0.188,4.105,0.505,5.962,1.537c1.591,0.884,2.794,2.164,3.959,3.4
			c1.233,1.31,2.4,2.55,3.844,3.079c2.59,0.947,5.577-0.724,6.967-2.889c1.79-2.785,1.737-6.352,1.376-8.854
			c-0.387-2.688-1.194-4.912-2.402-6.609c-1.198-1.694-2.998-3.189-5.66-4.71c-3.836-2.192-7.924-3.667-12.153-4.383
			C53.104,155.405,51.582,155.244,50.416,155.76L50.416,155.76z"/>
		<path d="M55.816,153.948c-1.55,0-3.023-0.428-4.206-0.771c-1.089-0.316-2.579-0.75-3.643-1.949
			c-1.022-1.16-1.467-2.828-1.246-4.704c0.131-1.141,0.473-2.178,0.802-3.182l0.326-1.016c0.361-1.168,0.773-2.494,1.79-3.539l0,0
			c1.189-1.221,3.03-1.794,5.043-1.579c3.349,0.358,6.316,2.671,7.561,5.89c0.764,1.979,0.831,4.111,0.182,6.001
			c-0.725,2.117-2.328,3.79-4.285,4.474C57.363,153.842,56.581,153.948,55.816,153.948z M51.903,140.992
			c-0.487,0.5-0.752,1.36-1.037,2.271l-0.34,1.066c-0.292,0.893-0.57,1.737-0.666,2.563c-0.109,0.942,0.069,1.78,0.476,2.242
			c0.422,0.476,1.192,0.729,2.155,1.008c1.759,0.51,3.322,0.898,4.607,0.446c1.034-0.36,1.93-1.323,2.336-2.512
			c0.401-1.169,0.35-2.569-0.141-3.839c-0.809-2.093-2.796-3.654-4.949-3.886C53.853,140.297,52.624,140.254,51.903,140.992
			L51.903,140.992z"/>
		<path d="M68.981,157.421c-0.612,0-1.227-0.067-1.83-0.208c-2.555-0.601-4.487-2.384-4.925-4.544
			c-0.479-2.375,0.877-4.372,1.967-5.978c0.203-0.3,0.406-0.599,0.594-0.896l0.302-0.489c0.642-1.056,1.441-2.371,2.915-3.055
			c2.055-0.956,4.339-0.195,5.797,0.834c3.1,2.19,4.293,6.501,2.716,9.814C75.211,155.647,72.118,157.421,68.981,157.421z
			 M70.041,144.977c-0.261,0-0.5,0.046-0.703,0.141c-0.604,0.281-1.061,1.034-1.547,1.831l-0.333,0.539
			c-0.206,0.324-0.425,0.652-0.648,0.979c-0.876,1.288-1.7,2.504-1.483,3.576c0.182,0.909,1.253,1.79,2.547,2.093l0,0
			c2.261,0.532,4.857-0.633,5.791-2.595c0.92-1.933,0.163-4.568-1.687-5.874C71.346,145.22,70.638,144.977,70.041,144.977z"/>
		<path d="M80.19,167.415c-0.873,0-1.737-0.167-2.534-0.515l0,0c-1.614-0.703-2.729-1.977-3.521-3.01
			c-1.521-1.979-2.049-3.826-1.562-5.487c0.481-1.639,1.83-2.867,4.127-3.752c1.684-0.648,3.445-1.085,5.238-1.297
			c1.042-0.123,2.259-0.166,3.381,0.452c1.286,0.709,2.122,2.145,2.355,4.041c0.339,2.768-0.506,5.51-2.267,7.334
			C84.016,166.626,82.083,167.415,80.19,167.415z M83.057,156.44c-0.248,0-0.51,0.024-0.745,0.053
			c-1.534,0.18-3.038,0.554-4.474,1.107c-1.299,0.502-2.05,1.069-2.23,1.691c-0.233,0.795,0.431,1.893,1.032,2.675
			c0.834,1.085,1.537,1.713,2.278,2.036l0,0c1.323,0.575,3.094,0.148,4.214-1.013c1.104-1.147,1.631-2.926,1.404-4.757
			c-0.102-0.839-0.38-1.457-0.741-1.657C83.611,156.472,83.345,156.44,83.057,156.44z"/>
	</g>
	<g>
		<path d="M400.755,536.557c-1.24,1.24-2.669,2.26-4.256,2.994c-4.052,1.88-8.273,1.752-12.356,1.63
			c-2.978-0.089-5.79-0.172-8.289,0.54c-2.735,0.78-5.226,2.538-8.12,4.935l-1.138,0.949c-2.504,2.093-5.095,4.263-8.223,5.804
			c-4.508,2.227-9.284,2.524-13.1,0.821c-3.183-1.423-5.382-4.033-7.115-6.398c-4.396-5.995-7.619-12.668-9.578-19.832
			c-0.932-3.4-1.794-7.846-0.167-12.067v-0.003c1.489-3.852,4.657-6.481,7.561-8.543c7.431-5.279,15.777-9.203,24.812-11.667
			c6.68-1.822,12.08-2.282,16.995-1.444c4.99,0.843,10.079,3.188,15.122,6.963c6.884,5.148,11.266,11.291,12.675,17.771
			C407.001,525.554,404.985,532.325,400.755,536.557z M334.178,518.155c-0.978,2.541-0.319,5.724,0.364,8.21
			c1.758,6.437,4.653,12.432,8.6,17.813c1.256,1.713,2.79,3.576,4.655,4.41c2.098,0.937,5.028,0.668,7.844-0.723
			c2.464-1.214,4.662-3.055,6.988-5.001l1.164-0.972c3.022-2.502,6.372-4.976,10.363-6.113c3.421-0.978,6.855-0.876,10.172-0.773
			c3.522,0.103,6.844,0.204,9.573-1.062c4.89-2.269,6.706-8.708,5.637-13.623c-1.374-6.324-6.378-11.179-10.336-14.138
			c-4.251-3.183-8.443-5.139-12.457-5.819c-3.998-0.681-8.552-0.263-14.333,1.313c-8.335,2.272-16.023,5.887-22.859,10.74
			C337.399,513.95,335.074,515.829,334.178,518.155L334.178,518.155z"/>
		<path d="M339.135,508.188c-2.142,2.141-4.771,3.585-6.878,4.745c-1.942,1.071-4.602,2.531-7.731,2.343
			c-3.016-0.188-5.935-1.886-8.225-4.777c-1.394-1.761-2.356-3.666-3.288-5.51l-0.956-1.854c-1.113-2.115-2.381-4.519-2.417-7.366
			l0,0c-0.044-3.333,1.705-6.67,4.788-9.155c5.126-4.133,12.426-5.037,18.592-2.308c3.795,1.681,6.831,4.534,8.55,8.044
			c1.924,3.927,2.02,8.455,0.259,12.108C341.13,505.903,340.192,507.127,339.135,508.188z M315.818,495.687
			c0.018,1.364,0.837,2.921,1.706,4.57l1.002,1.945c0.829,1.64,1.612,3.189,2.621,4.465c1.151,1.454,2.557,2.368,3.758,2.441
			c1.241,0.077,2.654-0.643,4.37-1.588c3.139-1.726,5.836-3.35,6.986-5.749c0.932-1.928,0.839-4.497-0.243-6.705
			c-1.061-2.17-3.068-4.033-5.5-5.109c-4.011-1.777-8.919-1.187-12.214,1.467C317.554,492.03,315.791,493.67,315.818,495.687
			L315.818,495.687z"/>
		<path d="M362.138,494.792c-0.849,0.847-1.792,1.601-2.822,2.24c-4.357,2.703-9.494,2.908-13.085,0.523
			c-3.945-2.617-4.83-7.254-5.546-10.98c-0.131-0.696-0.264-1.387-0.412-2.058l-0.263-1.097c-0.572-2.349-1.284-5.272-0.193-8.251
			c1.521-4.161,5.731-6.271,9.164-6.861c7.313-1.256,14.924,3.055,17.321,9.814C368.292,483.729,366.471,490.455,362.138,494.792z
			 M346.398,476.125c-0.361,0.361-0.627,0.755-0.778,1.167c-0.446,1.221-0.037,2.896,0.395,4.666l0.284,1.204
			c0.165,0.735,0.311,1.493,0.457,2.253c0.57,2.988,1.111,5.811,2.893,6.992c1.51,1.004,4.205,0.738,6.412-0.629l0,0
			c3.865-2.388,5.84-7.59,4.418-11.591c-1.399-3.94-6.088-6.539-10.45-5.788C348.538,474.655,347.226,475.298,346.398,476.125z"/>
		<path d="M391.442,493.11c-1.205,1.205-2.63,2.167-4.212,2.79l0,0c-3.204,1.26-6.51,1.042-9.031,0.71
			c-4.837-0.633-8.117-2.458-9.744-5.43c-1.601-2.931-1.432-6.49,0.521-10.892c1.432-3.221,3.263-6.26,5.445-9.03
			c1.269-1.611,2.894-3.353,5.3-4.053c2.76-0.796,5.897,0.032,8.841,2.333c4.295,3.355,6.916,8.315,7.005,13.269
			C395.642,486.735,394.058,490.497,391.442,493.11z M380.234,473.978c-0.342,0.343-0.671,0.738-0.958,1.103
			c-1.866,2.368-3.431,4.963-4.65,7.715c-1.104,2.486-1.356,4.311-0.748,5.423c0.78,1.423,3.217,2.017,5.123,2.266
			c2.656,0.349,4.493,0.246,5.965-0.332l0.002-0.003c2.62-1.032,4.48-4.068,4.423-7.226c-0.058-3.112-1.79-6.296-4.634-8.517
			c-1.299-1.017-2.538-1.486-3.314-1.263C381.048,473.256,380.631,473.578,380.234,473.978z"/>
	</g>
</g>
</svg>
