<?xml version="1.0" encoding="utf-8"?>
<!-- Generator: Adobe Illustrator 16.0.3, SVG Export Plug-In . SVG Version: 6.00 Build 0)  -->
<!DOCTYPE svg PUBLIC "-//W3C//DTD SVG 1.1//EN" "http://www.w3.org/Graphics/SVG/1.1/DTD/svg11.dtd">
<svg version="1.1" id="Capa_1" xmlns="http://www.w3.org/2000/svg" xmlns:xlink="http://www.w3.org/1999/xlink" x="0px" y="0px"
	 width="566.93px" height="566.93px" viewBox="0 0 566.93 566.93" enable-background="new 0 0 566.93 566.93" xml:space="preserve">
<circle fill="#653333" cx="246.797" cy="518.789" r="10.649"/>
<circle fill="#653333" cx="318.39" cy="164.925" r="10.648"/>
<circle fill="#653333" cx="517.022" cy="135.998" r="10.647"/>
<circle fill="#653333" cx="261.3" cy="319.48" r="10.648"/>
<circle fill="#653333" cx="479.2" cy="329.831" r="10.647"/>
<g>
	<g>
		<path d="M402.711,415.419c3.25,3.866,4.479,8.813,3.685,14.738c-2.258,16.726-20.466,24.839-36.416,25.326
			c-7.732,0.233-14.287-2.206-21.225-4.771c-6.9-2.545-14.017-5.184-23.646-5.96c-15.118-1.245-25.704,0.415-34.157,12.176
			c2.166,4.876-2.041,8.417-5.996,5.472c-1.265,2.908-1.663,6.287-0.994,8.744c0.758,2.744,1.282,10.584-6.07,7.586
			c-2.979,12.571-17.665,11.381-23.719,4.391c-5.471-6.306-4.965-17.975,3.216-20.703c1.285-0.433,4.391,2.729,3.792,5.818
			c0,0-2.381,2.728-2.041,5.833c0.543,4.897,4.716,10.298,11.924,4.391c8.831-7.263-1.301-19.941-8.472-15.572
			c-1.715-0.215-3.777-2.979-2.979-4.17c4.931-7.354,14.901-0.399,20.7-2.044c-4.21-6.953,0-8.85,4.949-5.814
			c10.457-13.603,23.86-15.625,40.516-14.253c10.749,0.865,18.749,3.829,25.813,6.432c6.449,2.384,11.994,4.425,18.137,4.262
			c10.528-0.307,26.841-5.419,28.559-18.227c0.487-3.593-0.11-6.339-1.825-8.38c-3.253-3.866-10.01-4.913-15.104-5.112
			c-11.614-0.451-21.854,2.998-32.691,6.665c-15.932,5.382-32.424,10.945-54.824,5.112c-13.004-3.396-21.856-12.246-24.33-24.277
			c-2.583-12.68,2.203-26.751,12.047-36.453c-14.017-26.174,21.099-39.268,47.472-47.451c27.727-8.598,56.141,3.594,63.492,27.257
			c7.331,23.646-7.877,45.592-45.738,62.824c-29.678,13.513-46.837-15.281-60.676-35.585c-7.023,7.714-10.494,18.426-8.579,27.764
			c1.844,8.996,8.364,15.391,18.371,18.011c20.052,5.22,34.664,0.289,50.145-4.952c11.071-3.737,22.507-7.604,35.621-7.098
			C391.477,407.778,398.556,410.487,402.711,415.419z M350.345,397.606c28.396-12.498,45.916-31.23,39.252-52.726
			c-6.558-21.153-32.425-31.991-57.642-24.17c-23.971,7.444-38.331,16.8-42.719,27.837c-2.654,6.684,5.815,15.751,11.776,23.446
			C322.637,399.865,325.291,410.361,350.345,397.606z"/>
		<path d="M371.026,331.533c7.533,6.049,11.399,16.582,9.646,26.407c-1.337,7.533-5.78,13.005-12.193,14.992
			c-0.813,0.252-1.66,0.434-2.528,0.577c-2.817,0.436-5.438-0.361-7.027-2.13c-3.666-4.102-4.624-8.165-5.545-12.086
			c-0.199-0.884-0.417-1.786-0.668-2.743c-2.13-7.969-4.625-9.322-6.539-9.629c-7.93-1.246-13.349-5.87-13.783-11.813
			c-0.378-5.33,3.47-10.043,9.827-12.013c0.832-0.252,1.697-0.488,2.621-0.65C358.166,319.972,368.173,328.263,371.026,331.533z
			 M363.692,371.813c14.017-2.167,14.849-24.548,2.511-33.996c-0.145-0.181-8.905-10.297-22.072-7.84
			c-12.084,2.24-11.308,13.296,1.209,15.247c5.996,0.939,8.653,6.735,10.335,13.041c1.353,5.021,1.589,8.905,5.183,12.915
			C361.471,371.868,362.79,371.957,363.692,371.813z"/>
	</g>
</g>
<g>
	<g>
		<path d="M507.346,275.393v18.468c0,6.138-4.991,11.113-11.11,11.113h-56.867c-6.119,0-11.095-4.976-11.095-11.113v-18.468
			c0,1.002,0.787,1.792,1.789,1.792h1.791v16.676c0,4.152,3.363,7.533,7.515,7.533h56.867c4.152,0,7.533-3.381,7.533-7.533v-16.676
			h1.789C506.544,277.184,507.346,276.395,507.346,275.393z"/>
		<path d="M507.346,203.495v71.897c0,1.002-0.802,1.792-1.788,1.792h-1.789v-3.58v-68.319v-3.579h1.789
			C506.544,201.706,507.346,202.512,507.346,203.495z"/>
		<path d="M507.346,186.067v17.428c0-0.983-0.802-1.789-1.788-1.789h-1.789v-15.639c0-4.152-3.381-7.516-7.533-7.516h-15.247
			c-0.983,0-1.788-0.805-1.788-1.79v-12.49h0.769c0.985,0,1.933-0.16,2.812-0.464v11.166h13.455
			C502.354,174.972,507.346,179.947,507.346,186.067z"/>
		<rect x="431.854" y="273.604" width="71.915" height="3.58"/>
		<rect x="431.854" y="201.706" width="71.915" height="3.579"/>
		<path d="M494.231,234.936c0.375,3.131-0.571,6.245-2.575,8.303c-1.577,1.646-3.759,2.54-5.907,2.54
			c-0.983,0-1.967-0.197-2.864-0.59c-0.409-0.18-0.803-0.393-1.162-0.625c-0.537-1.45-1.217-2.756-2.04-3.901
			c-0.732-1.056-1.629-2.04-2.702-2.971c-0.107-0.734-0.052-1.449,0.145-2.129c0.554-1.843,2.075-3.239,4.669-4.241
			c1.915-0.733,3.902-1.234,5.943-1.466c1.181-0.145,2.558-0.197,3.827,0.518C493.015,231.16,493.964,232.789,494.231,234.936z
			 M489.077,240.769c1.252-1.306,1.86-3.312,1.593-5.386c-0.107-0.948-0.431-1.664-0.84-1.879c-0.199-0.125-0.503-0.162-0.823-0.162
			c-0.288,0-0.593,0.037-0.86,0.072c-1.733,0.197-3.436,0.625-5.063,1.252c-1.469,0.555-2.308,1.199-2.522,1.915
			c-0.271,0.895,0.498,2.13,1.18,3.024c0.929,1.234,1.736,1.933,2.576,2.308c0.448,0.197,0.931,0.286,1.432,0.286
			C486.93,242.2,488.184,241.682,489.077,240.769z"/>
		<path d="M488.97,154.483v0.789c0,3.971-2.594,7.353-6.189,8.535v-1.325c0-1.002-0.808-1.789-1.792-1.789h-1.02
			c2.989,0,5.424-2.434,5.424-5.421v-0.789c0-2.989-2.435-5.421-5.424-5.421h-24.336c-2.987,0-5.403,2.433-5.403,5.421v0.789
			c0,2.987,2.416,5.421,5.403,5.421h-1.002c-1.002,0-1.789,0.787-1.789,1.789v1.325c-3.596-1.163-6.189-4.564-6.189-8.535v-0.789
			c0-4.956,4.023-9,8.98-9h24.336C484.926,145.483,488.97,149.528,488.97,154.483z"/>
		<path d="M483.029,249.699c0.697,4.92-0.019,9.232-2.093,12.472c-2.094,3.256-5.689,5.206-9.162,5.206
			c-1.021,0-2.022-0.16-2.972-0.519c-2.432-0.876-4.097-2.665-5.726-4.383c-1.181-1.254-2.309-2.453-3.614-3.186
			c-1.448-0.789-3.185-1.093-5.352-1.306l-0.857-0.072c-1.881-0.161-3.829-0.34-5.744-0.984c-2.757-0.931-4.831-2.773-5.688-5.028
			c-0.735-1.897-0.557-3.866-0.305-5.53c0.661-4.258,2.075-8.32,4.204-12.06c1.002-1.772,2.469-3.937,4.866-5.01
			c0.288-0.126,0.593-0.233,0.876-0.323c0.682,0.323,1.361,0.52,1.936,0.681c1.34,0.375,3.006,0.857,4.758,0.857
			c0.86,0,1.755-0.106,2.631-0.41c0.215-0.072,0.448-0.162,0.643-0.269c1.773,0.483,3.51,1.074,5.209,1.753
			c0,0.019,0.019,0.019,0.019,0.019c1.002,1.252,2.541,2.184,4.33,2.612c0.446,0.107,0.895,0.18,1.358,0.197
			c1.845,1.056,3.365,2.13,4.635,3.274c0.179,1.288,0.824,2.649,1.915,4.097c0.697,0.896,1.61,1.97,2.827,2.775
			C482.331,246.119,482.762,247.836,483.029,249.699z M477.931,260.238c2.021-3.15,1.967-7.193,1.555-10.021
			c-0.445-3.06-1.358-5.564-2.72-7.498c-1.358-1.915-3.399-3.596-6.405-5.333c-4.349-2.469-8.983-4.152-13.762-4.957
			c-1.519-0.249-3.237-0.429-4.562,0.144c-1.433,0.644-2.468,2.219-3.203,3.507c-1.914,3.364-3.187,6.997-3.776,10.826
			c-0.194,1.217-0.32,2.612,0.107,3.704c0.464,1.252,1.771,2.345,3.507,2.917c1.506,0.52,3.15,0.662,4.905,0.824l0.876,0.071
			c2.255,0.215,4.652,0.573,6.746,1.753c1.807,1.002,3.168,2.434,4.49,3.848c1.396,1.486,2.704,2.881,4.349,3.49
			C472.973,264.568,476.354,262.69,477.931,260.238z"/>
		<path d="M482.78,162.482v1.325c-0.879,0.304-1.826,0.464-2.812,0.464H479.2h-22.78h-0.787c-0.965,0-1.914-0.16-2.791-0.464v-1.325
			c0-1.002,0.787-1.789,1.789-1.789h1.002h24.336h1.02C481.973,160.693,482.78,161.48,482.78,162.482z"/>
		<path d="M478.521,218.223c3.507,2.488,4.868,7.372,3.076,11.112c-1.484,3.113-4.991,5.117-8.534,5.117
			c-0.233,0-0.482,0-0.717-0.035c-0.07-0.036-0.142-0.089-0.215-0.125c-1.789-1.021-3.614-1.916-5.474-2.685
			c0,0-0.019,0-0.019-0.019c-0.608-0.733-1.039-1.592-1.217-2.505c-0.557-2.703,0.983-4.956,2.219-6.781
			c0.233-0.341,0.464-0.663,0.68-1.003l0.341-0.553c0.716-1.2,1.629-2.685,3.292-3.473
			C474.279,216.2,476.873,217.06,478.521,218.223z M478.357,227.796c1.039-2.184,0.2-5.172-1.896-6.64
			c-0.717-0.518-1.52-0.787-2.201-0.787c-0.286,0-0.571,0.054-0.805,0.161c-0.68,0.321-1.199,1.163-1.734,2.076l-0.378,0.608
			c-0.23,0.357-0.482,0.733-0.734,1.109c-1.002,1.449-1.93,2.826-1.681,4.043c0.196,1.039,1.413,2.022,2.883,2.362
			c0.427,0.107,0.857,0.144,1.287,0.144C475.281,230.874,477.481,229.657,478.357,227.796z"/>
		<path d="M479.683,240.662c0.823,1.145,1.503,2.451,2.04,3.901c-1.217-0.805-2.13-1.879-2.827-2.775
			c-1.091-1.448-1.736-2.809-1.915-4.097C478.054,238.622,478.95,239.606,479.683,240.662z"/>
		<path d="M472.131,234.292c0.073,0.035,0.145,0.089,0.215,0.125c-0.464-0.017-0.912-0.089-1.358-0.197
			c-1.789-0.429-3.328-1.36-4.33-2.612C468.517,232.376,470.342,233.271,472.131,234.292z"/>
		<path d="M465.44,218.24c0.857,2.237,0.931,4.653,0.196,6.801c-0.734,2.164-2.271,3.918-4.207,4.794
			c-1.396-0.375-2.807-0.698-4.238-0.931c-0.95-0.16-1.988-0.286-3.024-0.286c-0.895,0-1.808,0.089-2.704,0.358
			c-0.769-0.34-1.556-0.822-2.198-1.538c-1.146-1.307-1.647-3.203-1.416-5.315c0.162-1.288,0.537-2.47,0.912-3.614l0.378-1.145
			c0.409-1.325,0.876-2.828,2.02-4.009c1.165-1.199,2.883-1.842,4.815-1.842c0.286,0,0.591,0.018,0.895,0.054
			C460.661,211.978,464.026,214.59,465.44,218.24z M462.253,223.876c0.449-1.323,0.394-2.917-0.16-4.348
			c-0.912-2.362-3.165-4.134-5.6-4.402c-0.556-0.054-1.951-0.108-2.774,0.734c-0.535,0.555-0.84,1.538-1.162,2.559l-0.394,1.216
			c-0.323,1.003-0.646,1.97-0.753,2.899c-0.126,1.074,0.073,2.022,0.538,2.542c0.482,0.537,1.358,0.822,2.452,1.145
			c1.985,0.572,3.756,1.021,5.206,0.501C460.769,226.311,461.789,225.219,462.253,223.876z"/>
		<path d="M461.43,229.835c-0.194,0.107-0.428,0.197-0.643,0.269c-0.876,0.304-1.771,0.41-2.631,0.41
			c-1.752,0-3.418-0.482-4.758-0.857c-0.574-0.161-1.254-0.358-1.936-0.681c0.896-0.269,1.81-0.358,2.704-0.358
			c1.036,0,2.074,0.126,3.024,0.286C458.623,229.138,460.034,229.46,461.43,229.835z"/>
		<path d="M456.42,164.271v12.49c0,0.985-0.803,1.79-1.789,1.79h-15.263c-4.151,0-7.515,3.364-7.515,7.516v15.639h-1.791
			c-1.002,0-1.789,0.806-1.789,1.789v-17.428c0-6.121,4.976-11.095,11.095-11.095h13.474v-11.166
			c0.877,0.304,1.826,0.464,2.791,0.464H456.42z"/>
		<path d="M431.854,273.604v3.58h-1.791c-1.002,0-1.789-0.79-1.789-1.792v-71.897c0-0.983,0.787-1.789,1.789-1.789h1.791v3.579
			V273.604z"/>
	</g>
</g>
<g>
	<g>
		<path d="M361.822,108.166c10.712,22.764,10.387,48.037,5.438,56.127c-1.587,2.604-3.412,3.187-4.677,3.235
			c-0.047,0-0.112,0-0.162,0c-5.517,0-6.584-9.013-8.171-22.603c-1.374-11.666-3.074-26.195-8.073-39.042
			c-6.858-17.685-22.035-31.243-29.334-37.763c-0.308-0.275-0.599-0.551-0.874-0.792c1.312,0,2.508-0.454,3.48-1.214
			c7.119,6.375,22.749,20.565,29.755,38.605c5.127,13.218,6.858,27.975,8.251,39.835c1.149,9.708,2.329,19.739,4.999,19.739h0.032
			c0.826-0.033,1.553-0.938,2.021-1.683c4.467-7.297,4.499-31.6-5.612-53.069c-9.645-20.485-27.378-36.113-35.887-43.622
			c-0.729-0.63-1.377-1.213-1.959-1.747c0.388-0.776,0.616-1.651,0.616-2.573c0-0.485-0.065-0.97-0.179-1.424
			c0.824,0.827,2.136,1.975,3.656,3.318C333.815,71.146,351.89,87.067,361.822,108.166z"/>
		<path d="M328.979,47.104c0,2.88-4.58,5.469-7.168,6.714c-0.26,0.905-0.743,2.589-1.262,4.433c-0.308-0.437-0.68-0.842-1.115-1.165
			c-0.359-0.792-0.745-1.731-1.136-2.768c0.341-1.197,0.582-2.022,0.616-2.119c0.129-0.454,0.454-0.826,0.874-1.019
			c2.88-1.294,5.775-3.301,5.97-4.11c-0.079-0.809-2.022-3.543-4.496-6.424c-0.811,2.977-2.153,7.669-3.609,11.91
			c-0.566-1.619-1.148-3.382-1.699-5.212c1.102-3.591,2.169-7.377,2.945-10.402c0.145-0.583,0.583-1.019,1.165-1.165
			c0.566-0.163,1.164,0.016,1.568,0.453C323.848,38.577,328.979,44.321,328.979,47.104z"/>
		<path d="M321.487,60.176c0.113,0.454,0.179,0.939,0.179,1.424c0,0.922-0.229,1.797-0.616,2.573
			c-0.454-0.388-0.874-0.761-1.23-1.102c0.179-0.453,0.278-0.955,0.278-1.472c0-0.373-0.05-0.728-0.147-1.067
			c0.147-0.534,0.291-1.102,0.42-1.634c0.131,0.194,0.26,0.373,0.372,0.517C320.905,59.609,321.162,59.885,321.487,60.176z"/>
		<path d="M321.487,60.176c-0.325-0.291-0.582-0.566-0.745-0.76c-0.112-0.145-0.241-0.323-0.372-0.517
			c0.081-0.227,0.131-0.438,0.179-0.647C320.984,58.817,321.293,59.481,321.487,60.176z"/>
		<path d="M320.549,58.251c-0.048,0.209-0.098,0.421-0.179,0.647c-0.291-0.469-0.598-1.084-0.937-1.812
			C319.869,57.409,320.241,57.814,320.549,58.251z"/>
		<path d="M321.05,64.173c-0.373,0.761-0.937,1.423-1.601,1.941c-0.162-0.146-0.31-0.275-0.453-0.404
			c-0.226-0.21-0.47-0.405-0.698-0.615c0.065-0.081,0.132-0.146,0.194-0.211c0.601-0.47,1.055-1.083,1.327-1.813
			C320.176,63.413,320.596,63.785,321.05,64.173z"/>
		<path d="M319.95,60.533c0.098,0.34,0.147,0.695,0.147,1.067c0,0.517-0.1,1.019-0.278,1.472c-0.145-0.128-0.291-0.274-0.42-0.404
			C319.563,62.004,319.757,61.276,319.95,60.533z"/>
		<path d="M320.37,58.898c-0.129,0.533-0.272,1.101-0.42,1.634c-0.341-1.312-1.327-2.379-2.589-2.832
			c0.129-0.518,0.275-1.019,0.404-1.505c0.616,0.195,1.164,0.502,1.668,0.891C319.772,57.814,320.079,58.429,320.37,58.898z"/>
		<path d="M319.95,60.533c-0.193,0.744-0.388,1.472-0.551,2.135c-0.403-0.373-0.729-0.695-0.97-0.986c0-0.033,0-0.049,0-0.082
			c0-1.003-0.599-1.861-1.475-2.249c-0.016-0.016-0.016-0.048-0.031-0.08c0.146-0.519,0.291-1.052,0.438-1.57
			C318.623,58.154,319.609,59.221,319.95,60.533z"/>
		<path d="M318.996,65.71c0.144,0.128,0.291,0.258,0.453,0.404c-0.973,0.761-2.169,1.214-3.48,1.214l-0.016-0.017
			c1.133-1.019,1.862-1.698,2.345-2.216C318.526,65.305,318.771,65.5,318.996,65.71z"/>
		<path d="M319.399,62.668c0.129,0.129,0.275,0.275,0.42,0.404c-0.272,0.729-0.727,1.343-1.327,1.813
			c0.406-0.47,0.582-0.792,0.666-1.181C319.237,63.38,319.318,63.04,319.399,62.668z"/>
		<path d="M319.399,62.668c-0.081,0.372-0.162,0.712-0.241,1.036c-0.084,0.388-0.26,0.711-0.666,1.181
			c-0.079,0.065-0.16,0.114-0.241,0.163c-0.47-0.421-0.905-0.825-1.296-1.182c0.842-0.371,1.442-1.213,1.475-2.184
			C318.671,61.973,318.996,62.295,319.399,62.668z"/>
		<path d="M318.492,64.884c-0.063,0.065-0.129,0.13-0.194,0.211c-0.016-0.017-0.031-0.033-0.047-0.048
			C318.332,64.998,318.413,64.95,318.492,64.884z"/>
		<path d="M318.43,61.6c0,0.033,0,0.049,0,0.082c-0.066-0.082-0.132-0.163-0.194-0.227c-0.404-0.502-0.842-1.213-1.28-2.104
			C317.831,59.739,318.43,60.597,318.43,61.6z"/>
		<path d="M318.235,61.455c0.063,0.064,0.128,0.146,0.194,0.227c-0.032,0.97-0.633,1.813-1.475,2.184
			c-0.451-0.405-0.808-0.759-1.018-0.986c0.047-0.048,0.081-0.098,0.112-0.13c0.019-0.081,0.034-0.163,0.066-0.243
			c0.419-0.081,0.744-0.452,0.744-0.906c0-0.291-0.146-0.551-0.356-0.728c0.129-0.502,0.275-1.036,0.404-1.554
			c0.016,0.017,0.031,0.017,0.047,0.033C317.394,60.242,317.831,60.952,318.235,61.455z"/>
		<path d="M318.298,54.319c0.391,1.036,0.776,1.975,1.136,2.768c-0.504-0.388-1.052-0.695-1.668-0.891
			C317.96,55.517,318.138,54.87,318.298,54.319z"/>
		<path d="M318.298,65.095c-0.482,0.518-1.212,1.197-2.345,2.216c-1.164-1.035-1.891-1.715-2.36-2.233
			c0-0.016,0.016-0.016,0.031-0.031c0.646,0.454,1.456,0.71,2.313,0.71s1.649-0.257,2.313-0.71
			C318.267,65.063,318.282,65.078,318.298,65.095z"/>
		<path d="M318.298,54.319c-0.16,0.551-0.338,1.198-0.532,1.877c-0.42-0.146-0.873-0.243-1.343-0.274
			c0.42-1.052,0.826-2.185,1.229-3.365C317.878,53.17,318.091,53.752,318.298,54.319z"/>
		<path d="M317.766,56.196c-0.129,0.486-0.275,0.987-0.404,1.505c-0.388-0.146-0.826-0.243-1.277-0.258
			c-0.05-0.098-0.081-0.211-0.131-0.325c0.163-0.388,0.325-0.776,0.47-1.196C316.893,55.953,317.346,56.05,317.766,56.196z"/>
		<path d="M315.953,47.345c0.551,1.83,1.133,3.593,1.699,5.212c-0.403,1.18-0.81,2.313-1.229,3.365
			c-0.163-0.033-0.323-0.033-0.485-0.033c-0.163,0-0.307,0-0.47,0.033c-0.422-1.069-0.826-2.217-1.246-3.398
			C314.805,50.922,315.387,49.157,315.953,47.345z"/>
		<path d="M317.361,57.701c-0.146,0.518-0.291,1.051-0.438,1.57c-0.275-0.551-0.551-1.166-0.84-1.828
			C316.535,57.458,316.974,57.556,317.361,57.701z"/>
		<path d="M316.955,63.865c0.391,0.356,0.826,0.761,1.296,1.182c-0.664,0.454-1.456,0.71-2.313,0.71s-1.668-0.257-2.313-0.71
			c0.47-0.421,0.905-0.825,1.293-1.182c0.307,0.146,0.664,0.227,1.021,0.227S316.648,64.011,316.955,63.865z"/>
		<path d="M316.924,59.271c0.016,0.032,0.016,0.064,0.031,0.08c-0.016-0.016-0.031-0.016-0.047-0.033
			C316.924,59.303,316.924,59.287,316.924,59.271z"/>
		<path d="M316.924,59.271c0,0.016,0,0.032-0.016,0.047c-0.308-0.128-0.63-0.194-0.971-0.194s-0.68,0.066-0.971,0.211
			c0-0.017-0.016-0.033-0.016-0.033c0.291-0.551,0.566-1.181,0.855-1.86h0.018c0.032,0,0.082,0,0.113,0c0.047,0,0.097,0,0.146,0
			C316.373,58.105,316.648,58.72,316.924,59.271z"/>
		<path d="M316.908,59.318c-0.129,0.518-0.275,1.052-0.404,1.554c-0.162-0.114-0.356-0.194-0.566-0.194s-0.404,0.08-0.566,0.21
			c-0.129-0.501-0.275-1.035-0.404-1.553c0.291-0.146,0.63-0.211,0.971-0.211S316.601,59.19,316.908,59.318z"/>
		<path d="M316.504,60.873c0.21,0.177,0.356,0.437,0.356,0.728c0,0.454-0.325,0.825-0.744,0.906
			C316.229,62.004,316.357,61.438,316.504,60.873z"/>
		<path d="M316.955,63.865c-0.307,0.146-0.661,0.227-1.018,0.227s-0.714-0.081-1.021-0.227c0.454-0.405,0.811-0.759,1.021-0.986
			C316.147,63.106,316.504,63.46,316.955,63.865z"/>
		<path d="M315.938,55.889c0.162,0,0.322,0,0.485,0.033c-0.145,0.419-0.307,0.808-0.47,1.196c-0.162-0.388-0.322-0.776-0.485-1.196
			C315.631,55.889,315.774,55.889,315.938,55.889z"/>
		<path d="M316.116,62.506c-0.032,0.08-0.048,0.162-0.066,0.243c-0.031,0.032-0.065,0.082-0.112,0.13
			c-0.047-0.048-0.081-0.098-0.113-0.13c-0.018-0.081-0.033-0.163-0.065-0.243c0.048,0.016,0.113,0.016,0.179,0.016
			S316.05,62.522,316.116,62.506z"/>
		<path d="M315.953,57.118c0.05,0.114,0.081,0.227,0.131,0.325c-0.05,0-0.1,0-0.146,0c-0.031,0-0.081,0-0.113,0
			C315.856,57.345,315.906,57.232,315.953,57.118z"/>
		<path d="M315.953,67.312l0.016,0.017c0,0-0.016,0-0.031,0L315.953,67.312z"/>
		<path d="M315.953,57.118c-0.047,0.114-0.097,0.227-0.129,0.325h-0.018c-0.451,0.016-0.89,0.096-1.293,0.258
			c-0.129-0.518-0.275-1.019-0.404-1.505c0.438-0.146,0.889-0.243,1.358-0.274C315.631,56.341,315.791,56.729,315.953,57.118z"/>
		<path d="M315.953,67.312l-0.016,0.017c-1.327,0-2.539-0.454-3.512-1.23c0.162-0.13,0.31-0.26,0.453-0.388
			c0.241-0.21,0.47-0.421,0.714-0.632C314.063,65.596,314.789,66.277,315.953,67.312z"/>
		<path d="M315.824,62.749c0.032,0.032,0.066,0.082,0.113,0.13c-0.21,0.227-0.566,0.581-1.021,0.986
			c-0.839-0.371-1.424-1.213-1.455-2.199c0.081-0.082,0.146-0.147,0.193-0.211c0.407-0.502,0.842-1.213,1.28-2.104
			c0,0,0.016-0.016,0.031-0.016c0.129,0.518,0.275,1.052,0.404,1.553c-0.21,0.161-0.356,0.421-0.356,0.712
			c0,0.454,0.325,0.825,0.744,0.906C315.791,62.586,315.807,62.668,315.824,62.749z"/>
		<path d="M315.938,67.329c-0.275,0.241-0.566,0.501-0.892,0.792c-7.297,6.521-22.471,20.079-29.348,37.763
			c-4.984,12.847-6.683,27.376-8.058,39.042c-1.603,13.59-2.654,22.603-8.17,22.603c-0.065,0-0.115,0-0.178,0
			c-1.246-0.049-3.074-0.631-4.677-3.235c-4.949-8.09-5.275-33.363,5.453-56.127c9.933-21.099,27.991-37.02,36.679-44.672
			c1.521-1.343,2.832-2.492,3.656-3.318c-0.113,0.454-0.179,0.939-0.179,1.424c0,0.922,0.229,1.797,0.616,2.573
			c-0.582,0.534-1.229,1.099-1.959,1.747c-8.524,7.508-26.242,23.137-35.887,43.622c-10.111,21.47-10.08,45.772-5.613,53.069
			c0.451,0.745,1.18,1.649,2.022,1.683c0.016,0,0.016,0,0.031,0c2.67,0,3.851-10.031,4.986-19.739
			c1.39-11.861,3.121-26.617,8.265-39.835c7.005-18.04,22.62-32.23,29.739-38.621C313.398,66.875,314.61,67.329,315.938,67.329z"/>
		<path d="M315.953,47.345c-0.566,1.813-1.148,3.578-1.731,5.179c-1.455-4.24-2.782-8.9-3.591-11.877
			c-2.491,2.88-4.435,5.632-4.498,6.472c0.179,0.776,3.074,2.767,5.954,4.062c0.436,0.193,0.761,0.565,0.89,1.019
			c0.016,0.097,0.275,0.939,0.598,2.135c-0.389,1.036-0.776,1.991-1.148,2.783c-0.42,0.325-0.793,0.712-1.1,1.149
			c-0.501-1.844-0.971-3.543-1.246-4.449c-2.604-1.246-7.184-3.834-7.184-6.714c0-2.783,5.146-8.527,7.344-10.873
			c0.407-0.437,1.021-0.615,1.587-0.453c0.566,0.146,1.021,0.582,1.165,1.165C313.787,39.968,314.82,43.754,315.953,47.345z"/>
		<path d="M315.371,60.888c0.146,0.566,0.275,1.116,0.388,1.618c-0.419-0.081-0.744-0.452-0.744-0.906
			C315.015,61.309,315.161,61.049,315.371,60.888z"/>
		<path d="M315.807,57.443c-0.289,0.679-0.564,1.309-0.855,1.86c-0.131-0.534-0.275-1.068-0.438-1.602
			C314.917,57.539,315.355,57.458,315.807,57.443z"/>
		<path d="M314.951,59.303c0,0,0.016,0.016,0.016,0.033c-0.016,0-0.031,0.016-0.031,0.016
			C314.936,59.335,314.951,59.318,314.951,59.303z"/>
		<path d="M314.951,59.303c0,0.016-0.016,0.033-0.016,0.048c-0.873,0.388-1.474,1.246-1.474,2.249c0,0.016,0,0.049,0,0.066
			c-0.242,0.291-0.583,0.629-0.986,1.019c-0.163-0.664-0.357-1.408-0.551-2.152c0.356-1.312,1.327-2.379,2.589-2.832
			C314.676,58.235,314.82,58.769,314.951,59.303z"/>
		<path d="M314.109,56.196c0.129,0.486,0.275,0.987,0.404,1.505c-1.262,0.453-2.232,1.52-2.589,2.832
			c-0.147-0.534-0.292-1.102-0.42-1.634c0.291-0.454,0.598-1.069,0.921-1.781C312.927,56.714,313.493,56.407,314.109,56.196z"/>
		<path d="M314.222,52.524c0.42,1.181,0.824,2.329,1.246,3.398c-0.47,0.031-0.921,0.128-1.358,0.274
			c-0.194-0.679-0.372-1.31-0.535-1.861C313.803,53.752,314.013,53.154,314.222,52.524z"/>
		<path d="M313.574,54.335c0.163,0.551,0.341,1.182,0.535,1.861c-0.616,0.211-1.183,0.518-1.684,0.922
			C312.798,56.326,313.186,55.371,313.574,54.335z"/>
		<path d="M314.936,59.351c-0.438,0.891-0.873,1.601-1.28,2.104c-0.047,0.064-0.112,0.13-0.193,0.211c0-0.017,0-0.05,0-0.066
			C313.462,60.597,314.063,59.739,314.936,59.351z"/>
		<path d="M314.917,63.865c-0.388,0.356-0.823,0.761-1.293,1.182c-0.081-0.049-0.162-0.097-0.226-0.163
			c-0.422-0.47-0.601-0.792-0.68-1.181c-0.065-0.307-0.146-0.647-0.243-1.003v-0.016c0.403-0.389,0.744-0.728,0.986-1.019
			C313.493,62.652,314.078,63.494,314.917,63.865z"/>
		<path d="M313.624,65.047c-0.016,0.016-0.031,0.016-0.031,0.031c-0.081-0.064-0.147-0.128-0.194-0.194
			C313.462,64.95,313.543,64.998,313.624,65.047z"/>
		<path d="M313.398,64.884c0.047,0.065,0.113,0.13,0.194,0.194c-0.244,0.211-0.473,0.422-0.714,0.632
			c-0.144,0.128-0.291,0.258-0.453,0.388c-0.664-0.518-1.212-1.165-1.585-1.925c0.454-0.388,0.858-0.761,1.215-1.102
			C312.328,63.801,312.798,64.415,313.398,64.884z"/>
		<path d="M313.398,64.884c-0.601-0.47-1.07-1.083-1.343-1.813c0.145-0.128,0.288-0.257,0.42-0.371
			c0.097,0.355,0.178,0.696,0.243,1.003C312.798,64.092,312.977,64.415,313.398,64.884z"/>
		<path d="M312.476,62.685v0.016c-0.132,0.114-0.275,0.243-0.42,0.371c-0.179-0.453-0.278-0.955-0.278-1.472
			c0-0.373,0.05-0.728,0.147-1.067C312.118,61.276,312.313,62.021,312.476,62.685z"/>
		<path d="M311.326,58.267c0.307-0.437,0.68-0.824,1.1-1.149c-0.323,0.712-0.63,1.327-0.921,1.781
			C311.439,58.688,311.392,58.478,311.326,58.267z"/>
		<path d="M311.925,60.533c-0.098,0.34-0.147,0.695-0.147,1.067c0,0.517,0.1,1.019,0.278,1.472
			c-0.356,0.341-0.761,0.713-1.215,1.102c-0.388-0.776-0.616-1.651-0.616-2.573c0-0.485,0.065-0.97,0.179-1.424
			c0.325-0.291,0.582-0.566,0.745-0.76c0.112-0.145,0.243-0.323,0.356-0.517C311.633,59.431,311.777,59.999,311.925,60.533z"/>
		<path d="M311.326,58.267c0.065,0.211,0.113,0.421,0.179,0.632c-0.113,0.194-0.244,0.373-0.356,0.517
			c-0.163,0.194-0.42,0.469-0.745,0.76C310.581,59.481,310.906,58.833,311.326,58.267z"/>
	</g>
</g>
<g>
	<g>
		<path d="M516.825,48.347c0.813,4.448-0.965,8.383-4.265,9.567c1.164-3.271,0.873-6.632-0.394-9.644
			c-0.611-1.499-1.479-2.885-2.508-4.13c-0.551-0.653-0.954-1.082-1.707-1.776l-2.274-2.211l-2.229-2.248
			c-0.65-0.698-1.156-1.154-1.799-1.687c-1.251-1.018-2.66-1.859-4.171-2.464c-3.024-1.242-6.397-1.485-9.645-0.269
			c1.16-3.321,5.076-5.136,9.54-4.367c2.214,0.336,4.559,1.313,6.712,2.733c1.049,0.695,2.111,1.621,2.969,2.426l2.274,2.194
			l2.229,2.248c0.755,0.776,1.763,1.923,2.444,2.935C515.461,43.792,516.463,46.12,516.825,48.347z"/>
		<path d="M508.102,52.354c0.157,0.157,0.252,0.37,0.262,0.585c-0.005,0.216-0.094,0.438-0.251,0.578l-33.396,33.805
			c-0.078,0.071-0.159,0.124-0.257,0.179c-0.1,0.039-0.196,0.06-0.296,0.065c-0.215,0.011-0.454-0.076-0.627-0.25l-14.565-14.388
			c-0.157-0.159-0.252-0.37-0.246-0.586c0.005-0.218,0.095-0.438,0.236-0.594l33.41-33.788c0.317-0.317,0.85-0.328,1.164,0.005
			L508.102,52.354z M506.35,52.943l-13.388-13.218l-32.225,32.613l13.39,13.218L506.35,52.943z"/>
		<path d="M500.388,51.17c0.226,0.172,0.354,0.431,0.354,0.715c-0.021,0.283-0.157,0.539-0.398,0.685l-2.227,1.345l1.807,1.788
			c0.192,0.189,0.271,0.436,0.252,0.702c-0.036,0.252-0.191,0.476-0.401,0.603l-2.518,1.511c-0.322,0.182-0.742,0.138-1.005-0.133
			l-2.119-2.086l-3.294,1.933c-0.517,0.31-0.95,0.614-1.173,0.825c-0.078,0.104-0.055,0.253,0.263,0.586
			c0.299,0.283,0.632,0.615,0.96,0.866c0.207,0.171,0.322,0.431,0.317,0.698c-0.003,0.25-0.14,0.506-0.365,0.651l-2.491,1.675
			c-0.129,0.074-0.26,0.13-0.409,0.138c-0.149,0.007-0.302-0.035-0.438-0.094c-0.7-0.379-1.763-1.289-2.497-2.017
			c-1.141-1.14-1.83-2.252-2.051-3.305c-0.238-1.103,0.058-2.148,0.831-2.921c0.522-0.543,1.146-1.007,2.067-1.553l3.564-2.13
			l-0.753-0.76c-0.191-0.173-0.272-0.434-0.252-0.685c0.037-0.252,0.176-0.475,0.401-0.619l2.481-1.526
			c0.325-0.2,0.742-0.155,1.022,0.114l1.086,1.093l1.826-1.076c0.288-0.181,0.64-0.165,0.896,0.021L500.388,51.17z M496.341,53.042
			l2.051-1.235l-2.777-1.921l-1.904,1.146c-0.323,0.184-0.742,0.138-1.005-0.131l-1.102-1.074l-1.018,0.635l0.771,0.758
			c0.179,0.19,0.273,0.436,0.236,0.703c-0.021,0.251-0.173,0.475-0.398,0.603l-4.49,2.675c-0.806,0.475-1.301,0.85-1.744,1.305
			c-0.381,0.385-0.507,0.84-0.378,1.399c0.139,0.742,0.697,1.595,1.592,2.463c0.577,0.586,1.223,1.136,1.705,1.477l1.141-0.774
			c-0.086-0.079-0.176-0.174-0.262-0.253c-1.472-1.472-0.585-2.615-0.268-2.931c0.396-0.403,1.038-0.818,1.508-1.091l3.843-2.261
			c0.322-0.182,0.742-0.138,1.005,0.131l2.104,2.088l1.049-0.619l-1.805-1.786c-0.194-0.175-0.272-0.436-0.252-0.688
			C495.979,53.41,496.117,53.186,496.341,53.042z"/>
		<path d="M512.561,57.914c-10.636,12.807-21.746,25.121-33.049,37.279c-5.589,6.11-11.373,12.063-17.067,18.094
			c-1.435,1.521-2.824,2.956-4.377,4.501c-1.836,1.79-4.443,2.822-7.353,2.889c-2.841,0.08-5.943-0.726-8.836-2.324
			c-0.302,0.282-0.569,0.563-0.887,0.843l-0.333,0.317l-0.496,0.076c-5.639,0.971-14.919,9.449-21.687,15.653
			c-8.768,8.019-11.422,10.434-14.294,7.604c-2.928-2.893-0.533-5.495,6.575-13.163c5.847-6.322,13.867-15.001,18.069-23.817
			c-0.179-0.274-0.341-0.531-0.507-0.822c-1.696-2.907-2.56-6.089-2.525-8.986c0.05-2.913,1.049-5.526,2.796-7.396
			c1.553-1.56,2.943-2.963,4.464-4.421c5.96-5.763,11.83-11.62,17.894-17.288c12.019-11.431,24.199-22.686,36.886-33.468
			c-10.163,12.266-20.786,24.09-31.598,35.741c-0.473,0.506-0.96,1.031-1.435,1.539c-5.59,6.125-11.373,12.062-17.067,18.093
			l-4.28,4.429c-1.055,1.168-1.637,2.762-1.645,4.543c-0.011,1.764,0.537,3.698,1.576,5.441c0.493,0.856,1.188,1.768,1.805,2.403
			l2.891,2.861l2.84,2.816c0.769,0.709,1.613,1.331,2.489,1.834c1.766,1.007,3.704,1.54,5.466,1.516
			c1.778-0.026,3.363-0.623,4.522-1.712l4.386-4.319c5.956-5.763,11.829-11.603,17.891-17.271c0.428-0.405,0.873-0.828,1.301-1.249
			C488.568,79.142,500.338,68.307,512.561,57.914z M437.493,115.202c-0.664-0.614-1.07-1.025-1.576-1.516l-1.472-1.454
			c-0.719-0.711-1.385-1.359-2.088-2.072c-2.814,5.417-6.819,10.665-10.822,15.328C427.08,120.694,432.858,116.322,437.493,115.202z
			"/>
		<polygon points="456.91,81.036 464.622,88.657 458.928,94.405 451.219,86.801 		"/>
		<polygon points="446.729,91.323 454.421,98.929 448.745,104.676 441.05,97.071 		"/>
	</g>
</g>
<g>
	<g>
		<path d="M401.762,251.749c0.042,0.395,0.042,0.791,0.042,1.166c0,0.833-0.063,1.624-0.229,2.476
			c-0.147,0.688-0.375,1.708-0.666,2.645c-0.939,3.291-2.479,6.517-4.58,9.557c-3.352,4.892-8.016,9.222-14.242,13.198
			c-4.913,3.124-10.452,5.768-16.469,7.892c-5.31,1.873-10.909,3.395-17.073,4.643c-10.368,2.041-21.673,3.082-34.559,3.188
			c-11.827-0.021-23.465-1.272-34.665-3.709c-5.915-1.333-11.599-2.936-16.928-4.808c-5.996-2.104-11.368-4.499-16.406-7.329
			c-2.956-1.687-5.516-3.352-7.829-5.123c-3.164-2.416-5.393-4.622-7.245-7.161c-1.312-1.833-2.206-3.52-2.812-5.331
			c-0.79-2.395-0.916-4.997-0.331-7.267c0.645-2.706,2.35-4.809,3.31-5.828c0.895-1.021,1.789-2.104,2.602-3.145
			c1.645-2.123,3.121-4.476,4.414-6.995c1.228-2.395,2.353-4.997,3.434-7.495l0.272-0.604c2.122-5.079,4.706-11.056,7.473-16.884
			c0.063-0.146,0.168-0.292,0.271-0.417c0.083-0.146,0.188-0.291,0.335-0.417c4.037-3.955,9.033-7.39,14.864-10.2
			c5.039-2.374,10.66-4.186,16.719-5.435c11.533-2.395,23.485-2.602,33.77-2.623c10.849,0.083,22.36,0.374,33.791,2.872
			c5.912,1.292,11.493,3.166,16.613,5.601c5.579,2.728,10.62,5.956,14.99,9.639c0.23,0.208,0.396,0.438,0.521,0.688
			c0.187,0.208,0.313,0.479,0.396,0.77c1.435,5.102,3.955,10.265,7.493,15.344c1.708,2.416,3.622,4.852,5.291,6.997l0.624,0.791
			c1.684,2.186,3.454,4.436,4.934,7.246C400.993,247.834,401.596,249.749,401.762,251.749z M397.494,254.58
			c0.146-0.833,0.188-1.603,0.126-2.478c-0.126-1.437-0.585-2.853-1.417-4.497c-1.312-2.458-2.956-4.56-4.537-6.6l-0.606-0.791
			c-1.707-2.186-3.643-4.643-5.411-7.163c-3.478-4.976-6.037-10.034-7.664-15.093c-0.354-0.167-0.687-0.437-0.915-0.791
			c-0.207-0.333-0.313-0.708-0.333-1.104c-3.809-3.061-8.142-5.787-12.91-8.099c-4.808-2.29-10.096-4.059-15.674-5.267
			c-11.056-2.435-22.321-2.707-32.938-2.79c-10.057,0.02-21.736,0.23-32.917,2.541c-5.745,1.166-11.032,2.893-15.759,5.1
			c-4.894,2.374-9.162,5.205-12.679,8.412c0,0.437-0.126,0.875-0.396,1.249c-0.271,0.375-0.646,0.646-1.063,0.771
			c-2.497,5.33-4.811,10.721-6.767,15.386l-0.249,0.563c-1.146,2.623-2.29,5.288-3.581,7.786c-1.416,2.748-3.04,5.309-4.831,7.641
			c-0.855,1.103-1.81,2.249-2.809,3.394c-0.585,0.645-1.896,2.165-2.332,4.038c-0.417,1.562-0.315,3.291,0.228,4.956
			c0.457,1.396,1.165,2.728,2.227,4.206c1.603,2.185,3.58,4.121,6.392,6.287c2.164,1.666,4.559,3.226,7.349,4.789
			c4.832,2.728,9.972,5.018,15.74,7.038c5.183,1.81,10.701,3.394,16.448,4.685c10.887,2.373,22.255,3.58,33.749,3.601
			c12.616-0.104,23.672-1.125,33.77-3.103c5.976-1.206,11.368-2.686,16.49-4.495c5.724-1.999,10.99-4.52,15.636-7.455
			c5.726-3.686,9.993-7.62,13.033-12.076c1.852-2.665,3.205-5.475,4.039-8.349C397.182,256.037,397.368,255.162,397.494,254.58z"/>
		<path d="M392.018,255.746c0.021,0.666-0.042,1.415-0.187,2.039c0,0.021,0,0.021-0.021,0.042c-0.186,0.771-0.375,1.396-0.603,2.083
			c-0.855,2.52-2.209,4.997-3.979,7.308c-3.058,3.955-7.182,7.475-12.262,10.41c-8.244,4.706-17.967,8.015-29.752,10.098
			c-9.513,1.707-19.818,2.581-30.625,2.581h-0.582h-0.98c-9.951,0-20.11-1.041-30.146-3.062
			c-11.347-2.247-21.132-5.474-29.898-9.888c-6.017-3.124-9.972-6.038-12.865-9.474c-1.23-1.52-3.166-4.476-2.521-7.578
			c0.27-1.25,0.855-2.395,1.915-3.666c0.918-1.124,1.729-2.227,2.458-3.31c3.289-4.746,5.393-10.202,7.163-15.405l1.123-3.228
			c1.458-4.206,2.958-8.558,4.54-12.846c0.145-0.354,0.375-0.667,0.667-0.896c7.64-6.08,17.072-9.974,28.854-11.951
			c3.415-0.561,7.02-0.978,10.995-1.27c1.123-0.063,2.122,0.77,2.228,1.894c0.102,1.125-0.708,2.125-1.834,2.249
			c-21.652,2.436-36.768,8.953-36.768,15.865c0,8.141,22.465,16.885,55.902,16.885c33.437,0,55.901-8.744,55.901-16.885
			c0-6.579-14.18-12.97-34.478-15.572c-1.126-0.147-1.937-1.167-1.813-2.312c0.126-1.124,1.146-1.936,2.271-1.832
			c3.31,0.312,6.452,0.729,9.327,1.229c10.638,1.853,20.361,5.767,28.896,11.596c0.46,0.313,0.771,0.771,0.877,1.313
			c0.54,2.644,1.311,5.267,2.311,7.765c0.957,2.374,2.206,4.83,3.787,7.495c1.438,2.416,3.043,4.747,4.624,7.016l0.354,0.521
			c1.477,2.165,2.977,4.373,4.039,6.683C391.603,253.164,391.954,254.517,392.018,255.746z M387.771,256.807
			c0.063-0.249,0.105-0.603,0.084-0.873c-0.021-0.688-0.27-1.583-0.708-2.583c-0.895-1.957-2.311-4.018-3.664-5.996l-0.375-0.563
			c-1.603-2.311-3.269-4.706-4.769-7.244c-1.687-2.854-3.019-5.497-4.058-8.079c-0.021-0.063-0.063-0.125-0.084-0.188
			c-4.685,11.513-32.188,17.509-59.358,17.509c-26.817,0-53.925-5.829-59.149-17.051c-0.52,1.458-1.021,2.895-1.5,4.31l-1.123,3.228
			c-1.873,5.475-4.102,11.264-7.661,16.406c-0.792,1.166-1.666,2.353-2.665,3.603c-0.792,0.936-0.979,1.477-1.063,1.873
			c-0.209,1.021,0.396,2.54,1.645,4.06c2.521,2.977,6.08,5.6,11.554,8.433c8.412,4.226,17.843,7.329,28.815,9.514
			c9.786,1.98,19.656,2.977,29.335,2.977h0.98h0.582c10.555,0,20.611-0.853,29.896-2.518c11.307-1.999,20.592-5.144,28.4-9.597
			c4.601-2.665,8.328-5.81,11.053-9.35c1.479-1.936,2.604-4.018,3.331-6.142C387.479,257.974,387.627,257.453,387.771,256.807z"/>
	</g>
</g>
<g>
	<g>
		<path d="M233.767,183.173c0.063,0.812,0.145,1.811,0,2.706c0.021,0.292-0.042,0.729-0.167,1.187
			c-0.187,0.542-0.457,1.041-0.874,1.604c-0.688,0.916-1.54,1.582-2.29,2.145c-1.437,0.978-3.061,1.769-5.144,2.477
			c-0.852,0.271-1.812,0.542-2.851,0.771c0.916,1.04,1.417,2.227,1.354,3.373h-2.686c-0.084-0.438-0.417-0.896-0.981-1.375
			c-0.562-0.459-1.291-0.876-2.164-1.229c-1.498-0.687-3.208-1.187-5.33-1.624c-0.895-0.167-1.792-0.313-2.707-0.459
			c-2.788-0.374-5.684-0.582-8.64-0.582h-0.271c-1.894,0-3.79,0.104-5.665,0.27l-1.768,3.165l-4.165-2.332
			c-1.999,0.417-3.602,0.896-5.018,1.541c-0.916,0.395-1.624,0.812-2.206,1.271c-0.147,0.125-0.291,0.27-0.417,0.416
			c-0.063,0.083-0.144,0.146-0.186,0.229l-2.416-1.625c0.25-0.437,0.562-0.875,0.958-1.27c0.729-0.749,1.645-1.436,2.749-2.062
			c0.435-0.249,0.915-0.479,1.395-0.687c-0.354-0.228-0.771-0.458-1.23-0.645c-1.27-0.563-2.683-1-4.454-1.352
			c-0.75-0.126-1.5-0.25-2.269-0.355c-2.313-0.333-4.727-0.5-7.205-0.5h-0.207c-1.479,0-2.958,0.063-4.415,0.188l-1.582,2.832
			l-3.748-2.102c-1.645,0.354-2.956,0.749-4.144,1.291c-0.562,0.229-1.042,0.479-1.435,0.75l-1.314-2.52
			c0.459-0.375,0.918-0.666,1.398-0.957c1.207-0.646,2.518-1.167,4.163-1.667l0.832-0.249c3.082-0.812,6.455-1.229,10.35-1.25
			c0.018,0,0.018,0,0.018,0c3.895,0.021,7.268,0.438,10.327,1.25c2.041,0.563,3.625,1.166,5.02,1.916
			c0.853,0.479,1.561,0.999,2.164,1.582c3.415-0.542,6.455-1.145,9.327-1.853c-0.063-0.125-0.105-0.229-0.145-0.333
			c-0.126-0.458-0.189-0.875-0.168-1.291c-0.249-1.333-0.23-2.436,0.063-3.249c0-0.083,0-0.166,0.021-0.249
			c-0.063-0.958,0.415-2.083,1.333-3.019c0.624-0.667,1.396-1.229,2.332-1.75c1.186-0.646,2.497-1.186,4.142-1.687l0.855-0.229
			c3.079-0.833,6.452-1.229,10.347-1.271c1.833,0.021,3.601,0.125,5.225,0.313c1.729-1.999,2.833-3.895,3.166-5.372
			c0.084-0.313,0.084-0.813,0.105-1.292l0.769-23.235c0.417-12.096,0.978-24.11,1.416-33.207l0.583-10.39l0.27-5.018l2.812-0.062
			l0.312,14.387c0.165,13.095,0.228,23.151,0.207,32.582l-0.081,22.486c0,0.188,0,0.375,0,0.563c0,0.479,0,1.02-0.126,1.832
			c-0.501,2.374-1.873,4.976-4.081,7.724c1.917,0.541,3.457,1.144,4.768,1.852c0.958,0.542,1.708,1.104,2.353,1.75
			c0.915,0.957,1.395,2.083,1.333,3.144c0,0,0.021,0.021,0.021,0.084c0.021,0.062,0.042,0.146,0.042,0.208L233.767,183.173z
			 M231.247,182.361c-0.081-0.333-0.354-0.688-0.79-1.063c-0.459-0.375-1.062-0.729-1.771-1.042
			c-1.269-0.561-2.686-0.978-4.456-1.332c-0.75-0.146-1.498-0.271-2.269-0.375c-2.29-0.333-4.726-0.498-7.205-0.498h-0.228
			c-1.477,0-2.935,0.062-4.394,0.186l15.2,6.934c1.312-0.271,2.332-0.563,3.248-0.917c0.708-0.249,1.314-0.562,1.854-0.937
			C230.872,182.985,231.145,182.673,231.247,182.361z M214.966,186.129c0.834,0,1.666-0.021,2.497-0.062l-12.658-7.079
			c-1.624,0.333-2.956,0.729-4.142,1.269c-0.75,0.313-1.333,0.667-1.813,1.042c-0.125,0.125-0.249,0.228-0.354,0.333
			c-0.228,0.249-0.375,0.5-0.417,0.729c0.063,0.228,0.21,0.437,0.459,0.665c0.126,0.105,0.249,0.208,0.396,0.313
			c0.499,0.354,1.123,0.667,1.789,0.916c1.5,0.563,3.103,0.896,4.456,1.146c2.935,0.478,6.038,0.728,9.204,0.728h0.27
			c0,0,0,0,0.021,0H214.966z"/>
		<path d="M228.957,94.396l0.042,1.709l-2.812,0.062l-16.445-6.974c-4.562,1.874-8.892,3.435-13.201,4.727
			c-8.973,2.706-16.989,4.017-24.527,4.017h-0.228c-4.373-0.041-8.598-0.416-12.595-1.103c-4.603-0.854-8.58-1.791-12.139-2.914
			c-4.415-1.334-8.826-2.916-13.511-4.851l-17.051,8.181l-2.874-0.062l0.063-2.895c0.186-1.708,1.375-2.914,3.247-3.352
			l10.327-4.601c-1.061-0.479-2.082-0.958-3.123-1.458c-0.188-0.104-0.313-0.291-0.313-0.519V52.465c0-0.062,0-0.104,0.021-0.166
			c-0.021-0.105-0.021-0.208-0.021-0.333c0-7.1,21.07-12.659,47.968-12.659c25.193,0,45.534,4.893,47.76,11.43
			c0.126,0.104,0.231,0.229,0.231,0.375v33.249c0,0.228-0.126,0.416-0.336,0.519c-1.144,0.563-2.308,1.104-3.496,1.646l10.431,4.643
			c0.228,0.083,0.52,0.208,0.75,0.354c0.042,0.021,0.084,0.041,0.124,0.083c0.999,0.646,1.582,1.541,1.687,2.644
			C228.957,94.25,228.957,94.376,228.957,94.396z M215.507,81.862V57.337c-7.662,4.456-24.587,7.309-43.721,7.309
			c-18.654,0-35.394-2.77-43.261-7.079v24.546c6.826,6.35,29.832,10.389,42.865,10.389h0.417
			c14.408-0.333,28.293-3.561,42.452-9.827c0.417-0.25,0.813-0.522,1.186-0.771L215.507,81.862z"/>
		<path d="M223.897,198.392c0.084,0.958,0.168,2.145,0,3.226c0.021,0.354-0.04,0.875-0.208,1.396
			c-0.209,0.646-0.54,1.228-1.02,1.894c-0.813,1.083-1.833,1.875-2.728,2.521c-1.687,1.186-3.622,2.123-6.101,2.956
			c-3.872,1.27-8.118,1.915-12.658,1.936c-4.517,0-8.784-0.645-12.658-1.915c-2.479-0.854-4.394-1.771-6.08-2.935
			c-0.915-0.667-1.936-1.458-2.749-2.542c-0.333-0.437-0.562-0.853-0.748-1.249c-3.082,0.917-6.413,1.395-9.912,1.416
			c-3.808,0-7.389-0.563-10.638-1.625c-2.062-0.707-3.686-1.478-5.102-2.457c-0.811-0.603-1.645-1.249-2.332-2.146
			c-0.396-0.562-0.666-1.061-0.852-1.582c-0.147-0.458-0.21-0.874-0.189-1.291c-0.229-1.208-0.229-2.228-0.021-2.998l2.542-0.459
			c0.063,0.208,0.207,0.438,0.459,0.667c0.123,0.104,0.249,0.208,0.394,0.312c0.522,0.353,1.125,0.667,1.792,0.896
			c1.498,0.582,3.103,0.916,4.477,1.165c2.914,0.48,6.017,0.708,9.201,0.708h0.252c0.018,0,0.018,0,0.018,0h0.292
			c0.834,0,1.668,0,2.521-0.042l-8.931-4.997l1.582-2.832l14.678,6.684l2.416,1.625c-0.189,0.25-0.294,0.479-0.354,0.708
			c0.082,0.291,0.292,0.582,0.604,0.873c0.144,0.126,0.291,0.25,0.48,0.396c0.603,0.417,1.354,0.791,2.164,1.082
			c1.792,0.688,3.706,1.083,5.351,1.375c3.517,0.583,7.226,0.875,11.014,0.875h0.312h0.021h0.354c1.125,0,2.248-0.021,3.394-0.084
			l-11.347-6.35l1.768-3.165l18.573,8.452c1.603-0.332,2.812-0.665,3.913-1.082c0.855-0.312,1.603-0.707,2.248-1.145
			c0.564-0.417,0.897-0.812,1.023-1.228h2.686c0,0.02,0,0.041,0,0.062c0.021,0,0.021,0.042,0.021,0.125
			c0.021,0.084,0.042,0.188,0.061,0.27L223.897,198.392z"/>
		<path d="M221.838,100.642c0.06,0.105,0.081,0.208,0.081,0.312c0,0.168-0.081,0.333-0.228,0.459
			c-6.704,5.101-14.657,8.994-23.59,11.596c-7.89,2.29-16.385,3.457-25.253,3.457h-0.957c-9.036-0.146-17.823-1.479-26.129-3.976
			c-8.787-2.603-16.801-6.31-23.817-11.056c-0.167-0.105-0.249-0.292-0.249-0.48c0-0.104,0.021-0.186,0.063-0.27
			c0.144-0.27,0.477-0.375,0.749-0.25c8.036,3.624,16.197,6.413,24.254,8.266c8.556,1.957,17.03,2.998,25.169,3.061
			c8.496,0.146,16.928-0.729,25.193-2.562c8.307-1.874,16.385-4.83,23.966-8.743C221.358,100.309,221.67,100.393,221.838,100.642z"
			/>
		<path d="M152.276,188.669l1.314,2.52c-0.125,0.104-0.251,0.188-0.375,0.291c-0.126,0.104-0.251,0.208-0.333,0.333
			c-0.252,0.25-0.375,0.479-0.438,0.728L149.903,193c-1.498-0.312-3.08-0.687-4.643-1.083c-2.122-0.583-4.268-1.228-6.411-1.957
			c-1.083-0.354-2.104-0.708-3.229-1.124c-0.375-0.146-0.895-0.354-1.354-0.563l-0.666-0.27c-0.478-0.229-0.958-0.438-1.414-0.666
			c-4.393-2.145-8.515-5.06-11.888-8.433c-2.707-2.707-6.101-6.808-6.974-10.93c-0.105-0.583-0.126-1.125-0.126-1.396l-0.104-23.506
			c0-9.473,0.063-19.508,0.208-32.561l0.312-13.326l2.874,0.062l0.229,3.999l0.582,10.327c0.438,9.118,1,21.111,1.417,33.207
			l0.708,20.675c0.02,0.686,0.042,1.373,0.062,2.04c0,0.25,0,0.48,0.021,0.708c0,0.126,0,0.25,0,0.354
			c0.02,0.271,0.041,0.479,0.083,0.75c0.459,2.041,2.416,4.871,5.247,7.514c2.811,2.646,6.119,4.914,9.576,6.518
			c0.333,0.187,0.687,0.333,1.042,0.479l0.729,0.291c0.27,0.125,0.561,0.229,0.916,0.375c0.936,0.333,2.02,0.708,3.019,1.021
			c1.978,0.645,4.061,1.248,6.182,1.811C148.279,187.815,150.28,188.273,152.276,188.669z"/>
	</g>
</g>
<g>
	<g>
		<path d="M77.571,242.386c-0.229-1.228-0.188-2.415-0.083-3.519c0.25-2.103,0.77-4.164,1.624-6.308
			c1.436-3.644,3.518-7.225,6.203-10.681c2.77-3.54,5.684-6.33,8.933-8.578c1.916-1.333,3.831-2.29,5.808-2.956
			c1.021-0.312,2.208-0.624,3.52-0.624l0.166-0.021c0.813,0,1.915,0.125,2.956,0.603l-0.271,1.792
			c-0.146-0.021-0.291-0.021-0.437-0.021c-0.563,0-1.145,0.104-1.79,0.333c-0.813,0.292-1.604,0.688-2.353,1.207
			c-1.583,1-2.977,2.291-4.29,3.52c-2.373,2.29-4.767,4.976-7.495,8.473c-2.623,3.331-4.727,6.391-6.496,9.327
			c-0.896,1.562-1.853,3.207-2.519,4.976c-0.354,0.875-0.583,1.729-0.708,2.562c-0.083,0.582-0.104,1.228,0.147,1.894
			c0.062-0.021,0.125-0.041,0.187-0.041c0.104,0,0.167,0.02,0.229,0.041c0.062,0.021,0.125,0.021,0.188,0.021l-0.188,1.708
			c-0.125-0.042-0.271-0.083-0.396-0.146c-0.291,0.208-0.686,0.208-0.978,0C78.549,245.219,77.862,243.969,77.571,242.386z"/>
		<path d="M80.902,246.092l0.188-1.708c0.708,0.126,1.478-0.125,2.165-0.437c0.707-0.333,1.457-0.791,2.249-1.375
			c1.561-1.124,2.977-2.478,4.163-3.643c0.729-0.708,1.417-1.436,2.104-2.187l-1.166-0.915c-0.23-0.188-0.353-0.48-0.292-0.771
			l0.063-0.375c-0.312-0.812-0.582-2.998,2.479-6.85c2.081-2.623,4.704-3.726,6.14-4.31l0.834-0.374
			c0.291-0.105,0.604-0.063,0.832,0.125l1.083,0.854c0.604-0.896,1.208-1.812,1.771-2.749c0.895-1.499,1.832-3.124,2.56-4.893
			c0.396-0.896,0.667-1.706,0.854-2.54c0.146-0.688,0.208-1.249,0.125-1.791c-0.083,0.021-0.166,0.021-0.25,0
			c-0.125-0.021-0.249-0.042-0.375-0.062l0.271-1.792c0.167,0.063,0.312,0.147,0.459,0.229c0.125-0.083,0.27-0.146,0.438-0.146
			c0.02,0,0.02,0,0.02,0c0.292,0,0.542,0.125,0.687,0.375c0.812,1.186,0.854,2.581,0.812,3.518
			c-0.042,1.208-0.291,2.311-0.499,3.145c-0.501,1.831-1.23,3.665-2.208,5.642c-0.519,1.02-1.103,2.102-1.831,3.331l17.113,13.678
			c0.374-0.228,0.77-0.458,1.166-0.687c2.478-1.354,5.309-2.353,8.431-2.956l0.979-0.188c0.229-0.042,0.48,0.021,0.667,0.167
			l0.831,0.666c3.956,3.165,7.872,6.35,11.785,9.536c1.833,1.52,3.686,3.019,5.537,4.539c3.688,2.956,7.329,5.975,10.974,8.994
			c2.083,1.728,4.163,3.456,6.266,5.163c2.77,2.312,9.078,7.267,15.2,12.056c6.245,4.892,12.178,9.534,14.678,11.616
			c0.415-0.291,0.646-0.417,1.039-0.624l0.646-0.354c1.251-0.667,2.229-1.104,3.208-1.396c0.375-0.126,1.272-0.396,2.353-0.396
			c1.729,0,3.124,0.729,4.06,2.125c0.729,0.853,1.249,2.101,1.438,3.434c0.165,1.104,0.165,2.292-0.042,3.79
			c-0.333,2.146-1,4.351-2.062,6.788c-1.645,3.811-3.977,7.619-7.121,11.616c-0.208,0.271-0.438,0.54-0.646,0.792l1.188,0.958
			c0.207,0.165,0.33,0.417,0.309,0.666l-0.165,4.934c5.102,4.103,10.182,8.226,15.263,12.367l15.884,13.117
			c0.105,0.084,0.249,0.228,0.291,0.333c1.438,3.082,2.812,6.098,4.163,9.119c0.021,0.042,0.042,0.082,0.063,0.103
			c0,0.021,0,0.042,0,0.063c0.021,0.063,0.021,0.146,0.021,0.207c0,0.021,0,0.063,0,0.084c0,0,0,0,0,0.021
			c-0.021,0.105-0.063,0.21-0.103,0.291c-0.021,0.021-0.042,0.021-0.042,0.042c-0.042,0.063-0.084,0.126-0.147,0.168h-0.021
			c0,0,0,0,0,0.021c-0.061,0.039-0.145,0.081-0.229,0.123c-0.104,0.042-0.209,0.042-0.312,0.042c-0.021,0-0.021,0-0.042,0
			s-0.039-0.021-0.063-0.021c-0.063-0.021-0.144-0.042-0.207-0.063c0,0-0.021,0-0.042-0.021c-0.042-0.021-0.063-0.039-0.105-0.06
			c-2.893-2.125-5.744-4.289-8.619-6.455l-4.186-3.187c-4.265-3.227-8.514-6.474-12.74-9.742
			c-5.936-4.582-12.097-9.371-18.801-14.659c-0.145,0.126-0.291,0.23-0.438,0.336c-2.146,1.581-4.145,2.726-6.143,3.538
			c-0.874,0.333-2.206,0.79-3.683,0.915c-1.146,0.105-2.374-0.042-3.373-0.456c-1.311-0.438-3.541-1.854-3.247-5.978
			c0.082-1.102,0.373-2.122,0.664-3.121l0.084-0.249c0.312-1.041,0.625-1.668,1-2.416c0.063-0.168,0.147-0.333,0.231-0.501
			c-22.57-17.841-49.531-38.974-49.968-39.286l-2.977-2.311c-4.102-3.166-8.205-6.329-12.284-9.537l-0.833-0.666
			c-0.188-0.167-0.312-0.375-0.312-0.625l-0.042-0.979c-0.125-3.185,0.208-6.164,0.958-8.89c0.021-0.083,0.042-0.146,0.063-0.208
			l-17.53-13.803c-0.958,0.936-1.811,1.706-2.645,2.393c-1.687,1.417-3.289,2.541-4.934,3.436c-0.852,0.437-1.873,0.916-2.977,1.208
			C82.797,246.343,81.798,246.362,80.902,246.092z M94.372,234.288l19.008,14.969c0.146-0.27,0.312-0.563,0.522-0.854
			c0.477-0.749,1.041-1.395,1.687-1.936l-18.906-15.116C95.622,232.039,94.81,233.08,94.372,234.288z M117.629,254.94
			c-0.522,1.812-0.792,3.81-0.834,5.956c3.664,2.893,7.286,5.829,10.931,8.766c0.5-1.293,1.061-2.458,1.706-3.52
			c1.396-2.395,3.123-4.434,5.122-5.996c0.312-0.25,0.75-0.229,1.041,0.021c0.312,0.27,0.375,0.708,0.166,1.041
			c-1.456,2.436-2.539,4.518-3.394,6.515c-0.625,1.479-1.165,2.938-1.581,4.394c0.479,0.375,1.394,1.104,2.646,2.083
			c0.288,0.228,0.582,0.438,0.894,0.708l3.748,2.935c0.499-1.291,1.039-2.437,1.684-3.496c1.417-2.416,3.145-4.436,5.144-5.999
			c0.312-0.249,0.75-0.249,1.042,0.021c0.291,0.272,0.354,0.687,0.167,1.041c-1.479,2.437-2.563,4.499-3.415,6.518
			c-0.603,1.417-1.125,2.872-1.563,4.331c2.208,1.729,4.685,3.664,7.286,5.726c0.501-1.249,1.044-2.395,1.668-3.437
			c1.414-2.416,3.142-4.435,5.141-5.996c0.313-0.249,0.75-0.249,1.042,0.021c0.312,0.249,0.375,0.687,0.165,1.041
			c-1.456,2.437-2.539,4.496-3.412,6.516c-0.585,1.374-1.083,2.812-1.521,4.268l7.268,5.746c0.499-1.228,1.039-2.353,1.666-3.392
			c1.414-2.415,3.142-4.435,5.141-6.017c0.291-0.23,0.75-0.23,1.041,0.039c0.292,0.252,0.354,0.688,0.168,1.021
			c-1.479,2.437-2.563,4.52-3.415,6.539c-0.561,1.354-1.083,2.768-1.521,4.246c2.437,1.937,4.873,3.872,7.247,5.769
			c0.48-1.23,1.041-2.354,1.666-3.415c1.416-2.396,3.142-4.415,5.141-5.996c0.312-0.249,0.75-0.229,1.042,0.042
			c0.291,0.249,0.375,0.687,0.167,1.021c-1.458,2.437-2.542,4.517-3.415,6.536c-0.582,1.374-1.104,2.812-1.519,4.249
			c2.56,2.059,5.057,4.06,7.371,5.912c0.624-1.168,1.291-2.332,1.999-3.499c0.436-0.688,0.895-1.375,1.354-2.041
			c0.331-0.478,0.624-0.957,0.955-1.435c0.606-0.855,1.209-1.687,1.813-2.5c2.998-3.829,5.873-6.911,8.829-9.41
			c0.291-0.25,0.583-0.499,0.895-0.729c-4.019-2.956-7.995-5.912-11.971-8.91c-4.768-3.559-9.474-7.161-14.2-10.764l-3.58-2.726
			c-2.062-1.605-4.121-3.187-6.182-4.789c-3.833-2.937-7.662-5.893-11.473-8.87c-1.873-1.499-3.79-2.978-5.684-4.455
			c-3.559-2.791-7.121-5.559-10.659-8.37c-4.662,1.144-8.411,3.435-10.867,6.6C119.335,250.589,118.294,252.651,117.629,254.94z
			 M177.734,321.834c-0.105,3.103,1.146,3.709,2.935,4.144c0.396-0.021,0.75-0.063,1.062-0.144c0.958-0.21,1.894-0.585,2.893-1.126
			c1.978-1.062,3.686-2.415,5.102-3.622l-3.769-2.977c-0.249-0.168-0.478-0.333-0.666-0.522l-0.124-0.102
			c-0.105-0.063-0.189-0.168-0.23-0.273c-0.708-0.873-0.52-1.665-0.313-2.247c0.021-0.084,0.063-0.166,0.084-0.25
			c0.063-0.168,0.147-0.354,0.189-0.561c0.415-1.063,8.037-12.328,13.385-16.719c1.917-1.771,3.394-1.917,3.937-0.834
			c1.039,1.998-2.998,8.411-6.746,13.699l2.602,2.083c0.208-0.271,0.438-0.522,0.646-0.792c1.312-1.624,2.602-3.395,3.83-5.226
			c1.125-1.665,2.208-3.478,3.333-5.561c0.811-1.561,1.81-3.664,2.416-5.891c0.31-1.125,0.457-2.125,0.457-3.082
			c-0.021-0.436-0.063-0.895-0.168-1.312c-0.79-1.456-1.852-2.185-3.184-2.185c-0.771,0-1.333,0.249-1.438,0.312
			c-0.853,0.417-1.705,0.937-2.539,1.561c-0.831,0.604-1.666,1.27-2.602,2.125l-0.688-0.48l0.499,0.646
			c-0.687,0.624-1.27,1.167-1.831,1.729c-2.77,2.77-5.414,5.831-8.099,9.327c-2.395,3.103-4.622,6.329-6.662,9.64
			c0,0.167-0.021,0.375-0.145,0.501c-0.543,0.624-0.939,1.27-1.146,1.936c-0.063,0.188-0.21,0.354-0.396,0.459
			c-0.646,1.206-1.144,2.185-1.561,3.121c-0.125,0.252-0.251,0.501-0.375,0.729C178.088,320.585,177.755,321.209,177.734,321.834z
			 M189.976,314.214c-0.79,0.979-0.79,1.687-0.75,2.041l5.144,4.103c0.063,0.063,0.126,0.126,0.208,0.165
			c0.542-1.603,1.729-3.101,2.917-4.163l-5.144-4.039C191.746,312.611,190.789,313.173,189.976,314.214z M198.846,319.754
			c-1.209,0.333-2.146,0.747-2.875,1.894c5.726,4.601,11.452,9.204,17.136,13.847c4.144,3.373,8.286,6.764,12.388,10.179l3.83,3.188
			c1.75,1.455,3.478,2.893,5.207,4.352c-0.853-1.624-1.708-3.229-2.542-4.853l-16.196-12.325
			c-5.435-4.204-10.846-8.412-16.259-12.658l-0.438-0.333c-0.186-0.146-0.312-0.396-0.312-0.646L198.846,319.754z"/>
	</g>
</g>
<g>
	<g>
		<path d="M76.914,531.649c0.084,0,0.27-0.021,0.687-0.063h1.582c0,0.021-0.021,0.042-0.021,0.063c0.021,0,0.021,0,0.042,0
			l0.771,0.103c-0.063,0.52-0.084,0.937-0.021,1.249l-0.042,0.854c-8.87,0.354-17.718-0.228-26.586-0.021l-1.458,0.021l-0.042-1.521
			c-0.25-8.909-0.354-17.841-0.542-26.753l-0.27-26.772l-0.083-26.776l0.062-14.76c-7.141,0.103-14.283,0.187-21.443,0.187
			c-2.686,0-5.372-0.021-8.058-0.042c-0.459,0-0.917,0-1.375,0l-0.459-0.604l-1.831-2.457l-2.958-3.935l-0.958-1.27l1.291-0.957
			l35.083-26.007c11.721-8.64,23.381-17.382,35.164-25.919l42.057-31.438c0,0,0,0,0.936,0.855c0.187,0.145,0.354,0.27,0.541,0.394
			c2.081,1.5,4.164,3,6.247,4.477c0.063,0.063,0.123,0.105,0.186,0.147c0.063,0.061,0.144,0.103,0.207,0.145
			c0.792,0.582,1.605,1.167,2.416,1.749l34.373,25.046c11.472,8.328,22.819,16.823,34.229,25.232l34.208,25.319l1.291,0.957
			l-0.958,1.27l-2.998,3.977l-1.812,2.415l-0.417,0.562c-0.477,0-0.957,0-1.435,0.021c-4.331,0.041-8.685,0.063-13.012,0.063
			c-5.498,0-10.974-0.042-16.448-0.104l0.061,14.678l-0.082,26.776l-0.291,26.772c-0.168,8.912-0.294,17.844-0.543,26.753
			l-0.04,1.521l-1.437-0.042c-11.245,0.165-27.296,0.165-27.296,0.165c0.042-0.624-0.082-2.955-0.187-4.892l2.167-0.123
			c0.04,0.937,0.145,1.831,0.373,2.644c8.121-0.293,15.302-0.5,23.422-0.708c-0.228-8.453-0.333-16.886-0.498-25.318l-0.294-26.772
			l-0.082-26.776l0.063-14.76l0.019-2.79l0.042-8.016l-17.508-11.888l-18.447-12.763c-12.241-8.559-24.443-17.198-36.476-26.066
			c-12.034,8.868-24.234,17.508-36.498,26.066l-18.424,12.742l-17.509,11.908l0.021,8.078l0.02,2.644l0.063,14.844l-0.063,26.776
			l-0.291,26.772c-0.167,8.433-0.271,16.865-0.5,25.298c8.037,0.207,14.511,0.394,22.527,0.688
			C77.184,531.587,76.956,531.629,76.914,531.649z M234.748,433.689l2.893-3.892l-32.75-24.588
			c-11.326-8.537-22.714-16.97-33.977-25.589l-33.854-25.775c-0.895-0.687-1.789-1.374-2.665-2.062
			c-0.084-0.06-0.146-0.123-0.228-0.165c-0.063-0.063-0.147-0.126-0.21-0.168c-1.996-1.539-3.993-3.079-5.995-4.621
			c-0.165-0.123-0.353-0.271-0.519-0.396l0.186-0.165L17.39,428.507l0.957,1.291l2.874,3.871l29.648-21.859
			c10.284-7.619,20.57-15.241,30.958-22.735l31.084-22.57c4.706-3.373,9.411-6.743,14.117-10.137
			c0.104-0.063,0.188-0.126,0.291-0.189c0.084-0.063,0.189-0.123,0.271-0.207c0.125,0.103,0.25,0.187,0.374,0.271
			c0.126,0.084,0.231,0.168,0.354,0.249c5.83,4.144,11.639,8.285,17.446,12.409l30.189,21.777
			c10.078,7.227,20.071,14.573,30.064,21.925L234.748,433.689z M127.984,346.038l0.042-0.019l-0.021-0.021l-0.021,0.021V346.038z"/>
		<path d="M166.563,474.311c8.412,12.823,11.908,28.293,10.888,43.076c-0.396-6.038-0.082,2.476,0.042,0
			c0.126,2.518,0.126,5.038,0,7.538c-0.061,1.312-0.145,2.726-0.082,4.039l-2.167,0.123c-0.021-0.417-0.042-0.811-0.063-1.167
			c-5.684-12.97-6.788-18.029-46.865-18.029c-39.099,0-42.764,5.206-47.697,17.99c-0.167,1.414-0.501,2.83-0.645,3.871l-0.771-0.103
			c-0.021-0.021-0.021-0.042-0.021-0.063h-1.582c0.208-4.562,0.417-6.788,0.562-10.035c-0.312-18.261,2.875-34.418,11.285-47.22
			c4.164-6.413,9.661-12.034,16.26-16.179c6.621-4.12,14.366-6.494,22.318-6.515c7.807,0.021,15.676,2.395,22.254,6.515
			C156.882,462.276,162.398,467.919,166.563,474.311z"/>
		<path d="M146.7,412.122c7.433,0,13.45,4.828,13.45,10.785c0,5.954-6.017,10.782-13.45,10.782h-33.83
			c-7.432,0-13.449-4.828-13.449-10.782c0-5.957,6.017-10.785,13.449-10.785H146.7z M148.555,421.635
			c0.54-0.582,1.333-0.186,1.333-0.873c0-0.48-0.375-0.646-1.729-0.646c-0.417,0-1.666,0-1.666,0.646
			c0,0.417,0.312,0.438,0.312,0.729c0,0.249-0.459,0.831-0.729,0.831c-0.271,0-0.708-0.688-0.708-0.915
			c0-0.229,0.291-0.334,0.291-0.625c0-0.228,0.021-0.666-2.227-0.666c-2.542,0-2.458,0.501-2.458,0.75
			c0,0.52,0.708,0.354,1.251,0.979l1.207,1.416c0.396,0.478,0.501,0.688,0.501,1.312c0,1.06-0.084,1.54-0.189,1.811
			c-0.186,0.438-0.813,0.209-0.813,0.813c0,0.291,0.293,0.771,2.416,0.771c0.522,0,2.25,0,2.25-0.771
			c0-0.521-0.585-0.459-0.729-0.771c-0.105-0.208-0.168-0.646-0.168-1.645c0-0.751,0.042-1.084,0.522-1.666L148.555,421.635z
			 M137.958,425.05c1.519,0,2.872-0.853,2.872-2.476c0-1.626-1.417-2.479-2.893-2.479c-0.459,0-1.417,0.144-2.979,0.144
			c-0.27,0-0.541-0.018-0.811-0.018c-0.333,0-0.813,0.102-0.813,0.54c0,0.666,1.02,0.312,1.02,1.125v4.246
			c0,0.895-0.789,0.522-0.789,1.126c0,0.708,1.603,0.708,2.059,0.708c0.48,0,2.041-0.021,2.041-0.729
			c0-0.646-0.789-0.063-0.831-1.438v-0.624c0-0.126,0.06-0.168,0.186-0.168C137.31,425.008,137.623,425.05,137.958,425.05z
			 M130.151,425.05c1.518,0,2.871-0.853,2.871-2.476c0-1.626-1.417-2.479-2.892-2.479c-0.459,0-1.416,0.144-2.977,0.144
			c-0.271,0-0.542-0.018-0.813-0.018c-0.333,0-0.811,0.102-0.811,0.54c0,0.666,1.019,0.312,1.019,1.125v4.246
			c0,0.895-0.791,0.522-0.791,1.126c0,0.708,1.603,0.708,2.062,0.708c0.477,0,2.041-0.021,2.041-0.729
			c0-0.646-0.792-0.063-0.834-1.438v-0.624c0-0.126,0.063-0.168,0.189-0.168C129.506,425.008,129.839,425.05,130.151,425.05z
			 M124.404,421.968c0-0.978,0.812-0.603,0.812-1.206c0-0.646-1.187-0.646-1.604-0.646c-0.437,0-1.707-0.021-1.707,0.666
			c0,0.625,0.938,0.166,0.938,1.333v2.707c0,0.123,0.081,1.539-1.646,1.539c-1.145,0-1.624-0.831-1.624-2.122v-1.998
			c0.062-1.312,0.854-0.585,0.854-1.375c0-0.417-0.375-0.75-2.146-0.75c-2.227,0-2.102,0.624-2.102,0.771
			c0,0.498,0.729,0.498,0.687,1.186v2.499c0,0.124-0.479,3.434,3.81,3.434c3.748,0,3.727-2.602,3.727-3.1V421.968z M112.995,425.05
			c1.499,0,2.874-0.853,2.874-2.476c0-1.626-1.415-2.479-2.895-2.479c-0.458,0-1.415,0.144-2.998,0.144
			c-0.27,0-0.519-0.018-0.791-0.018c-0.333,0-0.812,0.102-0.812,0.54c0,0.666,1,0.312,1,1.125v4.246
			c0,0.895-0.791,0.522-0.791,1.126c0,0.708,1.603,0.708,2.061,0.708c0.501,0,2.062-0.021,2.062-0.729
			c0-0.646-0.792-0.063-0.833-1.438v-0.624c0-0.126,0.041-0.168,0.167-0.168C112.35,425.008,112.662,425.05,112.995,425.05z"/>
		<path d="M138.331,422.616c0,0.666-0.291,1.206-1,1.206c-0.582,0-0.498-0.249-0.498-0.479v-1.624c0-0.228,0-0.354,0.417-0.354
			C137.979,421.365,138.331,421.926,138.331,422.616z"/>
		<path d="M130.526,422.616c0,0.666-0.293,1.206-0.999,1.206c-0.585,0-0.501-0.249-0.501-0.479v-1.624c0-0.228,0-0.354,0.417-0.354
			C130.172,421.365,130.526,421.926,130.526,422.616z"/>
		<path d="M113.37,422.616c0,0.666-0.291,1.206-0.999,1.206c-0.604,0-0.5-0.249-0.5-0.479v-1.624c0-0.228,0-0.354,0.416-0.354
			C113.016,421.365,113.37,421.926,113.37,422.616z"/>
	</g>
</g>
<g>
	<path d="M464.146,366.103c-0.655,0.656-1.413,1.196-2.255,1.587c-2.146,0.994-4.383,0.926-6.545,0.863
		c-1.578-0.047-3.068-0.095-4.393,0.283c-1.448,0.414-2.768,1.346-4.302,2.615l-0.604,0.504c-1.327,1.109-2.696,2.258-4.354,3.073
		c-2.39,1.181-4.921,1.341-6.94,0.436c-1.687-0.753-2.852-2.135-3.771-3.389c-2.327-3.176-4.034-6.712-5.073-10.507
		c-0.493-1.803-0.949-4.157-0.089-6.393c0,0,0,0,0-0.002c0.789-2.041,2.468-3.434,4.005-4.527c3.938-2.796,8.359-4.876,13.146-6.18
		c3.538-0.965,6.399-1.209,9.001-0.766c2.645,0.448,5.341,1.688,8.014,3.69c3.646,2.728,5.97,5.979,6.714,9.413
		C467.457,360.275,466.39,363.86,464.146,366.103z M428.874,356.354c-0.517,1.346-0.168,3.032,0.194,4.349
		c0.931,3.41,2.466,6.586,4.556,9.438c0.666,0.907,1.477,1.894,2.466,2.337c1.112,0.496,2.665,0.352,4.157-0.383
		c1.307-0.643,2.468-1.618,3.701-2.649l0.616-0.514c1.603-1.327,3.378-2.636,5.492-3.239c1.81-0.52,3.63-0.465,5.388-0.412
		c1.864,0.058,3.625,0.11,5.072-0.562c2.592-1.201,3.552-4.613,2.985-7.215c-0.727-3.353-3.379-5.923-5.477-7.491
		c-2.251-1.687-4.47-2.723-6.6-3.082c-2.116-0.362-4.529-0.139-7.593,0.695c-4.415,1.203-8.488,3.118-12.11,5.688
		C430.584,354.127,429.352,355.121,428.874,356.354L428.874,356.354z"/>
	<path d="M431.502,351.071c-1.136,1.136-2.528,1.901-3.646,2.516c-1.028,0.566-2.437,1.343-4.095,1.24
		c-1.597-0.097-3.145-0.997-4.356-2.531c-0.739-0.934-1.248-1.94-1.741-2.917l-0.506-0.983c-0.591-1.12-1.262-2.392-1.283-3.902l0,0
		c-0.021-1.766,0.905-3.533,2.539-4.85c2.715-2.188,6.581-2.668,9.847-1.223c2.012,0.89,3.619,2.402,4.532,4.263
		c1.018,2.079,1.07,4.477,0.137,6.412C432.56,349.862,432.061,350.513,431.502,351.071z M419.148,344.451
		c0.011,0.721,0.446,1.547,0.905,2.421l0.532,1.03c0.438,0.868,0.853,1.689,1.388,2.363c0.608,0.771,1.354,1.254,1.99,1.296
		c0.656,0.039,1.406-0.341,2.316-0.842c1.66-0.915,3.09-1.775,3.701-3.045c0.493-1.023,0.443-2.385-0.132-3.552
		c-0.561-1.151-1.623-2.138-2.911-2.709c-2.127-0.942-4.727-0.627-6.474,0.778C420.066,342.513,419.136,343.381,419.148,344.451
		L419.148,344.451z"/>
	<path d="M443.688,343.977c-0.451,0.448-0.949,0.847-1.495,1.186c-2.309,1.432-5.031,1.542-6.933,0.277
		c-2.09-1.387-2.56-3.842-2.938-5.817c-0.07-0.367-0.139-0.734-0.218-1.091l-0.139-0.58c-0.305-1.243-0.682-2.793-0.103-4.372
		c0.806-2.203,3.035-3.32,4.855-3.633c3.874-0.666,7.905,1.618,9.175,5.198C446.948,338.114,445.983,341.679,443.688,343.977z
		 M435.351,334.088c-0.192,0.188-0.334,0.398-0.412,0.616c-0.236,0.648-0.021,1.534,0.207,2.474l0.152,0.638
		c0.086,0.388,0.165,0.789,0.241,1.193c0.302,1.581,0.59,3.076,1.531,3.703c0.801,0.532,2.229,0.394,3.399-0.333l0,0
		c2.046-1.265,3.093-4.021,2.34-6.141c-0.742-2.088-3.226-3.462-5.537-3.065C436.483,333.307,435.788,333.647,435.351,334.088z"/>
	<path d="M459.213,343.084c-0.637,0.641-1.393,1.149-2.231,1.479l0,0c-1.697,0.667-3.446,0.551-4.784,0.375
		c-2.563-0.333-4.299-1.304-5.162-2.874c-0.848-1.553-0.758-3.441,0.278-5.771c0.755-1.708,1.726-3.318,2.882-4.787
		c0.675-0.853,1.535-1.775,2.81-2.146c1.461-0.422,3.124,0.016,4.685,1.235c2.274,1.778,3.661,4.406,3.709,7.032
		C461.438,339.706,460.599,341.699,459.213,343.084z M453.275,332.949c-0.182,0.179-0.354,0.392-0.507,0.583
		c-0.988,1.256-1.817,2.631-2.465,4.089c-0.583,1.316-0.719,2.282-0.396,2.872c0.414,0.753,1.705,1.067,2.715,1.201
		c1.405,0.184,2.382,0.131,3.16-0.179l0,0c1.391-0.545,2.374-2.155,2.343-3.826c-0.029-1.65-0.944-3.337-2.453-4.515
		c-0.689-0.537-1.345-0.786-1.757-0.669C453.708,332.566,453.487,332.74,453.275,332.949z"/>
</g>
</svg>
