<?xml version="1.0" encoding="utf-8"?>
<!-- Generator: Adobe Illustrator 16.0.3, SVG Export Plug-In . SVG Version: 6.00 Build 0)  -->
<!DOCTYPE svg PUBLIC "-//W3C//DTD SVG 1.1//EN" "http://www.w3.org/Graphics/SVG/1.1/DTD/svg11.dtd">
<svg version="1.1" id="Capa_1" xmlns="http://www.w3.org/2000/svg" xmlns:xlink="http://www.w3.org/1999/xlink" x="0px" y="0px"
	 width="566.93px" height="566.93px" viewBox="0 0 566.93 566.93" enable-background="new 0 0 566.93 566.93" xml:space="preserve">
<circle fill="#653333" cx="323.057" cy="409.785" r="14.377"/>
<path fill="#653333" d="M491.119,281.325c-0.832-7.896,4.893-14.972,12.787-15.807c7.893-0.836,14.973,4.889,15.805,12.784
	c0.836,7.897-4.887,14.973-12.785,15.809C499.029,294.943,491.955,289.221,491.119,281.325z"/>
<path fill="#653333" d="M210.527,131.624c-0.836-7.897,4.887-14.974,12.784-15.806c7.897-0.836,14.973,4.888,15.808,12.784
	c0.832,7.897-4.89,14.972-12.787,15.808C218.438,145.244,211.359,139.519,210.527,131.624z"/>
<g>
	<g>
		<path fill="#1D1D1B" d="M552.305,395.125c0.758,0.477,1.168,1.363,0.994,2.252c-0.045,0.301-1.43,7.291-10.217,9.826
			c-5.367,1.559-11.451,0.584-16.258-2.6c-2.27-1.516-4.889-3.916-6.9-7.664c-0.305,0.285-0.695,0.5-1.127,0.568
			c-1.02,0.17-2.035-0.391-2.404-1.367c-5.322-14.111,1.559-31.883,3.313-35.975c0.563-3.766,0.908-7.012,1.018-9.805
			c-1.387,0.779-2.578,1.105-2.814,1.168c-0.41,0.107-0.846,0.088-1.258-0.043c-0.475,7.771-2.484,17.23-6.059,29.025
			c-1.258,4.18-0.172,14.135,3.443,17.598c0.711,0.693,0.889,1.777,0.389,2.641c-0.086,0.133-7.553,13.316-7.814,26.043
			c0,0.518-0.172,0.992-0.496,1.359c-0.064,0.068-4.959,5.979-5.76,14.42c-0.215,2.359-0.131,9.76-0.131,9.846
			c0,0.566-0.215,1.125-0.625,1.535c-0.412,0.412-0.975,0.652-1.537,0.652h-15.174c-0.648,0-1.279-0.305-1.691-0.822
			c-0.408-0.52-0.559-1.189-0.408-1.842c0.107-0.451,0.215-0.906,0.324-1.342c-0.262,0.133-0.563,0.195-0.863,0.195h-13.164
			c-0.668,0-1.299-0.305-1.709-0.822c-0.41-0.52-0.539-1.189-0.391-1.842c1.301-5.582,2.6-8.395,3.031-9.219
			c0.432-1.256,2.621-7.055,8.77-13.723c0.41-2.859,2.053-13.701,3.805-19.613c-4.521-3.852-20.127-18.354-20.021-35.217
			c-9.611,3.832-22.379,7.232-34.76,5.307c-0.283,5.494-1.258,18.115-4.311,25.953c0.738,1.947,1.947,6.406-0.779,10.521
			c-0.346,1.727-1.557,9.221,1.668,14.76c0.391,0.693,0.391,1.557-0.02,2.23c-0.043,0.063-3.963,6.707-3.486,19.412
			c0.023,0.588-0.193,1.168-0.605,1.58c-0.389,0.436-0.951,0.672-1.557,0.672h-11.537c-1.148,0-2.08-0.863-2.168-1.99
			c-0.043-0.52-0.863-12.426,6.451-22.422l-0.131-14.568c-0.889-1.559-2.705-5.674-0.41-10.391
			c-1.08-3.184-4.633-13.939-6.32-22.232c-10.996,1.668-23.076,3.27-28.682,3.984c3.031,6.605,6.842,19.955,8.184,24.828
			c7.596,2.531,18.225,6.82,18.703,7.012c0.541,0.219,0.973,0.65,1.189,1.211c0.215,0.545,0.215,1.146-0.021,1.693
			c-2.9,6.447-6.994,14.021-7.164,14.348c-0.369,0.674-1.041,1.084-1.799,1.127c-0.754,0.043-1.471-0.305-1.906-0.932
			c-3.311-4.848-15.17-12.143-19.48-14.543c-0.563-0.328-0.953-0.891-1.057-1.537c-1.775-10.652-6.432-20.434-9.828-27.559
			c-3.205-6.707-4.957-10.389-3.744-12.922c0.561-1.189,1.729-3.637,33.119-16.58c-3.898-6.58-5.783-13.203-5.609-19.717
			c-1.863-3.463-11.664-22.297-14.371-39.092c-2.557,1.838-6.432,3.764-11.105,3.332c-2.77-0.262-3.721,1.039-5.326,3.549
			c-1.316,2.078-2.963,4.633-6.385,4.914c-0.973,0.066-1.668-0.215-2.078-0.389c-0.084-0.043-0.17-0.088-0.258-0.109
			c-0.781-0.193-1.32-0.691-2.016-1.32c-0.391-0.367-1.297-1.189-1.686-1.277c-1.906-0.236-2.988-1.213-3.572-1.99
			c-1.082-1.492-1.344-3.572-0.801-6.342c0.479-2.467,2.293-3.139,3.268-3.506c0.605-0.24,0.889-0.348,1.127-0.65
			c1.816-2.424,3.42-4.633,7.033-10.781c-0.582-0.93-1.516-2.662-0.863-4.458c-0.064,0.087-0.154,0.195-0.217,0.28
			c-0.543,0.759-1.518,1.083-2.426,0.802c-0.887-0.281-1.494-1.124-1.494-2.056c0-3.095,1.32-8.399,5.65-11.754
			c-0.736,0.022-1.578,0.064-2.51,0.151c-1.039,0.108-2.016-0.561-2.295-1.579c-0.279-1.018,0.217-2.079,1.168-2.534
			c0.348-0.171,7.359-3.439,14.912-3.116c-0.473-1.905-0.994-4.069-1.537-6.276c-0.236-0.932,0.174-1.883,0.998-2.382
			c0.822-0.476,1.861-0.368,2.555,0.281c0.131,0.087,2.596,2.382,6.016,5.932c5.607-2.056,11.797-2.513,18.379-1.32
			c0.949,0.174,1.664,0.952,1.775,1.926c0.043,0.563-0.131,1.126-0.479,1.558c3.768,0.368,8.137,1.43,13.053,3.637
			c0.953,0.435,1.453,1.493,1.211,2.49c-0.258,1.019-1.232,1.731-2.227,1.645c-0.779-0.042-1.994-0.087-3.422-0.065
			c6.365,2.188,13.941,6.17,18.875,13.29c0.479,0.672,0.52,1.561,0.131,2.274c-0.262,0.477-0.693,0.824-1.189,0.994
			c4.264,2.988,8.916,7.859,11.17,15.52c0.211,0.803-0.023,1.646-0.631,2.209c-0.238,0.217-0.518,0.367-0.801,0.455
			c3.615,2.553,7.404,6.039,10.369,10.65c0.541,0.82,0.432,1.883-0.217,2.619c-0.131,0.15-0.283,0.281-0.457,0.367
			c2.146,1.754,4.33,3.854,6.516,6.363c8.139,2.359,24.201-1.58,30.328-3.094c1.127-0.281,1.969-0.5,2.51-0.609
			c5.475-1.123,22.145-4.564,33.875,4.656c0.064,0.064,0.154,0.109,0.217,0.174c2.012-0.736,4.049-1.234,6.037-1.475
			c2.1-0.563,21.449-4.891,31.061,21.949c0.521,1.43,1.41,2.748,1.885,3.074c0.02-0.043,0.109-0.129,0.24-0.26
			c0.689-0.756,1.838-0.93,2.727-0.391c0.887,0.541,1.275,1.646,0.887,2.619c-0.197,0.5-1.949,4.807-5.518,5.369
			c-0.564,0.086-1.105,0.086-1.648,0c0.369,4.438,0.432,9.373,0.154,14.699c0.02,0.064,0.02,0.148,0,0.213l-0.131,2.252
			c-0.238,5.715,0.693,10.088,2.361,11.063c0.885,0.518,1.275,1.6,0.947,2.553c-0.32,0.975-1.295,1.58-2.293,1.471
			c-0.172-0.021-1.127-0.15-2.402-0.582c-0.432,7.555,1.387,9.242,2.012,9.59c1.689,0.949,4.938-0.824,6.258-1.842
			C550.568,394.713,551.547,394.67,552.305,395.125z M544.967,401.725c-1.168,0.021-2.361-0.193-3.463-0.822
			c-3.727-2.078-5.002-7.596-3.963-16.838c0.09-0.736,0.541-1.389,1.211-1.711c0.215-0.109,0.457-0.174,0.693-0.193
			c-0.799-2.926-0.91-6.367-0.777-9.354l0.109-2.1c0-0.064,0-0.105,0-0.17c0.363-7.057,0.148-13.336-0.674-18.682
			c-0.131-0.977,0.391-1.926,1.275-2.318c0.889-0.389,1.926-0.15,2.557,0.609c0.064,0.084,0.127,0.172,0.195,0.234
			c-0.994-1.316-1.584-2.791-1.818-3.459c-8.355-23.314-23.746-19.828-25.674-19.289c-0.193,0.066-0.389,0.131-0.604,0.152
			c-1.428,0.15-2.902,0.455-4.354,0.953c-0.668,0.193-1.316,0.453-1.988,0.734c-0.779,0.326-1.67,0.195-2.273-0.369l-0.455-0.408
			c-0.195-0.174-0.389-0.348-0.584-0.498c-10.131-7.988-25.328-4.826-30.301-3.809c-0.5,0.105-1.326,0.303-2.363,0.561
			c-7.227,1.777-24.154,5.953-33.313,2.836c-0.369-0.131-0.693-0.367-0.953-0.65c-10.932-12.92-22.053-13.852-23.289-13.916
			c-0.953-0.045-1.775-0.715-1.992-1.646c-0.215-0.953,0.195-1.926,1.039-2.379c2.752-1.559,7.404-0.672,11.689,0.779
			c-6.559-5.76-13.723-8.01-13.811-8.033c-0.975-0.301-1.623-1.232-1.537-2.229c0.068-1.018,0.846-1.84,1.842-1.992
			c2.832-0.41,5.975,0.066,8.463,0.672c-4.916-9.977-14.848-12.705-15.305-12.836c-1.059-0.281-1.75-1.297-1.6-2.381
			c0.15-1.061,1.061-1.861,2.141-1.861h0.021c1.451,0,2.73,0.022,3.832,0.022c-9.199-9.091-23.959-10.498-24.133-10.52
			c-0.975-0.087-1.775-0.824-1.949-1.774c-0.15-0.976,0.348-1.95,1.254-2.339c0.932-0.432,2.016-0.758,3.184-1.038
			c-4.006-0.347-7.164,0.217-9.48,0.951c-1.039,0.348-2.145-0.13-2.619-1.103c-0.475-0.974-0.174-2.143,0.736-2.75
			c0.539-0.366,1.168-0.756,1.816-1.104c-3.246,0.194-6.32,0.888-9.195,2.122c-0.822,0.347-1.799,0.129-2.406-0.521
			c-0.479-0.497-0.93-0.974-1.385-1.427c0.174,0.647,0.326,1.256,0.475,1.818c0.174,0.714-0.02,1.493-0.537,2.013
			c-0.5,0.54-1.258,0.78-1.994,0.649c-1.99-0.411-4.068-0.411-5.994-0.195c0.324,0.216,0.541,0.41,0.625,0.497
			c0.584,0.586,0.781,1.43,0.543,2.187c-0.238,0.779-0.91,1.343-1.689,1.494c-2.27,0.391-3.938,1.277-5.152,2.38
			c3.141-1.774,6.02-2.401,7.578-2.618c0.953-0.13,1.883,0.368,2.273,1.256c0.389,0.864,0.17,1.905-0.541,2.531
			c-3.313,2.879-6.365,6.04-8.834,9.158c0.09,0.041,0.479,0.626,0.65,0.908c0.477,0.712,1.256,1.925,0.455,3.269
			c-4.113,7.076-5.846,9.502-7.857,12.143c-0.996,1.342-2.252,1.797-3.074,2.098c-0.215,0.088-0.498,0.195-0.584,0.262
			c-0.389,2.186,0.021,2.879,0.109,2.986c0.043,0.043,0.129,0.193,0.604,0.238c1.668,0.195,3.051,1.449,4.051,2.381
			c0.17,0.15,0.346,0.305,0.475,0.412c0.193,0.064,0.367,0.15,0.563,0.215c0.064,0.021,0.131,0.066,0.195,0.086
			c1.039-0.107,1.668-0.928,2.941-2.92c1.627-2.555,3.854-6.061,9.375-5.543c6.146,0.564,10.627-4.697,10.67-4.76
			c0.563-0.672,1.494-0.932,2.318-0.672c0.844,0.26,1.428,0.996,1.512,1.883c1.559,18.074,14.527,41.818,14.658,42.057
			c0.193,0.348,0.279,0.736,0.279,1.148c-0.305,6.516,1.816,13.223,6.254,19.979c0.348,0.518,0.457,1.211,0.262,1.818
			c-0.195,0.627-0.65,1.125-1.258,1.363c-22.033,9.027-31.559,13.896-33.18,15.453c0,1.342,2.053,5.648,3.699,9.158
			c3.422,7.143,8.033,16.84,10.021,27.682c2.986,1.756,12.598,7.49,17.816,12.773c1.232-2.361,3.029-5.848,4.611-9.223
			c-3.789-1.494-11.842-4.631-17.428-6.426c-0.689-0.24-1.232-0.801-1.426-1.494c-2.516-9.244-7.295-24.85-9.416-27.469
			c-0.5-0.605-0.627-1.428-0.326-2.166c0.281-0.736,0.953-1.252,1.732-1.34c0.193-0.025,18.574-2.363,33.789-4.721
			c1.17-0.17,2.248,0.609,2.443,1.777c1.627,9.35,6.801,24.391,6.863,24.543c0.195,0.605,0.127,1.258-0.193,1.797
			c-2.211,3.789,0.041,7.1,0.131,7.23c0.258,0.369,0.408,0.801,0.408,1.232l0.129,15.91c0,0.5-0.148,0.953-0.453,1.342
			c-5.043,6.559-5.91,14.416-6.016,18.053h7.184c-0.02-9.852,2.4-16.041,3.549-18.463c-3.742-7.621-1.58-16.863-1.469-17.254
			c0.063-0.277,0.193-0.537,0.344-0.777c2.404-3.248,0.324-7.295,0.305-7.338c-0.305-0.563-0.328-1.254-0.066-1.863
			c3.055-7.074,4.201-20.779,4.418-27.748c0-0.648,0.301-1.254,0.822-1.643c0.498-0.391,1.168-0.543,1.795-0.412
			c13.484,2.943,28.074-1.625,37.947-5.975c0.713-0.324,1.58-0.217,2.207,0.281c0.625,0.496,0.93,1.32,0.777,2.1l-0.109,0.543
			c-2.205,18.072,19.199,35.043,19.416,35.213c0.736,0.566,1.018,1.563,0.695,2.445c-2.016,5.607-4.158,20.738-4.158,20.893
			c-0.063,0.451-0.279,0.863-0.584,1.188c-6.363,6.754-8.248,12.512-8.313,12.75c-0.041,0.131-0.107,0.262-0.172,0.389
			c-0.043,0.086-0.953,1.777-2.033,5.672h8.223l0.088-6.578c0-0.131,0-0.24,0.021-0.369c1.254-6.947,4.328-12.168,5.412-13.832
			c0.389-9.652,4.783-19.068,6.557-22.512c-2.662-3.637-3.699-9.678-3.506-14.199c0.043-0.91,0.627-1.689,1.492-1.969
			c0.867-0.26,1.82,0.021,2.383,0.732c5.863,7.516,12.078,12.426,12.143,12.473c0.736,0.58,1.018,1.557,0.717,2.443
			c-2.338,6.516-4.807,23.98-4.826,24.158c-0.068,0.453-0.264,0.863-0.564,1.189c-3.074,3.244-7.23,8.443-9.633,14.719l-0.262,0.629
			c-0.885,1.926-1.707,4.242-2.443,6.926h10.191c0-2.492,0-6.387,0.178-8.119c0.779-8.246,4.822-14.285,6.254-16.168
			c0.453-11.256,5.648-22.229,7.621-26.02c-4.027-5.348-4.959-15.758-3.465-20.711c6.816-22.557,7.77-35.934,3.18-44.721
			c-0.367-0.693-0.324-1.516,0.086-2.166c0.219-0.322,0.5-0.584,0.826-0.758c0.32-0.172,0.689-0.258,1.08-0.258
			c4.092,0.15,7.293,1.406,9.504,3.766c0.174,0.195,0.301,0.391,0.41,0.605c0.672,1.537,1.666,4.416,1.322,7.641
			c0.127,0,0.258,0.023,0.389,0.043c0.932,0.217,1.6,0.996,1.689,1.949c0.342,4.047,0,9.199-0.998,15.734
			c-0.043,0.197-0.086,0.369-0.17,0.543c-1.043,2.426-5.111,12.447-5.047,22.727c0.088,0,0.193,0,0.283-0.02
			c1.1,0,2.012,0.82,2.143,1.926c1.016,8.422,4.957,12.66,8.053,14.721c3.785,2.484,8.506,3.264,12.664,2.053
			C543.082,402.699,544.1,402.244,544.967,401.725z M516.762,346.963c2.705-3.203,1.883-6.904,0.973-9.113
			c-0.715-0.691-1.6-1.213-2.662-1.58C516.135,339.387,516.697,342.916,516.762,346.963z M494.402,425.535
			c0.453-3.137,2.383-16.059,4.438-22.879c-1.475-1.254-4.158-3.658-7.211-6.969c0.566,2.379,1.451,4.504,2.664,5.65
			c0.715,0.691,0.867,1.771,0.367,2.639c-0.063,0.109-6.494,11.471-6.73,22.426c0,0.455-0.154,0.865-0.391,1.234
			c-0.043,0.041-3.701,5.236-5.021,12.465l-0.086,5.934c0.801-2.426,1.471-3.852,1.754-4.504l0.152-0.346
			C486.869,434.563,491.111,429.109,494.402,425.535z"/>
	</g>
</g>
<g>
	<g>
		<path d="M208.824,64.374c0.79,9.041,0.471,13.552,0.212,17.186c-0.106,1.582-0.191,2.929-0.191,4.468
			c0,20.861-29.625,38.965-72.227,44.246c-0.105,0.834-0.297,1.668-0.577,2.479c-1.753,5.004-6.477,8.38-11.778,8.38H98.635
			c-5.301,0-10.025-3.376-11.778-8.402c-0.276-0.811-0.471-1.645-0.577-2.479c-4.317-0.556-8.528-1.218-12.587-2.031v-0.834
			c0-0.833-0.62-1.518-1.452-1.602l-0.879-0.087c-0.276-0.021-0.555,0.022-0.811,0.15c-0.214-0.172-0.471-0.257-0.749-0.278
			c-0.193-0.021-0.363-0.042-0.554-0.106c-0.492-0.15-1.026-0.043-1.434,0.256c-0.361,0.257-0.577,0.663-0.62,1.11
			c-1.004-0.233-2.008-0.49-2.993-0.747v5.857c0.493-0.043,0.964-0.064,1.412-0.064c0.535,0,1.046,0.021,1.56,0.085v0.642
			c0,0.448,0.193,0.897,0.535,1.197c0.322,0.299,0.79,0.45,1.218,0.405c0.15-0.021,0.278,0,0.429,0.021
			c0.106,0.023,0.212,0.044,0.341,0.044c0.085,0,0.172,0,0.279-0.021c0.148,0.191,0.363,0.361,0.598,0.448l0.897,0.384
			c0.193,0.085,0.406,0.128,0.622,0.128c0.319,0,0.618-0.085,0.875-0.277c0.363-0.235,0.62-0.62,0.705-1.048
			c6.904,3.633,11.734,11.8,11.734,21.269c0,12.824-8.869,23.277-19.792,23.277c-10.902,0-19.794-10.453-19.794-23.277
			c0-9.234,4.724-17.636,11.863-21.311v-9.448c0-0.064,0-0.106,0-0.17c-27.275-8.465-43.497-22.68-43.497-38.197
			c0-1.518-0.129-3.037-0.258-4.788c-0.297-4.02-0.683-9.022,0.258-16.908c0.085-0.641,0.535-1.176,1.155-1.369
			c0.641-0.172,1.303,0.042,1.71,0.556c1.195,1.517,2.649,3.077,4.38,4.66c0.428,0.406,0.876,0.813,1.346,1.197
			c0.749,0.663,1.519,1.303,2.352,1.944c0.662,0.535,1.369,1.069,2.096,1.604C40.434,82.563,61.98,92.162,87.052,96.33l0.896,0.17
			c0,0,0.042,0,0.063,0c0.535-0.876,1.176-1.668,1.902-2.373c2.351-2.309,5.453-3.59,8.722-3.59h25.628
			c3.292,0,6.392,1.282,8.743,3.59c0.705,0.683,1.328,1.497,1.88,2.416c25.568-4.062,47.495-13.765,60.92-23.597
			c4.338-3.186,7.78-6.392,10.173-9.427c0.408-0.514,1.091-0.728,1.711-0.535C208.332,63.156,208.781,63.712,208.824,64.374z
			 M205.853,81.345c0.191-2.971,0.45-6.563,0.063-12.888c-13.467,14.086-42.622,27.016-71.628,31.421
			c-0.17,0.021-0.319,0.021-0.471,0c0.344,0.983,0.517,2.05,0.517,3.142v5.536c0,0.363-0.131,0.705-0.343,0.983h2.394
			c-0.106-0.127-0.195-0.278-0.258-0.45c-0.234-0.641-0.043-1.346,0.492-1.772c1.286-1.07,2.78-1.626,4.359-1.626
			c4.108,0,7.44,3.827,7.44,8.551c0,4.724-3.332,8.55-7.44,8.55c-1.579,0-3.095-0.556-4.38-1.624
			c-0.514-0.45-0.705-1.156-0.471-1.775c0.063-0.17,0.152-0.32,0.258-0.448h-2.394c0.212,0.257,0.343,0.62,0.343,0.983v7.525
			c0.17-0.108,0.382-0.172,0.616-0.215c41.62-4.873,70.69-21.803,70.69-41.21C205.641,84.38,205.725,82.906,205.853,81.345z
			 M140.103,114.242c0-0.834-0.662-1.496-1.473-1.496h-15.071c-0.811,0-1.495,0.662-1.495,1.496c0,0.813,0.684,1.496,1.495,1.496
			h15.071C139.441,115.737,140.103,115.055,140.103,114.242z M131.126,128.649v-7.118h-0.814v7.118c0,3.334-2.712,6.027-6.048,6.027
			H98.635c-3.311,0-6.027-2.693-6.027-6.027V103.02c0-3.335,2.717-6.027,6.027-6.027h25.628c3.335,0,6.048,2.692,6.048,6.027v3.934
			h0.814v-3.934c0-3.785-3.077-6.861-6.862-6.861H98.635c-3.782,0-6.838,3.077-6.838,6.861v25.629c0,3.782,3.056,6.84,6.838,6.84
			h25.628C128.049,135.489,131.126,132.431,131.126,128.649z M123.559,109.539h3.892c-0.213-0.278-0.344-0.62-0.344-0.983v-5.536
			c0-1.561-1.282-2.821-2.843-2.821H98.635c-1.562,0-2.819,1.26-2.819,2.821v25.542c0.297-0.297,0.705-0.47,1.151-0.47
			c0,0,0.067,0,0.106,0c9.448,0.663,19.303,0.663,28.751,0c0.493-0.021,0.939,0.149,1.282,0.491v-8.656
			c0-0.363,0.131-0.726,0.344-0.983h-3.892c-2.585,0-4.703-2.116-4.703-4.703S120.974,109.539,123.559,109.539z M89.082,99.857
			c-0.149,0.021-0.298,0.021-0.45,0c-0.404-0.066-0.833-0.129-1.24-0.214l-0.875-0.15c-28.662-4.746-56.429-17.292-69.51-31.12
			c-0.278,3.633-0.256,6.517-0.129,9.019c0.686-0.876,1.583-1.369,2.589-1.369c2.373,0,4.06,2.735,4.06,6.499
			c0,3.784-1.688,6.519-4.06,6.519c-0.705,0-1.369-0.256-1.948-0.728c1.583,13.295,16.973,25.521,41.875,33.089
			c0.834-1.475,2.309-2.458,3.955-2.458h0.556c0.875,0,1.601,0.726,1.601,1.602v1.84c0,0.234-0.063,0.469-0.148,0.684
			c6.776,1.731,14.043,3.099,21.631,4.039l0.981,0.129c0.216,0.021,0.429,0.085,0.62,0.191V103.02
			C88.589,101.908,88.759,100.861,89.082,99.857z M82.201,155.153c0-11.074-7.438-20.072-16.587-20.072
			c-0.728,0-1.475,0.064-2.309,0.215v0.706c0,0.255,0.108,0.405,0.15,0.425l0.45-0.02c0.875,0,1.601,0.726,1.601,1.603v1.838
			c0,0.876-0.726,1.604-1.601,1.604h-0.556c-2.33,0-4.297-1.946-4.681-4.51c-5.815,3.27-9.641,10.388-9.641,18.21
			c0,11.072,7.438,20.072,16.587,20.072S82.201,166.225,82.201,155.153z M20.32,82.521c0-1.753-0.513-2.865-0.854-3.228
			c-0.322,0.363-0.836,1.475-0.836,3.228s0.514,2.886,0.836,3.227C19.807,85.407,20.32,84.274,20.32,82.521z"/>
		<path d="M208.247,59.436c0.148,0.493,0.042,1.027-0.276,1.432l-2.054,2.608c-2.458,3.12-5.878,6.305-10.131,9.448
			c-0.492,0.363-1.175,0.405-1.71,0.105c-16.095-8.72-47.368-18.895-82.571-18.895c-35.201,0-66.474,10.175-82.57,18.895
			c-0.234,0.151-0.491,0.215-0.749,0.215c-0.34,0-0.684-0.108-0.96-0.32c-0.728-0.535-1.434-1.07-2.096-1.604
			c-0.812-0.641-1.603-1.303-2.352-1.944c-0.469-0.384-0.917-0.791-1.346-1.197c-1.668-1.604-3.12-3.164-4.338-4.703l-2.054-2.608
			c-0.319-0.405-0.426-0.939-0.276-1.432c5.257-18.317,46.833-32.126,96.74-32.126C161.415,27.31,203.009,41.119,208.247,59.436z
			 M203.395,61.488l1.537-1.923c-5.811-16.353-46.425-29.048-93.428-29.048c-47.002,0-87.615,12.695-93.43,29.048l1.541,1.923
			c2.116,2.714,5.045,5.471,8.699,8.251c16.674-8.786,48.052-18.811,83.19-18.811c35.14,0,66.518,10.025,83.19,18.811
			C198.353,66.959,201.278,64.202,203.395,61.488z"/>
		<path d="M201.086,78.182c2.352,0,4.041,2.759,4.041,6.519c0,3.784-1.688,6.52-4.041,6.52c-2.351,0-4.061-2.736-4.061-6.52
			C197.025,80.94,198.735,78.182,201.086,78.182z M201.919,84.701c0-1.753-0.514-2.863-0.833-3.228
			c-0.318,0.365-0.853,1.475-0.853,3.228s0.535,2.886,0.853,3.228C201.405,87.587,201.919,86.454,201.919,84.701z"/>
		<path d="M186.893,89.425c2.78,0,4.873,3.399,4.873,7.931c0,4.51-2.093,7.931-4.873,7.931c-2.776,0-4.873-3.421-4.873-7.931
			C182.021,92.824,184.117,89.425,186.893,89.425z M188.561,97.355c0-3.1-1.239-4.724-1.668-4.724c-0.428,0-1.664,1.624-1.664,4.724
			s1.236,4.724,1.664,4.724C187.322,102.08,188.561,100.456,188.561,97.355z"/>
		<path d="M165.349,99.365c3.205,0,5.705,3.484,5.705,7.928c0,4.448-2.5,7.933-5.705,7.933c-3.187,0-5.687-3.484-5.687-7.933
			C159.662,102.85,162.162,99.365,165.349,99.365z M167.849,107.293c0-2.712-1.325-4.723-2.5-4.723
			c-1.176,0-2.479,2.011-2.479,4.723c0,2.695,1.303,4.724,2.479,4.724C166.524,112.018,167.849,109.989,167.849,107.293z"/>
		<path d="M78.907,103.512c3.591,0,6.498,3.549,6.498,7.929c0,4.361-2.907,7.931-6.498,7.931c-3.589,0-6.518-3.569-6.518-7.931
			C72.39,107.061,75.318,103.512,78.907,103.512z M82.201,111.44c0-2.563-1.519-4.724-3.293-4.724c-1.793,0-3.313,2.161-3.313,4.724
			c0,2.545,1.519,4.724,3.313,4.724C80.682,116.165,82.201,113.985,82.201,111.44z"/>
		<path d="M73.693,128.221v5.386c0,0.107,0,0.193-0.021,0.278c-0.768-0.405-1.56-0.747-2.394-1.025
			c0.021-0.065,0.021-0.13,0.021-0.193v-4.937C72.092,127.922,72.882,128.072,73.693,128.221z"/>
		<path d="M73.693,127.387v0.834c-0.811-0.148-1.601-0.299-2.394-0.491v-0.556c0-0.577-0.297-1.069-0.747-1.326
			c0.255-0.128,0.535-0.172,0.811-0.15l0.879,0.087C73.073,125.869,73.693,126.554,73.693,127.387z"/>
		<path d="M73.671,133.885c-0.085,0.428-0.342,0.813-0.705,1.048c-0.256,0.192-0.556,0.277-0.875,0.277
			c-0.216,0-0.429-0.043-0.622-0.128l-0.897-0.384c-0.235-0.086-0.45-0.256-0.598-0.448c0.254-0.044,0.513-0.171,0.726-0.343
			c0.322-0.255,0.535-0.641,0.577-1.046C72.111,133.138,72.903,133.479,73.671,133.885z"/>
		<path d="M71.299,127.73v4.937c0,0.063,0,0.128-0.021,0.193c-0.555-0.215-1.111-0.384-1.688-0.514v-4.98
			C70.145,127.495,70.722,127.622,71.299,127.73z"/>
		<path d="M71.299,127.174v0.556c-0.577-0.108-1.154-0.235-1.71-0.364v-0.064c0-0.45,0.193-0.898,0.535-1.197
			c0.129-0.106,0.278-0.191,0.428-0.256C71.001,126.104,71.299,126.597,71.299,127.174z"/>
		<path d="M71.277,132.86c-0.042,0.405-0.254,0.791-0.577,1.046c-0.212,0.172-0.471,0.299-0.726,0.343
			c-0.257-0.28-0.386-0.643-0.386-1.027v-0.877C70.166,132.476,70.722,132.645,71.277,132.86z"/>
		<path d="M70.552,125.848c-0.15,0.065-0.299,0.15-0.428,0.256c-0.342,0.299-0.535,0.748-0.535,1.197v0.064
			c-0.812-0.17-1.603-0.342-2.394-0.535c0.042-0.448,0.259-0.854,0.62-1.11c0.408-0.299,0.942-0.407,1.434-0.256
			c0.191,0.063,0.361,0.085,0.554,0.106C70.081,125.591,70.338,125.676,70.552,125.848z"/>
		<path d="M69.975,134.25c-0.106,0.021-0.193,0.021-0.279,0.021c-0.129,0-0.235-0.021-0.341-0.044
			c-0.15-0.021-0.278-0.042-0.429-0.021c-0.428,0.044-0.896-0.106-1.218-0.405c-0.341-0.299-0.535-0.749-0.535-1.197v-0.642
			c0.813,0.064,1.625,0.192,2.416,0.384v0.877C69.589,133.607,69.718,133.97,69.975,134.25z"/>
		<path d="M69.589,127.366v4.98c-0.79-0.192-1.603-0.32-2.416-0.384v-4.958c0-0.064,0-0.108,0.021-0.172
			C67.986,127.023,68.777,127.195,69.589,127.366z"/>
		<path d="M55.205,97.184c3.183,0,5.685,3.484,5.685,7.931s-2.502,7.931-5.685,7.931c-3.184,0-5.688-3.484-5.688-7.931
			S52.021,97.184,55.205,97.184z M57.683,105.114c0-2.714-1.303-4.724-2.479-4.724c-1.176,0-2.479,2.01-2.479,4.724
			c0,2.693,1.303,4.724,2.479,4.724C56.38,109.838,57.683,107.808,57.683,105.114z"/>
		<path d="M33.658,87.245c2.778,0,4.874,3.419,4.874,7.931c0,4.531-2.096,7.928-4.874,7.928c-2.778,0-4.873-3.397-4.873-7.928
			C28.785,90.665,30.879,87.245,33.658,87.245z M35.326,95.176c0-3.101-1.241-4.724-1.668-4.724s-1.667,1.623-1.667,4.724
			c0,3.099,1.24,4.724,1.667,4.724S35.326,98.274,35.326,95.176z"/>
	</g>
</g>
<g>
	<g>
		<path d="M279.313,117.458c7.426-0.522,14.784-1.014,22.09-1.556c0.516-2.955,1.703-5.491,3.598-7.476
			c10.404-10.916,38.465-1.029,62.631,22.058c13.994,13.366,39.639,53.371,47.875,61.249c26.914,25.686,75.225,31.303,51.232,58.397
			c-19.857,22.428-30.309-19.656-55.063-45.494c-5.998-6.269-10.086-11.188-17.516-14.675c-0.475,0.743-1.006,1.455-1.604,2.074
			c-3.314,3.473-8.396,4.839-14.539,4.344c-1.33,6.314-2.764,12.672-4.436,19.072c0.625,0.578,0.9,1.505,0.596,2.464
			c-0.449,1.322-1.863,2.154-3.162,1.813c-1.277-0.34-1.938-1.683-1.432-2.976c0.34-0.93,1.166-1.572,2.061-1.771
			c1.758-6.303,3.279-12.564,4.689-18.761c-1.164-0.154-2.383-0.36-3.611-0.626c-1.732,6.142-3.57,12.33-5.666,18.575
			c0.615,0.618,0.828,1.558,0.467,2.484c-0.541,1.266-1.996,1.966-3.279,1.525c-1.281-0.44-1.85-1.831-1.275-3.05
			c0.396-0.899,1.254-1.475,2.178-1.588c2.146-6.176,4.094-12.282,5.896-18.353c-1.182-0.319-2.375-0.666-3.605-1.076
			c-2.127,6.077-4.404,12.188-6.914,18.326c0.588,0.653,0.758,1.607,0.338,2.504c-0.594,1.214-2.105,1.783-3.355,1.264
			c-1.264-0.541-1.746-1.957-1.137-3.149c0.453-0.848,1.359-1.354,2.266-1.387c2.586-6.084,4.934-12.124,7.154-18.124
			c-1.18-0.443-2.359-0.89-3.566-1.421c-2.574,6.044-5.277,12.107-8.205,18.172c0.561,0.691,0.688,1.658,0.215,2.503
			c-0.648,1.165-2.186,1.627-3.438,1.006c-1.211-0.614-1.646-2.064-0.967-3.183c0.488-0.824,1.406-1.266,2.326-1.235
			c3.002-6.013,5.771-12,8.441-17.988c-1.164-0.523-2.326-1.067-3.498-1.676c-3.023,6.01-6.172,12.039-9.547,18.069
			c0.514,0.725,0.602,1.684,0.092,2.504c-0.697,1.096-2.26,1.472-3.477,0.752c-1.197-0.694-1.568-2.152-0.836-3.222
			c0.52-0.776,1.467-1.153,2.396-1.06c3.432-5.98,6.668-11.933,9.764-17.888c-1.133-0.601-2.26-1.241-3.396-1.926
			c-3.494,6.011-7.131,12-10.973,17.994c0.514,0.744,0.533,1.714,0.014,2.489c-0.752,1.045-2.334,1.294-3.52,0.521
			c-1.166-0.772-1.475-2.242-0.705-3.265c0.551-0.728,1.508-1.042,2.428-0.887c3.893-5.925,7.602-11.86,11.166-17.798
			c-1.098-0.678-2.209-1.397-3.338-2.143c-3.984,5.992-8.07,11.966-12.381,17.924c0.465,0.775,0.471,1.741-0.105,2.468
			c-0.783,0.999-2.369,1.143-3.527,0.313c-1.133-0.828-1.4-2.311-0.578-3.283c0.57-0.706,1.537-0.955,2.465-0.738
			c4.359-5.887,8.521-11.809,12.594-17.723c-1.07-0.734-2.133-1.489-3.195-2.282c-4.514,5.963-9.129,11.911-13.941,17.803
			c0.443,0.795,0.406,1.755-0.18,2.437c-0.844,0.969-2.412,1.014-3.539,0.126c-1.104-0.884-1.307-2.376-0.479-3.287
			c0.607-0.658,1.586-0.864,2.508-0.607c4.865-5.823,9.551-11.696,14.133-17.586c-1.016-0.788-2.053-1.6-3.084-2.43
			c-5.066,5.934-10.227,11.829-15.543,17.66c0.395,0.827,0.322,1.759-0.283,2.419c-0.871,0.903-2.432,0.887-3.525-0.058
			c-1.074-0.941-1.236-2.426-0.352-3.285c0.619-0.637,1.607-0.78,2.508-0.486c5.385-5.776,10.615-11.6,15.75-17.457
			c-0.99-0.826-1.957-1.667-2.943-2.55c-5.654,5.896-11.381,11.739-17.264,17.515c0.373,0.843,0.277,1.773-0.359,2.387
			c-0.883,0.856-2.469,0.756-3.514-0.241c-1.049-0.979-1.15-2.455-0.256-3.271c0.656-0.59,1.637-0.691,2.529-0.357
			c5.928-5.705,11.75-11.472,17.469-17.273c-0.732-0.657-1.441-1.333-2.166-2.03c-0.213-0.199-0.422-0.419-0.656-0.623
			c-6.262,5.834-12.617,11.614-19.041,17.318c0.332,0.837,0.197,1.76-0.453,2.35c-0.918,0.813-2.475,0.655-3.496-0.38
			c-0.998-1.031-1.063-2.479-0.127-3.269c0.67-0.566,1.643-0.609,2.525-0.234c6.498-5.652,12.918-11.337,19.25-17.101
			c-0.918-0.915-1.807-1.846-2.697-2.774c-6.648,5.564-13.387,11.054-20.154,16.475c0.309,0.854,0.156,1.773-0.514,2.32
			c-0.931,0.769-2.494,0.526-3.484-0.545c-0.979-1.046-0.999-2.51-0.049-3.254c0.686-0.543,1.672-0.542,2.549-0.127
			c6.82-5.372,13.623-10.77,20.361-16.256c-0.785-0.83-1.543-1.697-2.305-2.544c-7.018,4.947-14.127,9.82-21.262,14.623
			c0.27,0.848,0.061,1.716-0.658,2.212c-0.981,0.699-2.515,0.401-3.428-0.656c-0.929-1.082-0.836-2.484,0.141-3.162
			c0.716-0.476,1.722-0.454,2.551-0.005c7.189-4.755,14.363-9.534,21.471-14.404c-0.805-0.958-1.611-1.916-2.373-2.887
			c-7.008,4.397-14.084,8.719-21.151,13c0.204,0.836-0.043,1.7-0.776,2.151c-0.99,0.655-2.518,0.317-3.367-0.749
			c-0.867-1.072-0.719-2.446,0.294-3.097c0.753-0.45,1.731-0.388,2.535,0.076c7.124-4.231,14.271-8.479,21.364-12.798
			c-0.762-0.969-1.498-1.958-2.195-2.938c-7.004,3.88-14.059,7.694-21.085,11.489c0.166,0.83-0.112,1.646-0.868,2.095
			c-1.026,0.608-2.523,0.234-3.31-0.843c-0.808-1.081-0.577-2.44,0.445-3.03c0.772-0.424,1.739-0.324,2.524,0.136
			c7.082-3.745,14.205-7.484,21.275-11.271c-0.697-1-1.369-1.997-2.027-2.992c-6.98,3.392-13.992,6.718-21.008,10.062
			c0.127,0.824-0.211,1.631-0.98,2.036c-1.045,0.586-2.511,0.154-3.258-0.917c-0.723-1.087-0.436-2.417,0.645-2.975
			c0.781-0.381,1.75-0.262,2.488,0.233c7.07-3.295,14.151-6.568,21.201-9.866c-0.633-1.012-1.238-2.037-1.811-3.039
			c-6.971,2.942-13.968,5.818-20.955,8.736c0.07,0.813-0.305,1.593-1.109,1.973c-1.071,0.519-2.52,0.071-3.178-1.027
			c-0.677-1.1-0.301-2.373,0.81-2.885c0.8-0.359,1.765-0.217,2.483,0.292c7.031-2.849,14.104-5.671,21.158-8.517
			c-0.566-1.02-1.098-2.033-1.605-3.043c-6.953,2.491-13.943,4.958-20.92,7.446c0.011,0.803-0.425,1.552-1.244,1.888
			c-1.125,0.489-2.524-0.012-3.123-1.099c-0.598-1.088-0.121-2.343,1.027-2.809c0.836-0.333,1.771-0.135,2.443,0.368
			c7.051-2.434,14.111-4.827,21.135-7.245c-0.486-1.027-0.93-2.047-1.357-3.065c-6.95,2.102-13.934,4.159-20.925,6.254
			c-0.049,0.774-0.542,1.512-1.371,1.804c-1.165,0.442-2.532-0.096-3.048-1.19c-0.518-1.092,0.06-2.313,1.236-2.71
			c0.849-0.289,1.78-0.092,2.433,0.45c7.044-2.045,14.097-4.028,21.112-6.039c-0.379-1.028-0.744-2.057-1.048-3.054
			c-6.987,1.707-13.987,3.37-21,5.092c-0.085,0.765-0.652,1.452-1.52,1.718c-1.193,0.375-2.517-0.197-2.949-1.296
			c-0.432-1.102,0.236-2.263,1.466-2.611c0.885-0.243,1.792-0.009,2.397,0.545c7.057-1.652,14.129-3.24,21.183-4.853
			c-0.298-1.038-0.542-2.043-0.743-3.044c-7.009,1.333-14.049,2.619-21.099,3.984c-0.185,0.73-0.791,1.39-1.69,1.608
			c-1.225,0.329-2.517-0.299-2.85-1.383c-0.331-1.104,0.436-2.229,1.696-2.511c0.913-0.194,1.813,0.079,2.358,0.643
			c7.139-1.27,14.254-2.502,21.325-3.741c-0.176-1.017-0.278-1.999-0.36-2.979c-7.071,0.972-14.175,1.898-21.325,2.875
			c-0.266,0.717-0.942,1.323-1.855,1.498c-1.279,0.259-2.522-0.402-2.752-1.489c-0.234-1.066,0.666-2.128,1.954-2.345
			c0.95-0.148,1.845,0.145,2.328,0.719c7.241-0.901,14.433-1.751,21.591-2.626c-0.019-1.009,0.023-1.991,0.119-2.92
			c-7.195,0.622-14.447,1.214-21.764,1.816c-0.34,0.684-1.09,1.236-2.036,1.366c-1.309,0.191-2.503-0.524-2.616-1.569
			c-0.127-1.071,0.917-2.047,2.238-2.196C278.026,116.545,278.873,116.892,279.313,117.458z M337.338,160.225
			c11.318,10.819,25.313,21.637,36.275,26.619c16.217,7.366,16.016-2.945,22.492-1.488c5.23,1.167,11.625,7.643,17.365,13.129
			c9.975,9.525,14.41,14.586,25.77,28.701c5.699,7.083,11.65,17.556,15.617,21.347c2.605,2.491,5.227,2.541,10.584-2.315
			c8.916-8.062,6.785-13.477,1.646-18.389c-4.539-4.317-12.248-8.591-20.43-13.129c-9.344-5.185-19.783-10.965-28.645-18.432
			c-1.26-1.055-2.496-2.146-3.682-3.289c-3.805-3.663-10.684-13.14-18.627-24.113c-10.113-13.968-21.578-29.806-29.25-37.137
			c-11.34-10.824-23.826-18.98-35.18-22.982c-10.244-3.61-15.865-3.32-19.807,0.809c-3.934,4.108-2.084,10.236,2.002,20.314
			C317.969,141.025,326.02,149.406,337.338,160.225z"/>
		<path d="M449.127,223.747c-1.621,1.721,0.393,6.252,4.473,10.123c4.094,3.894,8.73,5.656,10.355,3.937
			c1.621-1.7-0.369-6.25-4.469-10.121C455.391,223.79,450.75,222.044,449.127,223.747z"/>
	</g>
</g>
<g>
	<g>
		<path d="M284.599,400.531c0.358,0.941,0.894,2.373,0.229,4.512c-0.381,1.197-1.174,2.166-1.784,2.678
			c-0.333,0.279-0.613,0.484-0.892,0.637c-0.308,0.205-0.564,0.305-0.794,0.408c-0.889,0.406-1.501,0.51-1.986,0.582
			c-0.995,0.182-1.731,0.182-2.344,0.207l-60.516,0.205c-6.703,0.023-13.407,0.023-20.114,0.023c-4.228,0-8.488,0-12.719-0.023
			l-71.937-0.281c-0.889-0.076-1.501,0-2.521-0.076c-0.74-0.055-1.555-0.178-2.521-0.457c-1.126-0.361-2.422-0.869-3.672-2.195
			c-1.377-1.375-1.965-3.463-1.937-4.895c-0.028-1.223,0.177-2.113,0.408-2.932c0.382-1.324,0.789-2.316,1.172-3.209l0.103-0.256
			c1.427-3.186,2.397-5.658,2.702-7.902c-3.52-5.326-5.963-11.75-7.443-19.654c-1.197-6.525-1.707-13.457-1.633-21.818
			c0.131-12.619,1.608-26.104,4.664-42.393c2.323-12.492,5.531-25.925,9.841-41.117c3.442-11.956,6.987-22.942,10.783-33.419
			l2.83,1.021l-0.053,0.279c-2.904,10.707-5.684,21.946-8.258,33.47c-3.134,14.047-5.708,27.836-7.621,40.989
			c-1.044,7.342-1.785,14.072-2.27,20.596c-0.612,7.523-0.839,14.227-0.711,20.521c0.177,7.648,0.864,14.146,2.118,19.934
			c1.604,7.42,3.948,13,7.16,17.055l1.07,1.379v1.781c0.053,4.896-1.682,9.125-3.109,12.543l23.454-0.127l47.385-0.129l85.371,0.18
			c-1.352-1.762-2.982-3.951-3.721-7.293c-0.383-1.91-0.23-3.975,0.406-5.709c0.177-0.461,0.358-0.893,0.638-1.428
			c0.206-0.357,0.23-0.432,0.358-0.584l0.892-1.457c3.109-5.25,5.301-11.979,6.728-20.568c2.472-15.6,1.428-32.041,0.079-46.061
			c-1.427-13.947-3.824-28.68-7.522-46.37c-2.878-13.536-6.066-26.691-9.458-39.077l2.805-1.021
			c4.564,12.566,8.693,25.592,12.263,38.747c4.536,16.646,7.772,31.914,9.94,46.724c1.25,8.512,2.015,16.365,2.345,24.014
			c0.383,9.125,0.103,17.104-0.84,24.445c-1.299,9.836-3.672,17.588-7.468,24.34l-1.019,1.736c0.024-0.025,0.024,0,0.049,0.152
			c0.079,0.408,0.638,1.506,1.786,2.83c0.892,1.068,2.014,2.166,3.186,3.338l1.045,1.021c0.613,0.611,1.299,1.328,2.114,2.445
			C283.937,399.285,284.266,399.742,284.599,400.531z"/>
		<path d="M263.238,208.457c0.05,0.791,0.099,1.683-0.052,2.931c-0.305,2.753-1.556,5.609-3.542,7.978
			c-1.021,1.199-2.167,2.271-3.47,3.213c0.155,0.103,0.308,0.229,0.46,0.382l1.225-0.406c0.23,0.586,0.458,1.172,0.663,1.784
			l0.457,1.274c0.587,0.917,0.946,1.913,1.047,2.854c0.075,0.205,0.153,0.408,0.228,0.613l-2.805,1.021l-0.407-1.48
			c-0.33-0.459-0.761-0.893-1.3-1.248c-0.892-0.662-1.961-1.199-3.492-1.734c-2.422-0.841-5.099-1.451-8.181-1.911
			c-5.864-0.993-11.958-1.353-17.362-1.658c-7.518-0.407-15.726-0.61-25.033-0.61c-3.389,0-6.753,0.026-10.142,0.076
			c-13.588,0.204-24.778,0.661-35.207,1.453c-5.351,0.435-11.47,0.918-17.358,1.964c-2.929,0.433-5.734,1.069-8.358,1.859
			c-1.53,0.46-2.706,0.943-3.75,1.529c-1.069,0.562-1.834,1.147-2.344,1.837l-2.83-1.021c0.79-2.219,1.608-4.41,2.447-6.602
			l2.319,0.738c-0.078,0.229-0.127,0.434-0.177,0.638c0.382-0.281,0.79-0.587,1.247-0.867c-2.624-1.732-4.639-3.926-6.062-6.499
			c-0.716-1.327-1.226-2.753-1.509-4.233c-0.28-1.351-0.251-2.856-0.177-4.156l0.843-20.545c0.152-2.396,0.329-4.741,0.814-7.135
			c0.255-1.226,0.613-2.55,1.299-3.825c0.79-1.554,2.319-2.805,3.927-3.109c2.139-0.382,4.232,0.026,6.116,0.459
			c0.46,0.102,0.917,0.204,1.377,0.307c1.632,0.355,3.265,0.687,4.869,0.967l-0.23,2.651c-2.957-0.28-4.918-0.458-5.124-0.484
			c-0.457-0.026-0.942-0.077-1.427-0.153c-0.996-0.103-1.937-0.203-2.83-0.203c-0.711,0-1.299,0.076-1.785,0.203
			c-0.917,0.28-1.452,1.504-1.759,3.925c-0.255,2.14-0.255,4.385-0.227,6.5l0.79,20.47c0.05,1.172,0.075,1.861,0.28,2.626
			c0.23,0.813,0.56,1.554,0.942,2.191c1.632,2.702,4.894,4.767,8.718,5.532c0.103,0.024,0.206,0.024,0.284,0.049l0.56-0.229
			c5.581-1.963,11.417-3.518,17.869-4.742c11.396-2.14,23.248-3.288,36.297-3.491c1.123,0,2.27-0.027,3.418-0.027
			c11.828,0,22.61,0.843,32.958,2.525c6.629,1.095,12.518,2.575,17.996,4.486c0.843,0.305,1.686,0.638,2.5,0.969
			c2.423-0.74,4.487-1.964,5.938-3.518c1.148-1.25,1.937-2.702,2.221-4.207c0.127-0.458,0.148-1.325,0.178-2.04l0.152-4.282
			c0.151-4.563,0.329-9.126,0.559-13.715c0.308-2.448,0.613-5.071,0.588-7.673c-0.054-2.343-0.255-4.639-1.456-5.631
			c-0.404-0.333-1.094-0.537-2.012-0.537l-0.382,0.024c-1.148,0.052-2.32,0.282-3.569,0.513l-0.638,0.127
			c-0.099,0.024-1.961,0.254-4.816,0.586l-0.23-2.525c1.477-0.305,2.932-0.765,4.437-1.224l0.404-0.127
			c1.201-0.356,2.579-0.765,4.08-0.968c1.76-0.256,3.697,0,5.075,0.892c1.349,0.892,2.319,2.294,2.957,4.309
			c0.408,1.299,0.688,2.726,0.815,4.334c0.23,2.829,0.127,5.631-0.024,8.003c0.23,4.538,0.406,9.076,0.559,13.612l0.131,3.415
			C263.213,207.821,263.238,208.126,263.238,208.457z"/>
		<path d="M246.846,285.541c4.512,14.43,3.236,30.615-3.52,44.379c-3.389,7.012-8.156,13.41-13.814,18.535
			c-5.938,5.324-12.897,9.508-20.139,12.055c-6.449,2.244-13.049,3.391-19.601,3.391c-1.324,0-2.624-0.051-3.927-0.127
			c-7.954-0.613-15.907-2.881-22.994-6.627c-7.008-3.799-13.329-9.152-18.248-15.473c-4.717-6.043-8.311-13.434-10.351-21.389
			c-1.888-7.393-2.27-15.521-1.123-23.451c1.147-7.545,3.825-15.064,7.801-21.821c7.724-13.23,20.493-23.246,34.998-27.478
			c5.354-1.607,10.963-2.424,16.623-2.424c9.48,0,18.708,2.32,26.687,6.68c0,0.026,0.024,0.026,0.024,0.026h0.025
			C232.391,258.649,242.437,270.961,246.846,285.541z M245.802,304.533c0.584-6.094,0.202-12.314-1.299-18.305
			c-1.786-6.933-4.87-13.636-9.332-19.372c-4.433-5.71-10.096-10.476-16.466-13.97c-0.967-0.534-1.987-0.969-3.007-1.452
			c-5.609-2.497-11.625-4.054-17.741-4.513c-7.242-0.508-14.533,0.613-21.287,2.983c-6.781,2.396-12.975,6.245-18.226,10.987
			c-5.252,4.792-9.456,10.578-12.515,16.873c-3.977,8.236-5.761,17.335-5.404,26.257c2.012-2.523,14.505-6.221,16.134-11.064
			c4.794-14.198,10.655-23.833,23.63-17.129c0,0-9.533,0-9.533,8.897c0,1.912-0.053,4.436-0.206,7.316
			c-0.917,17.078-5.659,46.137-26.711,25.488c-0.489-0.457-0.996-1.068-1.53-1.783c0.202,0.715,0.354,1.453,0.584,2.168
			c3.952,12.924,12.926,24.088,24.753,30.258c11.7,6.422,25.975,7.748,38.95,3.875c13-3.773,24.597-12.695,31.761-24.803
			c3.517-5.967,6.016-12.746,7.086-19.732C245.596,306.521,245.724,305.527,245.802,304.533z"/>
		<path d="M244.781,175.216l0.23,2.525c-6.094,0.662-16.696,1.733-24.42,1.989c-9.763,0.382-19.349,0.458-28.269,0.509
			c-9.023-0.051-18.688-0.127-28.298-0.509c-7.826-0.256-18.861-1.199-25.235-1.786l0.23-2.651
			c7.493-0.664,15.447-1.121,25.005-1.477c9.739-0.357,19.35-0.46,28.273-0.486c8.436,0.026,18.379,0.103,28.294,0.486
			C229.791,174.146,237.49,174.581,244.781,175.216z"/>
		<path d="M242.055,299.613c0.23,1.529,0.255,3.059,0.127,4.561c-0.69,8.414-6.501,16.162-14.529,19.197
			c-14.303,5.379-17.947-3.059-19.12-16.773c-1.353,8.412-12.489,22.865-34.335,32.297c10.882-5.762,20.723-18.277,26.201-30.742
			c8.109-18.379,6.731-36.63-14.756-33.113c11.902-8.005,20.036-1.376,21.69,6.45c5.967-5.277,11.193,11.801,15.755,15.549
			C228.977,301.881,235.45,301.551,242.055,299.613z"/>
		<path d="M212.918,183.398c6.576,0,11.901,5.354,11.901,11.93c0,6.552-5.325,11.906-11.901,11.906h-18.124h-27.172
			c-6.58,0-11.931-5.354-11.931-11.906c0-6.576,5.351-11.93,11.931-11.93h24.7H212.918z M219.724,195.328
			c0-3.771-3.06-6.831-6.806-6.831h-45.296c-3.775,0-6.835,3.059-6.835,6.831c0,3.748,3.06,6.806,6.835,6.806h45.296
			C216.664,202.134,219.724,199.076,219.724,195.328z"/>
		<path d="M189.082,290.053c5.787-0.865,15.809,7.139,6.781,10.605c-2.418,0.918-4.741-0.281-6.321-2.244
			c-1.452-1.809-2.245-4.283-1.834-6.348c0.202-1.07,0.711-2.014,1.632-2.725L189.082,290.053z"/>
		<path d="M187.757,310.881c2.245,1.707,9.508,1.096,11.65-2.908c-5.736,11.191-12.847,11.752-16.24,3.979
			c-0.05-0.104-8.97,7.773-9.455-8.693c5.634,6.473,5.634,6.473,8.308,5.838c-0.255-0.994-0.432-2.041-0.609-3.061v1.529
			c-0.535-3.391,2.168-6.602,4.816-6.602c1.069,0,2.167,0.537,3.01,1.836C190.994,305.477,189.11,308.152,187.757,310.881z"/>
		<path d="M174.198,292.246c2.726-4.969,12.695-6.807,12.157-0.281c-0.078,0.74-0.28,1.633-0.662,2.625
			c-2.217,5.787-14.275,4.41-10.733-3.109L174.198,292.246z"/>
	</g>
</g>
<g>
	<path d="M90.158,243.974c-0.701,0.702-1.512,1.282-2.411,1.698c-2.295,1.063-4.688,0.993-7.005,0.924
		c-1.686-0.051-3.277-0.099-4.693,0.305c-1.551,0.442-2.964,1.439-4.605,2.798l-0.645,0.536c-1.418,1.188-2.886,2.419-4.661,3.291
		c-2.555,1.264-5.264,1.434-7.424,0.467c-1.806-0.808-3.052-2.286-4.033-3.627c-2.493-3.399-4.32-7.181-5.431-11.243
		c-0.529-1.926-1.018-4.448-0.096-6.838c0,0,0.002-0.001,0.002-0.004c0.843-2.183,2.638-3.672,4.285-4.842
		c4.211-2.993,8.943-5.218,14.064-6.614c3.788-1.031,6.847-1.292,9.634-0.817c2.828,0.479,5.71,1.806,8.572,3.946
		c3.902,2.919,6.385,6.401,7.185,10.073C93.699,237.739,92.559,241.575,90.158,243.974z M52.422,233.543
		c-0.554,1.439-0.182,3.244,0.208,4.655c0.997,3.647,2.636,7.045,4.875,10.098c0.711,0.971,1.581,2.025,2.638,2.499
		c1.188,0.531,2.851,0.378,4.446-0.411c1.397-0.688,2.644-1.73,3.961-2.833l0.66-0.551c1.714-1.418,3.612-2.82,5.875-3.466
		c1.94-0.556,3.883-0.495,5.764-0.439c1.997,0.06,3.881,0.115,5.425-0.602c2.773-1.285,3.803-4.937,3.198-7.722
		c-0.779-3.585-3.616-6.337-5.861-8.014c-2.408-1.804-4.784-2.912-7.06-3.299c-2.266-0.386-4.848-0.148-8.124,0.744
		c-4.724,1.289-9.083,3.338-12.957,6.089C54.248,231.159,52.931,232.224,52.422,233.543L52.422,233.543z"/>
	<path d="M55.232,227.894c-1.214,1.213-2.706,2.032-3.899,2.69c-1.102,0.606-2.608,1.435-4.382,1.327
		c-1.708-0.105-3.364-1.068-4.662-2.708c-0.789-0.999-1.335-2.078-1.864-3.123l-0.54-1.05c-0.634-1.2-1.349-2.563-1.372-4.177l0,0
		c-0.023-1.89,0.969-3.778,2.716-5.189c2.904-2.343,7.042-2.855,10.537-1.307c2.151,0.951,3.874,2.569,4.846,4.559
		c1.091,2.228,1.146,4.791,0.146,6.863C56.364,226.598,55.831,227.293,55.232,227.894z M42.015,220.807
		c0.01,0.773,0.476,1.657,0.968,2.592l0.567,1.102c0.471,0.93,0.913,1.809,1.487,2.53c0.651,0.825,1.448,1.343,2.128,1.386
		c0.705,0.042,1.505-0.363,2.479-0.902c1.777-0.978,3.307-1.897,3.959-3.257c0.528-1.093,0.477-2.551-0.138-3.801
		c-0.602-1.229-1.739-2.287-3.117-2.896c-2.275-1.007-5.057-0.673-6.925,0.832C42.998,218.736,42.001,219.664,42.015,220.807
		L42.015,220.807z"/>
	<path d="M68.271,220.299c-0.482,0.48-1.017,0.908-1.599,1.271c-2.47,1.531-5.382,1.648-7.417,0.295
		c-2.238-1.482-2.739-4.111-3.145-6.224c-0.074-0.395-0.149-0.788-0.234-1.166l-0.149-0.62c-0.324-1.332-0.728-2.988-0.109-4.68
		c0.862-2.356,3.249-3.553,5.194-3.889c4.147-0.711,8.461,1.733,9.818,5.562C71.76,214.028,70.729,217.841,68.271,220.299z
		 M59.349,209.72c-0.204,0.205-0.355,0.427-0.44,0.661c-0.251,0.693-0.021,1.641,0.223,2.646l0.163,0.683
		c0.092,0.416,0.176,0.844,0.259,1.276c0.323,1.694,0.63,3.294,1.64,3.963c0.855,0.57,2.383,0.42,3.635-0.356l0,0
		c2.19-1.354,3.311-4.302,2.505-6.571c-0.795-2.234-3.453-3.705-5.924-3.279C60.563,208.886,59.818,209.249,59.349,209.72z"/>
	<path d="M84.881,219.346c-0.684,0.685-1.491,1.229-2.39,1.581l0,0c-1.813,0.716-3.687,0.593-5.116,0.404
		c-2.745-0.36-4.6-1.393-5.522-3.078c-0.908-1.66-0.813-3.681,0.296-6.173c0.809-1.827,1.848-3.55,3.084-5.121
		c0.723-0.912,1.644-1.899,3.005-2.294c1.562-0.453,3.343,0.016,5.011,1.319c2.437,1.902,3.92,4.717,3.97,7.523
		C87.261,215.733,86.365,217.865,84.881,219.346z M78.528,208.502c-0.194,0.192-0.378,0.417-0.542,0.624
		c-1.057,1.342-1.946,2.814-2.636,4.373c-0.627,1.41-0.769,2.442-0.421,3.073c0.438,0.808,1.82,1.145,2.902,1.284
		c1.501,0.198,2.546,0.141,3.378-0.187v-0.003c1.487-0.584,2.542-2.307,2.507-4.094c-0.032-1.763-1.013-3.569-2.625-4.828
		c-0.736-0.576-1.44-0.844-1.88-0.717C78.988,208.092,78.752,208.277,78.528,208.502z"/>
</g>
<g>
	<path d="M257.512,492.574c-0.992,0-1.972-0.162-2.903-0.502c-2.38-0.871-4.02-2.615-5.606-4.299
		c-1.159-1.232-2.253-2.395-3.538-3.109c-1.414-0.783-3.113-1.078-5.234-1.275l-0.836-0.078c-1.845-0.164-3.75-0.332-5.623-0.969
		c-2.698-0.914-4.731-2.707-5.582-4.92c-0.704-1.846-0.538-3.775-0.286-5.414c0.641-4.168,2.021-8.135,4.111-11.793
		c0.988-1.736,2.426-3.863,4.77-4.9c0,0,0,0,0-0.004c2.143-0.945,4.466-0.73,6.456-0.393c5.093,0.863,10.015,2.633,14.622,5.268
		c3.407,1.949,5.755,3.93,7.391,6.234c1.661,2.338,2.762,5.318,3.272,8.852c0.694,4.824-0.015,9.041-2.047,12.203
		C264.425,490.67,260.904,492.574,257.512,492.574z M238.202,458.516c-1.406,0.623-2.418,2.164-3.145,3.436
		c-1.873,3.285-3.116,6.848-3.693,10.588c-0.181,1.189-0.312,2.549,0.099,3.633c0.467,1.215,1.75,2.281,3.435,2.854
		c1.474,0.504,3.092,0.646,4.806,0.793l0.856,0.078c2.213,0.213,4.547,0.564,6.605,1.707c1.763,0.977,3.095,2.395,4.387,3.77
		c1.367,1.451,2.661,2.82,4.261,3.41c2.868,1.047,6.179-0.805,7.719-3.203c1.983-3.084,1.927-7.037,1.523-9.809
		c-0.425-2.979-1.322-5.443-2.66-7.326c-1.328-1.873-3.321-3.535-6.271-5.221c-4.249-2.43-8.782-4.061-13.467-4.854
		C241.18,458.119,239.494,457.941,238.202,458.516L238.202,458.516z"/>
	<path d="M244.187,456.504c-1.718,0-3.35-0.475-4.66-0.854c-1.208-0.35-2.858-0.828-4.037-2.156
		c-1.133-1.287-1.625-3.137-1.381-5.213c0.145-1.268,0.523-2.416,0.889-3.527l0.361-1.127c0.4-1.295,0.857-2.766,1.983-3.922l0,0
		c1.317-1.354,3.357-1.988,5.588-1.75c3.71,0.396,7.001,2.961,8.379,6.529c0.845,2.193,0.92,4.555,0.202,6.652
		c-0.804,2.342-2.578,4.195-4.749,4.953C245.905,456.391,245.033,456.504,244.187,456.504z M239.849,442.148
		c-0.539,0.555-0.832,1.508-1.147,2.518l-0.375,1.18c-0.325,0.99-0.634,1.926-0.74,2.84c-0.121,1.045,0.074,1.977,0.527,2.484
		c0.468,0.529,1.321,0.809,2.387,1.119c1.951,0.564,3.683,0.992,5.106,0.492c1.148-0.4,2.139-1.465,2.589-2.781
		c0.447-1.299,0.385-2.848-0.155-4.254c-0.897-2.322-3.1-4.053-5.486-4.307C242.012,441.379,240.649,441.334,239.849,442.148
		L239.849,442.148z"/>
	<path d="M258.773,460.355c-0.677,0-1.36-0.076-2.025-0.232c-2.833-0.666-4.972-2.643-5.458-5.035
		c-0.531-2.627,0.974-4.846,2.178-6.621c0.226-0.336,0.453-0.664,0.662-0.994l0.333-0.543c0.712-1.17,1.597-2.629,3.229-3.387
		c2.277-1.055,4.813-0.213,6.424,0.924c3.435,2.43,4.755,7.207,3.01,10.875C265.678,458.387,262.25,460.355,258.773,460.355z
		 M259.949,446.566c-0.291,0-0.553,0.051-0.779,0.156c-0.669,0.309-1.176,1.145-1.714,2.025l-0.369,0.6
		c-0.226,0.359-0.47,0.721-0.718,1.086c-0.97,1.424-1.884,2.773-1.643,3.959c0.202,1.01,1.389,1.982,2.823,2.32l0,0
		c2.507,0.592,5.382-0.701,6.416-2.873c1.021-2.141,0.181-5.063-1.87-6.512C261.393,446.836,260.611,446.566,259.949,446.566z"/>
	<path d="M271.196,471.428c-0.967,0-1.924-0.186-2.809-0.566l0,0c-1.788-0.781-3.023-2.193-3.902-3.338
		c-1.686-2.195-2.27-4.242-1.731-6.082c0.535-1.814,2.029-3.174,4.575-4.154c1.866-0.719,3.817-1.205,5.804-1.443
		c1.154-0.133,2.503-0.184,3.747,0.504c1.427,0.787,2.351,2.377,2.609,4.477c0.376,3.066-0.563,6.105-2.51,8.131
		C275.435,470.557,273.292,471.428,271.196,471.428z M274.372,459.266c-0.272,0-0.564,0.029-0.826,0.061
		c-1.7,0.201-3.364,0.613-4.957,1.229c-1.438,0.553-2.27,1.184-2.472,1.869c-0.258,0.887,0.482,2.1,1.145,2.965
		c0.924,1.203,1.703,1.902,2.524,2.256l0,0c1.466,0.637,3.427,0.166,4.667-1.121c1.225-1.271,1.81-3.242,1.559-5.271
		c-0.114-0.928-0.422-1.613-0.822-1.838C274.984,459.305,274.69,459.266,274.372,459.266z"/>
</g>
</svg>
