<?xml version="1.0" encoding="utf-8"?>
<!-- Generator: Adobe Illustrator 16.0.3, SVG Export Plug-In . SVG Version: 6.00 Build 0)  -->
<!DOCTYPE svg PUBLIC "-//W3C//DTD SVG 1.1//EN" "http://www.w3.org/Graphics/SVG/1.1/DTD/svg11.dtd">
<svg version="1.1" id="Capa_1" xmlns="http://www.w3.org/2000/svg" xmlns:xlink="http://www.w3.org/1999/xlink" x="0px" y="0px"
	 width="566.93px" height="566.93px" viewBox="0 0 566.93 566.93" enable-background="new 0 0 566.93 566.93" xml:space="preserve">
<path fill="#653333" d="M74.752,429.215c-0.908-8.573,5.312-16.261,13.884-17.165c8.577-0.907,16.261,5.308,17.168,13.884
	c0.906,8.577-5.312,16.262-13.886,17.169C83.344,444.006,75.658,437.791,74.752,429.215z"/>
<circle fill="#653333" cx="476.791" cy="262.496" r="15.614"/>
<circle fill="#653333" cx="218.938" cy="95.132" r="15.613"/>
<g>
	<g>
		<path d="M218.823,186.486c0.48,7.611-0.56,15.363-3.023,22.453c-2.584,7.35-6.65,14.18-11.738,19.768
			c-5.307,5.808-11.776,10.535-18.707,13.74c-7.131,3.263-14.8,5.026-22.792,5.227c-0.421,0-0.842,0.021-1.283,0.021
			c-7.452,0-14.92-1.442-21.632-4.167c-7.03-2.823-13.719-7.25-19.326-12.817c-5.35-5.309-9.715-11.938-12.68-19.188
			c-2.823-7.071-4.206-14.582-4.084-22.353c0.2-14.961,6.431-29.563,17.084-40.039c5.126-5.148,11.276-9.252,17.964-12.117
			c6.711-2.844,13.942-4.446,21.272-4.607c0.4,0,0.781,0,1.162,0c0.119,0,0.219,0,0.319,0c13.321,0,26.761,4.888,36.914,13.461
			c0.081,0.041,0.162,0.06,0.24,0.06h0.34l0.243,0.241c0.5,0.5,0.961,1.081,1.5,1.802
			C211.273,157.785,217.942,171.887,218.823,186.486z M212.716,186.586c0.1-5.427-0.662-10.896-2.204-16.022
			c0,2.042-0.159,4.065-0.44,6.05c-0.402,2.683-1.102,5.308-2.063,7.771c-1.262,3.104-2.723,5.507-4.586,7.571
			c-1.083,1.181-2.002,2.001-3.144,2.944c-1.123,0.9-2.264,1.702-3.446,2.402c-0.6,0.362-1.219,0.702-1.861,1.023
			c-1.923,0.921-4.007,1.643-6.088,2.123c-1.784,0.381-3.607,0.6-5.528,0.662c-1.902,0.039-3.906-0.1-6.029-0.421
			c-1.404-0.221-2.865-0.502-4.367-0.883c-4.786-1.2-8.992-3.004-13.078-4.727l-2.523-1.121c-1.483-0.681-2.946-1.321-4.346-1.923
			c-0.281-0.119-0.581-0.24-0.861-0.359c-1.242-0.521-2.465-1.021-3.646-1.442c-7.671-2.885-14.723-3.425-18.845-1.423
			c-2.246,1.042-3.927,2.846-5.169,5.488c-1.202,2.666-1.842,6.15-1.782,9.815c0.121,7.45,2.683,15.301,7.049,21.57
			c0.44,0.661,0.921,1.261,1.421,1.882c1.104,0.802,2.246,1.542,3.407,2.242c0.419,0.242,0.86,0.461,1.281,0.702
			c0.762,0.421,1.523,0.861,2.304,1.242c0.54,0.281,1.1,0.502,1.661,0.761c0.681,0.321,1.342,0.641,2.023,0.902
			c0.643,0.26,1.281,0.481,1.923,0.719c0.642,0.221,1.261,0.462,1.903,0.662c0.681,0.221,1.381,0.381,2.062,0.581
			c0.623,0.161,1.223,0.34,1.842,0.48c0.702,0.162,1.423,0.3,2.144,0.421c0.622,0.121,1.241,0.259,1.842,0.34
			c0.721,0.119,1.421,0.181,2.145,0.24c0.64,0.079,1.28,0.16,1.942,0.2c0.662,0.04,1.342,0.06,2.023,0.081
			c0.921,0.041,1.823,0.06,2.744,0.041c13.079-0.281,25.797-5.688,34.93-14.863C206.908,212.964,212.516,199.947,212.716,186.586z
			 M199.216,174.009c1.121-3.626,1.723-7.573,1.681-11.457c-0.019-4.308-0.76-8.173-2.223-11.496
			c-0.219-0.502-0.519-1.063-0.861-1.664c-4.446-4.386-9.554-7.973-14.961-10.475c-0.781-0.381-1.562-0.702-2.342-1.023
			c-0.781-0.319-1.562-0.619-2.363-0.881c-0.24-0.1-0.481-0.16-0.721-0.24c-0.562-0.179-1.142-0.381-1.723-0.541
			c-0.261-0.081-0.54-0.14-0.8-0.219c-0.562-0.142-1.123-0.302-1.685-0.442c-0.279-0.06-0.56-0.12-0.84-0.181
			c-0.56-0.119-1.121-0.238-1.702-0.338c-0.281-0.062-0.562-0.102-0.842-0.14c-0.56-0.102-1.141-0.202-1.723-0.262
			c-0.279-0.06-0.558-0.079-0.84-0.1c-0.581-0.079-1.162-0.14-1.742-0.2c-0.3-0.021-0.602-0.041-0.881-0.06
			c-0.562-0.041-1.121-0.081-1.683-0.081c-0.34-0.019-0.662-0.019-1.002-0.04c-0.681-0.02-1.361-0.02-2.021,0
			c-2.125,0.04-4.248,0.259-6.35,0.562c-4.888,0.721-9.654,2.102-14.042,4.125c-6.188,2.846-11.977,7.111-16.765,12.338
			c-4.527,4.988-8.149,11.136-10.434,17.727c-2.223,6.428-3.104,13.219-2.642,20.149c0.081,1.262,0.2,2.523,0.4,3.806
			c0.281-1.423,0.64-2.785,1.1-4.105c1.042-3.065,2.525-5.769,4.367-8.032c1.925-2.423,4.387-4.527,7.109-6.069
			c1.023-0.56,2.084-1.081,3.206-1.502c3.325-1.302,7.071-1.963,11.156-1.963c0.723,0,1.442,0.021,2.144,0.06
			c4.567,0.302,9.194,1.304,14.54,3.206c3.708,1.382,6.95,2.904,10.077,4.365l2.323,1.083c4.506,2.163,7.85,3.565,10.834,4.546
			c3.484,1.142,6.649,1.583,9.454,1.262c1.403-0.139,2.744-0.5,4.146-1.121c0.681-0.3,1.362-0.66,2.042-1.062
			c0.642-0.421,1.385-0.962,1.804-1.283c0.921-0.8,1.904-2.023,2.685-3.385C197.874,177.554,198.555,175.952,199.216,174.009z"/>
	</g>
</g>
<g>
	<g>
		<path d="M553.744,226.417c2.071,7.359,2.912,15.021,2.468,22.795c-1.813,33.36-8.369,46.298-13.171,55.746
			c-3.6,7.1-6.196,12.246-5.702,23.378c0.529,12.019,1.185,26.974-6.197,39.062c-1.222,1.981-2.619,3.802-3.954,5.597
			c-2.065,2.687-3.975,5.257-5.157,8.092c-2.534,6.127-1.942,21.11-0.562,29.118c1.173,6.846-1.081,13.776-3.7,21.761
			c-1.677,5.08-3.392,10.346-4.515,16.36c-0.512,2.792-2.107,11.269-12.788,10.95c-3.357-0.101-8.084-1.373-10.276-4.673
			c-0.992-1.527-1.895-4.089-0.504-7.712c0.861-2.234,2.842-4.161,4.792-6.058c1.133-1.127,2.327-2.284,2.842-3.122
			c2.476-4.174,5.228-10.477,4.283-16.673c-0.083-0.308-0.444-1.538-2.979-5.677c-5.846,7.707-11.868,15.072-19.114,21.422
			c-3.919,3.427-7.117,5.196-12.753,4.754l-0.7-0.054c-3.385-0.22-8.506-0.589-10.528-4.465c-1.964-3.847-1.268-8.712,1.69-11.615
			c2.548-2.523,6.507-3.2,9.676-1.915c2.696-2.361,5.365-4.847,7.315-7.723c2.396-3.531,3.396-7.412,2.727-10.607
			c-0.744-3.688-3.521-6.885-6.445-10.238c-2.393-2.762-4.843-5.584-6.363-8.865c-4.398-0.038-8.99,0.343-13.094,0.712
			c-3,0.246-5.848,0.5-8.415,0.576c-10.302,0.273-19.522,2.196-27.476,5.716c-1.367,16.241-3.01,32.472-4.881,48.205
			c-0.367,3.073-0.846,6.877-2.9,10.146c-3.236,5.185-10.09,7.607-15.864,5.669c-0.879-0.273-1.727-0.481-2.516-0.688
			c-3.092-0.792-8.276-2.107-7.378-8.649c0.671-5.139,5.282-6.131,8.017-6.724c0.8-0.161,2.183-0.453,2.496-0.753
			c1.45-1.45,2.196-3.992,2.008-6.9c-0.148-2.207-0.724-4.453-1.323-6.822c-0.221-0.8-0.442-1.601-0.631-2.4
			c-0.732-3.138-1.276-6.392-1.631-9.945c-3.723,5.084-7.124,10.572-10.459,15.907c-3.209,5.191-6.544,10.557-10.144,15.553
			c-2.198,3.05-4.673,6.185-7.95,8.562c-3.34,2.403-7.042,3.638-10.58,3.53c-0.611-0.016-1.19-0.065-1.768-0.173
			c-5.076-0.792-9.176-4.643-9.955-9.304c-0.438-2.704,0.412-5.607,2.248-7.815c1.71-2.026,4.065-3.207,6.51-3.257
			c0.919-0.004,1.707,0.111,2.437,0.258c0.609,0.076,1.217,0.185,1.584,0.138c1.381-0.207,2.714-2.945,3.204-3.999
			c4.782-9.908,9.699-20.177,11.732-31.019c1.272-6.834,2.3-19.876-5.085-30.387c-1.435-2.06-3.149-3.942-4.953-5.919
			c-1.981-2.198-4.023-4.427-5.748-7.014c-4.214-6.232-14.411-21.778-21.415-35.851l-0.709,0.254
			c-0.402,0.141-0.773,0.252-1.174,0.423l-2.223,0.819c-0.373,0.143-0.711,0.285-1.05,0.396c-0.837,0.342-1.762,0.711-2.75,1.078
			l-5.073,2.141c-0.621,0.287-1.084,0.488-1.269,0.573c-1.52,0.719-3.488,0.143-4.206-1.377c-0.979-2.044,0.127-3.264,1.683-4.227
			c-0.215,0.056-0.431,0.141-0.646,0.196c-0.896,0.308-1.698,0.59-2.408,0.844l-0.619,0.228c-0.709,0.282-1.326,0.509-1.544,0.594
			c-1.544,0.627-3.45-0.012-4.141-1.496c-0.687-1.518,0.351-3.473,1.835-4.192c0.59-0.286,1.458-0.719,2.754-1.2l2.194-0.82
			c0.586-0.196,1.234-0.422,1.913-0.646l0.585-0.196c0.588-0.196,1.173-0.393,1.727-0.56l3.05-0.887
			c1.696-0.5,3.204-0.883,4.649-1.236c-0.399,0.05-0.796,0.101-1.227,0.146l-3.188,0.396c-1.042,0.152-2.207,0.362-3.284,0.573
			l-2.766,0.591c-0.771,0.221-1.354,0.355-1.569,0.411c-1.572,0.44-3.409-0.407-3.913-1.948c-0.504-1.572,0.681-3.401,2.256-3.965
			c0.216-0.085,0.554-0.198,1.018-0.337l0.433-0.14c0.03,0,0.338-0.112,0.369-0.112l0.83-0.219c0.801-0.19,1.478-0.385,2.185-0.516
			l2.396-0.479c1.659-0.317,3.346-0.571,4.633-0.687c1.042-0.123,1.99-0.216,2.909-0.281c-0.273-1.107-0.486-2.12-0.611-3.042
			c0-0.03,0.002-0.062-0.029-0.092c-0.824-4.087-0.44-7.74-0.109-10.692c0.133-1.371,0.262-2.649,0.264-3.719
			c-0.029-1.1-0.472-3.648-0.942-6.35c-1.881-10.715-4.204-24.009,3.26-26.415c5.302-1.675,13.178,6.685,19.174,14.588
			c3.21-0.117,10.482-0.238,16.536,0.584c5.211-7.817,14.842-16.359,20.886-14.224c6.679,2.367,4.784,13.763,2.019,24.555
			l-0.171,0.667c-0.385,1.636-0.219,4.269,0.027,7.331c0.062,1.01,0.149,2.111,0.207,3.244c4.98,3.02,11.123,5.004,17.85,5.723
			c8.038,0.879,16.364,0.21,24.449-0.465c2.756-0.254,5.542-0.478,8.326-0.639c13.769-0.875,31.211,2.179,46.585,4.834
			c13.794,2.426,28.076,4.896,32.289,2.853c9.05-4.435,20.249-24.626,23.041-41.585c3.281-19.94-0.08-36.349-2.346-44.358
			c-1.023-3.571-0.702-6.221,0.937-7.913c0.756-0.771,2.44-1.973,5.321-1.246C545.366,212.331,551.479,218.346,553.744,226.417z
			 M550.145,248.879c0.016-0.488,0.062-0.975,0.073-1.463c0.196-6.621-0.589-13.09-2.357-19.341
			c-1.629-5.821-5.611-9.544-7.716-10.644c0.051,0.306,0.131,0.737,0.299,1.26c2.405,8.471,5.949,25.893,2.482,47.017
			c-3.165,19.209-15.473,40.743-26.382,46.07c-5.702,2.761-17.405,0.917-36.001-2.323c-15.072-2.615-32.148-5.565-45.183-4.762
			c-2.723,0.164-5.449,0.389-8.203,0.612c-8.361,0.697-16.993,1.419-25.61,0.492c-8.28-0.92-15.838-3.525-21.857-7.554
			c-0.808-0.542-1.3-1.442-1.334-2.421c-0.073-1.652-0.177-3.212-0.289-4.652c-0.261-3.55-0.504-6.642,0.152-9.219l0.173-0.696
			c3.806-14.977,1.798-17.295,1.738-17.388c-1.767-0.144-9.743,5.177-14.57,13.433c-0.643,1.111-1.942,1.683-3.188,1.463
			c-7.32-1.377-18.699-0.77-18.791-0.771c-1.041,0.06-2.035-0.396-2.623-1.209c-5.107-6.869-11.276-13.1-13.492-13.625
			c-1.379,1.211-1.054,7.757,0.98,19.424c0.547,3.223,0.992,5.74,1.035,7.361c0.019,1.435-0.146,2.896-0.315,4.419
			c-0.296,2.861-0.601,5.815,0.098,9.073c0.025,0.153,0.052,0.308,0.079,0.492c0.23,1.471,0.723,3.35,1.484,5.509
			c-0.002,0.062,0.027,0.095,0.027,0.154c0.026,0.063,0.058,0.094,0.054,0.155c0.536,1.543,1.161,3.119,1.877,4.788
			c0.026,0.062,0.056,0.123,0.084,0.187c0.029,0.031,0.027,0.062,0.058,0.093c0.458,1.083,0.976,2.167,1.491,3.282
			c0.028,0.062,0.058,0.123,0.086,0.185c0,0.031,0.029,0.063,0.027,0.123c6.814,14.284,17.772,30.949,22.16,37.462
			c1.462,2.183,3.296,4.19,5.188,6.294c1.863,2.039,3.786,4.143,5.427,6.514c6.415,9.171,8.582,21.601,6.077,35.031
			c-2.148,11.63-7.258,22.261-12.208,32.561c-1.072,2.165-3.253,6.715-7.884,7.368c-1.258,0.178-2.442-0.011-3.387-0.161
			c-0.395-0.073-0.819-0.146-1.217-0.157c-0.062-0.004-0.091-0.004-0.152-0.004c-0.671,0.008-1.355,0.385-1.925,1.072
			c-0.696,0.835-1.034,1.954-0.881,2.904c0.335,2.058,2.419,3.892,4.852,4.269s5.298-0.453,7.825-2.304
			c2.562-1.85,4.687-4.534,6.566-7.165c3.502-4.846,6.744-10.092,9.919-15.191c4.845-7.826,9.879-15.892,15.921-22.86
			c0.821-0.954,2.146-1.308,3.354-0.877c1.179,0.431,1.971,1.522,1.994,2.776c0.173,6.542,0.779,11.877,1.946,16.765
			c0.19,0.77,0.383,1.539,0.602,2.308c0.66,2.558,1.345,5.173,1.506,7.988c0.317,4.712-1.026,8.827-3.734,11.584
			c-1.542,1.546-3.694,2-5.569,2.4c-2.89,0.646-3.175,0.946-3.284,1.584c-0.081,0.7,0.002,0.978,0.002,0.978
			c0.296,0.284,1.812,0.665,2.842,0.907c0.942,0.242,1.94,0.516,2.97,0.854c3.084,1.039,7.005-0.373,8.767-3.13
			c1.317-2.131,1.677-5.05,1.968-7.639c1.949-16.253,3.636-32.968,5.021-49.756c0.093-1.065,0.732-2.026,1.723-2.484
			c9.079-4.373,19.687-6.746,31.547-7.064c2.383-0.055,5.141-0.309,8.048-0.555c4.9-0.438,10.473-0.911,15.844-0.691
			c1.279,0.068,2.385,0.927,2.775,2.13c0.979,3.054,3.399,5.843,5.971,8.788c3.306,3.827,6.761,7.777,7.826,13.03
			c0.984,4.885-0.304,10.312-3.657,15.254c-2.812,4.134-6.48,7.318-10.052,10.36c-1.159,1.004-2.901,0.981-4.06-0.058
			c-0.892-0.822-2.699-0.692-3.642,0.258c-1.069,1.035-1.312,3.016-0.562,4.474c0.288,0.558,2.14,0.945,5.524,1.169l0.76,0.054
			c3.506,0.288,5.211-0.607,8.254-3.266c7.901-6.911,14.38-15.303,20.898-23.995c0.575-0.808,1.535-1.269,2.542-1.238
			c0.978,0.027,1.908,0.546,2.464,1.385c5.052,7.784,5.986,10.257,6.217,11.761c1.004,6.354-0.768,13.508-5.074,20.738
			c-0.871,1.534-2.315,2.896-3.795,4.376c-1.322,1.308-2.988,2.908-3.354,3.904c-0.562,1.419-0.211,1.949-0.094,2.134
			c0.729,1.123,3.365,1.873,5.348,1.931c5.065,0.15,5.935-2.357,6.592-5.973c1.228-6.411,3.077-12.096,4.723-17.118
			c2.354-7.23,4.402-13.492,3.492-18.83c-1.199-6.969-2.554-24.084,0.936-32.501c1.479-3.56,3.736-6.548,5.93-9.443
			c1.304-1.732,2.543-3.377,3.603-5.085c6.421-10.499,5.794-24.444,5.332-35.637c-0.569-12.723,2.643-19.041,6.344-26.384
			C542.398,292.753,548.367,280.957,550.145,248.879z"/>
	</g>
</g>
<g>
	<g>
		<path d="M260.919,299.816c2.84,5.434,2.931,11.876,1.558,17.614c-1.344,5.8-4.152,11.082-7.448,15.844
			c-3.329,4.794-7.298,9.066-11.604,12.915c-4.242,3.846-8.944,7.386-13.89,10.348c-7.479,4.457-15.661,7.814-24.239,9.678
			c-0.123,0.458-0.181,0.916-0.334,1.373c-0.946,2.964-2.627,5.648-4.885,7.938c6.808,49.792-38.956,110.359-87.1,130.512
			c-7.327,3.081-17.003,0.273-20.818-5.499c-3.846-5.8-1.527-12.026,4.548-14.562c38.039-15.784,80.045-65.882,78.489-104.284
			c-1.985-0.273-3.969-0.704-5.923-1.373c-1.71-0.611-3.419-1.435-4.975-2.596c-0.796-0.581-1.558-1.252-2.261-2.046l-1.617-1.862
			l-6.229-7.326l-6.134-7.449l-0.765-0.916l-0.456-0.58l-0.367-0.458c-0.213-0.273-0.581-0.885-0.854-1.312
			c-0.247-0.458-0.458-0.887-0.673-1.313c-0.792-1.771-1.312-3.54-1.588-5.313c-0.334-2.044-0.396-4.06-0.334-6.074l5.496-0.121
			c0.031,1.771,0.183,3.48,0.519,5.159c0.304,1.373,0.669,2.687,1.25,3.846l0.427,0.794c0.185,0.244,0.185,0.365,0.459,0.733
			l0.396,0.457c0,0,0.213,0.244,0.306,0.367l0.763,0.916l6.229,7.326l6.134,7.419l1.496,1.8c0.367,0.427,0.825,0.856,1.313,1.224
			c0.977,0.761,2.198,1.403,3.48,1.921c5.28,2.077,11.632,2.321,17.463,1.375c2.961-0.52,5.738-1.466,8.057-3.054
			c2.231-1.617,4.185-3.998,5.344-6.685c1.74-3.756,1.984-8.213,0.702-12.396l1.069-0.335c0.915,1.893,1.527,3.938,1.769,6.075
			c7.296-1.71,14.38-4.579,20.913-8.336c9.373-5.371,17.92-12.607,24.545-21.094c3.267-4.275,5.952-9.006,7.479-14.074
			c1.496-5.039,1.711-10.532-0.396-15.294c-1.954-4.641-6.075-8.244-10.899-10.38l0.704-1.496
			C253.256,291.055,258.202,294.564,260.919,299.816z"/>
		<path d="M248.038,289.223l-0.704,1.496c-0.152-0.063-0.334-0.152-0.488-0.214c-5.037-2.107-10.684-2.931-16.271-3.115
			c4.975-0.396,10.075-0.212,15.021,1.131c-0.977-2.992-2.352-5.8-4.211-8.213c-3.269-4.425-8.092-7.386-13.373-8.456
			c-5.313-1.1-10.899-0.55-16.149,1.069c-10.563,3.327-19.966,10.134-27.752,18.193c-6.959,7.268-12.484,15.937-15.875,25.34
			c2.136,0.488,4.183,1.282,5.984,2.411l-0.519,1.192c-3.633-1.558-7.633-1.925-11.296-0.979c-2.869,0.701-5.494,2.167-7.54,4.151
			c-1.923,1.893-3.327,4.55-4.304,7.357c-1.313,3.938-2.077,8.244-2.046,12.365l-5.496,0.121
			c-37.61-8.363-94.395,24.208-116.649,58.953c-3.542,5.554-10.105,6.746-15.111,1.954c-5.038-4.796-6.077-14.808-1.771-21.492
			c28.239-43.842,95.86-78.277,143.667-62.922c2.594-1.831,5.617-3.021,8.7-3.419c0.031,0,0.062,0,0.062,0
			c3.725-10.929,10.013-20.913,18.072-29.063c8.519-8.334,18.684-15.6,30.589-18.746c5.892-1.527,12.273-2.015,18.35-0.396
			c6.075,1.588,11.568,5.434,14.928,10.653C245.96,281.865,247.303,285.497,248.038,289.223z"/>
		<path d="M232.896,312.302c0.304,3.021-0.215,6.288-1.681,9.067c-1.404,2.808-3.6,5.098-5.923,6.931
			c-4.638,3.57-9.311,6.501-14.011,9.646l-11.204,7.205c1.985,3.052,3.815,6.229,5.312,9.71c-0.519-0.337-0.977-0.704-1.465-1.039
			l-1.069,0.335c-0.123-0.488-0.275-0.977-0.458-1.435c-2.473-1.861-4.761-3.907-6.931-6.014c-3.054-2.933-5.954-6.015-8.638-9.251
			c-2.688-3.204-5.221-6.594-7.573-10.104c-1.435-2.107-2.746-4.275-4-6.534c-0.518-0.275-1.037-0.551-1.556-0.762l0.519-1.192
			c-0.429-0.885-0.856-1.8-1.252-2.717c3.664,2.411,6.869,5.221,9.923,8.151c0.334,0.306,0.609,0.641,0.946,0.946
			c1.739-1.954,3.481-3.908,5.281-5.831c3.908-4.304,7.784-8.671,11.938-12.854c2.044-2.046,4.183-4.334,6.99-5.953
			c2.717-1.648,6.044-2.533,9.25-2.288c3.632,0.334,6.778,1.679,9.647,3.449c-0.673-1.558-1.435-3.054-2.2-4.55
			c-0.608-1.28-1.25-2.532-1.831-3.846c-0.458-1.312-1.25-2.718-0.671-4.458c0.367-0.884,1.252-1.219,1.985-1.342
			c0.732-0.154,1.434-0.123,2.136-0.154c1.404-0.06,2.808-0.06,4.213-0.03c-1.406,0.123-2.779,0.276-4.183,0.488
			c-1.312,0.185-2.992,0.306-3.296,1.375c-0.308,1.038,0.365,2.411,0.977,3.571c0.641,1.223,1.342,2.411,2.075,3.604
			C229.048,301.189,232.161,306.228,232.896,312.302z M228.163,319.69c1.283-2.137,1.833-4.609,1.74-7.175
			c-0.062-2.504-0.673-5.008-1.588-7.45c-3.511-2.167-7.296-3.784-11.111-3.784c-2.627,0-5.162,0.823-7.327,2.288
			c-2.2,1.437-4,3.543-5.923,5.71c-3.787,4.336-7.542,8.763-11.265,13.249c-1.773,2.105-3.542,4.244-5.313,6.35
			c1.437,1.527,2.81,3.054,4.152,4.671c1.954,2.353,3.815,4.795,5.588,7.296c3.877-2.318,7.754-4.638,11.63-6.928
			c4.792-2.871,9.677-5.771,14.134-8.794C225.05,323.629,226.911,321.857,228.163,319.69z"/>
		<path d="M184.903,347.472c0.306-2.383-0.427-4.915-1.954-6.869c3.39,3.998,4,10.592,0.154,15.477
			c-1.986,2.504-5.221,4.306-8.702,4.519c-3.511,0.245-7.173-1.161-9.646-3.755c-2.503-2.563-3.817-6.319-3.45-9.77
			c0.334-3.509,2.227-6.686,4.823-8.578c5.039-3.663,11.569-2.808,15.479,0.732c-1.894-1.586-4.398-2.411-6.81-2.197
			c-2.715,0.244-5.096,1.679-6.532,3.663c-2.9,4.09-1.892,9.128,0.855,11.907c2.685,2.869,7.692,4.06,11.875,1.28
			C183.011,352.539,184.567,350.156,184.903,347.472z"/>
	</g>
</g>
<g>
	<g>
		<path d="M505.785,129.378c0.917,3.175,0.488,6.167-0.031,8.121l-5.951,24.057l-9.494,37.214c-0.185,0.671-0.337,1.342-0.55,2.046
			c-0.367,1.281-0.885,2.504-1.466,3.754c-1.161,2.29-2.657,4.396-4.457,6.29c-3.754,3.937-8.365,6.594-13.312,7.663
			c-1.403,0.335-2.776,0.489-4.121,0.518l-83.861,0.429l-83.922-0.429c-1.466-0.06-2.9-0.245-4.214-0.579
			c-4.917-1.192-9.465-3.848-13.159-7.755c-1.8-1.923-3.296-4.029-4.427-6.288c-0.609-1.19-1.098-2.442-1.496-3.664l-4.119-15.142
			l-6.473-23.995l-6.319-24.026c-0.766-2.719-0.825-5.588-0.154-8.062c0.396-1.465,1.038-2.869,1.923-4.121
			c-0.823-1.006-1.435-2.075-1.831-3.237c-0.916-2.288-0.854-5.373,0.183-8.18l6.959-21.828l9.342-28.545
			c0.185-0.579,0.398-1.16,0.642-1.831c0.488-1.252,1.069-2.412,1.8-3.542c2.504-3.846,6.229-7.051,10.838-9.219
			c2.2-1.038,4.458-1.771,6.777-2.198c1.192-0.213,2.473-0.367,3.665-0.398l14.53-0.183l19.478-0.152
			c0.275-2.077,0.856-4.123,1.74-6.015c8.212-18.53,26.438-30.039,47.563-30.039c21.157,0,39.384,11.509,47.595,30.039
			c0.854,1.925,1.435,3.969,1.738,6.015l34.956,0.335c1.222,0,2.442,0.123,3.665,0.306c2.351,0.427,4.639,1.13,6.839,2.107
			c4.607,2.137,8.363,5.312,10.896,9.157c0.796,1.283,1.346,2.35,1.833,3.573l0.979,2.961l8.515,27.627l6.657,22.134
			c0.978,2.687,0.946,5.708-0.092,8.15c-0.396,1.007-0.946,1.956-1.681,2.84C504.656,126.54,505.357,127.913,505.785,129.378z
			 M499.862,135.973c0.457-1.74,0.488-3.45,0.062-4.854c-0.273-0.946-0.762-1.861-1.404-2.655
			c-2.992,1.709-6.685,2.655-10.988,2.808H276.363c-4.334-0.152-7.969-1.067-10.929-2.717c-0.609,0.794-1.038,1.681-1.282,2.596
			c-0.396,1.373-0.335,3.145,0.154,4.823l6.319,24.087l10.561,38.954c0.277,0.856,0.642,1.771,1.069,2.656
			c0.884,1.74,2.046,3.357,3.418,4.854c2.869,3.023,6.412,5.1,10.167,6.015c0.916,0.213,1.954,0.366,2.931,0.396l34.101,0.275
			l49.67,0.152l83.802-0.427c0.885-0.031,1.861-0.152,2.869-0.366c3.754-0.825,7.296-2.869,10.196-5.923
			c1.373-1.435,2.534-3.084,3.388-4.794c0.458-0.916,0.825-1.861,1.101-2.748c0.185-0.64,0.334-1.25,0.488-1.831l9.494-37.214
			L499.862,135.973z M498.643,119.885c0.335-0.916,0.242-1.923-0.246-3.115l-7.875-21.826l-10.501-29.797
			c-0.185-0.429-0.52-1.039-0.854-1.527c-1.498-2.167-3.879-4.029-6.72-5.221c-1.403-0.579-2.808-0.975-4.242-1.16
			c-0.673-0.121-1.403-0.183-2.046-0.152l-37.55,0.365l-46.188,0.123l-83.711-0.458c-0.701,0-1.344,0.062-2.074,0.152
			c-1.375,0.213-2.779,0.64-4.183,1.252c-2.871,1.251-5.252,3.144-6.748,5.28c-0.365,0.55-0.643,1.1-0.854,1.619
			c-0.216,0.458-0.396,1.039-0.611,1.588l-10.381,28.024l-8.211,21.615c-0.154,0.396-0.275,0.732-0.396,1.098
			c-0.031,0.185-0.092,0.429-0.123,0.702c-0.062,0.55-0.031,1.01,0.123,1.437c0.273,0.946,1.008,1.861,2.106,2.687
			c2.198,1.556,5.342,2.473,9.098,2.594h210.953c3.631-0.121,6.808-1.038,9.034-2.594
			C497.573,121.777,498.337,120.8,498.643,119.885z M412.827,51.378l13.553-0.029c-0.671-0.581-1.098-1.344-1.098-2.231
			c0.03-2.196-0.46-4.517-1.375-6.532c-7.234-16.301-23.353-26.438-42.037-26.438c-18.684,0-34.771,10.136-42.006,26.407
			c-0.917,2.046-1.405,4.367-1.405,6.563c0.03,0.887-0.337,1.681-0.946,2.231l13.463,0.029c-0.244-0.213-0.458-0.458-0.643-0.764
			c-0.55-0.946-0.55-2.105-0.03-3.052c5.435-12.272,17.555-19.874,31.567-19.874c14.042,0,26.134,7.602,31.597,19.874
			c0.551,0.946,0.551,2.075,0,3.052C413.284,50.89,413.069,51.165,412.827,51.378z M382.39,45.943l23.263,0.062
			c-5.159-7.663-13.859-12.211-23.782-12.211c-9.953,0-18.684,4.579-23.781,12.211L382.39,45.943z"/>
		<path d="M458.558,147.757l0.031,49.671c0,1.769-1.496,3.204-3.329,3.204c-1.831,0-3.327-1.435-3.327-3.204l-0.03-49.671
			c-0.029-1.771,1.465-3.206,3.296-3.206C457.062,144.551,458.529,145.985,458.558,147.757z"/>
		<path d="M445.249,147.757l0.028,49.671c0,1.8-1.463,3.234-3.326,3.234c-1.833,0-3.329-1.435-3.329-3.206l-0.029-49.669
			c0-1.771,1.464-3.206,3.329-3.206C443.753,144.582,445.249,146.017,445.249,147.757z"/>
		<path d="M431.938,147.788l0.031,49.669c0,1.771-1.466,3.206-3.327,3.206c-1.835,0-3.3-1.435-3.3-3.206l-0.06-49.669
			c0-1.771,1.494-3.206,3.327-3.206C430.441,144.582,431.938,146.017,431.938,147.788z"/>
		<path d="M418.627,147.788l0.062,49.669c0,1.771-1.496,3.236-3.327,3.236c-1.863,0-3.328-1.435-3.328-3.236l-0.063-49.669
			c0-1.74,1.496-3.175,3.329-3.175C417.131,144.613,418.627,146.017,418.627,147.788z"/>
		<path d="M405.315,147.818l0.062,49.669c0,1.771-1.496,3.206-3.326,3.206c-1.833,0-3.329-1.435-3.329-3.206l-0.06-49.669
			c0-1.771,1.494-3.206,3.327-3.206C403.819,144.613,405.315,146.047,405.315,147.818z"/>
		<path d="M392.005,147.818l0.062,49.669c0,1.771-1.496,3.206-3.327,3.206c-1.83,0-3.326-1.435-3.326-3.206l-0.062-49.669
			c0-1.74,1.496-3.177,3.326-3.206C390.509,144.613,392.005,146.047,392.005,147.818z"/>
		<path d="M378.695,147.849l0.06,49.669c0,1.74-1.494,3.175-3.326,3.175c-1.831,0-3.327-1.404-3.327-3.175l-0.062-49.669
			c0-1.771,1.496-3.208,3.327-3.208C377.23,144.642,378.695,146.078,378.695,147.849z"/>
		<path d="M365.387,147.849l0.062,49.669c0,1.771-1.468,3.206-3.329,3.206c-1.832,0-3.328-1.435-3.328-3.206l-0.031-49.669
			c0-1.771,1.466-3.208,3.327-3.208C363.919,144.642,365.387,146.078,365.387,147.849z"/>
		<path d="M352.106,147.88l0.028,49.638c0,1.771-1.465,3.206-3.296,3.206c-1.863,0-3.359-1.435-3.359-3.175l-0.03-49.669
			c0-1.802,1.465-3.238,3.328-3.238C350.61,144.642,352.106,146.078,352.106,147.88z"/>
		<path d="M338.795,147.88l0.031,49.669c0,1.771-1.466,3.206-3.298,3.206c-1.863,0-3.329-1.435-3.359-3.206l-0.029-49.669
			c0-1.773,1.494-3.206,3.327-3.206C337.299,144.674,338.795,146.107,338.795,147.88z"/>
		<path d="M325.484,147.88l0.062,49.669c0,1.771-1.496,3.206-3.327,3.206c-1.832,0-3.328-1.435-3.328-3.206l-0.062-49.638
			c0-1.804,1.498-3.236,3.328-3.236C323.988,144.674,325.484,146.107,325.484,147.88z"/>
		<path d="M312.173,147.911l0.062,49.669c0,1.74-1.496,3.206-3.326,3.206c-1.833,0-3.329-1.435-3.329-3.206l-0.06-49.669
			c0-1.771,1.494-3.208,3.327-3.208C310.677,144.703,312.173,146.14,312.173,147.911z"/>
	</g>
</g>
<g>
	<path d="M275.39,468.763c-1.359,0-2.704-0.223-3.98-0.688c-3.258-1.195-5.508-3.58-7.681-5.892
		c-1.588-1.688-3.088-3.276-4.85-4.258c-1.933-1.077-4.265-1.477-7.173-1.754l-1.146-0.1c-2.527-0.227-5.139-0.458-7.704-1.331
		c-3.7-1.254-6.488-3.711-7.646-6.742c-0.969-2.53-0.742-5.173-0.396-7.422c0.879-5.708,2.773-11.143,5.634-16.157
		c1.354-2.377,3.323-5.292,6.534-6.72l0.004-0.003c2.931-1.297,6.117-1,8.846-0.539c6.98,1.181,13.723,3.611,20.038,7.223
		c4.669,2.67,7.886,5.381,10.126,8.538c2.279,3.208,3.787,7.288,4.484,12.135c0.952,6.607-0.015,12.388-2.802,16.726
		C284.866,466.155,280.042,468.763,275.39,468.763z M248.93,422.088c-1.931,0.857-3.319,2.969-4.312,4.708
		c-2.569,4.503-4.269,9.384-5.059,14.511c-0.252,1.631-0.433,3.496,0.134,4.98c0.637,1.661,2.396,3.127,4.706,3.907
		c2.021,0.688,4.238,0.885,6.584,1.093l1.173,0.107c3.037,0.284,6.234,0.77,9.054,2.335c2.415,1.342,4.244,3.284,6.011,5.161
		c1.877,1.992,3.646,3.873,5.84,4.677c3.933,1.438,8.469-1.101,10.58-4.389c2.718-4.227,2.637-9.642,2.089-13.441
		c-0.587-4.081-1.814-7.462-3.645-10.038c-1.823-2.573-4.556-4.843-8.598-7.153c-5.825-3.327-12.034-5.569-18.455-6.658
		C253.01,421.55,250.701,421.304,248.93,422.088L248.93,422.088z"/>
	<path d="M257.127,419.334c-2.352,0-4.59-0.649-6.386-1.169c-1.654-0.48-3.917-1.139-5.531-2.961
		c-1.556-1.758-2.227-4.293-1.894-7.139c0.202-1.738,0.717-3.312,1.219-4.838l0.494-1.539c0.55-1.776,1.173-3.792,2.719-5.376l0,0
		c1.806-1.854,4.6-2.728,7.657-2.4c5.084,0.546,9.592,4.062,11.48,8.946c1.161,3.007,1.261,6.245,0.277,9.114
		c-1.1,3.216-3.535,5.754-6.507,6.792C259.479,419.177,258.291,419.334,257.127,419.334z M251.187,399.662
		c-0.74,0.758-1.146,2.065-1.573,3.449l-0.519,1.616c-0.446,1.357-0.866,2.638-1.012,3.892c-0.167,1.431,0.104,2.704,0.723,3.408
		c0.638,0.723,1.808,1.104,3.273,1.526c2.669,0.773,5.044,1.365,6.996,0.681c1.569-0.55,2.931-2.012,3.548-3.815
		c0.609-1.776,0.529-3.903-0.214-5.83c-1.229-3.181-4.25-5.554-7.515-5.903C254.148,398.604,252.279,398.539,251.187,399.662
		L251.187,399.662z"/>
	<path d="M277.121,424.611c-0.931,0-1.863-0.104-2.78-0.315c-3.877-0.916-6.812-3.623-7.477-6.9
		c-0.727-3.607,1.333-6.642,2.989-9.08c0.308-0.458,0.615-0.907,0.904-1.357l0.458-0.746c0.975-1.604,2.188-3.6,4.427-4.639
		c3.119-1.45,6.59-0.296,8.799,1.266c4.708,3.327,6.521,9.873,4.127,14.903C286.582,421.915,281.882,424.611,277.121,424.611z
		 M278.729,405.712c-0.395,0-0.758,0.069-1.065,0.215c-0.917,0.424-1.613,1.569-2.348,2.777l-0.505,0.823
		c-0.313,0.492-0.648,0.988-0.989,1.484c-1.327,1.953-2.577,3.8-2.25,5.431c0.277,1.381,1.903,2.715,3.867,3.177l0,0
		c3.435,0.812,7.379-0.962,8.794-3.938c1.396-2.935,0.246-6.938-2.562-8.923C280.713,406.081,279.64,405.712,278.729,405.712z"/>
	<path d="M294.142,439.787c-1.325,0-2.637-0.254-3.845-0.784l0,0c-2.453-1.069-4.147-3-5.35-4.569
		c-2.312-3.004-3.111-5.808-2.373-8.33c0.731-2.492,2.781-4.357,6.27-5.7c2.556-0.984,5.23-1.646,7.953-1.969
		c1.581-0.188,3.431-0.254,5.135,0.685c1.953,1.076,3.223,3.254,3.578,6.138c0.514,4.2-0.771,8.365-3.443,11.139
		C299.951,438.587,297.017,439.787,294.142,439.787z M298.495,423.119c-0.375,0-0.773,0.038-1.133,0.08
		c-2.323,0.277-4.611,0.843-6.792,1.685c-1.971,0.758-3.111,1.619-3.389,2.565c-0.354,1.208,0.658,2.877,1.569,4.062
		c1.266,1.646,2.335,2.6,3.46,3.092h0.002c2.007,0.873,4.695,0.228,6.397-1.538c1.679-1.742,2.477-4.442,2.133-7.223
		c-0.154-1.273-0.577-2.216-1.127-2.516C299.339,423.173,298.932,423.119,298.495,423.119z"/>
</g>
</svg>
